0
SECTION
2
ENTITIES
0
ARC
8
0
10
1.6398
20
0.4934
40
0.185
50
282.572445004227
51
330.040025280803
0
ARC
8
0
10
1.6942
20
0.2493
40
0.185
50
55.0815562391396
51
102.572445004227
0
ARC
8
0
10
1.6398
20
0.4934
40
0.065
50
110.866252147998
51
282.538376142515
0
ARC
8
0
10
1.5505
20
0.7269
40
0.185
50
290.950857529578
51
338.428692808745
0
ARC
8
0
10
1.6398
20
0.4934
40
0.185
50
63.4487984188604
51
110.921950692836
0
ARC
8
0
10
1.5505
20
0.7269
40
0.065
50
119.251908743447
51
290.948759059099
0
ARC
8
0
10
1.4282
20
0.9449
40
0.185
50
299.307165723062
51
346.775448807786
0
ARC
8
0
10
1.5505
20
0.7269
40
0.185
50
71.8197844965181
51
119.307165723062
0
ARC
8
0
10
1.4282
20
0.9449
40
0.065
50
127.681548263427
51
299.251908743447
0
ARC
8
0
10
1.2754
20
1.1427
40
0.185
50
307.687556794568
51
355.192623045363
0
ARC
8
0
10
1.4282
20
0.9449
40
0.185
50
80.1965445949016
51
127.693127365327
0
ARC
8
0
10
1.2754
20
1.1427
40
0.065
50
136.059757533998
51
307.665621198583
0
ARC
8
0
10
1.0954
20
1.3163
40
0.185
50
316.028892689024
51
3.53382149412168
0
ARC
8
0
10
1.2754
20
1.1427
40
0.185
50
88.5756416786726
51
136.050377888464
0
ARC
8
0
10
1.0954
20
1.3163
40
0.065
50
144.400780041024
51
315.998518150079
0
ARC
8
0
10
0.8921
20
1.4617
40
0.185
50
324.437121426955
51
11.9237706330565
0
ARC
8
0
10
1.0954
20
1.3163
40
0.185
50
96.9559574042678
51
144.455125149966
0
ARC
8
0
10
0.8921
20
1.4617
40
0.065
50
152.804050391173
51
324.349353439798
0
ARC
8
0
10
0.6697
20
1.576
40
0.185
50
332.79804759053
51
20.3059260450082
0
ARC
8
0
10
0.8921
20
1.4617
40
0.185
50
105.320283053138
51
152.812193135715
0
ARC
8
0
10
0.6697
20
1.576
40
0.065
50
161.118309513063
51
332.763698865374
0
ARC
8
0
10
0.4331
20
1.6568
40
0.185
50
341.153984991405
51
28.6574335415571
0
ARC
8
0
10
0.6697
20
1.576
40
0.185
50
113.670150067724
51
161.153984991405
0
ARC
8
0
10
0.4331
20
1.6568
40
0.065
50
169.521386880473
51
341.118309513062
0
ARC
8
0
10
0.1873
20
1.7022
40
0.185
50
349.540090907071
51
37.0434080202977
0
ARC
8
0
10
0.4331
20
1.6568
40
0.185
50
122.057905965928
51
169.570537484227
0
ARC
8
0
10
0.1873
20
1.7022
40
0.065
50
177.882168878283
51
349.434576396729
0
ARC
8
0
10
-0.0625
20
1.7113
40
0.185
50
357.924749386323
51
45.4162908813534
0
ARC
8
0
10
0.1873
20
1.7022
40
0.185
50
130.440049912588
51
177.925870163385
0
ARC
8
0
10
-0.0625
20
1.7113
40
0.065
50
186.272040468519
51
357.878903603338
0
ARC
8
0
10
-0.311
20
1.684
40
0.185
50
6.26837113231344
51
53.7994730445778
0
ARC
8
0
10
-0.0625
20
1.7113
40
0.185
50
138.811163019508
51
186.292365563768
0
ARC
8
0
10
-0.311
20
1.684
40
0.065
50
194.613457539315
51
6.20344790169194
0
ARC
8
0
10
-0.5529
20
1.6207
40
0.185
50
14.6820985387444
51
62.1462190522594
0
ARC
8
0
10
-0.311
20
1.684
40
0.185
50
147.203361489362
51
194.674254729885
0
ARC
8
0
10
-0.5529
20
1.6207
40
0.065
50
203.013317822257
51
14.6357289998396
0
ARC
8
0
10
-0.783
20
1.5229
40
0.185
50
23.0319034823116
51
70.5170148204139
0
ARC
8
0
10
-0.5529
20
1.6207
40
0.185
50
155.540666554967
51
203.019795753686
0
ARC
8
0
10
-0.783
20
1.5229
40
0.065
50
211.341791291194
51
23.0478430101124
0
ARC
8
0
10
-0.9964
20
1.3927
40
0.185
50
31.4046071720026
51
78.9027006589063
0
ARC
8
0
10
-0.783
20
1.5229
40
0.185
50
163.905751087552
51
211.388476547342
0
ARC
8
0
10
-0.9964
20
1.3927
40
0.065
50
219.749055249958
51
31.3877133362976
0
ARC
8
0
10
-1.1886
20
1.2328
40
0.185
50
39.7619790703371
51
87.2412652224037
0
ARC
8
0
10
-0.9964
20
1.3927
40
0.185
50
172.294822236233
51
219.785763383895
0
ARC
8
0
10
-1.1886
20
1.2328
40
0.065
50
228.183290636832
51
39.6811136310929
0
ARC
8
0
10
-1.3554
20
1.0466
40
0.185
50
48.132465198568
51
95.6458765465956
0
ARC
8
0
10
-1.1886
20
1.2328
40
0.185
50
180.650356591658
51
228.153122198473
0
ARC
8
0
10
-1.3554
20
1.0466
40
0.065
50
236.554575647879
51
48.1243982546938
0
ARC
8
0
10
-1.4933
20
0.8381
40
0.185
50
56.5074737282917
51
104.021213095891
0
ARC
8
0
10
-1.3554
20
1.0466
40
0.185
50
189.049909696691
51
236.52455455797
0
ARC
8
0
10
-1.4933
20
0.8381
40
0.065
50
244.855214369321
51
56.5058984632301
0
ARC
8
0
10
-1.5995
20
0.6117
40
0.185
50
64.8746556621963
51
112.364975210608
0
ARC
8
0
10
-1.4933
20
0.8381
40
0.185
50
197.387270628186
51
244.887791192298
0
ARC
8
0
10
-1.5995
20
0.6117
40
0.065
50
253.266957935086
51
64.8176818940198
0
ARC
8
0
10
-1.6715
20
0.3723
40
0.185
50
73.2592349433568
51
120.72469347079
0
ARC
8
0
10
-1.5995
20
0.6117
40
0.185
50
205.775101371436
51
253.297791066665
0
ARC
8
0
10
-1.6715
20
0.3723
40
0.065
50
261.582734452432
51
73.1569668367331
0
ARC
8
0
10
-1.7079
20
0.125
40
0.185
50
81.6422218967252
51
129.119403146469
0
ARC
8
0
10
-1.6715
20
0.3723
40
0.185
50
214.136809189995
51
261.642221896725
0
ARC
8
0
10
-1.7079
20
0.125
40
0.065
50
270.000000882831
51
81.5827344524323
0
ARC
8
0
10
-1.7079
20
-0.125
40
0.185
50
89.9999996904604
51
137.476230977889
0
ARC
8
0
10
-1.7079
20
0.125
40
0.185
50
222.52376902211
51
270.030953956747
0
ARC
8
0
10
-1.7079
20
-0.125
40
0.065
50
278.404362041278
51
89.9117168965024
0
ARC
8
0
10
-1.6715
20
-0.3723
40
0.185
50
98.3622806317371
51
145.888837131752
0
ARC
8
0
10
-1.7079
20
-0.125
40
0.185
50
230.900133220169
51
278.383892905398
0
ARC
8
0
10
-1.6715
20
-0.3723
40
0.065
50
286.733042064913
51
98.3427248777367
0
ARC
8
0
10
-1.5995
20
-0.6117
40
0.185
50
106.740765056643
51
154.252810277172
0
ARC
8
0
10
-1.6715
20
-0.3723
40
0.185
50
239.291125699156
51
286.761483572733
0
ARC
8
0
10
-1.5995
20
-0.6117
40
0.065
50
295.10735762246
51
106.67384717027
0
ARC
8
0
10
-1.4933
20
-0.8381
40
0.185
50
115.138492723106
51
162.603472454947
0
ARC
8
0
10
-1.5995
20
-0.6117
40
0.185
50
247.663669052283
51
295.140214493244
0
ARC
8
0
10
-1.4933
20
-0.8381
40
0.065
50
303.44542435212
51
115.102329805477
0
ARC
8
0
10
-1.3554
20
-1.0466
40
0.185
50
123.492526271708
51
170.980677568618
0
ARC
8
0
10
-1.4933
20
-0.8381
40
0.185
50
255.986290266955
51
303.501256473484
0
ARC
8
0
10
-1.3554
20
-1.0466
40
0.065
50
311.816709363167
51
123.420384633244
0
ARC
8
0
10
-1.1886
20
-1.2328
40
0.185
50
131.867534801432
51
179.349291704348
0
ARC
8
0
10
-1.3554
20
-1.0466
40
0.185
50
264.38494596845
51
311.869925802647
0
ARC
8
0
10
-1.1886
20
-1.2328
40
0.065
50
320.183136874078
51
131.809765707468
0
ARC
8
0
10
-0.9964
20
-1.3927
40
0.185
50
140.261821684496
51
187.735871560632
0
ARC
8
0
10
-1.1886
20
-1.2328
40
0.185
50
272.757244260041
51
320.257809168954
0
ARC
8
0
10
-0.9964
20
-1.3927
40
0.065
50
328.536979441433
51
140.194428907735
0
ARC
8
0
10
-0.783
20
-1.5229
40
0.185
50
148.637956856851
51
196.102836562362
0
ARC
8
0
10
-0.9964
20
-1.3927
40
0.185
50
281.127694604105
51
328.627639204641
0
ARC
8
0
10
-0.783
20
-1.5229
40
0.065
50
336.905562475167
51
148.566243646468
0
ARC
8
0
10
-0.5529
20
-1.6207
40
0.185
50
156.996596624581
51
204.472162877974
0
ARC
8
0
10
-0.783
20
-1.5229
40
0.185
50
289.512178414571
51
336.980204246313
0
ARC
8
0
10
-0.5529
20
-1.6207
40
0.065
50
345.278893766405
51
156.952156989887
0
ARC
8
0
10
-0.311
20
-1.684
40
0.185
50
165.355687362844
51
212.839457832164
0
ARC
8
0
10
-0.5529
20
-1.6207
40
0.185
50
297.866689248568
51
345.355687362844
0
ARC
8
0
10
-0.311
20
-1.684
40
0.065
50
353.71831311413
51
165.278893766406
0
ARC
8
0
10
-0.0625
20
-1.7113
40
0.185
50
173.735008494246
51
221.209229157312
0
ARC
8
0
10
-0.311
20
-1.684
40
0.185
50
306.225525434086
51
353.735008494245
0
ARC
8
0
10
-0.0625
20
-1.7113
40
0.065
50
2.02966356498755
51
173.718313114131
0
ARC
8
0
10
0.1873
20
-1.7022
40
0.185
50
182.106196812399
51
229.583529809117
0
ARC
8
0
10
-0.0625
20
-1.7113
40
0.185
50
314.605769206476
51
2.10505935215281
0
ARC
8
0
10
0.1873
20
-1.7022
40
0.065
50
10.4625770531383
51
182.032793136085
0
ARC
8
0
10
0.4331
20
-1.6568
40
0.185
50
190.465532436529
51
237.951910238638
0
ARC
8
0
10
0.1873
20
-1.7022
40
0.185
50
322.999983472219
51
10.4903496974372
0
ARC
8
0
10
0.4331
20
-1.6568
40
0.065
50
18.8531587644192
51
190.391753955155
0
ARC
8
0
10
0.6697
20
-1.576
40
0.185
50
198.856017728253
51
246.34578664909
0
ARC
8
0
10
0.4331
20
-1.6568
40
0.185
50
331.384596781026
51
18.8753005415326
0
ARC
8
0
10
0.6697
20
-1.576
40
0.065
50
27.1174727041903
51
198.798105897132
0
ARC
8
0
10
0.8921
20
-1.4617
40
0.185
50
207.229480781998
51
254.70140954541
0
ARC
8
0
10
0.6697
20
-1.576
40
0.185
50
339.733855687747
51
27.2153255099284
0
ARC
8
0
10
0.8921
20
-1.4617
40
0.065
50
35.5274115710642
51
207.157744995695
0
ARC
8
0
10
1.0954
20
-1.3163
40
0.185
50
215.588063514738
51
263.074793754826
0
ARC
8
0
10
0.8921
20
-1.4617
40
0.185
50
348.08262867052
51
35.5880635147387
0
ARC
8
0
10
1.0954
20
-1.3163
40
0.065
50
43.9402424660015
51
215.527411571064
0
ARC
8
0
10
1.2754
20
-1.1427
40
0.185
50
223.971107310976
51
271.456096198501
0
ARC
8
0
10
1.0954
20
-1.3163
40
0.185
50
356.498991231395
51
43.9718928564227
0
ARC
8
0
10
1.2754
20
-1.1427
40
0.065
50
52.2644595607761
51
223.93793163709
0
ARC
8
0
10
1.4282
20
-0.9449
40
0.185
50
232.331369320921
51
279.808731520202
0
ARC
8
0
10
1.2754
20
-1.1427
40
0.185
50
4.83824552813891
51
52.3313693209207
0
ARC
8
0
10
1.4282
20
-0.9449
40
0.065
50
60.7142622306383
51
232.264459560776
0
ARC
8
0
10
1.5505
20
-0.7269
40
0.185
50
240.704684032763
51
288.209646012785
0
ARC
8
0
10
1.4282
20
-0.9449
40
0.185
50
13.2174661192333
51
60.734971633671
0
ARC
8
0
10
1.5505
20
-0.7269
40
0.065
50
69.0004499536833
51
240.627804570559
0
ARC
8
0
10
1.6398
20
-0.4934
40
0.185
50
249.095920916667
51
296.592757064431
0
ARC
8
0
10
1.5505
20
-0.7269
40
0.185
50
21.5887141814568
51
69.0890970039106
0
ARC
8
0
10
1.6398
20
-0.4934
40
0.065
50
77.375539993212
51
249.01962602108
0
ARC
8
0
10
1.6942
20
-0.2493
40
0.185
50
257.457763855045
51
304.93617885048
0
ARC
8
0
10
1.6398
20
-0.4934
40
0.185
50
29.986796226207
51
77.4644816116202
0
ARC
8
0
10
1.6942
20
-0.2493
40
0.065
50
85.7570813433532
51
257.356236860052
0
ARC
8
0
10
1.7124
20
0
40
0.185
50
265.848216747576
51
313.31338408155
0
ARC
8
0
10
1.6942
20
-0.2493
40
0.185
50
38.3259938443455
51
85.8173428455673
0
ARC
8
0
10
1.7124
20
0
40
0.065
50
94.1484479638171
51
265.845162652424
0
ARC
8
0
10
1.6942
20
0.2493
40
0.185
50
274.184916125118
51
321.698315951422
0
ARC
8
0
10
1.7124
20
0
40
0.185
50
46.7078544101211
51
94.1826571544324
0
ARC
8
0
10
1.6942
20
0.2493
40
0.065
50
102.538376142515
51
274.154837347576
0
ENDSEC
0
EOF

