  0
SECTION
  2
HEADER
  9
$ACADVER
  1
AC1015
  9
$ACADMAINTVER
 70
     6
  9
$DWGCODEPAGE
  3
ANSI_1252
  9
$INSBASE
 10
0.0
 20
0.0
 30
0.0
  9
$EXTMIN
 10
0.0
 20
0.0
 30
0.0
  9
$EXTMAX
 10
6.0
 20
6.0
 30
0.0
  9
$LIMMIN
 10
0.0
 20
0.0
  9
$LIMMAX
 10
6.0
 20
6.0
  9
$ORTHOMODE
 70
     0
  9
$REGENMODE
 70
     1
  9
$FILLMODE
 70
     1
  9
$QTEXTMODE
 70
     0
  9
$MIRRTEXT
 70
     1
  9
$LTSCALE
 40
1.0
  9
$ATTMODE
 70
     1
  9
$TEXTSIZE
 40
0.125
  9
$TRACEWID
 40
0.05
  9
$TEXTSTYLE
  7
Standard
  9
$CLAYER
  8
0
  9
$CELTYPE
  6
ByLayer
  9
$CECOLOR
 62
   256
  9
$CELTSCALE
 40
1.0
  9
$DISPSILH
 70
     0
  9
$DIMSCALE
 40
1.0
  9
$DIMASZ
 40
0.13
  9
$DIMEXO
 40
0.05
  9
$DIMDLI
 40
0.38
  9
$DIMRND
 40
0.0
  9
$DIMDLE
 40
0.0
  9
$DIMEXE
 40
0.125
  9
$DIMTP
 40
0.0
  9
$DIMTM
 40
0.0
  9
$DIMTXT
 40
0.125
  9
$DIMCEN
 40
0.09
  9
$DIMTSZ
 40
0.0
  9
$DIMTOL
 70
     0
  9
$DIMLIM
 70
     0
  9
$DIMTIH
 70
     1
  9
$DIMTOH
 70
     1
  9
$DIMSE1
 70
     0
  9
$DIMSE2
 70
     0
  9
$DIMTAD
 70
     0
  9
$DIMZIN
 70
     0
  9
$DIMBLK
  1

  9
$DIMASO
 70
     1
  9
$DIMSHO
 70
     1
  9
$DIMPOST
  1

  9
$DIMAPOST
  1

  9
$DIMALT
 70
     0
  9
$DIMALTD
 70
     2
  9
$DIMALTF
 40
25.4
  9
$DIMLFAC
 40
1.0
  9
$DIMTOFL
 70
     0
  9
$DIMTVP
 40
0.0
  9
$DIMTIX
 70
     0
  9
$DIMSOXD
 70
     0
  9
$DIMSAH
 70
     0
  9
$DIMBLK1
  1

  9
$DIMBLK2
  1

  9
$DIMSTYLE
  2
Standard
  9
$DIMCLRD
 70
     0
  9
$DIMCLRE
 70
     0
  9
$DIMCLRT
 70
     0
  9
$DIMTFAC
 40
1.0
  9
$DIMGAP
 40
0.06
  9
$DIMJUST
 70
     0
  9
$DIMSD1
 70
     0
  9
$DIMSD2
 70
     0
  9
$DIMTOLJ
 70
     1
  9
$DIMTZIN
 70
     0
  9
$DIMALTZ
 70
     0
  9
$DIMALTTZ
 70
     0
  9
$DIMUPT
 70
     0
  9
$DIMDEC
 70
     3
  9
$DIMTDEC
 70
     3
  9
$DIMALTU
 70
     2
  9
$DIMALTTD
 70
     2
  9
$DIMTXSTY
  7
Standard
  9
$DIMAUNIT
 70
     0
  9
$DIMADEC
 70
     2
  9
$DIMALTRND
 40
0.0
  9
$DIMAZIN
 70
     0
  9
$DIMDSEP
 70
    46
  9
$DIMATFIT
 70
     3
  9
$DIMFRAC
 70
     0
  9
$DIMLDRBLK
  1

  9
$DIMLUNIT
 70
     2
  9
$DIMLWD
 70
    -2
  9
$DIMLWE
 70
    -2
  9
$DIMTMOVE
 70
     0
  9
$LUNITS
 70
     2
  9
$LUPREC
 70
     2
  9
$SKETCHINC
 40
0.1
  9
$FILLETRAD
 40
0.5
  9
$AUNITS
 70
     0
  9
$AUPREC
 70
     2
  9
$MENU
  1
.
  9
$ELEVATION
 40
0.0
  9
$PELEVATION
 40
0.0
  9
$THICKNESS
 40
0.0
  9
$LIMCHECK
 70
     0
  9
$CHAMFERA
 40
0.5
  9
$CHAMFERB
 40
0.5
  9
$CHAMFERC
 40
1.0
  9
$CHAMFERD
 40
0.0
  9
$SKPOLY
 70
     0
  9
$TDCREATE
 40
2455993.100590799
  9
$TDUCREATE
 40
2455993.308924132
  9
$TDUPDATE
 40
2455993.10059081
  9
$TDUUPDATE
 40
2455993.308924144
  9
$TDINDWG
 40
0.0000000116
  9
$TDUSRTIMER
 40
0.0000000116
  9
$USRTIMER
 70
     1
  9
$ANGBASE
 50
0.0
  9
$ANGDIR
 70
     0
  9
$PDMODE
 70
     0
  9
$PDSIZE
 40
-1.0
  9
$PLINEWID
 40
0.0
  9
$SPLFRAME
 70
     0
  9
$SPLINETYPE
 70
     6
  9
$SPLINESEGS
 70
     8
  9
$HANDSEED
  5
1AA
  9
$SURFTAB1
 70
     6
  9
$SURFTAB2
 70
     6
  9
$SURFTYPE
 70
     6
  9
$SURFU
 70
     6
  9
$SURFV
 70
     6
  9
$UCSBASE
  2

  9
$UCSNAME
  2

  9
$UCSORG
 10
0.0
 20
0.0
 30
0.0
  9
$UCSXDIR
 10
1.0
 20
0.0
 30
0.0
  9
$UCSYDIR
 10
0.0
 20
1.0
 30
0.0
  9
$UCSORTHOREF
  2

  9
$UCSORTHOVIEW
 70
     0
  9
$UCSORGTOP
 10
0.0
 20
0.0
 30
0.0
  9
$UCSORGBOTTOM
 10
0.0
 20
0.0
 30
0.0
  9
$UCSORGLEFT
 10
0.0
 20
0.0
 30
0.0
  9
$UCSORGRIGHT
 10
0.0
 20
0.0
 30
0.0
  9
$UCSORGFRONT
 10
0.0
 20
0.0
 30
0.0
  9
$UCSORGBACK
 10
0.0
 20
0.0
 30
0.0
  9
$PUCSBASE
  2

  9
$PUCSNAME
  2

  9
$PUCSORG
 10
0.0
 20
0.0
 30
0.0
  9
$PUCSXDIR
 10
1.0
 20
0.0
 30
0.0
  9
$PUCSYDIR
 10
0.0
 20
1.0
 30
0.0
  9
$PUCSORTHOREF
  2

  9
$PUCSORTHOVIEW
 70
     0
  9
$PUCSORGTOP
 10
0.0
 20
0.0
 30
0.0
  9
$PUCSORGBOTTOM
 10
0.0
 20
0.0
 30
0.0
  9
$PUCSORGLEFT
 10
0.0
 20
0.0
 30
0.0
  9
$PUCSORGRIGHT
 10
0.0
 20
0.0
 30
0.0
  9
$PUCSORGFRONT
 10
0.0
 20
0.0
 30
0.0
  9
$PUCSORGBACK
 10
0.0
 20
0.0
 30
0.0
  9
$USERI1
 70
     0
  9
$USERI2
 70
     0
  9
$USERI3
 70
     0
  9
$USERI4
 70
     0
  9
$USERI5
 70
     0
  9
$USERR1
 40
0.0
  9
$USERR2
 40
0.0
  9
$USERR3
 40
0.0
  9
$USERR4
 40
0.0
  9
$USERR5
 40
0.0
  9
$WORLDVIEW
 70
     1
  9
$SHADEDGE
 70
     3
  9
$SHADEDIF
 70
    70
  9
$TILEMODE
 70
     1
  9
$MAXACTVP
 70
    64
  9
$PINSBASE
 10
0.0
 20
0.0
 30
0.0
  9
$PLIMCHECK
 70
     0
  9
$PEXTMIN
 10
1.0000000000E+20
 20
1.0000000000E+20
 30
1.0000000000E+20
  9
$PEXTMAX
 10
-1.0000000000E+20
 20
-1.0000000000E+20
 30
-1.0000000000E+20
  9
$PLIMMIN
 10
0.0
 20
0.0
  9
$PLIMMAX
 10
12.0
 20
9.0
  9
$UNITMODE
 70
     0
  9
$VISRETAIN
 70
     1
  9
$PLINEGEN
 70
     0
  9
$PSLTSCALE
 70
     1
  9
$TREEDEPTH
 70
  3020
  9
$CMLSTYLE
  2
Standard
  9
$CMLJUST
 70
     0
  9
$CMLSCALE
 40
1.0
  9
$PROXYGRAPHICS
 70
     1
  9
$MEASUREMENT
 70
     0
  9
$CELWEIGHT
370
    -1
  9
$ENDCAPS
280
     0
  9
$JOINSTYLE
280
     0
  9
$LWDISPLAY
290
     1
  9
$INSUNITS
 70
     1
  9
$HYPERLINKBASE
  1

  9
$STYLESHEET
  1

  9
$XEDIT
290
     1
  9
$CEPSNTYPE
380
     0
  9
$PSTYLEMODE
290
     1
  9
$FINGERPRINTGUID
  2
{0966F596-E459-4932-9B48-4BE493779370}
  9
$VERSIONGUID
  2
{FAEB1C32-E019-11D5-929B-00C0DF256EC4}
  9
$EXTNAMES
290
     1
  9
$PSVPSCALE
 40
0.0
  9
$OLESTARTUP
290
     0
  0
ENDSEC
  0
SECTION
  2
CLASSES
  0
CLASS
  1
ACDBDICTIONARYWDFLT
  2
AcDbDictionaryWithDefault
  3
ObjectDBX Classes
 90
        0
280
     0
281
     0
  0
CLASS
  1
VISUALSTYLE
  2
AcDbVisualStyle
  3
ObjectDBX Classes
 90
     4095
280
     0
281
     0
  0
CLASS
  1
MATERIAL
  2
AcDbMaterial
  3
ObjectDBX Classes
 90
     1153
280
     0
281
     0
  0
CLASS
  1
ACDBPLACEHOLDER
  2
AcDbPlaceHolder
  3
ObjectDBX Classes
 90
        0
280
     0
281
     0
  0
CLASS
  1
LAYOUT
  2
AcDbLayout
  3
ObjectDBX Classes
 90
        0
280
     0
281
     0
  0
ENDSEC
  0
SECTION
  2
TABLES
  0
TABLE
  2
VPORT
  5
8
330
0
100
AcDbSymbolTable
 70
     1
  0
VPORT
  5
29
330
8
100
AcDbSymbolTableRecord
100
AcDbViewportTableRecord
  2
*Active
 70
     0
 10
0.0
 20
0.0
 11
1.0
 21
1.0
 12
3.0
 22
3.0
 13
0.0
 23
0.0
 14
0.5
 24
0.5
 15
0.5
 25
0.5
 16
0.0
 26
0.0
 36
1.0
 17
0.0
 27
0.0
 37
0.0
 40
6.0
 41
1.0
 42
50.0
 43
0.0
 44
0.0
 50
0.0
 51
0.0
 71
     0
 72
  2000
 73
     1
 74
     3
 75
     0
 76
     0
 77
     0
 78
     0
281
     0
 65
     1
110
0.0
120
0.0
130
0.0
111
1.0
121
0.0
131
0.0
112
0.0
122
1.0
132
0.0
 79
     0
146
0.0
  0
ENDTAB
  0
TABLE
  2
LTYPE
  5
5
330
0
100
AcDbSymbolTable
 70
     6
  0
LTYPE
  5
14
330
5
100
AcDbSymbolTableRecord
100
AcDbLinetypeTableRecord
  2
ByBlock
 70
     0
  3

 72
    65
 73
     0
 40
0.0
  0
LTYPE
  5
15
330
5
100
AcDbSymbolTableRecord
100
AcDbLinetypeTableRecord
  2
ByLayer
 70
     0
  3

 72
    65
 73
     0
 40
0.0
  0
LTYPE
  5
16
330
5
100
AcDbSymbolTableRecord
100
AcDbLinetypeTableRecord
  2
Continuous
 70
     0
  3
Solid line
 72
    65
 73
     0
 40
0.0
  0
LTYPE
  5
3F
330
5
100
AcDbSymbolTableRecord
100
AcDbLinetypeTableRecord
  2
HIDDEN
 70
     0
  3
Hidden __ __ __ __ __ __ __ __ __ __ __ __ __ __
 72
    65
 73
     2
 40
0.075
 49
0.05
 74
     0
 49
-0.025
 74
     0
  0
LTYPE
  5
40
330
5
100
AcDbSymbolTableRecord
100
AcDbLinetypeTableRecord
  2
PHANTOM
 70
     0
  3
Phantom ______  __  __  ______  __  __  ______
 72
    65
 73
     6
 40
0.5
 49
0.25
 74
     0
 49
-0.05
 74
     0
 49
0.05
 74
     0
 49
-0.05
 74
     0
 49
0.05
 74
     0
 49
-0.05
 74
     0
  0
LTYPE
  5
41
330
5
100
AcDbSymbolTableRecord
100
AcDbLinetypeTableRecord
  2
CENTER
 70
     0
  3
Center ____ _ ____ _ ____ _ ____ _ ____ _ ____
 72
    65
 73
     4
 40
0.4
 49
0.25
 74
     0
 49
-0.05
 74
     0
 49
0.05
 74
     0
 49
-0.05
 74
     0
  0
LTYPE
  5
42
330
5
100
AcDbSymbolTableRecord
100
AcDbLinetypeTableRecord
  2
CENTERX2
 70
     0
  3
Center (2x) ________  __  ________  __  _____
 72
    65
 73
     4
 40
0.8
 49
0.5
 74
     0
 49
-0.1
 74
     0
 49
0.1
 74
     0
 49
-0.1
 74
     0
  0
LTYPE
  5
43
330
5
100
AcDbSymbolTableRecord
100
AcDbLinetypeTableRecord
  2
DOT2
 70
     0
  3
Dot (.5x) ........................................
 72
    65
 73
     2
 40
0.025
 49
0.0
 74
     0
 49
-0.025
 74
     0
  0
ENDTAB
  0
TABLE
  2
LAYER
  5
2
330
0
100
AcDbSymbolTable
 70
     1
  0
LAYER
  5
10
330
2
100
AcDbSymbolTableRecord
100
AcDbLayerTableRecord
  2
0
 70
     0
 62
     7
  6
Continuous
370
    -3
390
F
  0
ENDTAB
  0
TABLE
  2
STYLE
  5
3
330
0
100
AcDbSymbolTable
 70
     1
  0
STYLE
  5
11
330
3
100
AcDbSymbolTableRecord
100
AcDbTextStyleTableRecord
  2
Standard
 70
     0
 40
0.0
 41
1.0
 50
0.0
 71
     0
 42
0.2
  3
txt
  4

  0
ENDTAB
  0
TABLE
  2
VIEW
  5
6
330
0
100
AcDbSymbolTable
 70
     0
  0
ENDTAB
  0
TABLE
  2
UCS
  5
7
330
0
100
AcDbSymbolTable
 70
     0
  0
ENDTAB
  0
TABLE
  2
APPID
  5
9
330
0
100
AcDbSymbolTable
 70
     1
  0
APPID
  5
12
330
9
100
AcDbSymbolTableRecord
100
AcDbRegAppTableRecord
  2
ACAD
 70
     0
  0
ENDTAB
  0
TABLE
  2
DIMSTYLE
  5
A
330
0
100
AcDbSymbolTable
 70
     1
100
AcDbDimStyleTable
  0
DIMSTYLE
105
27
330
A
100
AcDbSymbolTableRecord
100
AcDbDimStyleTableRecord
  2
Standard
 70
     0
178
     0
340
11
  0
ENDTAB
  0
TABLE
  2
BLOCK_RECORD
  5
1
330
0
100
AcDbSymbolTable
 70
     1
  0
BLOCK_RECORD
  5
1F
330
1
100
AcDbSymbolTableRecord
100
AcDbBlockTableRecord
  2
*Model_Space
340
22
  0
BLOCK_RECORD
  5
1B
330
1
100
AcDbSymbolTableRecord
100
AcDbBlockTableRecord
  2
*Paper_Space
340
1E
  0
BLOCK_RECORD
  5
23
330
1
100
AcDbSymbolTableRecord
100
AcDbBlockTableRecord
  2
*Paper_Space0
340
26
  0
ENDTAB
  0
ENDSEC
  0
SECTION
  2
BLOCKS
  0
BLOCK
  5
20
330
1F
100
AcDbEntity
  8
0
100
AcDbBlockBegin
  2
*Model_Space
 70
     0
 10
0.0
 20
0.0
 30
0.0
  3
*Model_Space
  1

  0
ENDBLK
  5
21
330
1F
100
AcDbEntity
  8
0
100
AcDbBlockEnd
  0
BLOCK
  5
1C
330
1B
100
AcDbEntity
 67
     1
  8
0
100
AcDbBlockBegin
  2
*Paper_Space
 70
     0
 10
0.0
 20
0.0
 30
0.0
  3
*Paper_Space
  1

  0
ENDBLK
  5
1D
330
1B
100
AcDbEntity
 67
     1
  8
0
100
AcDbBlockEnd
  0
BLOCK
  5
24
330
23
100
AcDbEntity
  8
0
100
AcDbBlockBegin
  2
*Paper_Space0
 70
     0
 10
0.0
 20
0.0
 30
0.0
  3
*Paper_Space0
  1

  0
ENDBLK
  5
25
330
23
100
AcDbEntity
  8
0
100
AcDbBlockEnd
  0
ENDSEC
  0
SECTION
  2
ENTITIES
  0
ARC
  5
44
330
1F
100
AcDbEntity
  8
0
  6
Continuous
 62
     7
370
    15
100
AcDbCircle
 10
3.3665890183
 20
2.8440414
 30
0.0
 40
1.644500000000214
100
AcDbArc
 50
73.255816087
 51
81.6279187243
  0
ARC
  5
45
330
1F
100
AcDbEntity
  8
0
  6
Continuous
 62
     7
370
    15
100
AcDbCircle
 10
3.3665890183
 20
2.8440414
 30
0.0
 40
1.64450000000016
100
AcDbArc
 50
64.8837378449
 51
73.255816087
  0
ARC
  5
46
330
1F
100
AcDbEntity
  8
0
  6
Continuous
 62
     7
370
    15
100
AcDbCircle
 10
3.3665890183
 20
2.8440414
 30
0.0
 40
1.644500000000189
100
AcDbArc
 50
56.5116300864
 51
64.8837378449
  0
ARC
  5
47
330
1F
100
AcDbEntity
  8
0
  6
Continuous
 62
     7
370
    15
100
AcDbCircle
 10
3.3665890183
 20
2.8440414
 30
0.0
 40
1.644499999999939
100
AcDbArc
 50
48.1395370424
 51
56.5116300864
  0
ARC
  5
48
330
1F
100
AcDbEntity
  8
0
  6
Continuous
 62
     7
370
    15
100
AcDbCircle
 10
3.3665890183
 20
2.8440414
 30
0.0
 40
1.644500000000067
100
AcDbArc
 50
39.7674434217
 51
48.1395370424
  0
ARC
  5
49
330
1F
100
AcDbEntity
  8
0
  6
Continuous
 62
     7
370
    15
100
AcDbCircle
 10
3.3665890183
 20
2.8440414
 30
0.0
 40
1.644500000000096
100
AcDbArc
 50
31.3953508675
 51
39.7674434217
  0
ARC
  5
4A
330
1F
100
AcDbEntity
  8
0
  6
Continuous
 62
     7
370
    15
100
AcDbCircle
 10
3.3665890183
 20
2.8440414
 30
0.0
 40
1.644500000000112
100
AcDbArc
 50
23.0232575316
 51
31.3953508675
  0
ARC
  5
4B
330
1F
100
AcDbEntity
  8
0
  6
Continuous
 62
     7
370
    15
100
AcDbCircle
 10
3.3665890183
 20
2.8440414
 30
0.0
 40
1.644500000000153
100
AcDbArc
 50
14.6511689656
 51
23.0232575316
  0
ARC
  5
4C
330
1F
100
AcDbEntity
  8
0
  6
Continuous
 62
     7
370
    15
100
AcDbCircle
 10
3.3665890183
 20
2.8440414
 30
0.0
 40
1.644500000000153
100
AcDbArc
 50
6.2790719792
 51
14.6511689656
  0
ARC
  5
4D
330
1F
100
AcDbEntity
  8
0
  6
Continuous
 62
     7
370
    15
100
AcDbCircle
 10
3.3665890183
 20
2.8440414
 30
0.0
 40
1.644500000000075
100
AcDbArc
 50
357.9069884924
 51
6.2790719792
  0
ARC
  5
4E
330
1F
100
AcDbEntity
  8
0
  6
Continuous
 62
     7
370
    15
100
AcDbCircle
 10
3.3665890183
 20
2.8440414
 30
0.0
 40
1.644500000000327
100
AcDbArc
 50
349.5348868265
 51
357.9069884924
  0
ARC
  5
4F
330
1F
100
AcDbEntity
  8
0
  6
Continuous
 62
     7
370
    15
100
AcDbCircle
 10
3.3665890183
 20
2.8440414
 30
0.0
 40
1.644500000000327
100
AcDbArc
 50
341.1627927987
 51
349.5348868265
  0
ARC
  5
50
330
1F
100
AcDbEntity
  8
0
  6
Continuous
 62
     7
370
    15
100
AcDbCircle
 10
3.3665890183
 20
2.8440414
 30
0.0
 40
1.644500000000275
100
AcDbArc
 50
332.7906991852
 51
341.1627927987
  0
ARC
  5
51
330
1F
100
AcDbEntity
  8
0
  6
Continuous
 62
     7
370
    15
100
AcDbCircle
 10
3.3665890183
 20
2.8440414
 30
0.0
 40
1.644500000000209
100
AcDbArc
 50
324.4186066813
 51
332.7906991852
  0
ARC
  5
52
330
1F
100
AcDbEntity
  8
0
  6
Continuous
 62
     7
370
    15
100
AcDbCircle
 10
3.3665890183
 20
2.8440414
 30
0.0
 40
1.644500000000209
100
AcDbArc
 50
316.0465136548
 51
324.4186066813
  0
ARC
  5
53
330
1F
100
AcDbEntity
  8
0
  6
Continuous
 62
     7
370
    15
100
AcDbCircle
 10
3.3665890183
 20
2.8440414
 30
0.0
 40
1.644500000000066
100
AcDbArc
 50
307.6744340348
 51
316.0465136548
  0
ARC
  5
54
330
1F
100
AcDbEntity
  8
0
  6
Continuous
 62
     7
370
    15
100
AcDbCircle
 10
3.3665890183
 20
2.8440414
 30
0.0
 40
1.644499999999838
100
AcDbArc
 50
299.3023278105
 51
307.6744340348
  0
ARC
  5
55
330
1F
100
AcDbEntity
  8
0
  6
Continuous
 62
     7
370
    15
100
AcDbCircle
 10
3.3665890183
 20
2.8440414
 30
0.0
 40
1.644499999999762
100
AcDbArc
 50
290.930243005
 51
299.3023278105
  0
ARC
  5
56
330
1F
100
AcDbEntity
  8
0
  6
Continuous
 62
     7
370
    15
100
AcDbCircle
 10
3.3665890183
 20
2.8440414
 30
0.0
 40
1.644499999999939
100
AcDbArc
 50
282.558142576
 51
290.930243005
  0
ARC
  5
57
330
1F
100
AcDbEntity
  8
0
  6
Continuous
 62
     7
370
    15
100
AcDbCircle
 10
3.3665890183
 20
2.8440414
 30
0.0
 40
1.644499999999939
100
AcDbArc
 50
274.1860487613
 51
282.558142576
  0
ARC
  5
58
330
1F
100
AcDbEntity
  8
0
  6
Continuous
 62
     7
370
    15
100
AcDbCircle
 10
3.3665890183
 20
2.8440414
 30
0.0
 40
1.644499999999792
100
AcDbArc
 50
265.8139549994
 51
274.1860487613
  0
ARC
  5
59
330
1F
100
AcDbEntity
  8
0
  6
Continuous
 62
     7
370
    15
100
AcDbCircle
 10
3.3665890183
 20
2.8440414
 30
0.0
 40
1.644500000000118
100
AcDbArc
 50
257.4418616122
 51
265.8139549994
  0
ARC
  5
5A
330
1F
100
AcDbEntity
  8
0
  6
Continuous
 62
     7
370
    15
100
AcDbCircle
 10
3.3665890183
 20
2.8440414
 30
0.0
 40
1.644500000000167
100
AcDbArc
 50
249.0697694441
 51
257.4418616122
  0
ARC
  5
5B
330
1F
100
AcDbEntity
  8
0
  6
Continuous
 62
     7
370
    15
100
AcDbCircle
 10
3.3665890183
 20
2.8440414
 30
0.0
 40
1.644500000000167
100
AcDbArc
 50
240.697691373
 51
249.0697694441
  0
ARC
  5
5C
330
1F
100
AcDbEntity
  8
0
  6
Continuous
 62
     7
370
    15
100
AcDbCircle
 10
3.3665890183
 20
2.8440414
 30
0.0
 40
1.644500000000126
100
AcDbArc
 50
232.3255835122
 51
240.697691373
  0
ARC
  5
5D
330
1F
100
AcDbEntity
  8
0
  6
Continuous
 62
     7
370
    15
100
AcDbCircle
 10
3.3665890183
 20
2.8440414
 30
0.0
 40
1.644500000000255
100
AcDbArc
 50
223.9534925275
 51
232.3255835122
  0
ARC
  5
5E
330
1F
100
AcDbEntity
  8
0
  6
Continuous
 62
     7
370
    15
100
AcDbCircle
 10
3.3665890183
 20
2.8440414
 30
0.0
 40
1.644500000000255
100
AcDbArc
 50
215.5814001331
 51
223.9534925275
  0
ARC
  5
5F
330
1F
100
AcDbEntity
  8
0
  6
Continuous
 62
     7
370
    15
100
AcDbCircle
 10
3.3665890183
 20
2.8440414
 30
0.0
 40
1.644500000000073
100
AcDbArc
 50
207.2093046268
 51
215.5814001331
  0
ARC
  5
60
330
1F
100
AcDbEntity
  8
0
  6
Continuous
 62
     7
370
    15
100
AcDbCircle
 10
3.3665890183
 20
2.8440414
 30
0.0
 40
1.64449999999996
100
AcDbArc
 50
198.8372108347
 51
207.2093046268
  0
ARC
  5
61
330
1F
100
AcDbEntity
  8
0
  6
Continuous
 62
     7
370
    15
100
AcDbCircle
 10
3.3665890183
 20
2.8440414
 30
0.0
 40
1.64449999999996
100
AcDbArc
 50
190.465118207
 51
198.8372108347
  0
ARC
  5
62
330
1F
100
AcDbEntity
  8
0
  6
Continuous
 62
     7
370
    15
100
AcDbCircle
 10
3.3665890183
 20
2.8440414
 30
0.0
 40
1.644499999999876
100
AcDbArc
 50
182.093025328
 51
190.465118207
  0
ARC
  5
63
330
1F
100
AcDbEntity
  8
0
  6
Continuous
 62
     7
370
    15
100
AcDbCircle
 10
3.3665890183
 20
2.8440414
 30
0.0
 40
1.644499999999876
100
AcDbArc
 50
173.7209318746
 51
182.093025328
  0
ARC
  5
64
330
1F
100
AcDbEntity
  8
0
  6
Continuous
 62
     7
370
    15
100
AcDbCircle
 10
3.3665890183
 20
2.8440414
 30
0.0
 40
1.644500000221255
100
AcDbArc
 50
165.3488386906
 51
173.7209318746
  0
ARC
  5
65
330
1F
100
AcDbEntity
  8
0
  6
Continuous
 62
     7
370
    15
100
AcDbCircle
 10
3.3665890183
 20
2.8440414
 30
0.0
 40
1.644500000221255
100
AcDbArc
 50
156.97674705
 51
165.3488386906
  0
ARC
  5
66
330
1F
100
AcDbEntity
  8
0
  6
Continuous
 62
     7
370
    15
100
AcDbCircle
 10
3.3665890183
 20
2.8440414
 30
0.0
 40
1.644500000221095
100
AcDbArc
 50
148.6046553068
 51
156.97674705
  0
ARC
  5
67
330
1F
100
AcDbEntity
  8
0
  6
Continuous
 62
     7
370
    15
100
AcDbCircle
 10
3.3665890183
 20
2.8440414
 30
0.0
 40
1.644500000000105
100
AcDbArc
 50
140.2325602908
 51
148.6046553068
  0
ARC
  5
68
330
1F
100
AcDbEntity
  8
0
  6
Continuous
 62
     7
370
    15
100
AcDbCircle
 10
3.3665890183
 20
2.8440414
 30
0.0
 40
1.644499999999918
100
AcDbArc
 50
131.8604668284
 51
140.2325602908
  0
ARC
  5
69
330
1F
100
AcDbEntity
  8
0
  6
Continuous
 62
     7
370
    15
100
AcDbCircle
 10
3.3665890183
 20
2.8440414
 30
0.0
 40
1.644499999999918
100
AcDbArc
 50
123.4883766435
 51
131.8604668284
  0
ARC
  5
6A
330
1F
100
AcDbEntity
  8
0
  6
Continuous
 62
     7
370
    15
100
AcDbCircle
 10
3.3665890183
 20
2.8440414
 30
0.0
 40
1.644500000000263
100
AcDbArc
 50
115.1162812334
 51
123.4883766435
  0
ARC
  5
6B
330
1F
100
AcDbEntity
  8
0
  6
Continuous
 62
     7
370
    15
100
AcDbCircle
 10
3.3665890183
 20
2.8440414
 30
0.0
 40
1.644500000000263
100
AcDbArc
 50
106.7441876373
 51
115.1162812334
  0
ARC
  5
6C
330
1F
100
AcDbEntity
  8
0
  6
Continuous
 62
     7
370
    15
100
AcDbCircle
 10
3.3665890183
 20
2.8440414
 30
0.0
 40
1.644500000000122
100
AcDbArc
 50
98.37209508
 51
106.7441876373
  0
ARC
  5
6D
330
1F
100
AcDbEntity
  8
0
  6
Continuous
 62
     7
370
    15
100
AcDbCircle
 10
3.3665890183
 20
2.8440414
 30
0.0
 40
1.644500000000122
100
AcDbArc
 50
89.9999996783
 51
98.37209508
  0
ARC
  5
6E
330
1F
100
AcDbEntity
  8
0
  6
Continuous
 62
     7
370
    15
100
AcDbCircle
 10
3.3665890183
 20
2.8440414
 30
0.0
 40
1.64450000000009
100
AcDbArc
 50
81.6279187243
 51
89.9999996783
  0
CIRCLE
  5
6F
330
1F
100
AcDbEntity
  8
0
  6
Continuous
 62
     7
370
    15
100
AcDbCircle
 10
3.3665890183
 20
2.8440414
 30
0.0
 40
0.7750000000000004
  0
CIRCLE
  5
70
330
1F
100
AcDbEntity
  8
0
  6
Continuous
 62
     7
370
    15
100
AcDbCircle
 10
3.9853074518
 20
2.2253229665
 30
0.0
 40
0.0600000000000005
  0
CIRCLE
  5
71
330
1F
100
AcDbEntity
  8
0
  6
Continuous
 62
     7
370
    15
100
AcDbCircle
 10
2.7478705848
 20
2.2253229665
 30
0.0
 40
0.0600000000000001
  0
CIRCLE
  5
72
330
1F
100
AcDbEntity
  8
0
  6
Continuous
 62
     7
370
    15
100
AcDbCircle
 10
2.7478705848
 20
3.4627598335
 30
0.0
 40
0.0600000000000001
  0
CIRCLE
  5
73
330
1F
100
AcDbEntity
  8
0
  6
Continuous
 62
     7
370
    15
100
AcDbCircle
 10
3.9853074518
 20
3.4627598335
 30
0.0
 40
0.0599999999999996
  0
CIRCLE
  5
74
330
1F
100
AcDbEntity
  8
0
  6
Continuous
 62
     7
370
    15
100
AcDbCircle
 10
3.3665890183
 20
4.0002914
 30
0.0
 40
0.2562499999999996
  0
CIRCLE
  5
75
330
1F
100
AcDbEntity
  8
0
  6
Continuous
 62
     7
370
    15
100
AcDbCircle
 10
4.5228390183
 20
2.8440414
 30
0.0
 40
0.2562499999999996
  0
CIRCLE
  5
76
330
1F
100
AcDbEntity
  8
0
  6
Continuous
 62
     7
370
    15
100
AcDbCircle
 10
3.3665890183
 20
1.6877914
 30
0.0
 40
0.2562500000000014
  0
CIRCLE
  5
77
330
1F
100
AcDbEntity
  8
0
  6
Continuous
 62
     7
370
    15
100
AcDbCircle
 10
2.2103390183
 20
2.8440414
 30
0.0
 40
0.2562500000000001
  0
SPLINE
  5
78
330
1F
100
AcDbEntity
  8
0
  6
Continuous
 62
     7
370
    15
100
AcDbSpline
210
0.0
220
0.0
230
1.0
 70
     8
 71
     3
 72
     8
 73
     4
 74
     0
 42
0.00000001
 43
0.00000001
 40
0.0
 40
0.0
 40
0.0
 40
0.0
 40
1.0
 40
1.0
 40
1.0
 40
1.0
 10
2.449832590858123
 20
1.377687309383647
 30
0.0
 10
2.464586641062614
 20
1.392394726338824
 30
0.0
 10
2.481464482600245
 20
1.404046360187942
 30
0.0
 10
2.500475462040428
 20
1.412631075510726
 30
0.0
  0
SPLINE
  5
79
330
1F
100
AcDbEntity
  8
0
  6
Continuous
 62
     7
370
    15
100
AcDbSpline
210
0.0
220
0.0
230
1.0
 70
     8
 71
     3
 72
    10
 73
     6
 74
     0
 42
0.00000001
 43
0.00000001
 40
0.0
 40
0.0
 40
0.0
 40
0.0
 40
0.5
 40
0.5
 40
1.0
 40
1.0
 40
1.0
 40
1.0
 10
2.394915643268521
 20
1.349069877779479
 30
0.0
 10
2.405329053643305
 20
1.350932116856407
 30
0.0
 10
2.415191027370873
 20
1.354303780805213
 30
0.0
 10
2.433833505885933
 20
1.364005687357958
 30
0.0
 10
2.442357652078335
 20
1.370235996705505
 30
0.0
 10
2.449832590857926
 20
1.377687309383843
 30
0.0
  0
ARC
  5
7A
330
1F
100
AcDbEntity
  8
0
  6
Continuous
 62
     7
370
    15
100
AcDbCircle
 10
3.3665890183
 20
2.8440414
 30
0.0
 40
1.782999999999979
100
AcDbArc
 50
236.0455575961
 51
236.9776982178
  0
SPLINE
  5
7B
330
1F
100
AcDbEntity
  8
0
  6
Continuous
 62
     7
370
    15
100
AcDbSpline
210
0.0
220
0.0
230
1.0
 70
     8
 71
     3
 72
    10
 73
     6
 74
     0
 42
0.00000001
 43
0.00000001
 40
0.0
 40
0.0
 40
0.0
 40
0.0
 40
0.5
 40
0.5
 40
1.0
 40
1.0
 40
1.0
 40
1.0
 10
2.37558339355666
 20
1.426810113988775
 30
0.0
 10
2.371649130190586
 20
1.417016438566463
 30
0.0
 10
2.369275376194855
 20
1.406880008702648
 30
0.0
 10
2.367607652443672
 20
1.385931193164586
 30
0.0
 10
2.368364930617131
 20
1.375387227385034
 30
0.0
 10
2.370723727033179
 20
1.365075098272746
 30
0.0
  0
SPLINE
  5
7C
330
1F
100
AcDbEntity
  8
0
  6
Continuous
 62
     7
370
    15
100
AcDbSpline
210
0.0
220
0.0
230
1.0
 70
     8
 71
     3
 72
     8
 73
     4
 74
     0
 42
0.00000001
 43
0.00000001
 40
0.0
 40
0.0
 40
0.0
 40
0.0
 40
1.0
 40
1.0
 40
1.0
 40
1.0
 10
2.387937089373085
 20
1.487085759090744
 30
0.0
 10
2.387471463189025
 20
1.466231554030119
 30
0.0
 10
2.383348929940708
 20
1.446141087983988
 30
0.0
 10
2.375583393557159
 20
1.426810113988573
 30
0.0
  0
SPLINE
  5
7D
330
1F
100
AcDbEntity
  8
0
  6
Continuous
 62
     7
370
    15
100
AcDbSpline
210
0.0
220
0.0
230
1.0
 70
     8
 71
     3
 72
    12
 73
     8
 74
     0
 42
0.00000001
 43
0.00000001
 40
0.0
 40
0.0
 40
0.0
 40
0.0
 40
0.2500000000000022
 40
0.2500000000000022
 40
0.5000000000000044
 40
0.5000000000000044
 40
1.0
 40
1.0
 40
1.0
 40
1.0
 10
2.361513941647607
 20
1.542425350510617
 30
0.0
 10
2.365751171836747
 20
1.539153455667572
 30
0.0
 10
2.369522785922483
 20
1.535453368956853
 30
0.0
 10
2.376168855195847
 20
1.527228136712044
 30
0.0
 10
2.379047495175445
 20
1.522659438819444
 30
0.0
 10
2.38586590063742
 20
1.508376324883888
 30
0.0
 10
2.388175316956672
 20
1.497755362870413
 30
0.0
 10
2.387937089372395
 20
1.487085759090763
 30
0.0
  0
SPLINE
  5
7E
330
1F
100
AcDbEntity
  8
0
  6
Continuous
 62
     7
370
    15
100
AcDbSpline
210
0.0
220
0.0
230
1.0
 70
     8
 71
     3
 72
    12
 73
     8
 74
     0
 42
0.00000001
 43
0.00000001
 40
0.0
 40
0.0
 40
0.0
 40
0.0
 40
0.25
 40
0.25
 40
0.5
 40
0.5
 40
1.0
 40
1.0
 40
1.0
 40
1.0
 10
2.500475462040227
 20
1.412631075511131
 30
0.0
 10
2.505338844182325
 20
1.414827214396436
 30
0.0
 10
2.51036390464214
 20
1.416416576896586
 30
0.0
 10
2.52072694664356
 20
1.418421366963394
 30
0.0
 10
2.526107427690394
 20
1.418820504837081
 30
0.0
 10
2.541919472299234
 20
1.41814155347435
 30
0.0
 10
2.552404585932996
 20
1.415196291993393
 30
0.0
 10
2.561741791937638
 20
1.409955910143015
 30
0.0
  0
SPLINE
  5
7F
330
1F
100
AcDbEntity
  8
0
  6
Continuous
 62
     7
370
    15
100
AcDbSpline
210
0.0
220
0.0
230
1.0
 70
     8
 71
     3
 72
     8
 73
     4
 74
     0
 42
0.00000001
 43
0.00000001
 40
0.0
 40
0.0
 40
0.0
 40
0.0
 40
1.0
 40
1.0
 40
1.0
 40
1.0
 10
2.673104994576792
 20
1.25983289883477
 30
0.0
 10
2.685560399215827
 20
1.276531791199505
 30
0.0
 10
2.700561888314071
 20
1.290516691312107
 30
0.0
 10
2.718120330168183
 20
1.3017779432898
 30
0.0
  0
SPLINE
  5
80
330
1F
100
AcDbEntity
  8
0
  6
Continuous
 62
     7
370
    15
100
AcDbSpline
210
0.0
220
0.0
230
1.0
 70
     8
 71
     3
 72
    10
 73
     6
 74
     0
 42
0.00000001
 43
0.00000001
 40
0.0
 40
0.0
 40
0.0
 40
0.0
 40
0.5
 40
0.5
 40
1.0
 40
1.0
 40
1.0
 40
1.0
 10
2.622940008143264
 20
1.22352446096801
 30
0.0
 10
2.632971302452438
 20
1.226883059559221
 30
0.0
 10
2.642237262547826
 20
1.231654707817284
 30
0.0
 10
2.659268466107902
 20
1.243967591364261
 30
0.0
 10
2.666794633295529
 20
1.25137263223792
 30
0.0
 10
2.673104994576764
 20
1.259832898834791
 30
0.0
  0
ARC
  5
81
330
1F
100
AcDbEntity
  8
0
  6
Continuous
 62
     7
370
    15
100
AcDbCircle
 10
3.3665890183
 20
2.8440414
 30
0.0
 40
1.783000000000051
100
AcDbArc
 50
244.4176506194
 51
245.3497912411
  0
SPLINE
  5
82
330
1F
100
AcDbEntity
  8
0
  6
Continuous
 62
     7
370
    15
100
AcDbSpline
210
0.0
220
0.0
230
1.0
 70
     8
 71
     3
 72
    10
 73
     6
 74
     0
 42
0.00000001
 43
0.00000001
 40
0.0
 40
0.0
 40
0.0
 40
0.0
 40
0.5
 40
0.5
 40
1.0
 40
1.0
 40
1.0
 40
1.0
 10
2.592494705928966
 20
1.297621449960769
 30
0.0
 10
2.590028339137384
 20
1.287359308792418
 30
0.0
 10
2.589155757389081
 20
1.276985277777096
 30
0.0
 10
2.590555977960982
 20
1.256016883529991
 30
0.0
 10
2.592840399829725
 20
1.245695541499017
 30
0.0
 10
2.596675517461099
 20
1.235836748463714
 30
0.0
  0
SPLINE
  5
83
330
1F
100
AcDbEntity
  8
0
  6
Continuous
 62
     7
370
    15
100
AcDbSpline
210
0.0
220
0.0
230
1.0
 70
     8
 71
     3
 72
     8
 73
     4
 74
     0
 42
0.00000001
 43
0.00000001
 40
0.0
 40
0.0
 40
0.0
 40
0.0
 40
1.0
 40
1.0
 40
1.0
 40
1.0
 10
2.59594054864306
 20
1.359053472235759
 30
0.0
 10
2.598516281074747
 20
1.338353707046349
 30
0.0
 10
2.597362875462382
 20
1.31787709204716
 30
0.0
 10
2.592494705928809
 20
1.297621449960807
 30
0.0
  0
SPLINE
  5
84
330
1F
100
AcDbEntity
  8
0
  6
Continuous
 62
     7
370
    15
100
AcDbSpline
210
0.0
220
0.0
230
1.0
 70
     8
 71
     3
 72
    12
 73
     8
 74
     0
 42
0.00000001
 43
0.00000001
 40
0.0
 40
0.0
 40
0.0
 40
0.0
 40
0.25
 40
0.25
 40
0.5
 40
0.5
 40
1.0
 40
1.0
 40
1.0
 40
1.0
 10
2.561741791937638
 20
1.409955910143015
 30
0.0
 10
2.566410218164247
 20
1.407335818430827
 30
0.0
 10
2.570680337298341
 20
1.404224311450347
 30
0.0
 10
2.578453110732508
 20
1.397054418875297
 30
0.0
 10
2.581966248012423
 20
1.392953553186738
 30
0.0
 10
2.590791544939613
 20
1.379815468198035
 30
0.0
 10
2.594622738375416
 20
1.369643998941242
 30
0.0
 10
2.595940548643022
 20
1.359053472235754
 30
0.0
  0
SPLINE
  5
85
330
1F
100
AcDbEntity
  8
0
  6
Continuous
 62
     7
370
    15
100
AcDbSpline
210
0.0
220
0.0
230
1.0
 70
     8
 71
     3
 72
    12
 73
     8
 74
     0
 42
0.00000001
 43
0.00000001
 40
0.0
 40
0.0
 40
0.0
 40
0.0
 40
0.2500000000000013
 40
0.2500000000000013
 40
0.5000000000000026
 40
0.5000000000000026
 40
1.0
 40
1.0
 40
1.0
 40
1.0
 10
2.718120330167965
 20
1.301777943290136
 30
0.0
 10
2.722612094191834
 20
1.304658773315825
 30
0.0
 10
2.727352157615128
 20
1.306962841417784
 30
0.0
 10
2.737312790567496
 20
1.310455129853341
 30
0.0
 10
2.7425777804817
 20
1.311633423224746
 30
0.0
 10
2.758320067898834
 20
1.313263998168712
 30
0.0
 10
2.769122209944822
 20
1.311876828109865
 30
0.0
 10
2.779122873700441
 20
1.308051888660349
 30
0.0
  0
SPLINE
  5
86
330
1F
100
AcDbEntity
  8
0
  6
Continuous
 62
     7
370
    15
100
AcDbSpline
210
0.0
220
0.0
230
1.0
 70
     8
 71
     3
 72
     8
 73
     4
 74
     0
 42
0.00000001
 43
0.00000001
 40
0.0
 40
0.0
 40
0.0
 40
0.0
 40
1.0
 40
1.0
 40
1.0
 40
1.0
 10
5.089859355062741
 20
2.699210419994719
 30
0.0
 10
5.070033253069583
 20
2.705606965209932
 30
0.0
 10
5.051953700507095
 20
2.715289520940109
 30
0.0
 10
5.03562632692682
 20
2.728271491068779
 30
0.0
  0
SPLINE
  5
87
330
1F
100
AcDbEntity
  8
0
  6
Continuous
 62
     7
370
    15
100
AcDbSpline
210
0.0
220
0.0
230
1.0
 70
     8
 71
     3
 72
    10
 73
     6
 74
     0
 42
0.00000001
 43
0.00000001
 40
0.0
 40
0.0
 40
0.0
 40
0.0
 40
0.5000000000000002
 40
0.5000000000000002
 40
1.0
 40
1.0
 40
1.0
 40
1.0
 10
5.140420395885887
 20
2.663455564729285
 30
0.0
 10
5.134002776230195
 20
2.67186515496708
 30
0.0
 10
5.126494901588984
 20
2.679094156416905
 30
0.0
 10
5.109342456978742
 20
2.691237576027259
 30
0.0
 10
5.099903979866193
 20
2.695969697398398
 30
0.0
 10
5.089859355062724
 20
2.69921041999467
 30
0.0
  0
ARC
  5
88
330
1F
100
AcDbEntity
  8
0
  6
Continuous
 62
     7
370
    15
100
AcDbCircle
 10
3.3665890183
 20
2.8440414
 30
0.0
 40
1.78299999999983
100
AcDbArc
 50
353.2548599217
 51
354.1870005434
  0
SPLINE
  5
89
330
1F
100
AcDbEntity
  8
0
  6
Continuous
 62
     7
370
    15
100
AcDbSpline
210
0.0
220
0.0
230
1.0
 70
     8
 71
     3
 72
    10
 73
     6
 74
     0
 42
0.00000001
 43
0.00000001
 40
0.0
 40
0.0
 40
0.0
 40
0.0
 40
0.5
 40
0.5
 40
1.0
 40
1.0
 40
1.0
 40
1.0
 10
5.080122249933726
 20
2.610716454009232
 30
0.0
 10
5.090631090001314
 20
2.611695630676728
 30
0.0
 10
5.10073122511038
 20
2.614219355938157
 30
0.0
 10
5.120124443620289
 20
2.622314864000622
 30
0.0
 10
5.129155377172994
 20
2.627809490808559
 30
0.0
 10
5.13724784668385
 20
2.634622409755518
 30
0.0
  0
SPLINE
  5
8A
330
1F
100
AcDbEntity
  8
0
  6
Continuous
 62
     7
370
    15
100
AcDbSpline
210
0.0
220
0.0
230
1.0
 70
     8
 71
     3
 72
     8
 73
     4
 74
     0
 42
0.00000001
 43
0.00000001
 40
0.0
 40
0.0
 40
0.0
 40
0.0
 40
1.0
 40
1.0
 40
1.0
 40
1.0
 10
5.020867945617756
 20
2.594142540387887
 30
0.0
 10
5.039627373157606
 20
2.603263864569193
 30
0.0
 10
5.059379668083184
 20
2.608783733362389
 30
0.0
 10
5.080122249933726
 20
2.610716454009221
 30
0.0
  0
SPLINE
  5
8B
330
1F
100
AcDbEntity
  8
0
  6
Continuous
 62
     7
370
    15
100
AcDbSpline
210
0.0
220
0.0
230
1.0
 70
     8
 71
     3
 72
    12
 73
     8
 74
     0
 42
0.00000001
 43
0.00000001
 40
0.0
 40
0.0
 40
0.0
 40
0.0
 40
0.2499999999999983
 40
0.2499999999999983
 40
0.4999999999999967
 40
0.4999999999999967
 40
1.0
 40
1.0
 40
1.0
 40
1.0
 10
4.983733906229189
 20
2.545339773869956
 30
0.0
 10
4.984706302763369
 20
2.550604164526547
 30
0.0
 10
4.986272406525692
 20
2.555650250487784
 30
0.0
 10
4.99054859022052
 20
2.565321792801551
 30
0.0
 10
4.993295489733145
 20
2.569970885128226
 30
0.0
 10
5.002880398161675
 20
2.58256560956166
 30
0.0
 10
5.011270098158781
 20
2.589475815994329
 30
0.0
 10
5.020867945617651
 20
2.594142540388105
 30
0.0
  0
SPLINE
  5
8C
330
1F
100
AcDbEntity
  8
0
  6
Continuous
 62
     7
370
    15
100
AcDbSpline
210
0.0
220
0.0
230
1.0
 70
     8
 71
     3
 72
    12
 73
     8
 74
     0
 42
0.00000001
 43
0.00000001
 40
0.0
 40
0.0
 40
0.0
 40
0.0
 40
0.2499999999999987
 40
0.2499999999999987
 40
0.4999999999999973
 40
0.4999999999999973
 40
1.0
 40
1.0
 40
1.0
 40
1.0
 10
5.035626326926809
 20
2.728271491068766
 30
0.0
 10
5.031449473786034
 20
2.731592526288485
 30
0.0
 10
5.027738324115469
 20
2.735334790727947
 30
0.0
 10
5.021216969517646
 20
2.743634382350541
 30
0.0
 10
5.018401818521944
 20
2.748236954996441
 30
0.0
 10
5.011775702166489
 20
2.762609677265313
 30
0.0
 10
5.009600797513153
 20
2.773281199291974
 30
0.0
 10
5.0099918997635
 20
2.78398127005371
 30
0.0
  0
SPLINE
  5
8D
330
1F
100
AcDbEntity
  8
0
  6
Continuous
 62
     7
370
    15
100
AcDbSpline
210
0.0
220
0.0
230
1.0
 70
     8
 71
     3
 72
     8
 73
     4
 74
     0
 42
0.00000001
 43
0.00000001
 40
0.0
 40
0.0
 40
0.0
 40
0.0
 40
1.0
 40
1.0
 40
1.0
 40
1.0
 10
5.092582657189739
 20
2.951664003795361
 30
0.0
 10
5.072036490215227
 20
2.955105679780816
 30
0.0
 10
5.052739813368826
 20
2.962052648113275
 30
0.0
 10
5.034696244588871
 20
2.972518989505314
 30
0.0
  0
SPLINE
  5
8E
330
1F
100
AcDbEntity
  8
0
  6
Continuous
 62
     7
370
    15
100
AcDbSpline
210
0.0
220
0.0
230
1.0
 70
     8
 71
     3
 72
    10
 73
     6
 74
     0
 42
0.00000001
 43
0.00000001
 40
0.0
 40
0.0
 40
0.0
 40
0.0
 40
0.5
 40
0.5
 40
1.0
 40
1.0
 40
1.0
 40
1.0
 10
5.147810836290489
 20
2.923651921447563
 30
0.0
 10
5.140237160686444
 20
2.931037480861704
 30
0.0
 10
5.131756743649117
 20
2.937096290188975
 30
0.0
 10
5.113018990251925
 20
2.946612885881569
 30
0.0
 10
5.10299209311829
 20
2.949920325487817
 30
0.0
 10
5.092582657189737
 20
2.951664003795347
 30
0.0
  0
ARC
  5
8F
330
1F
100
AcDbEntity
  8
0
  6
Continuous
 62
     7
370
    15
100
AcDbCircle
 10
3.3665890183
 20
2.8440414
 30
0.0
 40
1.783000000000149
100
AcDbArc
 50
1.6269529449
 51
2.5590935667
  0
SPLINE
  5
90
330
1F
100
AcDbEntity
  8
0
  6
Continuous
 62
     7
370
    15
100
AcDbSpline
210
0.0
220
0.0
230
1.0
 70
     8
 71
     3
 72
    10
 73
     6
 74
     0
 42
0.00000001
 43
0.00000001
 40
0.0
 40
0.0
 40
0.0
 40
0.0
 40
0.5
 40
0.5
 40
1.0
 40
1.0
 40
1.0
 40
1.0
 10
5.095834141591746
 20
2.862695351555727
 30
0.0
 10
5.106088423552473
 20
2.86519419288324
 30
0.0
 10
5.11571346789411
 20
2.86916161519959
 30
0.0
 10
5.133721304585069
 20
2.879994527673404
 30
0.0
 10
5.14185597472367
 20
2.886745514737026
 30
0.0
 10
5.148870236811178
 20
2.894664103924976
 30
0.0
  0
SPLINE
  5
91
330
1F
100
AcDbEntity
  8
0
  6
Continuous
 62
     7
370
    15
100
AcDbSpline
210
0.0
220
0.0
230
1.0
 70
     8
 71
     3
 72
     8
 73
     4
 74
     0
 42
0.00000001
 43
0.00000001
 40
0.0
 40
0.0
 40
0.0
 40
0.0
 40
1.0
 40
1.0
 40
1.0
 40
1.0
 10
5.03962446976354
 20
2.837670564130014
 30
0.0
 10
5.056855909537032
 20
2.84942608027271
 30
0.0
 10
5.075594012184033
 20
2.857763083062484
 30
0.0
 10
5.095834141591689
 20
2.862695351555968
 30
0.0
  0
SPLINE
  5
92
330
1F
100
AcDbEntity
  8
0
  6
Continuous
 62
     7
370
    15
100
AcDbSpline
210
0.0
220
0.0
230
1.0
 70
     8
 71
     3
 72
    12
 73
     8
 74
     0
 42
0.00000001
 43
0.00000001
 40
0.0
 40
0.0
 40
0.0
 40
0.0
 40
0.2500000000000016
 40
0.2500000000000016
 40
0.5000000000000031
 40
0.5000000000000031
 40
1.0
 40
1.0
 40
1.0
 40
1.0
 10
5.0099918997635
 20
2.78398127005371
 30
0.0
 10
5.010187444409834
 20
2.78933112818156
 30
0.0
 10
5.011002151404374
 20
2.794551451653195
 30
0.0
 10
5.013824588126529
 20
2.804742514202835
 30
0.0
 10
5.015865303787666
 20
2.809741999165662
 30
0.0
 10
5.02351425993631
 20
2.823598036867546
 30
0.0
 10
5.030808405746972
 20
2.831656128643155
 30
0.0
 10
5.039624469763597
 20
2.837670564129931
 30
0.0
  0
SPLINE
  5
93
330
1F
100
AcDbEntity
  8
0
  6
Continuous
 62
     7
370
    15
100
AcDbSpline
210
0.0
220
0.0
230
1.0
 70
     8
 71
     3
 72
    12
 73
     8
 74
     0
 42
0.00000001
 43
0.00000001
 40
0.0
 40
0.0
 40
0.0
 40
0.0
 40
0.25
 40
0.25
 40
0.5
 40
0.5
 40
1.0
 40
1.0
 40
1.0
 40
1.0
 10
5.034696244588705
 20
2.972518989505025
 30
0.0
 10
5.030080375957945
 20
2.975196467419683
 30
0.0
 10
5.025863913097911
 20
2.978358488510406
 30
0.0
 10
5.018203650253127
 20
2.985620078034206
 30
0.0
 10
5.01474836788186
 20
2.989763690397687
 30
0.0
 10
5.0061001885581
 20
3.003018403895047
 30
0.0
 10
5.002394661160612
 20
3.013259478273173
 30
0.0
 10
5.00122361514136
 20
3.023902415278028
 30
0.0
  0
SPLINE
  5
94
330
1F
100
AcDbEntity
  8
0
  6
Continuous
 62
     7
370
    15
100
AcDbSpline
210
0.0
220
0.0
230
1.0
 70
     8
 71
     3
 72
     8
 73
     4
 74
     0
 42
0.00000001
 43
0.00000001
 40
0.0
 40
0.0
 40
0.0
 40
0.0
 40
1.0
 40
1.0
 40
1.0
 40
1.0
 10
4.173862821400543
 20
4.373402597741739
 30
0.0
 10
4.160221703345273
 20
4.357657439465775
 30
0.0
 10
4.144239401780276
 20
4.344804885516709
 30
0.0
 10
4.12590578223671
 20
4.334855359352963
 30
0.0
  0
SPLINE
  5
95
330
1F
100
AcDbEntity
  8
0
  6
Continuous
 62
     7
370
    15
100
AcDbSpline
210
0.0
220
0.0
230
1.0
 70
     8
 71
     3
 72
    10
 73
     6
 74
     0
 42
0.00000001
 43
0.00000001
 40
0.0
 40
0.0
 40
0.0
 40
0.0
 40
0.5
 40
0.5
 40
1.0
 40
1.0
 40
1.0
 40
1.0
 10
4.226544327727098
 20
4.405952366025585
 30
0.0
 10
4.216294632104727
 20
4.403334964707276
 30
0.0
 10
4.206705082996326
 20
4.399252417525987
 30
0.0
 10
4.188820531047466
 20
4.38821557932262
 30
0.0
 10
4.180773908250409
 20
4.381379667939601
 30
0.0
 10
4.173862821400731
 20
4.373402597741577
 30
0.0
  0
ARC
  5
96
330
1F
100
AcDbEntity
  8
0
  6
Continuous
 62
     7
370
    15
100
AcDbCircle
 10
3.3665890183
 20
2.8440414
 30
0.0
 40
1.78299999999997
100
AcDbArc
 50
60.2316041077
 51
61.1637447295
  0
SPLINE
  5
97
330
1F
100
AcDbEntity
  8
0
  6
Continuous
 62
     7
370
    15
100
AcDbSpline
210
0.0
220
0.0
230
1.0
 70
     8
 71
     3
 72
    10
 73
     6
 74
     0
 42
0.00000001
 43
0.00000001
 40
0.0
 40
0.0
 40
0.0
 40
0.0
 40
0.5
 40
0.5
 40
1.0
 40
1.0
 40
1.0
 40
1.0
 10
4.251840012898414
 20
4.391755739458792
 30
0.0
 10
4.254945297149287
 20
4.381643160176803
 30
0.0
 10
4.256456046067298
 20
4.371330823812344
 30
0.0
 10
4.256351861833783
 20
4.350315159616609
 30
0.0
 10
4.254708585539616
 20
4.339885516003448
 30
0.0
 10
4.251499677484394
 20
4.329830682365736
 30
0.0
  0
SPLINE
  5
98
330
1F
100
AcDbEntity
  8
0
  6
Continuous
 62
     7
370
    15
100
AcDbSpline
210
0.0
220
0.0
230
1.0
 70
     8
 71
     3
 72
     8
 73
     4
 74
     0
 42
0.00000001
 43
0.00000001
 40
0.0
 40
0.0
 40
0.0
 40
0.0
 40
1.0
 40
1.0
 40
1.0
 40
1.0
 10
4.243578777504606
 20
4.268814073673743
 30
0.0
 10
4.242520902269773
 20
4.289646634160611
 30
0.0
 10
4.245165927878137
 20
4.309984430153833
 30
0.0
 10
4.25149967748396
 20
4.329830682365875
 30
0.0
  0
SPLINE
  5
99
330
1F
100
AcDbEntity
  8
0
  6
Continuous
 62
     7
370
    15
100
AcDbSpline
210
0.0
220
0.0
230
1.0
 70
     8
 71
     3
 72
    12
 73
     8
 74
     0
 42
0.00000001
 43
0.00000001
 40
0.0
 40
0.0
 40
0.0
 40
0.0
 40
0.2499999999999992
 40
0.2499999999999992
 40
0.4999999999999984
 40
0.4999999999999984
 40
1.0
 40
1.0
 40
1.0
 40
1.0
 10
4.273970963658847
 20
4.215550880550656
 30
0.0
 10
4.269506204614527
 20
4.218504749023252
 30
0.0
 10
4.265474563517829
 20
4.221919654788196
 30
0.0
 10
4.258245821379999
 20
4.229637812367762
 30
0.0
 10
4.255041367578647
 20
4.233984194897891
 30
0.0
 10
4.247198552093377
 20
4.247731493320535
 30
0.0
 10
4.24412001649866
 20
4.258155544479533
 30
0.0
 10
4.243578777505024
 20
4.268814073673763
 30
0.0
  0
SPLINE
  5
9A
330
1F
100
AcDbEntity
  8
0
  6
Continuous
 62
     7
370
    15
100
AcDbSpline
210
0.0
220
0.0
230
1.0
 70
     8
 71
     3
 72
    12
 73
     8
 74
     0
 42
0.00000001
 43
0.00000001
 40
0.0
 40
0.0
 40
0.0
 40
0.0
 40
0.2500000000000016
 40
0.2500000000000016
 40
0.5000000000000032
 40
0.5000000000000032
 40
1.0
 40
1.0
 40
1.0
 40
1.0
 10
4.12590578223671
 20
4.334855359352962
 30
0.0
 10
4.121215682152423
 20
4.33231007507954
 30
0.0
 10
4.116320043236468
 20
4.330358146703321
 30
0.0
 10
4.106130987372206
 20
4.327602251343784
 30
0.0
 10
4.100793995218504
 20
4.326811428329882
 30
0.0
 10
4.084974572676663
 20
4.326334363146631
 30
0.0
 10
4.074302440235755
 20
4.328506403162595
 30
0.0
 10
4.064607620025105
 20
4.333051232625241
 30
0.0
  0
SPLINE
  5
9B
330
1F
100
AcDbEntity
  8
0
  6
Continuous
 62
     7
370
    15
100
AcDbSpline
210
0.0
220
0.0
230
1.0
 70
     8
 71
     3
 72
     8
 73
     4
 74
     0
 42
0.00000001
 43
0.00000001
 40
0.0
 40
0.0
 40
0.0
 40
0.0
 40
1.0
 40
1.0
 40
1.0
 40
1.0
 10
3.942583225338543
 20
4.474644766789749
 30
0.0
 10
3.931379989088697
 20
4.457081236152251
 30
0.0
 10
3.91743935189231
 20
4.442038605369078
 30
0.0
 10
3.900749769612135
 20
4.429525711229203
 30
0.0
  0
SPLINE
  5
9C
330
1F
100
AcDbEntity
  8
0
  6
Continuous
 62
     7
370
    15
100
AcDbSpline
210
0.0
220
0.0
230
1.0
 70
     8
 71
     3
 72
    10
 73
     6
 74
     0
 42
0.00000001
 43
0.00000001
 40
0.0
 40
0.0
 40
0.0
 40
0.0
 40
0.5
 40
0.5
 40
1.0
 40
1.0
 40
1.0
 40
1.0
 10
3.989964039971259
 20
4.514518153013388
 30
0.0
 10
3.980204668270792
 20
4.510436276725963
 30
0.0
 10
3.97131173509447
 20
4.505000986199051
 30
0.0
 10
3.95522474876329
 20
4.491477751869759
 30
0.0
 10
3.948259192543483
 20
4.483543090602572
 30
0.0
 10
3.942583225338489
 20
4.474644766789783
 30
0.0
  0
ARC
  5
9D
330
1F
100
AcDbEntity
  8
0
  6
Continuous
 62
     7
370
    15
100
AcDbCircle
 10
3.3665890183
 20
2.8440414
 30
0.0
 40
1.782999999999963
100
AcDbArc
 50
68.603697131
 51
69.5358377527
  0
SPLINE
  5
9E
330
1F
100
AcDbEntity
  8
0
  6
Continuous
 62
     7
370
    15
100
AcDbSpline
210
0.0
220
0.0
230
1.0
 70
     8
 71
     3
 72
    10
 73
     6
 74
     0
 42
0.00000001
 43
0.00000001
 40
0.0
 40
0.0
 40
0.0
 40
0.0
 40
0.5
 40
0.5
 40
1.0
 40
1.0
 40
1.0
 40
1.0
 10
4.017057203742556
 20
4.50415589596994
 30
0.0
 10
4.021601799474368
 20
4.494603215736269
 30
0.0
 10
4.024597937113941
 20
4.484620740951351
 30
0.0
 10
4.027554768381024
 20
4.463813863607625
 30
0.0
 10
4.027447572166595
 20
4.45325610192028
 30
0.0
 10
4.02573685578243
 20
4.442841198183759
 30
0.0
  0
SPLINE
  5
9F
330
1F
100
AcDbEntity
  8
0
  6
Continuous
 62
     7
370
    15
100
AcDbSpline
210
0.0
220
0.0
230
1.0
 70
     8
 71
     3
 72
     8
 73
     4
 74
     0
 42
0.00000001
 43
0.00000001
 40
0.0
 40
0.0
 40
0.0
 40
0.0
 40
1.0
 40
1.0
 40
1.0
 40
1.0
 10
4.026784455395589
 20
4.3813215287448
 30
0.0
 10
4.02270460841384
 20
4.401778056433164
 30
0.0
 10
4.02236024011204
 20
4.422284238837701
 30
0.0
 10
4.025736855782378
 20
4.442841198183768
 30
0.0
  0
SPLINE
  5
A0
330
1F
100
AcDbEntity
  8
0
  6
Continuous
 62
     7
370
    15
100
AcDbSpline
210
0.0
220
0.0
230
1.0
 70
     8
 71
     3
 72
    12
 73
     8
 74
     0
 42
0.00000001
 43
0.00000001
 40
0.0
 40
0.0
 40
0.0
 40
0.0
 40
0.2500000000000002
 40
0.2500000000000002
 40
0.5000000000000004
 40
0.5000000000000004
 40
1.0
 40
1.0
 40
1.0
 40
1.0
 10
3.900749769612025
 20
4.429525711229351
 30
0.0
 10
3.896480275175526
 20
4.426324688518408
 30
0.0
 10
3.891921042779179
 20
4.423680764467917
 30
0.0
 10
3.882241902006896
 20
4.419470712807809
 30
0.0
 10
3.877076967142044
 20
4.417911243209732
 30
0.0
 10
3.861495699004674
 20
4.415135905228127
 30
0.0
 10
3.85062111642641
 20
4.41573086945976
 30
0.0
 10
3.840367928570154
 20
4.41881560419078
 30
0.0
  0
SPLINE
  5
A1
330
1F
100
AcDbEntity
  8
0
  6
Continuous
 62
     7
370
    15
100
AcDbSpline
210
0.0
220
0.0
230
1.0
 70
     8
 71
     3
 72
    12
 73
     8
 74
     0
 42
0.00000001
 43
0.00000001
 40
0.0
 40
0.0
 40
0.0
 40
0.0
 40
0.2500000000000036
 40
0.2500000000000036
 40
0.5000000000000071
 40
0.5000000000000071
 40
1.0
 40
1.0
 40
1.0
 40
1.0
 10
4.064607620025023
 20
4.333051232624842
 30
0.0
 10
4.059760393290493
 20
4.335323561393863
 30
0.0
 10
4.055274540070254
 20
4.338115069051188
 30
0.0
 10
4.046999133391117
 20
4.344698458361131
 30
0.0
 10
4.043196024075311
 20
4.348531941571543
 30
0.0
 10
4.033435251611089
 20
4.360990772690387
 30
0.0
 10
4.028871808986286
 20
4.370855448346314
 30
0.0
 10
4.026784455395519
 20
4.381321528744787
 30
0.0
  0
SPLINE
  5
A2
330
1F
100
AcDbEntity
  8
0
  6
Continuous
 62
     7
370
    15
100
AcDbSpline
210
0.0
220
0.0
230
1.0
 70
     8
 71
     3
 72
     8
 73
     4
 74
     0
 42
0.00000001
 43
0.00000001
 40
0.0
 40
0.0
 40
0.0
 40
0.0
 40
1.0
 40
1.0
 40
1.0
 40
1.0
 10
3.699027312766025
 20
4.541133456047715
 30
0.0
 10
3.690500735851598
 20
4.522125889210994
 30
0.0
 10
3.678898883502358
 20
4.50521378915236
 30
0.0
 10
3.664209047955917
 20
4.490404217650563
 30
0.0
  0
SPLINE
  5
A3
330
1F
100
AcDbEntity
  8
0
  6
Continuous
 62
     7
370
    15
100
AcDbSpline
210
0.0
220
0.0
230
1.0
 70
     8
 71
     3
 72
    10
 73
     6
 74
     0
 42
0.00000001
 43
0.00000001
 40
0.0
 40
0.0
 40
0.0
 40
0.0
 40
0.5
 40
0.5
 40
1.0
 40
1.0
 40
1.0
 40
1.0
 10
3.740097595901015
 20
4.587480628209668
 30
0.0
 10
3.731036552186577
 20
4.582021275059431
 30
0.0
 10
3.723029772373588
 20
4.575349084968019
 30
0.0
 10
3.709083217844429
 20
4.559627678774213
 30
0.0
 10
3.703347186939498
 20
4.550763381152044
 30
0.0
 10
3.699027312765867
 20
4.541133456047785
 30
0.0
  0
ARC
  5
A4
330
1F
100
AcDbEntity
  8
0
  6
Continuous
 62
     7
370
    15
100
AcDbCircle
 10
3.3665890183
 20
2.8440414
 30
0.0
 40
1.78300000000011
100
AcDbArc
 50
76.9757901542
 51
77.907930776
  0
SPLINE
  5
A5
330
1F
100
AcDbEntity
  8
0
  6
Continuous
 62
     7
370
    15
100
AcDbSpline
210
0.0
220
0.0
230
1.0
 70
     8
 71
     3
 72
    10
 73
     6
 74
     0
 42
0.00000001
 43
0.00000001
 40
0.0
 40
0.0
 40
0.0
 40
0.0
 40
0.5
 40
0.5
 40
1.0
 40
1.0
 40
1.0
 40
1.0
 10
3.768410794524268
 20
4.581173594207829
 30
0.0
 10
3.774297841569207
 20
4.5723844118167
 30
0.0
 10
3.778715510458364
 20
4.562944557730264
 30
0.0
 10
3.784670337501206
 20
4.542789929705049
 30
0.0
 10
3.786101506067738
 20
4.532329070303898
 30
0.0
 10
3.785925442304285
 20
4.521776072059762
 30
0.0
  0
SPLINE
  5
A6
330
1F
100
AcDbEntity
  8
0
  6
Continuous
 62
     7
370
    15
100
AcDbSpline
210
0.0
220
0.0
230
1.0
 70
     8
 71
     3
 72
     8
 73
     4
 74
     0
 42
0.00000001
 43
0.00000001
 40
0.0
 40
0.0
 40
0.0
 40
0.0
 40
1.0
 40
1.0
 40
1.0
 40
1.0
 10
3.795919213742626
 20
4.461064526821731
 30
0.0
 10
3.788904349869429
 20
4.48070902633917
 30
0.0
 10
3.785577927270093
 20
4.500946541478569
 30
0.0
 10
3.785925442304251
 20
4.521776072059763
 30
0.0
  0
SPLINE
  5
A7
330
1F
100
AcDbEntity
  8
0
  6
Continuous
 62
     7
370
    15
100
AcDbSpline
210
0.0
220
0.0
230
1.0
 70
     8
 71
     3
 72
    12
 73
     8
 74
     0
 42
0.00000001
 43
0.00000001
 40
0.0
 40
0.0
 40
0.0
 40
0.0
 40
0.2499999999999972
 40
0.2499999999999972
 40
0.4999999999999943
 40
0.4999999999999943
 40
1.0
 40
1.0
 40
1.0
 40
1.0
 10
3.840367869931381
 20
4.418815621832644
 30
0.0
 10
3.835241406871331
 20
4.420357954860009
 30
0.0
 10
3.830396873390083
 20
4.422466558423465
 30
0.0
 10
3.821251030791761
 20
4.427774876612447
 30
0.0
 10
3.81693025475928
 20
4.43101377490756
 30
0.0
 10
3.805459384968514
 20
4.44191868827383
 30
0.0
 10
3.799508217339179
 20
4.45101384291774
 30
0.0
 10
3.795919213742701
 20
4.461064526821758
 30
0.0
  0
SPLINE
  5
A8
330
1F
100
AcDbEntity
  8
0
  6
Continuous
 62
     7
370
    15
100
AcDbSpline
210
0.0
220
0.0
230
1.0
 70
     8
 71
     3
 72
    12
 73
     8
 74
     0
 42
0.00000001
 43
0.00000001
 40
0.0
 40
0.0
 40
0.0
 40
0.0
 40
0.249999999999999
 40
0.249999999999999
 40
0.499999999999998
 40
0.499999999999998
 40
1.0
 40
1.0
 40
1.0
 40
1.0
 10
3.664209047955613
 20
4.490404217650863
 30
0.0
 10
3.660451108234416
 20
4.486615647191777
 30
0.0
 10
3.656325400809487
 20
4.48333605678467
 30
0.0
 10
3.647362350213318
 20
4.477761560320516
 30
0.0
 10
3.64247949205037
 20
4.47546668641745
 30
0.0
 10
3.627468285751205
 20
4.470452282299615
 30
0.0
 10
3.616622910503193
 20
4.46945758221031
 30
0.0
 10
3.606029805059601
 20
4.471016617893787
 30
0.0
  0
SPLINE
  5
A9
330
1F
100
AcDbEntity
  8
0
  6
Continuous
 62
     7
370
    15
100
AcDbSpline
210
0.0
220
0.0
230
1.0
 70
     8
 71
     3
 72
     8
 73
     4
 74
     0
 42
0.00000001
 43
0.00000001
 40
0.0
 40
0.0
 40
0.0
 40
0.0
 40
1.0
 40
1.0
 40
1.0
 40
1.0
 10
3.448386055109832
 20
4.57145157453773
 30
0.0
 10
3.442717866714363
 20
4.551405084788883
 30
0.0
 10
3.433702072552581
 20
4.532983967505603
 30
0.0
 10
3.421325072080783
 20
4.516193358946752
 30
0.0
  0
SPLINE
  5
AA
330
1F
100
AcDbEntity
  8
0
  6
Continuous
 62
     7
370
    15
100
AcDbSpline
210
0.0
220
0.0
230
1.0
 70
     8
 71
     3
 72
    10
 73
     6
 74
     0
 42
0.00000001
 43
0.00000001
 40
0.0
 40
0.0
 40
0.0
 40
0.0
 40
0.5
 40
0.5
 40
1.0
 40
1.0
 40
1.0
 40
1.0
 10
3.482270464966427
 20
4.623284723128643
 30
0.0
 10
3.474100869653491
 20
4.616564249749783
 30
0.0
 10
3.467150893814527
 20
4.608797366241739
 30
0.0
 10
3.455642017683892
 20
4.591212862661835
 30
0.0
 10
3.451257765633966
 20
4.58160785579882
 30
0.0
 10
3.448386055109737
 20
4.571451574537757
 30
0.0
  0
ARC
  5
AB
330
1F
100
AcDbEntity
  8
0
  6
Continuous
 62
     7
370
    15
100
AcDbCircle
 10
3.3665890183
 20
2.8440414
 30
0.0
 40
1.783000000000152
100
AcDbArc
 50
85.3478831775
 51
86.2800237992
  0
SPLINE
  5
AC
330
1F
100
AcDbEntity
  8
0
  6
Continuous
 62
     7
370
    15
100
AcDbSpline
210
0.0
220
0.0
230
1.0
 70
     8
 71
     3
 72
    10
 73
     6
 74
     0
 42
0.00000001
 43
0.00000001
 40
0.0
 40
0.0
 40
0.0
 40
0.0
 40
0.5
 40
0.5
 40
1.0
 40
1.0
 40
1.0
 40
1.0
 10
3.53717660097952
 20
4.56495294420076
 30
0.0
 10
3.535814273472046
 20
4.575419011765659
 30
0.0
 10
3.532923354550694
 20
4.585420237000847
 30
0.0
 10
3.524124967846084
 20
4.604504852961136
 30
0.0
 10
3.518304178823804
 20
4.613329086624992
 30
0.0
 10
3.511200251768793
 20
4.621167335648679
 30
0.0
  0
SPLINE
  5
AD
330
1F
100
AcDbEntity
  8
0
  6
Continuous
 62
     7
370
    15
100
AcDbSpline
210
0.0
220
0.0
230
1.0
 70
     8
 71
     3
 72
     8
 73
     4
 74
     0
 42
0.00000001
 43
0.00000001
 40
0.0
 40
0.0
 40
0.0
 40
0.0
 40
1.0
 40
1.0
 40
1.0
 40
1.0
 10
3.555903544356137
 20
4.506343484344884
 30
0.0
 10
3.546103173235742
 20
4.524757267290326
 30
0.0
 10
3.539865593261204
 20
4.544294787665143
 30
0.0
 10
3.537176600979513
 20
4.564952944200759
 30
0.0
  0
SPLINE
  5
AE
330
1F
100
AcDbEntity
  8
0
  6
Continuous
 62
     7
370
    15
100
AcDbSpline
210
0.0
220
0.0
230
1.0
 70
     8
 71
     3
 72
    12
 73
     8
 74
     0
 42
0.00000001
 43
0.00000001
 40
0.0
 40
0.0
 40
0.0
 40
0.0
 40
0.2500000000000015
 40
0.2500000000000015
 40
0.500000000000003
 40
0.500000000000003
 40
1.0
 40
1.0
 40
1.0
 40
1.0
 10
3.42132507208072
 20
4.516193358946798
 30
0.0
 10
3.418158817456191
 20
4.511898025669637
 30
0.0
 10
3.414554611070283
 20
4.508052696023133
 30
0.0
 10
3.406498784651224
 20
4.501232602752989
 30
0.0
 10
3.402002128787006
 20
4.498251242416357
 30
0.0
 10
3.387881091464027
 20
4.491104628368097
 30
0.0
 10
3.377296192494042
 20
4.488541402907386
 30
0.0
 10
3.366589036768735
 20
4.48854139999976
 30
0.0
  0
SPLINE
  5
AF
330
1F
100
AcDbEntity
  8
0
  6
Continuous
 62
     7
370
    15
100
AcDbSpline
210
0.0
220
0.0
230
1.0
 70
     8
 71
     3
 72
    12
 73
     8
 74
     0
 42
0.00000001
 43
0.00000001
 40
0.0
 40
0.0
 40
0.0
 40
0.0
 40
0.25
 40
0.25
 40
0.5
 40
0.5
 40
1.0
 40
1.0
 40
1.0
 40
1.0
 10
3.606029805059626
 20
4.471016617893512
 30
0.0
 10
3.600733427815505
 20
4.471796109909396
 30
0.0
 10
3.595633526680178
 20
4.473176882542051
 30
0.0
 10
3.585812293877951
 20
4.477096996221107
 30
0.0
 10
3.581065996485051
 20
4.479672269289993
 30
0.0
 10
3.568129657067814
 20
4.488790790748836
 30
0.0
 10
3.560917675522647
 20
4.496922502034863
 30
0.0
 10
3.555903544356207
 20
4.50634348434492
 30
0.0
  0
SPLINE
  5
B0
330
1F
100
AcDbEntity
  8
0
  6
Continuous
 62
     7
370
    15
100
AcDbSpline
210
0.0
220
0.0
230
1.0
 70
     8
 71
     3
 72
     8
 73
     4
 74
     0
 42
0.00000001
 43
0.00000001
 40
0.0
 40
0.0
 40
0.0
 40
0.0
 40
1.0
 40
1.0
 40
1.0
 40
1.0
 10
4.553384391063581
 20
1.586204602350675
 30
0.0
 10
4.542886996755683
 20
1.604198902106007
 30
0.0
 10
4.535883200510092
 20
1.62347502579531
 30
0.0
 10
4.532386139723838
 20
1.644039199552497
 30
0.0
  0
SPLINE
  5
B1
330
1F
100
AcDbEntity
  8
0
  6
Continuous
 62
     7
370
    15
100
AcDbSpline
210
0.0
220
0.0
230
1.0
 70
     8
 71
     3
 72
    10
 73
     6
 74
     0
 42
0.00000001
 43
0.00000001
 40
0.0
 40
0.0
 40
0.0
 40
0.0
 40
0.5
 40
0.5
 40
1.0
 40
1.0
 40
1.0
 40
1.0
 10
4.553384391063893
 20
1.586204602350857
 30
0.0
 10
4.558702699011292
 20
1.57708812786302
 30
0.0
 10
4.562527032809255
 20
1.567405339555033
 30
0.0
 10
4.567227156247321
 20
1.546922590359114
 30
0.0
 10
4.568013161838715
 20
1.536380727155435
 30
0.0
 10
4.567180960288465
 20
1.525835047094854
 30
0.0
  0
ARC
  5
B2
330
1F
100
AcDbEntity
  8
0
  6
Continuous
 62
     7
370
    15
100
AcDbCircle
 10
3.3665890183
 20
2.8440414
 30
0.0
 40
1.783000000000107
100
AcDbArc
 50
311.3943948054
 51
312.3265354271
  0
SPLINE
  5
B3
330
1F
100
AcDbEntity
  8
0
  6
Continuous
 62
     7
370
    15
100
AcDbSpline
210
0.0
220
0.0
230
1.0
 70
     8
 71
     3
 72
    10
 73
     6
 74
     0
 42
0.00000001
 43
0.00000001
 40
0.0
 40
0.0
 40
0.0
 40
0.0
 40
0.5
 40
0.5
 40
1.0
 40
1.0
 40
1.0
 40
1.0
 10
4.487078777841655
 20
1.526794511563667
 30
0.0
 10
4.495558892606598
 20
1.520511028446365
 30
0.0
 10
4.504765321619063
 20
1.515650618663781
 30
0.0
 10
4.524611136115548
 20
1.508738468352023
 30
0.0
 10
4.535003792039685
 20
1.506804201710438
 30
0.0
 10
4.545577227193697
 20
1.506478017091579
 30
0.0
  0
SPLINE
  5
B4
330
1F
100
AcDbEntity
  8
0
  6
Continuous
 62
     7
370
    15
100
AcDbSpline
210
0.0
220
0.0
230
1.0
 70
     8
 71
     3
 72
     8
 73
     4
 74
     0
 42
0.00000001
 43
0.00000001
 40
0.0
 40
0.0
 40
0.0
 40
0.0
 40
1.0
 40
1.0
 40
1.0
 40
1.0
 10
4.431887735944531
 20
1.55399223365511
 30
0.0
 10
4.451946066949715
 20
1.548267023290044
 30
0.0
 10
4.470340539036728
 20
1.539196990051003
 30
0.0
 10
4.487078777841671
 20
1.526794511563687
 30
0.0
  0
SPLINE
  5
B5
330
1F
100
AcDbEntity
  8
0
  6
Continuous
 62
     7
370
    15
100
AcDbSpline
210
0.0
220
0.0
230
1.0
 70
     8
 71
     3
 72
    12
 73
     8
 74
     0
 42
0.00000001
 43
0.00000001
 40
0.0
 40
0.0
 40
0.0
 40
0.0
 40
0.25
 40
0.25
 40
0.5
 40
0.5
 40
1.0
 40
1.0
 40
1.0
 40
1.0
 10
4.371664541671572
 20
1.542425695450649
 30
0.0
 10
4.375901777445656
 20
1.545697538468649
 30
0.0
 10
4.380435506371051
 20
1.548410605671915
 30
0.0
 10
4.390074262721682
 20
1.552760076914115
 30
0.0
 10
4.395222486282984
 20
1.554389514646149
 30
0.0
 10
4.41076569760358
 20
1.557373482946612
 30
0.0
 10
4.421625376181106
 20
1.556921399022119
 30
0.0
 10
4.431887735944657
 20
1.553992233655713
 30
0.0
  0
SPLINE
  5
B6
330
1F
100
AcDbEntity
  8
0
  6
Continuous
 62
     7
370
    15
100
AcDbSpline
210
0.0
220
0.0
230
1.0
 70
     8
 71
     3
 72
    12
 73
     8
 74
     0
 42
0.00000001
 43
0.00000001
 40
0.0
 40
0.0
 40
0.0
 40
0.0
 40
0.2499999999999996
 40
0.2499999999999996
 40
0.4999999999999991
 40
0.4999999999999991
 40
1.0
 40
1.0
 40
1.0
 40
1.0
 10
4.53238613972483
 20
1.644039199552772
 30
0.0
 10
4.531491528908093
 20
1.649299883711468
 30
0.0
 10
4.531224849807996
 20
1.654563514963949
 30
0.0
 10
4.531906386077005
 20
1.665096596100022
 30
0.0
 10
4.532881110710678
 20
1.670403045629993
 30
0.0
 10
4.537537300336457
 20
1.68552912547731
 30
0.0
 10
4.543038745893489
 20
1.694928306993494
 30
0.0
 10
4.550470321275521
 20
1.702636427839677
 30
0.0
  0
SPLINE
  5
B7
330
1F
100
AcDbEntity
  8
0
  6
Continuous
 62
     7
370
    15
100
AcDbSpline
210
0.0
220
0.0
230
1.0
 70
     8
 71
     3
 72
     8
 73
     4
 74
     0
 42
0.00000001
 43
0.00000001
 40
0.0
 40
0.0
 40
0.0
 40
0.0
 40
1.0
 40
1.0
 40
1.0
 40
1.0
 10
4.357594643048411
 20
1.426810113988616
 30
0.0
 10
4.349829106664863
 20
1.446141087984021
 30
0.0
 10
4.345706573416415
 20
1.466231554030046
 30
0.0
 10
4.345240947232347
 20
1.487085759090679
 30
0.0
  0
SPLINE
  5
B8
330
1F
100
AcDbEntity
  8
0
  6
Continuous
 62
     7
370
    15
100
AcDbSpline
210
0.0
220
0.0
230
1.0
 70
     8
 71
     3
 72
    10
 73
     6
 74
     0
 42
0.00000001
 43
0.00000001
 40
0.0
 40
0.0
 40
0.0
 40
0.0
 40
0.5
 40
0.5
 40
1.0
 40
1.0
 40
1.0
 40
1.0
 10
4.35759464304877
 20
1.426810113988775
 30
0.0
 10
4.361528906414842
 20
1.417016438566471
 30
0.0
 10
4.363902660410572
 20
1.406880008702663
 30
0.0
 10
4.365570384161758
 20
1.385931193164617
 30
0.0
 10
4.364813105988294
 20
1.375387227385003
 30
0.0
 10
4.362454309572246
 20
1.365075098272724
 30
0.0
  0
ARC
  5
B9
330
1F
100
AcDbEntity
  8
0
  6
Continuous
 62
     7
370
    15
100
AcDbCircle
 10
3.3665890183
 20
2.8440414
 30
0.0
 40
1.782999999999979
100
AcDbArc
 50
303.0223017822
 51
303.9544424039
  0
SPLINE
  5
BA
330
1F
100
AcDbEntity
  8
0
  6
Continuous
 62
     7
370
    15
100
AcDbSpline
210
0.0
220
0.0
230
1.0
 70
     8
 71
     3
 72
    10
 73
     6
 74
     0
 42
0.00000001
 43
0.00000001
 40
0.0
 40
0.0
 40
0.0
 40
0.0
 40
0.5
 40
0.5
 40
1.0
 40
1.0
 40
1.0
 40
1.0
 10
4.283345445747504
 20
1.377687309383844
 30
0.0
 10
4.290820308571399
 20
1.370236072421128
 30
0.0
 10
4.299220946718522
 20
1.364086991421793
 30
0.0
 10
4.317848854517645
 20
1.35435892758654
 30
0.0
 10
4.327849128250983
 20
1.350932090874276
 30
0.0
 10
4.33826239333691
 20
1.349069877779479
 30
0.0
  0
SPLINE
  5
BB
330
1F
100
AcDbEntity
  8
0
  6
Continuous
 62
     7
370
    15
100
AcDbSpline
210
0.0
220
0.0
230
1.0
 70
     8
 71
     3
 72
     8
 73
     4
 74
     0
 42
0.00000001
 43
0.00000001
 40
0.0
 40
0.0
 40
0.0
 40
0.0
 40
1.0
 40
1.0
 40
1.0
 40
1.0
 10
4.232702574565002
 20
1.412631075510726
 30
0.0
 10
4.251713554005165
 20
1.404046360187951
 30
0.0
 10
4.268591395542832
 20
1.392394726338808
 30
0.0
 10
4.283345445747307
 20
1.377687309383647
 30
0.0
  0
SPLINE
  5
BC
330
1F
100
AcDbEntity
  8
0
  6
Continuous
 62
     7
370
    15
100
AcDbSpline
210
0.0
220
0.0
230
1.0
 70
     8
 71
     3
 72
    12
 73
     8
 74
     0
 42
0.00000001
 43
0.00000001
 40
0.0
 40
0.0
 40
0.0
 40
0.0
 40
0.2500000000000016
 40
0.2500000000000016
 40
0.5000000000000032
 40
0.5000000000000032
 40
1.0
 40
1.0
 40
1.0
 40
1.0
 10
4.171436780616085
 20
1.409956210933633
 30
0.0
 10
4.176105257048418
 20
1.412576275339106
 30
0.0
 10
4.180985713476276
 20
1.414600343979728
 30
0.0
 10
4.191155082796882
 20
1.417500100290625
 30
0.0
 10
4.196485715659932
 20
1.418362605897218
 30
0.0
 10
4.212297834065148
 20
1.419051705243769
 30
0.0
 10
4.222976018372091
 20
1.417023259315033
 30
0.0
 10
4.232702574565223
 20
1.412631075511319
 30
0.0
  0
SPLINE
  5
BD
330
1F
100
AcDbEntity
  8
0
  6
Continuous
 62
     7
370
    15
100
AcDbSpline
210
0.0
220
0.0
230
1.0
 70
     8
 71
     3
 72
    12
 73
     8
 74
     0
 42
0.00000001
 43
0.00000001
 40
0.0
 40
0.0
 40
0.0
 40
0.0
 40
0.2500000000000022
 40
0.2500000000000022
 40
0.5000000000000044
 40
0.5000000000000044
 40
1.0
 40
1.0
 40
1.0
 40
1.0
 10
4.345240947233036
 20
1.487085759090763
 30
0.0
 10
4.345121830987256
 20
1.492420670872947
 30
0.0
 10
4.345624391375337
 20
1.497667069690288
 30
0.0
 10
4.347832321914231
 20
1.507988731793961
 30
0.0
 10
4.34956930598347
 20
1.513096738596634
 30
0.0
 10
4.356378332316985
 20
1.527383744881314
 30
0.0
 10
4.363189760973398
 20
1.535881770699437
 30
0.0
 10
4.371664541671939
 20
1.542425695450356
 30
0.0
  0
SPLINE
  5
BE
330
1F
100
AcDbEntity
  8
0
  6
Continuous
 62
     7
370
    15
100
AcDbSpline
210
0.0
220
0.0
230
1.0
 70
     8
 71
     3
 72
     8
 73
     4
 74
     0
 42
0.00000001
 43
0.00000001
 40
0.0
 40
0.0
 40
0.0
 40
0.0
 40
1.0
 40
1.0
 40
1.0
 40
1.0
 10
4.140683330676621
 20
1.297621449960807
 30
0.0
 10
4.135815161143051
 20
1.317877092047151
 30
0.0
 10
4.134661755530685
 20
1.338353707046358
 30
0.0
 10
4.13723748796237
 20
1.359053472235759
 30
0.0
  0
SPLINE
  5
BF
330
1F
100
AcDbEntity
  8
0
  6
Continuous
 62
     7
370
    15
100
AcDbSpline
210
0.0
220
0.0
230
1.0
 70
     8
 71
     3
 72
    10
 73
     6
 74
     0
 42
0.00000001
 43
0.00000001
 40
0.0
 40
0.0
 40
0.0
 40
0.0
 40
0.5
 40
0.5
 40
1.0
 40
1.0
 40
1.0
 40
1.0
 10
4.140683330676465
 20
1.297621449960769
 30
0.0
 10
4.143149697468049
 20
1.287359308792408
 30
0.0
 10
4.144022279216352
 20
1.276985277777078
 30
0.0
 10
4.142622058644442
 20
1.256016883529951
 30
0.0
 10
4.140337636775709
 20
1.245695541499028
 30
0.0
 10
4.136502519144332
 20
1.235836748463716
 30
0.0
  0
ARC
  5
C0
330
1F
100
AcDbEntity
  8
0
  6
Continuous
 62
     7
370
    15
100
AcDbCircle
 10
3.3665890183
 20
2.8440414
 30
0.0
 40
1.78300000000005
100
AcDbArc
 50
294.6502087589
 51
295.5823493806
  0
SPLINE
  5
C1
330
1F
100
AcDbEntity
  8
0
  6
Continuous
 62
     7
370
    15
100
AcDbSpline
210
0.0
220
0.0
230
1.0
 70
     8
 71
     3
 72
    10
 73
     6
 74
     0
 42
0.00000001
 43
0.00000001
 40
0.0
 40
0.0
 40
0.0
 40
0.0
 40
0.5
 40
0.5
 40
1.0
 40
1.0
 40
1.0
 40
1.0
 10
4.060073042028702
 20
1.259832898834742
 30
0.0
 10
4.066383339187963
 20
1.251372718205858
 30
0.0
 10
4.073799141452427
 20
1.244066022975445
 30
0.0
 10
4.090812121040456
 20
1.231729382407748
 30
0.0
 10
4.100206874110528
 20
1.226883012699746
 30
0.0
 10
4.110238028462167
 20
1.22352446096801
 30
0.0
  0
SPLINE
  5
C2
330
1F
100
AcDbEntity
  8
0
  6
Continuous
 62
     7
370
    15
100
AcDbSpline
210
0.0
220
0.0
230
1.0
 70
     8
 71
     3
 72
     8
 73
     4
 74
     0
 42
0.00000001
 43
0.00000001
 40
0.0
 40
0.0
 40
0.0
 40
0.0
 40
1.0
 40
1.0
 40
1.0
 40
1.0
 10
4.015057706437248
 20
1.3017779432898
 30
0.0
 10
4.032616148291357
 20
1.290516691312109
 30
0.0
 10
4.047617637389648
 20
1.276531791199458
 30
0.0
 10
4.060073042028674
 20
1.259832898834722
 30
0.0
  0
SPLINE
  5
C3
330
1F
100
AcDbEntity
  8
0
  6
Continuous
 62
     7
370
    15
100
AcDbSpline
210
0.0
220
0.0
230
1.0
 70
     8
 71
     3
 72
    12
 73
     8
 74
     0
 42
0.00000001
 43
0.00000001
 40
0.0
 40
0.0
 40
0.0
 40
0.0
 40
0.2499999999999997
 40
0.2499999999999997
 40
0.4999999999999993
 40
0.4999999999999993
 40
1.0
 40
1.0
 40
1.0
 40
1.0
 10
3.954055496639752
 20
1.308052016302398
 30
0.0
 10
3.959055698492921
 20
1.309964406179515
 30
0.0
 10
3.964178841424595
 20
1.311256290081304
 30
0.0
 10
3.974662021013581
 20
1.312644449031167
 30
0.0
 10
3.9800614146
 20
1.31272160821017
 30
0.0
 10
3.995805318492621
 20
1.311101085721248
 30
0.0
 10
4.006074334122591
 20
1.307539503460954
 30
0.0
 10
4.015057706437465
 20
1.301777943290136
 30
0.0
  0
SPLINE
  5
C4
330
1F
100
AcDbEntity
  8
0
  6
Continuous
 62
     7
370
    15
100
AcDbSpline
210
0.0
220
0.0
230
1.0
 70
     8
 71
     3
 72
    12
 73
     8
 74
     0
 42
0.00000001
 43
0.00000001
 40
0.0
 40
0.0
 40
0.0
 40
0.0
 40
0.2499999999999982
 40
0.2499999999999982
 40
0.4999999999999964
 40
0.4999999999999964
 40
1.0
 40
1.0
 40
1.0
 40
1.0
 10
4.137237487962408
 20
1.359053472235754
 30
0.0
 10
4.137896406537383
 20
1.36434884360791
 30
0.0
 10
4.139157482067087
 20
1.369466130523875
 30
0.0
 10
4.14284469336175
 20
1.379356266213092
 30
0.0
 10
4.145306873973947
 20
1.384156908543331
 30
0.0
 10
4.154123455317186
 20
1.397300208467278
 30
0.0
 10
4.162099539889346
 20
1.404715909014986
 30
0.0
 10
4.171436724822062
 20
1.409956179620613
 30
0.0
  0
SPLINE
  5
C5
330
1F
100
AcDbEntity
  8
0
  6
Continuous
 62
     7
370
    15
100
AcDbSpline
210
0.0
220
0.0
230
1.0
 70
     8
 71
     3
 72
     8
 73
     4
 74
     0
 42
0.00000001
 43
0.00000001
 40
0.0
 40
0.0
 40
0.0
 40
0.0
 40
1.0
 40
1.0
 40
1.0
 40
1.0
 10
3.907273541979962
 20
1.201392042351745
 30
0.0
 10
3.905406495878414
 20
1.222140638684416
 30
0.0
 10
3.907246800740283
 20
1.24256697913814
 30
0.0
 10
3.912808994522805
 20
1.262671124898787
 30
0.0
  0
SPLINE
  5
C6
330
1F
100
AcDbEntity
  8
0
  6
Continuous
 62
     7
370
    15
100
AcDbSpline
210
0.0
220
0.0
230
1.0
 70
     8
 71
     3
 72
    10
 73
     6
 74
     0
 42
0.00000001
 43
0.00000001
 40
0.0
 40
0.0
 40
0.0
 40
0.0
 40
0.5
 40
0.5
 40
1.0
 40
1.0
 40
1.0
 40
1.0
 10
3.90727354197999
 20
1.201392042351748
 30
0.0
 10
3.908219445870968
 20
1.190880155159544
 30
0.0
 10
3.907572257806826
 20
1.180489627452714
 30
0.0
 10
3.903133936182225
 20
1.159948559415238
 30
0.0
 10
3.899371059104179
 20
1.150069822618924
 30
0.0
 10
3.894141359131309
 20
1.140874488717647
 30
0.0
  0
ARC
  5
C7
330
1F
100
AcDbEntity
  8
0
  6
Continuous
 62
     7
370
    15
100
AcDbCircle
 10
3.3665890183
 20
2.8440414
 30
0.0
 40
1.783000000000043
100
AcDbArc
 50
286.2781157356
 51
287.2102563574
  0
SPLINE
  5
C8
330
1F
100
AcDbEntity
  8
0
  6
Continuous
 62
     7
370
    15
100
AcDbSpline
210
0.0
220
0.0
230
1.0
 70
     8
 71
     3
 72
    10
 73
     6
 74
     0
 42
0.00000001
 43
0.00000001
 40
0.0
 40
0.0
 40
0.0
 40
0.0
 40
0.5
 40
0.5
 40
1.0
 40
1.0
 40
1.0
 40
1.0
 10
3.822020230336695
 20
1.175743142063743
 30
0.0
 10
3.827031468802983
 20
1.16645433183071
 30
0.0
 10
3.833304380234453
 20
1.158145751892571
 30
0.0
 10
3.848339829488476
 20
1.14346346866795
 30
0.0
 10
3.856928829044322
 20
1.137300857920504
 30
0.0
 10
3.866364076022208
 20
1.132517549251055
 30
0.0
  0
SPLINE
  5
C9
330
1F
100
AcDbEntity
  8
0
  6
Continuous
 62
     7
370
    15
100
AcDbSpline
210
0.0
220
0.0
230
1.0
 70
     8
 71
     3
 72
     8
 73
     4
 74
     0
 42
0.00000001
 43
0.00000001
 40
0.0
 40
0.0
 40
0.0
 40
0.0
 40
1.0
 40
1.0
 40
1.0
 40
1.0
 10
3.783591854061268
 20
1.223795479047045
 30
0.0
 10
3.799323530625164
 20
1.21009770444913
 30
0.0
 10
3.812128936588677
 20
1.194077601939029
 30
0.0
 10
3.822020230336741
 20
1.175743142063767
 30
0.0
  0
SPLINE
  5
CA
330
1F
100
AcDbEntity
  8
0
  6
Continuous
 62
     7
370
    15
100
AcDbSpline
210
0.0
220
0.0
230
1.0
 70
     8
 71
     3
 72
    12
 73
     8
 74
     0
 42
0.00000001
 43
0.00000001
 40
0.0
 40
0.0
 40
0.0
 40
0.0
 40
0.25
 40
0.25
 40
0.5
 40
0.5
 40
1.0
 40
1.0
 40
1.0
 40
1.0
 10
3.72415311244418
 20
1.238884657316018
 30
0.0
 10
3.729378483411234
 20
1.240048644265449
 30
0.0
 10
3.734635140222903
 20
1.240580834965214
 30
0.0
 10
3.745208743545484
 20
1.240427851895948
 30
0.0
 10
3.750561843627314
 20
1.23971803550654
 30
0.0
 10
3.765902054114744
 20
1.235822457983987
 30
0.0
 10
3.775543088156328
 20
1.230803643796678
 30
0.0
 10
3.783591854060983
 20
1.22379547904672
 30
0.0
  0
SPLINE
  5
CB
330
1F
100
AcDbEntity
  8
0
  6
Continuous
 62
     7
370
    15
100
AcDbSpline
210
0.0
220
0.0
230
1.0
 70
     8
 71
     3
 72
    12
 73
     8
 74
     0
 42
0.00000001
 43
0.00000001
 40
0.0
 40
0.0
 40
0.0
 40
0.0
 40
0.2500000000000024
 40
0.2500000000000024
 40
0.5000000000000048
 40
0.5000000000000048
 40
1.0
 40
1.0
 40
1.0
 40
1.0
 10
3.912808994522681
 20
1.26267112489882
 30
0.0
 10
3.914231908790691
 20
1.267814145255278
 30
0.0
 10
3.916224637923952
 20
1.272693302244514
 30
0.0
 10
3.921312598499406
 20
1.281941210663777
 30
0.0
 10
3.924447537061182
 20
1.286332210093922
 30
0.0
 10
3.935083902346559
 20
1.298051766627944
 30
0.0
 10
3.94405477343123
 20
1.304227114350547
 30
0.0
 10
3.954055496639752
 20
1.308052016302398
 30
0.0
  0
SPLINE
  5
CC
330
1F
100
AcDbEntity
  8
0
  6
Continuous
 62
     7
370
    15
100
AcDbSpline
210
0.0
220
0.0
230
1.0
 70
     8
 71
     3
 72
     8
 73
     4
 74
     0
 42
0.00000001
 43
0.00000001
 40
0.0
 40
0.0
 40
0.0
 40
0.0
 40
1.0
 40
1.0
 40
1.0
 40
1.0
 10
1.934695007589487
 20
3.813740429807752
 30
0.0
 10
1.948853764705749
 20
3.798459078170687
 30
0.0
 10
1.959881212230559
 20
3.781166955472399
 30
0.0
 10
1.967765880817057
 20
3.761855128067094
 30
0.0
  0
SPLINE
  5
CD
330
1F
100
AcDbEntity
  8
0
  6
Continuous
 62
     7
370
    15
100
AcDbSpline
210
0.0
220
0.0
230
1.0
 70
     8
 71
     3
 72
    10
 73
     6
 74
     0
 42
0.00000001
 43
0.00000001
 40
0.0
 40
0.0
 40
0.0
 40
0.0
 40
0.5
 40
0.5
 40
1.0
 40
1.0
 40
1.0
 40
1.0
 10
1.90810234617719
 20
3.869665905963675
 30
0.0
 10
1.909583024044394
 20
3.859191430173996
 30
0.0
 10
1.912592259350281
 20
3.849212895889424
 30
0.0
 10
1.9216068322301
 20
3.830228521479285
 30
0.0
 10
1.927521665952864
 20
3.821482518683176
 30
0.0
 10
1.934695007589394
 20
3.813740429807665
 30
0.0
  0
ARC
  5
CE
330
1F
100
AcDbEntity
  8
0
  6
Continuous
 62
     7
370
    15
100
AcDbCircle
 10
3.3665890183
 20
2.8440414
 30
0.0
 40
1.783000000000216
100
AcDbArc
 50
143.9525343403
 51
144.884674962
  0
SPLINE
  5
CF
330
1F
100
AcDbEntity
  8
0
  6
Continuous
 62
     7
370
    15
100
AcDbSpline
210
0.0
220
0.0
230
1.0
 70
     8
 71
     3
 72
    10
 73
     6
 74
     0
 42
0.00000001
 43
0.00000001
 40
0.0
 40
0.0
 40
0.0
 40
0.0
 40
0.5
 40
0.5
 40
1.0
 40
1.0
 40
1.0
 40
1.0
 10
1.986496770730832
 20
3.886146027434025
 30
0.0
 10
1.97685331643241
 20
3.890435350889436
 30
0.0
 10
1.966810343402482
 20
3.893177724156491
 30
0.0
 10
1.945936412546167
 20
3.895609428407104
 30
0.0
 10
1.935371823859517
 20
3.895237742414293
 30
0.0
 10
1.924980426483901
 20
3.893257139490292
 30
0.0
  0
SPLINE
  5
D0
330
1F
100
AcDbEntity
  8
0
  6
Continuous
 62
     7
370
    15
100
AcDbSpline
210
0.0
220
0.0
230
1.0
 70
     8
 71
     3
 72
     8
 73
     4
 74
     0
 42
0.00000001
 43
0.00000001
 40
0.0
 40
0.0
 40
0.0
 40
0.0
 40
1.0
 40
1.0
 40
1.0
 40
1.0
 10
2.046281020874743
 20
3.871599184906295
 30
0.0
 10
2.025457734341224
 20
3.87282613820524
 30
0.0
 10
2.005531234936728
 20
3.877679665563004
 30
0.0
 10
1.986496770730983
 20
3.886146027434362
 30
0.0
  0
SPLINE
  5
D1
330
1F
100
AcDbEntity
  8
0
  6
Continuous
 62
     7
370
    15
100
AcDbSpline
210
0.0
220
0.0
230
1.0
 70
     8
 71
     3
 72
    12
 73
     8
 74
     0
 42
0.00000001
 43
0.00000001
 40
0.0
 40
0.0
 40
0.0
 40
0.0
 40
0.2500000000000036
 40
0.2500000000000036
 40
0.5000000000000072
 40
0.5000000000000072
 40
1.0
 40
1.0
 40
1.0
 40
1.0
 10
2.102548717940796
 20
3.895983589030523
 30
0.0
 10
2.099124253716683
 20
3.891868682163904
 30
0.0
 10
2.095288888575391
 20
3.888234719179775
 30
0.0
 10
2.086826416044184
 20
3.881893486350478
 30
0.0
 10
2.08215563250701
 20
3.879183625118583
 30
0.0
 10
2.067633025969909
 20
3.872891417187793
 30
0.0
 10
2.056934805523631
 20
3.870971440760275
 30
0.0
 10
2.046281020874736
 20
3.871599184906179
 30
0.0
  0
SPLINE
  5
D2
330
1F
100
AcDbEntity
  8
0
  6
Continuous
 62
     7
370
    15
100
AcDbSpline
210
0.0
220
0.0
230
1.0
 70
     8
 71
     3
 72
    12
 73
     8
 74
     0
 42
0.00000001
 43
0.00000001
 40
0.0
 40
0.0
 40
0.0
 40
0.0
 40
0.2499999999999997
 40
0.2499999999999997
 40
0.4999999999999994
 40
0.4999999999999994
 40
1.0
 40
1.0
 40
1.0
 40
1.0
 10
1.967765880817559
 20
3.761855128067319
 30
0.0
 10
1.969782922310264
 20
3.756914811711733
 30
0.0
 10
1.971187694406364
 20
3.751835087196413
 30
0.0
 10
1.972812672214794
 20
3.741405803488264
 30
0.0
 10
1.97301504760057
 20
3.736014366231068
 30
0.0
 10
1.971759111024745
 20
3.720237753822089
 30
0.0
 10
1.968432937779814
 20
3.709867250842893
 30
0.0
 10
1.962855121419707
 20
3.700727688404535
 30
0.0
  0
SPLINE
  5
D3
330
1F
100
AcDbEntity
  8
0
  6
Continuous
 62
     7
370
    15
100
AcDbSpline
210
0.0
220
0.0
230
1.0
 70
     8
 71
     3
 72
     8
 73
     4
 74
     0
 42
0.00000001
 43
0.00000001
 40
0.0
 40
0.0
 40
0.0
 40
0.0
 40
1.0
 40
1.0
 40
1.0
 40
1.0
 10
2.209964670627836
 20
4.052887266006342
 30
0.0
 10
2.189541936027809
 20
4.057133038950909
 30
0.0
 10
2.17053446524421
 20
4.064836165636108
 30
0.0
 10
2.152935556492582
 20
4.075983744820558
 30
0.0
  0
SPLINE
  5
D4
330
1F
100
AcDbEntity
  8
0
  6
Continuous
 62
     7
370
    15
100
AcDbSpline
210
0.0
220
0.0
230
1.0
 70
     8
 71
     3
 72
    12
 73
     8
 74
     0
 42
0.00000001
 43
0.00000001
 40
0.0
 40
0.0
 40
0.0
 40
0.0
 40
0.25
 40
0.25
 40
0.5
 40
0.5
 40
1.0
 40
1.0
 40
1.0
 40
1.0
 10
2.269183160048305
 20
4.068819188935215
 30
0.0
 10
2.265196053566132
 20
4.065246736201493
 30
0.0
 10
2.260872450511909
 20
4.06220993005737
 30
0.0
 10
2.251576866153206
 20
4.057168414667415
 30
0.0
 10
2.24656129694311
 20
4.055167501020964
 30
0.0
 10
2.231277294402879
 20
4.051056850868785
 30
0.0
 10
2.220413525706947
 20
4.050715007145416
 30
0.0
 10
2.209964670627822
 20
4.052887266006273
 30
0.0
  0
SPLINE
  5
D5
330
1F
100
AcDbEntity
  8
0
  6
Continuous
 62
     7
370
    15
100
AcDbSpline
210
0.0
220
0.0
230
1.0
 70
     8
 71
     3
 72
    12
 73
     8
 74
     0
 42
0.00000001
 43
0.00000001
 40
0.0
 40
0.0
 40
0.0
 40
0.0
 40
0.2499999999999984
 40
0.2499999999999984
 40
0.4999999999999969
 40
0.4999999999999969
 40
1.0
 40
1.0
 40
1.0
 40
1.0
 10
2.116307374691136
 20
3.955744607264617
 30
0.0
 10
2.117583604308928
 20
3.950563259218864
 30
0.0
 10
2.118233792406716
 20
3.945333135862629
 30
0.0
 10
2.118322939718814
 20
3.934778404426298
 30
0.0
 10
2.11773816118469
 20
3.929414960371456
 30
0.0
 10
2.114198525296446
 20
3.91398935180905
 30
0.0
 10
2.109397851557907
 20
3.904213664498199
 30
0.0
 10
2.102548757438652
 20
3.895983636492006
 30
0.0
  0
SPLINE
  5
D6
330
1F
100
AcDbEntity
  8
0
  6
Continuous
 62
     7
370
    15
100
AcDbSpline
210
0.0
220
0.0
230
1.0
 70
     8
 71
     3
 72
     8
 73
     4
 74
     0
 42
0.00000001
 43
0.00000001
 40
0.0
 40
0.0
 40
0.0
 40
0.0
 40
1.0
 40
1.0
 40
1.0
 40
1.0
 10
2.091143486108784
 20
4.011892144201809
 30
0.0
 10
2.102926375918957
 20
3.994712108734817
 30
0.0
 10
2.111318554736958
 20
3.975998652586696
 30
0.0
 10
2.116307374691223
 20
3.955744607264639
 30
0.0
  0
SPLINE
  5
D7
330
1F
100
AcDbEntity
  8
0
  6
Continuous
 62
     7
370
    15
100
AcDbSpline
210
0.0
220
0.0
230
1.0
 70
     8
 71
     3
 72
    10
 73
     6
 74
     0
 42
0.00000001
 43
0.00000001
 40
0.0
 40
0.0
 40
0.0
 40
0.0
 40
0.5
 40
0.5
 40
1.0
 40
1.0
 40
1.0
 40
1.0
 10
2.072977027535264
 20
4.071093565697734
 30
0.0
 10
2.072916830457153
 20
4.060515124114686
 30
0.0
 10
2.074441111205837
 20
4.0502047792226
 30
0.0
 10
2.080595472017858
 20
4.030110181965048
 30
0.0
 10
2.085173845314688
 20
4.020596175404628
 30
0.0
 10
2.091143486108806
 20
4.011892144201825
 30
0.0
  0
ARC
  5
D8
330
1F
100
AcDbEntity
  8
0
  6
Continuous
 62
     7
370
    15
100
AcDbCircle
 10
3.3665890183
 20
2.8440414
 30
0.0
 40
1.783000000000267
100
AcDbArc
 50
135.580441317
 51
136.5125819388
  0
SPLINE
  5
D9
330
1F
100
AcDbEntity
  8
0
  6
Continuous
 62
     7
370
    15
100
AcDbSpline
210
0.0
220
0.0
230
1.0
 70
     8
 71
     3
 72
    10
 73
     6
 74
     0
 42
0.00000001
 43
0.00000001
 40
0.0
 40
0.0
 40
0.0
 40
0.0
 40
0.5
 40
0.5
 40
1.0
 40
1.0
 40
1.0
 40
1.0
 10
2.152935556492639
 20
4.075983744820649
 30
0.0
 10
2.144019399441049
 20
4.081631456741732
 30
0.0
 10
2.134482743428174
 20
4.085806874147038
 30
0.0
 10
2.114185317348206
 20
4.091251933328541
 30
0.0
 10
2.103679193679968
 20
4.092422424706017
 30
0.0
 10
2.093110155502753
 20
4.091975927930689
 30
0.0
  0
SPLINE
  5
DA
330
1F
100
AcDbEntity
  8
0
  6
Continuous
 62
     7
370
    15
100
AcDbSpline
210
0.0
220
0.0
230
1.0
 70
     8
 71
     3
 72
     8
 73
     4
 74
     0
 42
0.00000001
 43
0.00000001
 40
0.0
 40
0.0
 40
0.0
 40
0.0
 40
1.0
 40
1.0
 40
1.0
 40
1.0
 10
2.91115780626869
 20
1.175743142063767
 30
0.0
 10
2.921049100016754
 20
1.194077601939029
 30
0.0
 10
2.933854505980267
 20
1.21009770444913
 30
0.0
 10
2.949586182544162
 20
1.223795479047045
 30
0.0
  0
SPLINE
  5
DB
330
1F
100
AcDbEntity
  8
0
  6
Continuous
 62
     7
370
    15
100
AcDbSpline
210
0.0
220
0.0
230
1.0
 70
     8
 71
     3
 72
    10
 73
     6
 74
     0
 42
0.00000001
 43
0.00000001
 40
0.0
 40
0.0
 40
0.0
 40
0.0
 40
0.5
 40
0.5
 40
1.0
 40
1.0
 40
1.0
 40
1.0
 10
2.866813960583223
 20
1.132517549251055
 30
0.0
 10
2.876249339204371
 20
1.137300924658593
 30
0.0
 10
2.884721797815182
 20
1.143370857827546
 30
0.0
 10
2.899778735885052
 20
1.15803229063287
 30
0.0
 10
2.906146516880833
 20
1.166454237442623
 30
0.0
 10
2.911157806268736
 20
1.175743142063743
 30
0.0
  0
ARC
  5
DC
330
1F
100
AcDbEntity
  8
0
  6
Continuous
 62
     7
370
    15
100
AcDbCircle
 10
3.3665890183
 20
2.8440414
 30
0.0
 40
1.783000000000043
100
AcDbArc
 50
252.7897436426
 51
253.7218842644
  0
SPLINE
  5
DD
330
1F
100
AcDbEntity
  8
0
  6
Continuous
 62
     7
370
    15
100
AcDbSpline
210
0.0
220
0.0
230
1.0
 70
     8
 71
     3
 72
    10
 73
     6
 74
     0
 42
0.00000001
 43
0.00000001
 40
0.0
 40
0.0
 40
0.0
 40
0.0
 40
0.5
 40
0.5
 40
1.0
 40
1.0
 40
1.0
 40
1.0
 10
2.825904494625441
 20
1.201392042351748
 30
0.0
 10
2.824958590734463
 20
1.190880155159551
 30
0.0
 10
2.825605778798604
 20
1.180489627452729
 30
0.0
 10
2.830044100423197
 20
1.159948559415266
 30
0.0
 10
2.833806977501245
 20
1.15006982261894
 30
0.0
 10
2.839036677474109
 20
1.140874488717667
 30
0.0
  0
SPLINE
  5
DE
330
1F
100
AcDbEntity
  8
0
  6
Continuous
 62
     7
370
    15
100
AcDbSpline
210
0.0
220
0.0
230
1.0
 70
     8
 71
     3
 72
     8
 73
     4
 74
     0
 42
0.00000001
 43
0.00000001
 40
0.0
 40
0.0
 40
0.0
 40
0.0
 40
1.0
 40
1.0
 40
1.0
 40
1.0
 10
2.820369042082626
 20
1.262671124898786
 30
0.0
 10
2.825931235865145
 20
1.24256697913815
 30
0.0
 10
2.827771540727016
 20
1.222140638684406
 30
0.0
 10
2.825904494625469
 20
1.201392042351745
 30
0.0
  0
SPLINE
  5
DF
330
1F
100
AcDbEntity
  8
0
  6
Continuous
 62
     7
370
    15
100
AcDbSpline
210
0.0
220
0.0
230
1.0
 70
     8
 71
     3
 72
    12
 73
     8
 74
     0
 42
0.00000001
 43
0.00000001
 40
0.0
 40
0.0
 40
0.0
 40
0.0
 40
0.2499999999999992
 40
0.2499999999999992
 40
0.4999999999999984
 40
0.4999999999999984
 40
1.0
 40
1.0
 40
1.0
 40
1.0
 10
2.949586182544447
 20
1.22379547904672
 30
0.0
 10
2.953610625685489
 20
1.227299613828792
 30
0.0
 10
2.957964699143091
 20
1.230269286126123
 30
0.0
 10
2.967310699815544
 20
1.235174637207969
 30
0.0
 10
2.972348019525662
 20
1.237106962561975
 30
0.0
 10
2.987685126879974
 20
1.241012257803276
 30
0.0
 10
2.998574156063466
 20
1.24121267582653
 30
0.0
 10
3.009025158829298
 20
1.238884605041678
 30
0.0
  0
SPLINE
  5
E0
330
1F
100
AcDbEntity
  8
0
  6
Continuous
 62
     7
370
    15
100
AcDbSpline
210
0.0
220
0.0
230
1.0
 70
     8
 71
     3
 72
    12
 73
     8
 74
     0
 42
0.00000001
 43
0.00000001
 40
0.0
 40
0.0
 40
0.0
 40
0.0
 40
0.2500000000000018
 40
0.2500000000000018
 40
0.5000000000000037
 40
0.5000000000000037
 40
1.0
 40
1.0
 40
1.0
 40
1.0
 10
2.779122927376218
 20
1.308051868131026
 30
0.0
 10
2.78412313221118
 20
1.306139442152268
 30
0.0
 10
2.788800824464551
 20
1.303682835660715
 30
0.0
 10
2.797534787747635
 20
1.297721074900914
 30
0.0
 10
2.801607613501925
 20
1.294175420519686
 30
0.0
 10
2.81225187658046
 20
1.28246227782884
 30
0.0
 10
2.817523265424358
 20
1.27295697810381
 30
0.0
 10
2.82036904208275
 20
1.262671124898819
 30
0.0
  0
SPLINE
  5
E1
330
1F
100
AcDbEntity
  8
0
  6
Continuous
 62
     7
370
    15
100
AcDbSpline
210
0.0
220
0.0
230
1.0
 70
     8
 71
     3
 72
     8
 73
     4
 74
     0
 42
0.00000001
 43
0.00000001
 40
0.0
 40
0.0
 40
0.0
 40
0.0
 40
1.0
 40
1.0
 40
1.0
 40
1.0
 10
1.705288664209708
 20
2.363710472599326
 30
0.0
 10
1.726091606383688
 20
2.364818492384393
 30
0.0
 10
1.746437107714867
 20
2.362233404007782
 30
0.0
 10
1.766324698392673
 20
2.355940676976648
 30
0.0
  0
SPLINE
  5
E2
330
1F
100
AcDbEntity
  8
0
  6
Continuous
 62
     7
370
    15
100
AcDbSpline
210
0.0
220
0.0
230
1.0
 70
     8
 71
     3
 72
    10
 73
     6
 74
     0
 42
0.00000001
 43
0.00000001
 40
0.0
 40
0.0
 40
0.0
 40
0.0
 40
0.5
 40
0.5
 40
1.0
 40
1.0
 40
1.0
 40
1.0
 10
1.645291098845441
 20
2.379044117779737
 30
0.0
 10
1.65428942438712
 20
2.373481997009837
 30
0.0
 10
1.663884322864535
 20
2.369412037944334
 30
0.0
 10
1.684242987027314
 20
2.364197271463602
 30
0.0
 10
1.694749136620424
 20
2.363149109451795
 30
0.0
 10
1.705288664209713
 20
2.363710472599241
 30
0.0
  0
ARC
  5
E3
330
1F
100
AcDbEntity
  8
0
  6
Continuous
 62
     7
370
    15
100
AcDbCircle
 10
3.3665890183
 20
2.8440414
 30
0.0
 40
1.782999999999977
100
AcDbArc
 50
194.1850924798
 51
195.1172331016
  0
SPLINE
  5
E4
330
1F
100
AcDbEntity
  8
0
  6
Continuous
 62
     7
370
    15
100
AcDbSpline
210
0.0
220
0.0
230
1.0
 70
     8
 71
     3
 72
    10
 73
     6
 74
     0
 42
0.00000001
 43
0.00000001
 40
0.0
 40
0.0
 40
0.0
 40
0.0
 40
0.5
 40
0.5
 40
1.0
 40
1.0
 40
1.0
 40
1.0
 10
1.682770499041674
 20
2.449843657084625
 30
0.0
 10
1.673304865286654
 20
2.445175008015756
 30
0.0
 10
1.664772729015165
 20
2.439209727715429
 30
0.0
 10
1.649551116075296
 20
2.424720536072285
 30
0.0
 10
1.643078929083833
 20
2.416362337693311
 30
0.0
 10
1.637954217298853
 20
2.407108081565292
 30
0.0
  0
SPLINE
  5
E5
330
1F
100
AcDbEntity
  8
0
  6
Continuous
 62
     7
370
    15
100
AcDbSpline
210
0.0
220
0.0
230
1.0
 70
     8
 71
     3
 72
     8
 73
     4
 74
     0
 42
0.00000001
 43
0.00000001
 40
0.0
 40
0.0
 40
0.0
 40
0.0
 40
1.0
 40
1.0
 40
1.0
 40
1.0
 10
1.732194259874645
 20
2.486491427247113
 30
0.0
 10
1.717931071115141
 20
2.471270516536462
 30
0.0
 10
1.70145397711063
 20
2.459058740273584
 30
0.0
 10
1.682770499041729
 20
2.449843657084513
 30
0.0
  0
SPLINE
  5
E6
330
1F
100
AcDbEntity
  8
0
  6
Continuous
 62
     7
370
    15
100
AcDbSpline
210
0.0
220
0.0
230
1.0
 70
     8
 71
     3
 72
    12
 73
     8
 74
     0
 42
0.00000001
 43
0.00000001
 40
0.0
 40
0.0
 40
0.0
 40
0.0
 40
0.2500000000000017
 40
0.2500000000000017
 40
0.5000000000000033
 40
0.5000000000000033
 40
1.0
 40
1.0
 40
1.0
 40
1.0
 10
1.749444182858744
 20
2.545339489735163
 30
0.0
 10
1.750416558065137
 20
2.540075089309068
 30
0.0
 10
1.750756414648828
 20
2.534802497770941
 30
0.0
 10
1.750217371131068
 20
2.524241524641363
 30
0.0
 10
1.749312524436136
 20
2.518917913931053
 30
0.0
 10
1.744859292994473
 20
2.503730194838257
 30
0.0
 10
1.739491713716839
 20
2.494278878932566
 30
0.0
 10
1.732194259874711
 20
2.486491427247051
 30
0.0
  0
SPLINE
  5
E7
330
1F
100
AcDbEntity
  8
0
  6
Continuous
 62
     7
370
    15
100
AcDbSpline
210
0.0
220
0.0
230
1.0
 70
     8
 71
     3
 72
    12
 73
     8
 74
     0
 42
0.00000001
 43
0.00000001
 40
0.0
 40
0.0
 40
0.0
 40
0.0
 40
0.2499999999999977
 40
0.2499999999999977
 40
0.4999999999999953
 40
0.4999999999999953
 40
1.0
 40
1.0
 40
1.0
 40
1.0
 10
1.766324698392719
 20
2.355940676976795
 30
0.0
 10
1.771412299312325
 20
2.354330885004066
 30
0.0
 10
1.776215404377917
 20
2.352161299605625
 30
0.0
 10
1.785271288347775
 20
2.346739011926953
 30
0.0
 10
1.789544851512094
 20
2.343445816009794
 30
0.0
 10
1.800868103535615
 20
2.332388590122
 30
0.0
 10
1.806711698162785
 20
2.323198222272
 30
0.0
 10
1.810168825546709
 20
2.313064532725732
 30
0.0
  0
SPLINE
  5
E8
330
1F
100
AcDbEntity
  8
0
  6
Continuous
 62
     7
370
    15
100
AcDbSpline
210
0.0
220
0.0
230
1.0
 70
     8
 71
     3
 72
     8
 73
     4
 74
     0
 42
0.00000001
 43
0.00000001
 40
0.0
 40
0.0
 40
0.0
 40
0.0
 40
1.0
 40
1.0
 40
1.0
 40
1.0
 10
5.050407537563701
 20
2.449843657084513
 30
0.0
 10
5.031724059494795
 20
2.459058740273588
 30
0.0
 10
5.015246965490293
 20
2.471270516536457
 30
0.0
 10
5.000983776730785
 20
2.486491427247113
 30
0.0
  0
SPLINE
  5
E9
330
1F
100
AcDbEntity
  8
0
  6
Continuous
 62
     7
370
    15
100
AcDbSpline
210
0.0
220
0.0
230
1.0
 70
     8
 71
     3
 72
    10
 73
     6
 74
     0
 42
0.00000001
 43
0.00000001
 40
0.0
 40
0.0
 40
0.0
 40
0.0
 40
0.5
 40
0.5
 40
1.0
 40
1.0
 40
1.0
 40
1.0
 10
5.095223819306577
 20
2.407108081565292
 30
0.0
 10
5.090099036020161
 20
2.416362466811324
 30
0.0
 10
5.083723721088228
 20
2.424607586768461
 30
0.0
 10
5.06852215984225
 20
2.439119014390623
 30
0.0
 10
5.05987326750364
 20
2.445174960575364
 30
0.0
 10
5.050407537563757
 20
2.449843657084625
 30
0.0
  0
ARC
  5
EA
330
1F
100
AcDbEntity
  8
0
  6
Continuous
 62
     7
370
    15
100
AcDbCircle
 10
3.3665890183
 20
2.8440414
 30
0.0
 40
1.782999999999978
100
AcDbArc
 50
344.8827668984
 51
345.8149075202
  0
SPLINE
  5
EB
330
1F
100
AcDbEntity
  8
0
  6
Continuous
 62
     7
370
    15
100
AcDbSpline
210
0.0
220
0.0
230
1.0
 70
     8
 71
     3
 72
    10
 73
     6
 74
     0
 42
0.00000001
 43
0.00000001
 40
0.0
 40
0.0
 40
0.0
 40
0.0
 40
0.5
 40
0.5
 40
1.0
 40
1.0
 40
1.0
 40
1.0
 10
5.027889372395723
 20
2.363710472599341
 30
0.0
 10
5.038428792888869
 20
2.36314911515612
 30
0.0
 10
5.048788751920703
 20
2.364175354540169
 30
0.0
 10
5.069154019466247
 20
2.369360916491673
 30
0.0
 10
5.078888737763722
 20
2.37348207461313
 30
0.0
 10
5.087886937759944
 20
2.37904411777981
 30
0.0
  0
SPLINE
  5
EC
330
1F
100
AcDbEntity
  8
0
  6
Continuous
 62
     7
370
    15
100
AcDbSpline
210
0.0
220
0.0
230
1.0
 70
     8
 71
     3
 72
     8
 73
     4
 74
     0
 42
0.00000001
 43
0.00000001
 40
0.0
 40
0.0
 40
0.0
 40
0.0
 40
1.0
 40
1.0
 40
1.0
 40
1.0
 10
4.966853338212758
 20
2.355940676976648
 30
0.0
 10
4.986740928890557
 20
2.36223340400778
 30
0.0
 10
5.00708643022175
 20
2.364818492384392
 30
0.0
 10
5.027889372395722
 20
2.363710472599326
 30
0.0
  0
SPLINE
  5
ED
330
1F
100
AcDbEntity
  8
0
  6
Continuous
 62
     7
370
    15
100
AcDbSpline
210
0.0
220
0.0
230
1.0
 70
     8
 71
     3
 72
    12
 73
     8
 74
     0
 42
0.00000001
 43
0.00000001
 40
0.0
 40
0.0
 40
0.0
 40
0.0
 40
0.2499999999999977
 40
0.2499999999999977
 40
0.4999999999999953
 40
0.4999999999999953
 40
1.0
 40
1.0
 40
1.0
 40
1.0
 10
4.92300926420125
 20
2.313064688498917
 30
0.0
 10
4.924737796972823
 20
2.318131402505453
 30
0.0
 10
4.92702192589433
 20
2.322895693675174
 30
0.0
 10
4.932660727290262
 20
2.331841564474932
 30
0.0
 10
4.936055268259495
 20
2.336041166957445
 30
0.0
 10
4.947371845944253
 20
2.347106114917601
 30
0.0
 10
4.956678281666227
 20
2.352721139004099
 30
0.0
 10
4.966853338212712
 20
2.355940676976795
 30
0.0
  0
SPLINE
  5
EE
330
1F
100
AcDbEntity
  8
0
  6
Continuous
 62
     7
370
    15
100
AcDbSpline
210
0.0
220
0.0
230
1.0
 70
     8
 71
     3
 72
    12
 73
     8
 74
     0
 42
0.00000001
 43
0.00000001
 40
0.0
 40
0.0
 40
0.0
 40
0.0
 40
0.25
 40
0.25
 40
0.5
 40
0.5
 40
1.0
 40
1.0
 40
1.0
 40
1.0
 10
5.000983776730719
 20
2.486491427247051
 30
0.0
 10
4.997334995628782
 20
2.490385210908733
 30
0.0
 10
4.994208282610827
 20
2.494627925248165
 30
0.0
 10
4.988964866396524
 20
2.503788546910195
 30
0.0
 10
4.986849856768127
 20
2.508751938686172
 30
0.0
 10
4.982387027187004
 20
2.523936199988531
 30
0.0
 10
4.981789059164901
 20
2.534810622962158
 30
0.0
 10
4.983733890038677
 20
2.545339686216927
 30
0.0
  0
SPLINE
  5
EF
330
1F
100
AcDbEntity
  8
0
  6
Continuous
 62
     7
370
    15
100
AcDbSpline
210
0.0
220
0.0
230
1.0
 70
     8
 71
     3
 72
     8
 73
     4
 74
     0
 42
0.00000001
 43
0.00000001
 40
0.0
 40
0.0
 40
0.0
 40
0.0
 40
1.0
 40
1.0
 40
1.0
 40
1.0
 10
1.653055786671704
 20
2.610716454009221
 30
0.0
 10
1.673798368522262
 20
2.608783733362388
 30
0.0
 10
1.693550663447811
 20
2.6032638645692
 30
0.0
 10
1.712310090987676
 20
2.594142540387887
 30
0.0
  0
SPLINE
  5
F0
330
1F
100
AcDbEntity
  8
0
  6
Continuous
 62
     7
370
    15
100
AcDbSpline
210
0.0
220
0.0
230
1.0
 70
     8
 71
     3
 72
    10
 73
     6
 74
     0
 42
0.00000001
 43
0.00000001
 40
0.0
 40
0.0
 40
0.0
 40
0.0
 40
0.5
 40
0.5
 40
1.0
 40
1.0
 40
1.0
 40
1.0
 10
1.595930189921581
 20
2.634622409755518
 30
0.0
 10
1.60402277234084
 20
2.627809395752803
 30
0.0
 10
1.612922830724397
 20
2.622385780320281
 30
0.0
 10
1.632305264007706
 20
2.614262340410828
 30
0.0
 10
1.642546839818773
 20
2.611695640626609
 30
0.0
 10
1.653055786671704
 20
2.610716454009232
 30
0.0
  0
ARC
  5
F1
330
1F
100
AcDbEntity
  8
0
  6
Continuous
 62
     7
370
    15
100
AcDbCircle
 10
3.3665890183
 20
2.8440414
 30
0.0
 40
1.782999999999829
100
AcDbArc
 50
185.8129994566
 51
186.7451400783
  0
SPLINE
  5
F2
330
1F
100
AcDbEntity
  8
0
  6
Continuous
 62
     7
370
    15
100
AcDbSpline
210
0.0
220
0.0
230
1.0
 70
     8
 71
     3
 72
    10
 73
     6
 74
     0
 42
0.00000001
 43
0.00000001
 40
0.0
 40
0.0
 40
0.0
 40
0.0
 40
0.5
 40
0.5
 40
1.0
 40
1.0
 40
1.0
 40
1.0
 10
1.643318681542705
 20
2.69921041999467
 30
0.0
 10
1.63327415880643
 20
2.695969730328593
 30
0.0
 10
1.623964394593174
 20
2.69131030882917
 30
0.0
 10
1.606795349557021
 20
2.679191807787164
 30
0.0
 10
1.599175170836055
 20
2.671865037635756
 30
0.0
 10
1.592757640719543
 20
2.663455564729285
 30
0.0
  0
SPLINE
  5
F3
330
1F
100
AcDbEntity
  8
0
  6
Continuous
 62
     7
370
    15
100
AcDbSpline
210
0.0
220
0.0
230
1.0
 70
     8
 71
     3
 72
     8
 73
     4
 74
     0
 42
0.00000001
 43
0.00000001
 40
0.0
 40
0.0
 40
0.0
 40
0.0
 40
1.0
 40
1.0
 40
1.0
 40
1.0
 10
1.697551709678611
 20
2.728271491068779
 30
0.0
 10
1.681224336098335
 20
2.715289520940109
 30
0.0
 10
1.663144783535846
 20
2.705606965209931
 30
0.0
 10
1.643318681542689
 20
2.699210419994718
 30
0.0
  0
SPLINE
  5
F4
330
1F
100
AcDbEntity
  8
0
  6
Continuous
 62
     7
370
    15
100
AcDbSpline
210
0.0
220
0.0
230
1.0
 70
     8
 71
     3
 72
    12
 73
     8
 74
     0
 42
0.00000001
 43
0.00000001
 40
0.0
 40
0.0
 40
0.0
 40
0.0
 40
0.2500000000000011
 40
0.2500000000000011
 40
0.5000000000000026
 40
0.5000000000000026
 40
1.0
 40
1.0
 40
1.0
 40
1.0
 10
1.723186153502133
 20
2.783980814209404
 30
0.0
 10
1.723381662937192
 20
2.778630936273509
 30
0.0
 10
1.722950201804723
 20
2.773365050020763
 30
0.0
 10
1.720879211986426
 20
2.762995108232986
 30
0.0
 10
1.719208883804798
 20
2.757859976814133
 30
0.0
 10
1.712591759160204
 20
2.743482505610168
 30
0.0
 10
1.705905258204381
 20
2.734913436075848
 30
0.0
 10
1.697551709678621
 20
2.728271491068766
 30
0.0
  0
SPLINE
  5
F5
330
1F
100
AcDbEntity
  8
0
  6
Continuous
 62
     7
370
    15
100
AcDbSpline
210
0.0
220
0.0
230
1.0
 70
     8
 71
     3
 72
    12
 73
     8
 74
     0
 42
0.00000001
 43
0.00000001
 40
0.0
 40
0.0
 40
0.0
 40
0.0
 40
0.25
 40
0.25
 40
0.5
 40
0.5
 40
1.0
 40
1.0
 40
1.0
 40
1.0
 10
1.71231009098778
 20
2.594142540388105
 30
0.0
 10
1.717109088503534
 20
2.591809142314379
 30
0.0
 10
1.721545115225443
 20
2.588963339071101
 30
0.0
 10
1.729715003788911
 20
2.582280285845876
 30
0.0
 10
1.733463532424939
 20
2.578399947569596
 30
0.0
 10
1.743056172372537
 20
2.56581187267001
 30
0.0
 10
1.747499365234581
 20
2.555868606497478
 30
0.0
 10
1.749444172807951
 20
2.545339544149629
 30
0.0
  0
SPLINE
  5
F6
330
1F
100
AcDbEntity
  8
0
  6
Continuous
 62
     7
370
    15
100
AcDbSpline
210
0.0
220
0.0
230
1.0
 70
     8
 71
     3
 72
     8
 73
     4
 74
     0
 42
0.00000001
 43
0.00000001
 40
0.0
 40
0.0
 40
0.0
 40
0.0
 40
1.0
 40
1.0
 40
1.0
 40
1.0
 10
1.637343895013742
 20
2.862695351555968
 30
0.0
 10
1.657584024421397
 20
2.857763083062484
 30
0.0
 10
1.676322127068398
 20
2.84942608027271
 30
0.0
 10
1.69355356684189
 20
2.837670564130014
 30
0.0
  0
SPLINE
  5
F7
330
1F
100
AcDbEntity
  8
0
  6
Continuous
 62
     7
370
    15
100
AcDbSpline
210
0.0
220
0.0
230
1.0
 70
     8
 71
     3
 72
    10
 73
     6
 74
     0
 42
0.00000001
 43
0.00000001
 40
0.0
 40
0.0
 40
0.0
 40
0.0
 40
0.5
 40
0.5
 40
1.0
 40
1.0
 40
1.0
 40
1.0
 10
1.584307799794252
 20
2.894664103924976
 30
0.0
 10
1.59132215974675
 20
2.886745404254606
 30
0.0
 10
1.599337688743657
 20
2.880083727401946
 30
0.0
 10
1.61733078823275
 20
2.869224751082051
 30
0.0
 10
1.627089508854246
 20
2.865194218275174
 30
0.0
 10
1.637343895013683
 20
2.862695351555727
 30
0.0
  0
ARC
  5
F8
330
1F
100
AcDbEntity
  8
0
  6
Continuous
 62
     7
370
    15
100
AcDbCircle
 10
3.3665890183
 20
2.8440414
 30
0.0
 40
1.783000000000148
100
AcDbArc
 50
177.4409064333
 51
178.3730470551
  0
SPLINE
  5
F9
330
1F
100
AcDbEntity
  8
0
  6
Continuous
 62
     7
370
    15
100
AcDbSpline
210
0.0
220
0.0
230
1.0
 70
     8
 71
     3
 72
    10
 73
     6
 74
     0
 42
0.00000001
 43
0.00000001
 40
0.0
 40
0.0
 40
0.0
 40
0.0
 40
0.5
 40
0.5
 40
1.0
 40
1.0
 40
1.0
 40
1.0
 10
1.640595379415694
 20
2.951664003795345
 30
0.0
 10
1.630186049261373
 20
2.949920343205994
 30
0.0
 10
1.620297078567303
 20
2.946666087987271
 30
0.0
 10
1.601546529821568
 20
2.937176562356497
 30
0.0
 10
1.592940770250374
 20
2.931037377817703
 30
0.0
 10
1.585367200314941
 20
2.923651921447561
 30
0.0
  0
SPLINE
  5
FA
330
1F
100
AcDbEntity
  8
0
  6
Continuous
 62
     7
370
    15
100
AcDbSpline
210
0.0
220
0.0
230
1.0
 70
     8
 71
     3
 72
     8
 73
     4
 74
     0
 42
0.00000001
 43
0.00000001
 40
0.0
 40
0.0
 40
0.0
 40
0.0
 40
1.0
 40
1.0
 40
1.0
 40
1.0
 10
1.69848179201656
 20
2.972518989505314
 30
0.0
 10
1.680438223236623
 20
2.962052648113286
 30
0.0
 10
1.661141546390183
 20
2.955105679780813
 30
0.0
 10
1.640595379415692
 20
2.951664003795361
 30
0.0
  0
SPLINE
  5
FB
330
1F
100
AcDbEntity
  8
0
  6
Continuous
 62
     7
370
    15
100
AcDbSpline
210
0.0
220
0.0
230
1.0
 70
     8
 71
     3
 72
    12
 73
     8
 74
     0
 42
0.00000001
 43
0.00000001
 40
0.0
 40
0.0
 40
0.0
 40
0.0
 40
0.2500000000000016
 40
0.2500000000000016
 40
0.500000000000003
 40
0.500000000000003
 40
1.0
 40
1.0
 40
1.0
 40
1.0
 10
1.693553566841834
 20
2.83767056412993
 30
0.0
 10
1.697961678017143
 20
2.834663292377769
 30
0.0
 10
1.701936079596629
 20
2.831201924881028
 30
0.0
 10
1.709045844671911
 20
2.823400544539859
 30
0.0
 10
1.712189444939437
 20
2.819015767088286
 30
0.0
 10
1.719847021321434
 20
2.805165137944911
 30
0.0
 10
1.722795113256792
 20
2.794680898556124
 30
0.0
 10
1.723186151330039
 20
2.783980873645407
 30
0.0
  0
SPLINE
  5
FC
330
1F
100
AcDbEntity
  8
0
  6
Continuous
 62
     7
370
    15
100
AcDbSpline
210
0.0
220
0.0
230
1.0
 70
     8
 71
     3
 72
    12
 73
     8
 74
     0
 42
0.00000001
 43
0.00000001
 40
0.0
 40
0.0
 40
0.0
 40
0.0
 40
0.2499999999999982
 40
0.2499999999999982
 40
0.4999999999999964
 40
0.4999999999999964
 40
1.0
 40
1.0
 40
1.0
 40
1.0
 10
1.731954404211944
 20
3.023902258485433
 30
0.0
 10
1.731368883403596
 20
3.018580923533157
 30
0.0
 10
1.730175302176483
 20
3.013433972753697
 30
0.0
 10
1.726616507791014
 20
3.003476073224589
 30
0.0
 10
1.724216298703526
 20
2.998638864322776
 30
0.0
 10
1.715576312791445
 20
2.985378062942901
 30
0.0
 10
1.707713398410679
 20
2.977873869423381
 30
0.0
 10
1.698481792016726
 20
2.972518989505025
 30
0.0
  0
SPLINE
  5
FD
330
1F
100
AcDbEntity
  8
0
  6
Continuous
 62
     7
370
    15
100
AcDbSpline
210
0.0
220
0.0
230
1.0
 70
     8
 71
     3
 72
     8
 73
     4
 74
     0
 42
0.00000001
 43
0.00000001
 40
0.0
 40
0.0
 40
0.0
 40
0.0
 40
1.0
 40
1.0
 40
1.0
 40
1.0
 10
5.058519401488716
 20
3.201823798645022
 30
0.0
 10
5.037691075410633
 20
3.202237252052279
 30
0.0
 10
5.01758854944527
 20
3.206300570417955
 30
0.0
 10
4.998213352807771
 20
3.214028211177693
 30
0.0
  0
SPLINE
  5
FE
330
1F
100
AcDbEntity
  8
0
  6
Continuous
 62
     7
370
    15
100
AcDbSpline
210
0.0
220
0.0
230
1.0
 70
     8
 71
     3
 72
    10
 73
     6
 74
     0
 42
0.00000001
 43
0.00000001
 40
0.0
 40
0.0
 40
0.0
 40
0.0
 40
0.5
 40
0.5
 40
1.0
 40
1.0
 40
1.0
 40
1.0
 10
5.117237626112599
 20
3.182151518117243
 30
0.0
 10
5.108669314306806
 20
3.188355636331079
 30
0.0
 10
5.099397100239512
 20
3.193115120533839
 30
0.0
 10
5.079473400737943
 20
3.199802062593605
 30
0.0
 10
5.069071789487641
 20
3.201614328101986
 30
0.0
 10
5.058519401488716
 20
3.201823798645017
 30
0.0
  0
ARC
  5
FF
330
1F
100
AcDbEntity
  8
0
  6
Continuous
 62
     7
370
    15
100
AcDbCircle
 10
3.3665890183
 20
2.8440414
 30
0.0
 40
1.783000000000059
100
AcDbArc
 50
9.9990459682
 51
10.9311865899
  0
SPLINE
  5
100
330
1F
100
AcDbEntity
  8
0
  6
Continuous
 62
     7
370
    15
100
AcDbSpline
210
0.0
220
0.0
230
1.0
 70
     8
 71
     3
 72
    10
 73
     6
 74
     0
 42
0.00000001
 43
0.00000001
 40
0.0
 40
0.0
 40
0.0
 40
0.0
 40
0.5
 40
0.5
 40
1.0
 40
1.0
 40
1.0
 40
1.0
 10
5.074690175675624
 20
3.114276672511286
 30
0.0
 10
5.084471347312553
 20
3.118241920034376
 30
0.0
 10
5.093416159777186
 20
3.123568480687124
 30
0.0
 10
5.109654808874527
 20
3.136907912850758
 30
0.0
 10
5.116719839227647
 20
3.144771374601372
 30
0.0
 10
5.122506397073234
 20
3.153626863049772
 30
0.0
  0
SPLINE
  5
101
330
1F
100
AcDbEntity
  8
0
  6
Continuous
 62
     7
370
    15
100
AcDbSpline
210
0.0
220
0.0
230
1.0
 70
     8
 71
     3
 72
     8
 73
     4
 74
     0
 42
0.00000001
 43
0.00000001
 40
0.0
 40
0.0
 40
0.0
 40
0.0
 40
1.0
 40
1.0
 40
1.0
 40
1.0
 10
5.022723147901852
 20
3.081334371177218
 30
0.0
 10
5.038059341686559
 20
3.09547353086428
 30
0.0
 10
5.055383881929237
 20
3.106449978910647
 30
0.0
 10
5.074690175675665
 20
3.114276672511183
 30
0.0
  0
SPLINE
  5
102
330
1F
100
AcDbEntity
  8
0
  6
Continuous
 62
     7
370
    15
100
AcDbSpline
210
0.0
220
0.0
230
1.0
 70
     8
 71
     3
 72
    12
 73
     8
 74
     0
 42
0.00000001
 43
0.00000001
 40
0.0
 40
0.0
 40
0.0
 40
0.0
 40
0.25
 40
0.25
 40
0.5
 40
0.5
 40
1.0
 40
1.0
 40
1.0
 40
1.0
 10
5.001223608198366
 20
3.023902478379019
 30
0.0
 10
5.000638105004992
 20
3.029223812479019
 30
0.0
 10
5.000684030636341
 20
3.034507144810043
 30
0.0
 10
5.001992539233878
 20
3.045000593617968
 30
0.0
 10
5.003283571139194
 20
3.050243951337778
 30
0.0
 10
5.008833555312894
 20
3.065066084444507
 30
0.0
 10
5.014876716135224
 20
3.074100376010474
 30
0.0
 10
5.022723147901638
 20
3.081334371177452
 30
0.0
  0
SPLINE
  5
103
330
1F
100
AcDbEntity
  8
0
  6
Continuous
 62
     7
370
    15
100
AcDbSpline
210
0.0
220
0.0
230
1.0
 70
     8
 71
     3
 72
    12
 73
     8
 74
     0
 42
0.00000001
 43
0.00000001
 40
0.0
 40
0.0
 40
0.0
 40
0.0
 40
0.25
 40
0.25
 40
0.5
 40
0.5
 40
1.0
 40
1.0
 40
1.0
 40
1.0
 10
4.998213352807745
 20
3.214028211177625
 30
0.0
 10
4.993256820797214
 20
3.216005083955121
 30
0.0
 10
4.988624889358459
 20
3.218519492200429
 30
0.0
 10
4.979988949710383
 20
3.224588369406329
 30
0.0
 10
4.975967169197159
 20
3.228184740835076
 30
0.0
 10
4.965481239783039
 20
3.240039049032854
 30
0.0
 10
4.960324090988316
 20
3.249631484123049
 30
0.0
 10
4.957615913286285
 20
3.259990518811512
 30
0.0
  0
SPLINE
  5
104
330
1F
100
AcDbEntity
  8
0
  6
Continuous
 62
     7
370
    15
100
AcDbSpline
210
0.0
220
0.0
230
1.0
 70
     8
 71
     3
 72
     8
 73
     4
 74
     0
 42
0.00000001
 43
0.00000001
 40
0.0
 40
0.0
 40
0.0
 40
0.0
 40
1.0
 40
1.0
 40
1.0
 40
1.0
 10
1.658487860929765
 20
3.114276672511183
 30
0.0
 10
1.677794154676205
 20
3.106449978910642
 30
0.0
 10
1.695118694918862
 20
3.09547353086429
 30
0.0
 10
1.710454888703578
 20
3.081334371177218
 30
0.0
  0
SPLINE
  5
105
330
1F
100
AcDbEntity
  8
0
  6
Continuous
 62
     7
370
    15
100
AcDbSpline
210
0.0
220
0.0
230
1.0
 70
     8
 71
     3
 72
    10
 73
     6
 74
     0
 42
0.00000001
 43
0.00000001
 40
0.0
 40
0.0
 40
0.0
 40
0.0
 40
0.5
 40
0.5
 40
1.0
 40
1.0
 40
1.0
 40
1.0
 10
1.610671639532196
 20
3.153626863049772
 30
0.0
 10
1.616458278113493
 20
3.144771251047064
 30
0.0
 10
1.623418440639225
 20
3.137013494850721
 30
0.0
 10
1.639638714657212
 20
3.123650422347621
 30
0.0
 10
1.648706589901666
 20
3.118241960327173
 30
0.0
 10
1.658487860929807
 20
3.114276672511286
 30
0.0
  0
ARC
  5
106
330
1F
100
AcDbEntity
  8
0
  6
Continuous
 62
     7
370
    15
100
AcDbCircle
 10
3.3665890183
 20
2.8440414
 30
0.0
 40
1.78300000000006
100
AcDbArc
 50
169.0688134101
 51
170.0009540318
  0
SPLINE
  5
107
330
1F
100
AcDbEntity
  8
0
  6
Continuous
 62
     7
370
    15
100
AcDbSpline
210
0.0
220
0.0
230
1.0
 70
     8
 71
     3
 72
    10
 73
     6
 74
     0
 42
0.00000001
 43
0.00000001
 40
0.0
 40
0.0
 40
0.0
 40
0.0
 40
0.5
 40
0.5
 40
1.0
 40
1.0
 40
1.0
 40
1.0
 10
1.674658635116714
 20
3.201823798645017
 30
0.0
 10
1.664106354344611
 20
3.201614330230496
 30
0.0
 10
1.653848943411523
 20
3.199834600092541
 30
0.0
 10
1.633916526349335
 20
3.193176302636599
 30
0.0
 10
1.624508602752756
 20
3.188355549770656
 30
0.0
 10
1.615940410492831
 20
3.182151518117243
 30
0.0
  0
SPLINE
  5
108
330
1F
100
AcDbEntity
  8
0
  6
Continuous
 62
     7
370
    15
100
AcDbSpline
210
0.0
220
0.0
230
1.0
 70
     8
 71
     3
 72
     8
 73
     4
 74
     0
 42
0.00000001
 43
0.00000001
 40
0.0
 40
0.0
 40
0.0
 40
0.0
 40
1.0
 40
1.0
 40
1.0
 40
1.0
 10
1.734964683797658
 20
3.214028211177693
 30
0.0
 10
1.715589487160166
 20
3.206300570417957
 30
0.0
 10
1.695486961194793
 20
3.202237252052279
 30
0.0
 10
1.674658635116714
 20
3.201823798645022
 30
0.0
  0
SPLINE
  5
109
330
1F
100
AcDbEntity
  8
0
  6
Continuous
 62
     7
370
    15
100
AcDbSpline
210
0.0
220
0.0
230
1.0
 70
     8
 71
     3
 72
    12
 73
     8
 74
     0
 42
0.00000001
 43
0.00000001
 40
0.0
 40
0.0
 40
0.0
 40
0.0
 40
0.2499999999999972
 40
0.2499999999999972
 40
0.4999999999999944
 40
0.4999999999999944
 40
1.0
 40
1.0
 40
1.0
 40
1.0
 10
1.775562056910423
 20
3.259990265093894
 30
0.0
 10
1.77420798370493
 20
3.254810889227729
 30
0.0
 10
1.772277720363631
 20
3.249892573457555
 30
0.0
 10
1.767306969150489
 20
3.240558954327677
 30
0.0
 10
1.764228034867578
 20
3.236122766122708
 30
0.0
 10
1.753749333231727
 20
3.224261269846097
 30
0.0
 10
1.744877590577764
 20
3.21798189401832
 30
0.0
 10
1.734964683797685
 20
3.214028211177625
 30
0.0
  0
SPLINE
  5
10A
330
1F
100
AcDbEntity
  8
0
  6
Continuous
 62
     7
370
    15
100
AcDbSpline
210
0.0
220
0.0
230
1.0
 70
     8
 71
     3
 72
    12
 73
     8
 74
     0
 42
0.00000001
 43
0.00000001
 40
0.0
 40
0.0
 40
0.0
 40
0.0
 40
0.2500000000000012
 40
0.2500000000000012
 40
0.5000000000000023
 40
0.5000000000000023
 40
1.0
 40
1.0
 40
1.0
 40
1.0
 10
1.710454888703792
 20
3.081334371177452
 30
0.0
 10
1.714378161201686
 20
3.077717321398215
 30
0.0
 10
1.71780622931096
 20
3.073714163780732
 30
0.0
 10
1.723704337362392
 20
3.064960731823373
 30
0.0
 10
1.726176008568605
 20
3.060164970585034
 30
0.0
 10
1.731735313484575
 20
3.045346993849188
 30
0.0
 10
1.733125472426645
 20
3.034545237967089
 30
0.0
 10
1.731954409366506
 20
3.023902305331317
 30
0.0
  0
SPLINE
  5
10B
330
1F
100
AcDbEntity
  8
0
  6
Continuous
 62
     7
370
    15
100
AcDbSpline
210
0.0
220
0.0
230
1.0
 70
     8
 71
     3
 72
     8
 73
     4
 74
     0
 42
0.00000001
 43
0.00000001
 40
0.0
 40
0.0
 40
0.0
 40
0.0
 40
1.0
 40
1.0
 40
1.0
 40
1.0
 10
4.97506805168874
 20
2.208878534678183
 30
0.0
 10
4.957925403441974
 20
2.220715752341648
 30
0.0
 10
4.94340194864761
 20
2.235196476327512
 30
0.0
 10
4.931506939814324
 20
2.252331920333984
 30
0.0
  0
SPLINE
  5
10C
330
1F
100
AcDbEntity
  8
0
  6
Continuous
 62
     7
370
    15
100
AcDbSpline
210
0.0
220
0.0
230
1.0
 70
     8
 71
     3
 72
    10
 73
     6
 74
     0
 42
0.00000001
 43
0.00000001
 40
0.0
 40
0.0
 40
0.0
 40
0.0
 40
0.5
 40
0.5
 40
1.0
 40
1.0
 40
1.0
 40
1.0
 10
5.013184393113279
 20
2.160073073502037
 30
0.0
 10
5.009461672054535
 20
2.169975012601675
 30
0.0
 10
5.004354795601093
 20
2.179060520649041
 30
0.0
 10
4.991428112605307
 20
2.19563067039709
 30
0.0
 10
4.983753141165172
 20
2.202881369416475
 30
0.0
 10
4.97506805168873
 20
2.208878534678167
 30
0.0
  0
ARC
  5
10D
330
1F
100
AcDbEntity
  8
0
  6
Continuous
 62
     7
370
    15
100
AcDbCircle
 10
3.3665890183
 20
2.8440414
 30
0.0
 40
1.783000000000125
100
AcDbArc
 50
336.5106738752
 51
337.4428144969
  0
SPLINE
  5
10E
330
1F
100
AcDbEntity
  8
0
  6
Continuous
 62
     7
370
    15
100
AcDbSpline
210
0.0
220
0.0
230
1.0
 70
     8
 71
     3
 72
    10
 73
     6
 74
     0
 42
0.00000001
 43
0.00000001
 40
0.0
 40
0.0
 40
0.0
 40
0.0
 40
0.5
 40
0.5
 40
1.0
 40
1.0
 40
1.0
 40
1.0
 10
4.940248762076728
 20
2.126941910980304
 30
0.0
 10
4.950594133545761
 20
2.124851983785657
 30
0.0
 10
4.960993111960167
 20
2.124358864781589
 30
0.0
 10
4.981896378221006
 20
2.126523959372182
 30
0.0
 10
4.992127402643804
 20
2.129183813476815
 30
0.0
 10
5.001839552114765
 20
2.133376435569791
 30
0.0
  0
SPLINE
  5
10F
330
1F
100
AcDbEntity
  8
0
  6
Continuous
 62
     7
370
    15
100
AcDbSpline
210
0.0
220
0.0
230
1.0
 70
     8
 71
     3
 72
     8
 73
     4
 74
     0
 42
0.00000001
 43
0.00000001
 40
0.0
 40
0.0
 40
0.0
 40
0.0
 40
1.0
 40
1.0
 40
1.0
 40
1.0
 10
4.878731875128718
 20
2.128141833060675
 30
0.0
 10
4.899323759476687
 20
2.13147184438986
 30
0.0
 10
4.919828838175111
 20
2.131067055679155
 30
0.0
 10
4.94024876207672
 20
2.126941910980259
 30
0.0
  0
SPLINE
  5
110
330
1F
100
AcDbEntity
  8
0
  6
Continuous
 62
     7
370
    15
100
AcDbSpline
210
0.0
220
0.0
230
1.0
 70
     8
 71
     3
 72
    12
 73
     8
 74
     0
 42
0.00000001
 43
0.00000001
 40
0.0
 40
0.0
 40
0.0
 40
0.0
 40
0.2500000000000009
 40
0.2500000000000009
 40
0.5000000000000019
 40
0.5000000000000019
 40
1.0
 40
1.0
 40
1.0
 40
1.0
 10
4.829112221794351
 20
2.092106476453946
 30
0.0
 10
4.831560052646011
 20
2.096867523739156
 30
0.0
 10
4.834513526472139
 20
2.101248475400583
 30
0.0
 10
4.841394767234757
 20
2.109278004229957
 30
0.0
 10
4.845364601847386
 20
2.11293860714414
 30
0.0
 10
4.858171656737363
 20
2.122237941190814
 30
0.0
 10
4.868196476272367
 20
2.126438103719818
 30
0.0
 10
4.878731875128711
 20
2.128141833060725
 30
0.0
  0
SPLINE
  5
111
330
1F
100
AcDbEntity
  8
0
  6
Continuous
 62
     7
370
    15
100
AcDbSpline
210
0.0
220
0.0
230
1.0
 70
     8
 71
     3
 72
    12
 73
     8
 74
     0
 42
0.00000001
 43
0.00000001
 40
0.0
 40
0.0
 40
0.0
 40
0.0
 40
0.2499999999999992
 40
0.2499999999999992
 40
0.4999999999999984
 40
0.4999999999999984
 40
1.0
 40
1.0
 40
1.0
 40
1.0
 10
4.931506939814129
 20
2.252331920333847
 30
0.0
 10
4.928463983290644
 20
2.256715474129598
 30
0.0
 10
4.925988335557971
 20
2.261368226207951
 30
0.0
 10
4.922134594467576
 20
2.271194668966066
 30
0.0
 10
4.920764799135235
 20
2.276413112935495
 30
0.0
 10
4.918560372082049
 20
2.29208534671525
 30
0.0
 10
4.919552101006637
 20
2.302930944840006
 30
0.0
 10
4.923009244730571
 20
2.313064631425949
 30
0.0
  0
SPLINE
  5
112
330
1F
100
AcDbEntity
  8
0
  6
Continuous
 62
     7
370
    15
100
AcDbSpline
210
0.0
220
0.0
230
1.0
 70
     8
 71
     3
 72
     8
 73
     4
 74
     0
 42
0.00000001
 43
0.00000001
 40
0.0
 40
0.0
 40
0.0
 40
0.0
 40
1.0
 40
1.0
 40
1.0
 40
1.0
 10
1.79292927452871
 20
2.126941910980259
 30
0.0
 10
1.813349198430322
 20
2.131067055679156
 30
0.0
 10
1.833854277128741
 20
2.131471844389861
 30
0.0
 10
1.854446161476712
 20
2.128141833060675
 30
0.0
  0
SPLINE
  5
113
330
1F
100
AcDbEntity
  8
0
  6
Continuous
 62
     7
370
    15
100
AcDbSpline
210
0.0
220
0.0
230
1.0
 70
     8
 71
     3
 72
    10
 73
     6
 74
     0
 42
0.00000001
 43
0.00000001
 40
0.0
 40
0.0
 40
0.0
 40
0.0
 40
0.5
 40
0.5
 40
1.0
 40
1.0
 40
1.0
 40
1.0
 10
1.731338484490665
 20
2.133376435569791
 30
0.0
 10
1.741050769468312
 20
2.129183754980152
 30
0.0
 10
1.751136009437036
 20
2.126554196392921
 30
0.0
 10
1.77203699489849
 20
2.124359247034778
 30
0.0
 10
1.782583797935353
 20
2.124851962548897
 30
0.0
 10
1.792929274528701
 20
2.126941910980304
 30
0.0
  0
ARC
  5
114
330
1F
100
AcDbEntity
  8
0
  6
Continuous
 62
     7
370
    15
100
AcDbCircle
 10
3.3665890183
 20
2.8440414
 30
0.0
 40
1.783000000000125
100
AcDbArc
 50
202.5571855031
 51
203.4893261248
  0
SPLINE
  5
115
330
1F
100
AcDbEntity
  8
0
  6
Continuous
 62
     7
370
    15
100
AcDbSpline
210
0.0
220
0.0
230
1.0
 70
     8
 71
     3
 72
    10
 73
     6
 74
     0
 42
0.00000001
 43
0.00000001
 40
0.0
 40
0.0
 40
0.0
 40
0.0
 40
0.5
 40
0.5
 40
1.0
 40
1.0
 40
1.0
 40
1.0
 10
1.7581099849167
 20
2.208878534678167
 30
0.0
 10
1.749424983692725
 20
2.202881430355931
 30
0.0
 10
1.741852323034619
 20
2.195737430847697
 30
0.0
 10
1.728902564443944
 20
2.179186360567943
 30
0.0
 10
1.723716312611163
 20
2.169974874448948
 30
0.0
 10
1.719993643492152
 20
2.160073073502037
 30
0.0
  0
SPLINE
  5
116
330
1F
100
AcDbEntity
  8
0
  6
Continuous
 62
     7
370
    15
100
AcDbSpline
210
0.0
220
0.0
230
1.0
 70
     8
 71
     3
 72
     8
 73
     4
 74
     0
 42
0.00000001
 43
0.00000001
 40
0.0
 40
0.0
 40
0.0
 40
0.0
 40
1.0
 40
1.0
 40
1.0
 40
1.0
 10
1.801671096791105
 20
2.252331920333984
 30
0.0
 10
1.789776087957829
 20
2.235196476327524
 30
0.0
 10
1.775252633163444
 20
2.220715752341639
 30
0.0
 10
1.75810998491669
 20
2.208878534678183
 30
0.0
  0
SPLINE
  5
117
330
1F
100
AcDbEntity
  8
0
  6
Continuous
 62
     7
370
    15
100
AcDbSpline
210
0.0
220
0.0
230
1.0
 70
     8
 71
     3
 72
    12
 73
     8
 74
     0
 42
0.00000001
 43
0.00000001
 40
0.0
 40
0.0
 40
0.0
 40
0.0
 40
0.2500000000000009
 40
0.2500000000000009
 40
0.5000000000000019
 40
0.5000000000000019
 40
1.0
 40
1.0
 40
1.0
 40
1.0
 10
1.85444616147672
 20
2.128141833060725
 30
0.0
 10
1.859713935169506
 20
2.127289956380588
 30
0.0
 10
1.864781751212097
 20
2.125842828441166
 30
0.0
 10
1.874530624564182
 20
2.121796869099043
 30
0.0
 10
1.879238140446335
 20
2.119161001821813
 30
0.0
 10
1.89205067268531
 20
2.10987028206864
 30
0.0
 10
1.899170123146035
 20
2.101628681910377
 30
0.0
 10
1.904065884666778
 20
2.092106340583773
 30
0.0
  0
SPLINE
  5
118
330
1F
100
AcDbEntity
  8
0
  6
Continuous
 62
     7
370
    15
100
AcDbSpline
210
0.0
220
0.0
230
1.0
 70
     8
 71
     3
 72
    12
 73
     8
 74
     0
 42
0.00000001
 43
0.00000001
 40
0.0
 40
0.0
 40
0.0
 40
0.0
 40
0.25
 40
0.25
 40
0.5
 40
0.5
 40
1.0
 40
1.0
 40
1.0
 40
1.0
 10
1.810168839747988
 20
2.313064491098251
 30
0.0
 10
1.811897357872517
 20
2.307997769170101
 30
0.0
 10
1.813001290118901
 20
2.30283084768773
 30
0.0
 10
1.814005684007523
 20
2.292303929995413
 30
0.0
 10
1.81388560493896
 20
2.28690530235276
 30
0.0
 10
1.811691181407022
 20
2.271231031577573
 30
0.0
 10
1.807756924483459
 20
2.261098904966832
 30
0.0
 10
1.8016710967913
 20
2.252331920333847
 30
0.0
  0
SPLINE
  5
119
330
1F
100
AcDbEntity
  8
0
  6
Continuous
 62
     7
370
    15
100
AcDbSpline
210
0.0
220
0.0
230
1.0
 70
     8
 71
     3
 72
     8
 73
     4
 74
     0
 42
0.00000001
 43
0.00000001
 40
0.0
 40
0.0
 40
0.0
 40
0.0
 40
1.0
 40
1.0
 40
1.0
 40
1.0
 10
4.746681265874447
 20
3.886146027434362
 30
0.0
 10
4.727646801668715
 20
3.87767966556301
 30
0.0
 10
4.707720302264193
 20
3.872826138205239
 30
0.0
 10
4.686897015730687
 20
3.871599184906295
 30
0.0
  0
SPLINE
  5
11A
330
1F
100
AcDbEntity
  8
0
  6
Continuous
 62
     7
370
    15
100
AcDbSpline
210
0.0
220
0.0
230
1.0
 70
     8
 71
     3
 72
    10
 73
     6
 74
     0
 42
0.00000001
 43
0.00000001
 40
0.0
 40
0.0
 40
0.0
 40
0.0
 40
0.5
 40
0.5
 40
1.0
 40
1.0
 40
1.0
 40
1.0
 10
4.80819761012153
 20
3.893257139490292
 30
0.0
 10
4.797806067762158
 20
3.895237770048233
 30
0.0
 10
4.787390362924115
 20
3.895611583256755
 30
0.0
 10
4.766512166973699
 20
3.893209515439182
 30
0.0
 10
4.756324818164824
 20
3.890435394475328
 30
0.0
 10
4.746681265874598
 20
3.886146027434025
 30
0.0
  0
ARC
  5
11B
330
1F
100
AcDbEntity
  8
0
  6
Continuous
 62
     7
370
    15
100
AcDbCircle
 10
3.3665890183
 20
2.8440414
 30
0.0
 40
1.783000000000216
100
AcDbArc
 50
35.115325038
 51
36.0474656597
  0
SPLINE
  5
11C
330
1F
100
AcDbEntity
  8
0
  6
Continuous
 62
     7
370
    15
100
AcDbSpline
210
0.0
220
0.0
230
1.0
 70
     8
 71
     3
 72
    10
 73
     6
 74
     0
 42
0.00000001
 43
0.00000001
 40
0.0
 40
0.0
 40
0.0
 40
0.0
 40
0.5
 40
0.5
 40
1.0
 40
1.0
 40
1.0
 40
1.0
 10
4.798483029016037
 20
3.813740429807665
 30
0.0
 10
4.805656297761518
 20
3.821482440012871
 30
0.0
 10
4.81149446809136
 20
3.830102050538671
 30
0.0
 10
4.820535712954842
 20
3.849072819270629
 30
0.0
 10
4.823595033219589
 20
3.859191576314838
 30
0.0
 10
4.825075690428241
 20
3.869665905963676
 30
0.0
  0
SPLINE
  5
11D
330
1F
100
AcDbEntity
  8
0
  6
Continuous
 62
     7
370
    15
100
AcDbSpline
210
0.0
220
0.0
230
1.0
 70
     8
 71
     3
 72
     8
 73
     4
 74
     0
 42
0.00000001
 43
0.00000001
 40
0.0
 40
0.0
 40
0.0
 40
0.0
 40
1.0
 40
1.0
 40
1.0
 40
1.0
 10
4.765412155788374
 20
3.761855128067094
 30
0.0
 10
4.773296824374854
 20
3.781166955472356
 30
0.0
 10
4.784324271899713
 20
3.798459078170721
 30
0.0
 10
4.798483029015943
 20
3.813740429807752
 30
0.0
  0
SPLINE
  5
11E
330
1F
100
AcDbEntity
  8
0
  6
Continuous
 62
     7
370
    15
100
AcDbSpline
210
0.0
220
0.0
230
1.0
 70
     8
 71
     3
 72
    12
 73
     8
 74
     0
 42
0.00000001
 43
0.00000001
 40
0.0
 40
0.0
 40
0.0
 40
0.0
 40
0.25
 40
0.25
 40
0.5
 40
0.5
 40
1.0
 40
1.0
 40
1.0
 40
1.0
 10
4.686897015730695
 20
3.871599184906179
 30
0.0
 10
4.681570047027238
 20
3.87128530833281
 30
0.0
 10
4.676308826532461
 20
3.871595918560099
 30
0.0
 10
4.665913476238623
 20
3.873425381166724
 30
0.0
 10
4.660745468032427
 20
3.874974630475619
 30
0.0
 10
4.646219385445297
 20
3.881257242349333
 30
0.0
 10
4.637478290585091
 20
3.887753681631765
 30
0.0
 10
4.630629211004928
 20
3.895983718396974
 30
0.0
  0
SPLINE
  5
11F
330
1F
100
AcDbEntity
  8
0
  6
Continuous
 62
     7
370
    15
100
AcDbSpline
210
0.0
220
0.0
230
1.0
 70
     8
 71
     3
 72
    12
 73
     8
 74
     0
 42
0.00000001
 43
0.00000001
 40
0.0
 40
0.0
 40
0.0
 40
0.0
 40
0.2500000000000003
 40
0.2500000000000003
 40
0.5000000000000006
 40
0.5000000000000006
 40
1.0
 40
1.0
 40
1.0
 40
1.0
 10
4.770322792510265
 20
3.700727889415883
 30
0.0
 10
4.767533972609877
 20
3.705297561572054
 30
0.0
 10
4.765333009086429
 20
3.710100839454994
 30
0.0
 10
4.762063779547226
 20
3.72015752073641
 30
0.0
 10
4.761007163126284
 20
3.725453097652357
 30
0.0
 10
4.759741031417597
 20
3.741229502378224
 30
0.0
 10
4.761378135016822
 20
3.751974647737588
 30
0.0
 10
4.765412155787652
 20
3.761855128067335
 30
0.0
  0
SPLINE
  5
120
330
1F
100
AcDbEntity
  8
0
  6
Continuous
 62
     7
370
    15
100
AcDbSpline
210
0.0
220
0.0
230
1.0
 70
     8
 71
     3
 72
     8
 73
     4
 74
     0
 42
0.00000001
 43
0.00000001
 40
0.0
 40
0.0
 40
0.0
 40
0.0
 40
1.0
 40
1.0
 40
1.0
 40
1.0
 10
1.808764863925835
 20
3.594921264136913
 30
0.0
 10
1.82499771902196
 20
3.581864291809397
 30
0.0
 10
1.838425404355015
 20
3.566362054134605
 30
0.0
 10
1.849037873551882
 20
3.548404042719163
 30
0.0
  0
SPLINE
  5
121
330
1F
100
AcDbEntity
  8
0
  6
Continuous
 62
     7
370
    15
100
AcDbSpline
210
0.0
220
0.0
230
1.0
 70
     8
 71
     3
 72
    10
 73
     6
 74
     0
 42
0.00000001
 43
0.00000001
 40
0.0
 40
0.0
 40
0.0
 40
0.0
 40
0.5
 40
0.5
 40
1.0
 40
1.0
 40
1.0
 40
1.0
 10
1.774312776083443
 20
3.646378840522583
 30
0.0
 10
1.777302770818082
 20
3.636231575792591
 30
0.0
 10
1.781732824055032
 20
3.626797527249807
 30
0.0
 10
1.793415479032577
 20
3.609327994668191
 30
0.0
 10
1.800540708769604
 20
3.601536401501748
 30
0.0
 10
1.808764863925606
 20
3.594921264136628
 30
0.0
  0
ARC
  5
122
330
1F
100
AcDbEntity
  8
0
  6
Continuous
 62
     7
370
    15
100
AcDbCircle
 10
3.3665890183
 20
2.8440414
 30
0.0
 40
1.783000000000168
100
AcDbArc
 50
152.3246273636
 51
153.2567679853
  0
SPLINE
  5
123
330
1F
100
AcDbEntity
  8
0
  6
Continuous
 62
     7
370
    15
100
AcDbSpline
210
0.0
220
0.0
230
1.0
 70
     8
 71
     3
 72
    10
 73
     6
 74
     0
 42
0.00000001
 43
0.00000001
 40
0.0
 40
0.0
 40
0.0
 40
0.0
 40
0.5
 40
0.5
 40
1.0
 40
1.0
 40
1.0
 40
1.0
 10
1.84947225517969
 20
3.674097659163497
 30
0.0
 10
1.839307037120239
 20
3.676937174670913
 30
0.0
 10
1.82897179560721
 20
3.678188054874866
 30
0.0
 10
1.807966251570165
 20
3.67755457664057
 30
0.0
 10
1.797568363730947
 20
3.675648635119169
 30
0.0
 10
1.787576081750794
 20
3.672176139159226
 30
0.0
  0
SPLINE
  5
124
330
1F
100
AcDbEntity
  8
0
  6
Continuous
 62
     7
370
    15
100
AcDbSpline
210
0.0
220
0.0
230
1.0
 70
     8
 71
     3
 72
     8
 73
     4
 74
     0
 42
0.00000001
 43
0.00000001
 40
0.0
 40
0.0
 40
0.0
 40
0.0
 40
1.0
 40
1.0
 40
1.0
 40
1.0
 10
1.910737443832716
 20
3.668410493615025
 30
0.0
 10
1.889957417566514
 20
3.666592476889035
 30
0.0
 10
1.869536588281114
 20
3.668492960410045
 30
0.0
 10
1.849472255179692
 20
3.674097659163504
 30
0.0
  0
SPLINE
  5
125
330
1F
100
AcDbEntity
  8
0
  6
Continuous
 62
     7
370
    15
100
AcDbSpline
210
0.0
220
0.0
230
1.0
 70
     8
 71
     3
 72
    12
 73
     8
 74
     0
 42
0.00000001
 43
0.00000001
 40
0.0
 40
0.0
 40
0.0
 40
0.0
 40
0.2500000000000018
 40
0.2500000000000018
 40
0.5000000000000037
 40
0.5000000000000037
 40
1.0
 40
1.0
 40
1.0
 40
1.0
 10
1.849037873551826
 20
3.54840404271913
 30
0.0
 10
1.851752734398127
 20
3.543810059814227
 30
0.0
 10
1.853882149252269
 20
3.538989007497262
 30
0.0
 10
1.857008325665579
 20
3.528907469992288
 30
0.0
 10
1.857993544499219
 20
3.523602956725827
 30
0.0
 10
1.859048088906147
 20
3.507811613528429
 30
0.0
 10
1.85726732443739
 20
3.497067336414531
 30
0.0
 10
1.85307968728602
 20
3.487213037220348
 30
0.0
  0
SPLINE
  5
126
330
1F
100
AcDbEntity
  8
0
  6
Continuous
 62
     7
370
    15
100
AcDbSpline
210
0.0
220
0.0
230
1.0
 70
     8
 71
     3
 72
    12
 73
     8
 74
     0
 42
0.00000001
 43
0.00000001
 40
0.0
 40
0.0
 40
0.0
 40
0.0
 40
0.2500000000000008
 40
0.2500000000000008
 40
0.5000000000000017
 40
0.5000000000000017
 40
1.0
 40
1.0
 40
1.0
 40
1.0
 10
1.962855059457935
 20
3.700727586876924
 30
0.0
 10
1.960066221100075
 20
3.696157938040286
 30
0.0
 10
1.956800837063536
 20
3.692004279514806
 30
0.0
 10
1.949351841173264
 20
3.684498500201321
 30
0.0
 10
1.94512539553901
 20
3.68113745588477
 30
0.0
 10
1.931673720922754
 20
3.672797819368228
 30
0.0
 10
1.921369076037297
 20
3.669340640907591
 30
0.0
 10
1.910737443832714
 20
3.668410493615046
 30
0.0
  0
SPLINE
  5
127
330
1F
100
AcDbEntity
  8
0
  6
Continuous
 62
     7
370
    15
100
AcDbSpline
210
0.0
220
0.0
230
1.0
 70
     8
 71
     3
 72
     8
 73
     4
 74
     0
 42
0.00000001
 43
0.00000001
 40
0.0
 40
0.0
 40
0.0
 40
0.0
 40
1.0
 40
1.0
 40
1.0
 40
1.0
 10
4.883705781425737
 20
3.674097659163504
 30
0.0
 10
4.863641448324316
 20
3.668492960410045
 30
0.0
 10
4.843220619038917
 20
3.666592476889035
 30
0.0
 10
4.822440592772714
 20
3.668410493615025
 30
0.0
  0
SPLINE
  5
128
330
1F
100
AcDbEntity
  8
0
  6
Continuous
 62
     7
370
    15
100
AcDbSpline
210
0.0
220
0.0
230
1.0
 70
     8
 71
     3
 72
    10
 73
     6
 74
     0
 42
0.00000001
 43
0.00000001
 40
0.0
 40
0.0
 40
0.0
 40
0.0
 40
0.5
 40
0.5
 40
1.0
 40
1.0
 40
1.0
 40
1.0
 10
4.945601954854636
 20
3.672176139159226
 30
0.0
 10
4.935609533459308
 20
3.675648683568426
 30
0.0
 10
4.925359252593415
 20
3.67753505197437
 30
0.0
 10
4.904353804013078
 20
3.678198471819833
 30
0.0
 10
4.893871102778882
 20
3.676937203524602
 30
0.0
 10
4.883705781425738
 20
3.674097659163497
 30
0.0
  0
ARC
  5
129
330
1F
100
AcDbEntity
  8
0
  6
Continuous
 62
     7
370
    15
100
AcDbCircle
 10
3.3665890183
 20
2.8440414
 30
0.0
 40
1.783000000000168
100
AcDbArc
 50
26.7432320147
 51
27.6753726364
  0
SPLINE
  5
12A
330
1F
100
AcDbEntity
  8
0
  6
Continuous
 62
     7
370
    15
100
AcDbSpline
210
0.0
220
0.0
230
1.0
 70
     8
 71
     3
 72
    10
 73
     6
 74
     0
 42
0.00000001
 43
0.00000001
 40
0.0
 40
0.0
 40
0.0
 40
0.0
 40
0.5
 40
0.5
 40
1.0
 40
1.0
 40
1.0
 40
1.0
 10
4.924413172679825
 20
3.594921264136628
 30
0.0
 10
4.932637244267063
 20
3.601536334282825
 30
0.0
 10
4.939668224722575
 20
3.60921404437439
 30
0.0
 10
4.95137528644764
 20
3.626666232796565
 30
0.0
 10
4.955875307504027
 20
3.636231717368155
 30
0.0
 10
4.958865260521988
 20
3.646378840522583
 30
0.0
  0
SPLINE
  5
12B
330
1F
100
AcDbEntity
  8
0
  6
Continuous
 62
     7
370
    15
100
AcDbSpline
210
0.0
220
0.0
230
1.0
 70
     8
 71
     3
 72
     8
 73
     4
 74
     0
 42
0.00000001
 43
0.00000001
 40
0.0
 40
0.0
 40
0.0
 40
0.0
 40
1.0
 40
1.0
 40
1.0
 40
1.0
 10
4.884140163053548
 20
3.548404042719163
 30
0.0
 10
4.894752632250417
 20
3.566362054134605
 30
0.0
 10
4.90818031758347
 20
3.581864291809397
 30
0.0
 10
4.924413172679595
 20
3.594921264136913
 30
0.0
  0
SPLINE
  5
12C
330
1F
100
AcDbEntity
  8
0
  6
Continuous
 62
     7
370
    15
100
AcDbSpline
210
0.0
220
0.0
230
1.0
 70
     8
 71
     3
 72
    12
 73
     8
 74
     0
 42
0.00000001
 43
0.00000001
 40
0.0
 40
0.0
 40
0.0
 40
0.0
 40
0.2500000000000016
 40
0.2500000000000016
 40
0.5000000000000032
 40
0.5000000000000032
 40
1.0
 40
1.0
 40
1.0
 40
1.0
 10
4.880098278618665
 20
3.487213203593137
 30
0.0
 10
4.878004525852056
 20
3.492140234717367
 30
0.0
 10
4.876526378466175
 20
3.49721278978891
 30
0.0
 10
4.874756249869854
 20
3.507638307023373
 30
0.0
 10
4.874481934645822
 20
3.513031296990734
 30
0.0
 10
4.875526356806379
 20
3.528823933192279
 30
0.0
 10
4.878710520340084
 20
3.539216210554685
 30
0.0
 10
4.884140163053605
 20
3.54840404271913
 30
0.0
  0
SPLINE
  5
12D
330
1F
100
AcDbEntity
  8
0
  6
Continuous
 62
     7
370
    15
100
AcDbSpline
210
0.0
220
0.0
230
1.0
 70
     8
 71
     3
 72
    12
 73
     8
 74
     0
 42
0.00000001
 43
0.00000001
 40
0.0
 40
0.0
 40
0.0
 40
0.0
 40
0.2500000000000019
 40
0.2500000000000019
 40
0.5000000000000038
 40
0.5000000000000038
 40
1.0
 40
1.0
 40
1.0
 40
1.0
 10
4.822440592772716
 20
3.668410493615046
 30
0.0
 10
4.817124689665434
 20
3.668875574873269
 30
0.0
 10
4.811964760186528
 20
3.669948915250523
 30
0.0
 10
4.801946559166126
 20
3.673272458327543
 30
0.0
 10
4.797059196148532
 20
3.675557666754221
 30
0.0
 10
4.783602666271753
 20
3.683888344868778
 30
0.0
 10
4.775900610617591
 20
3.691588270549798
 30
0.0
 10
4.770322822867232
 20
3.700727839673963
 30
0.0
  0
SPLINE
  5
12E
330
1F
100
AcDbEntity
  8
0
  6
Continuous
 62
     7
370
    15
100
AcDbSpline
210
0.0
220
0.0
230
1.0
 70
     8
 71
     3
 72
     8
 73
     4
 74
     0
 42
0.00000001
 43
0.00000001
 40
0.0
 40
0.0
 40
0.0
 40
0.0
 40
1.0
 40
1.0
 40
1.0
 40
1.0
 10
2.274775871781544
 20
4.185153147547678
 30
0.0
 10
2.283931762446455
 20
4.166440590879132
 30
0.0
 10
2.289509807836271
 20
4.146704646109131
 30
0.0
 10
2.291496451122217
 20
4.125940062681718
 30
0.0
  0
SPLINE
  5
12F
330
1F
100
AcDbEntity
  8
0
  6
Continuous
 62
     7
370
    15
100
AcDbSpline
210
0.0
220
0.0
230
1.0
 70
     8
 71
     3
 72
    10
 73
     6
 74
     0
 42
0.00000001
 43
0.00000001
 40
0.0
 40
0.0
 40
0.0
 40
0.0
 40
0.5
 40
0.5
 40
1.0
 40
1.0
 40
1.0
 40
1.0
 10
2.265422802571992
 20
4.246368738866662
 30
0.0
 10
2.26382301354472
 20
4.235911792606817
 30
0.0
 10
2.263829852338643
 20
4.225489384208668
 30
0.0
 10
2.266992831566834
 20
4.204712845557014
 30
0.0
 10
2.27013716435954
 20
4.194633609764352
 30
0.0
 10
2.274775871781796
 20
4.185153147547801
 30
0.0
  0
ARC
  5
130
330
1F
100
AcDbEntity
  8
0
  6
Continuous
 62
     7
370
    15
100
AcDbCircle
 10
3.3665890183
 20
2.8440414
 30
0.0
 40
1.783000000000054
100
AcDbArc
 50
127.2083482938
 51
128.1404889155
  0
SPLINE
  5
131
330
1F
100
AcDbEntity
  8
0
  6
Continuous
 62
     7
370
    15
100
AcDbSpline
210
0.0
220
0.0
230
1.0
 70
     8
 71
     3
 72
    10
 73
     6
 74
     0
 42
0.00000001
 43
0.00000001
 40
0.0
 40
0.0
 40
0.0
 40
0.0
 40
0.5
 40
0.5
 40
1.0
 40
1.0
 40
1.0
 40
1.0
 10
2.345241258707271
 20
4.23956474996425
 30
0.0
 10
2.33724243131041
 20
4.246450479176572
 30
0.0
 10
2.328415349580554
 20
4.251969948947231
 30
0.0
 10
2.309127032674796
 20
4.260312311076555
 30
0.0
 10
2.298903293811037
 20
4.263000032832762
 30
0.0
 10
2.288381875531705
 20
4.26409715850977
 30
0.0
  0
SPLINE
  5
132
330
1F
100
AcDbEntity
  8
0
  6
Continuous
 62
     7
370
    15
100
AcDbSpline
210
0.0
220
0.0
230
1.0
 70
     8
 71
     3
 72
     8
 73
     4
 74
     0
 42
0.00000001
 43
0.00000001
 40
0.0
 40
0.0
 40
0.0
 40
0.0
 40
1.0
 40
1.0
 40
1.0
 40
1.0
 10
2.398299760278806
 20
4.208410896209753
 30
0.0
 10
2.378712852742681
 20
4.215584997521018
 30
0.0
 10
2.361029521819376
 20
4.225973544762441
 30
0.0
 10
2.345241258707099
 20
4.239564749964051
 30
0.0
  0
SPLINE
  5
133
330
1F
100
AcDbEntity
  8
0
  6
Continuous
 62
     7
370
    15
100
AcDbSpline
210
0.0
220
0.0
230
1.0
 70
     8
 71
     3
 72
    12
 73
     8
 74
     0
 42
0.00000001
 43
0.00000001
 40
0.0
 40
0.0
 40
0.0
 40
0.0
 40
0.249999999999998
 40
0.249999999999998
 40
0.499999999999996
 40
0.499999999999996
 40
1.0
 40
1.0
 40
1.0
 40
1.0
 10
2.459206750752964
 20
4.215550667389836
 30
0.0
 10
2.454741984553751
 20
4.212596830651522
 30
0.0
 10
2.450022301170414
 20
4.210221924279419
 30
0.0
 10
2.440091745461173
 20
4.206587609751093
 30
0.0
 10
2.434838301602262
 20
4.205338302835087
 30
0.0
 10
2.419118697351786
 20
4.203496850405361
 30
0.0
 10
2.408320956465758
 20
4.204740430283793
 30
0.0
 10
2.398299760278788
 20
4.208410896209705
 30
0.0
  0
SPLINE
  5
134
330
1F
100
AcDbEntity
  8
0
  6
Continuous
 62
     7
370
    15
100
AcDbSpline
210
0.0
220
0.0
230
1.0
 70
     8
 71
     3
 72
    12
 73
     8
 74
     0
 42
0.00000001
 43
0.00000001
 40
0.0
 40
0.0
 40
0.0
 40
0.0
 40
0.250000000000003
 40
0.250000000000003
 40
0.500000000000006
 40
0.500000000000006
 40
1.0
 40
1.0
 40
1.0
 40
1.0
 10
2.291496451122416
 20
4.125940062681738
 30
0.0
 10
2.292004670001768
 20
4.120628110910934
 30
0.0
 10
2.291886417364004
 20
4.115359055969352
 30
0.0
 10
2.290437834236842
 20
4.104903824557112
 30
0.0
 10
2.289078364403926
 20
4.099682682147585
 30
0.0
 10
2.283330465034573
 20
4.084936836138917
 30
0.0
 10
2.277157601432731
 20
4.075964309456911
 30
0.0
 10
2.26918319664805
 20
4.06881922172866
 30
0.0
  0
SPLINE
  5
135
330
1F
100
AcDbEntity
  8
0
  6
Continuous
 62
     7
370
    15
100
AcDbSpline
210
0.0
220
0.0
230
1.0
 70
     8
 71
     3
 72
     8
 73
     4
 74
     0
 42
0.00000001
 43
0.00000001
 40
0.0
 40
0.0
 40
0.0
 40
0.0
 40
1.0
 40
1.0
 40
1.0
 40
1.0
 10
4.387936777898331
 20
4.239564749964051
 30
0.0
 10
4.372148514786051
 20
4.225973544762438
 30
0.0
 10
4.354465183862754
 20
4.215584997521019
 30
0.0
 10
4.334878276326624
 20
4.208410896209753
 30
0.0
  0
SPLINE
  5
136
330
1F
100
AcDbEntity
  8
0
  6
Continuous
 62
     7
370
    15
100
AcDbSpline
210
0.0
220
0.0
230
1.0
 70
     8
 71
     3
 72
    10
 73
     6
 74
     0
 42
0.00000001
 43
0.00000001
 40
0.0
 40
0.0
 40
0.0
 40
0.0
 40
0.5
 40
0.5
 40
1.0
 40
1.0
 40
1.0
 40
1.0
 10
4.444796161073725
 20
4.26409715850977
 30
0.0
 10
4.434274595996564
 20
4.263000017525353
 30
0.0
 10
4.424192815546593
 20
4.260357226094875
 30
0.0
 10
4.404891876154529
 20
4.252042015061855
 30
0.0
 10
4.395935686574963
 20
4.246450549145787
 30
0.0
 10
4.387936777898158
 20
4.23956474996425
 30
0.0
  0
ARC
  5
137
330
1F
100
AcDbEntity
  8
0
  6
Continuous
 62
     7
370
    15
100
AcDbCircle
 10
3.3665890183
 20
2.8440414
 30
0.0
 40
1.783000000000017
100
AcDbArc
 50
51.8595110845
 51
52.7916517062
  0
SPLINE
  5
138
330
1F
100
AcDbEntity
  8
0
  6
Continuous
 62
     7
370
    15
100
AcDbSpline
210
0.0
220
0.0
230
1.0
 70
     8
 71
     3
 72
    10
 73
     6
 74
     0
 42
0.00000001
 43
0.00000001
 40
0.0
 40
0.0
 40
0.0
 40
0.0
 40
0.5
 40
0.5
 40
1.0
 40
1.0
 40
1.0
 40
1.0
 10
4.467755234033446
 20
4.246368738866608
 30
0.0
 10
4.469355023060712
 20
4.235911792606776
 30
0.0
 10
4.469348184266783
 20
4.225489384208616
 30
0.0
 10
4.466185205038589
 20
4.20471284555699
 30
0.0
 10
4.463040872245885
 20
4.194633609764341
 30
0.0
 10
4.458402164823635
 20
4.185153147547801
 30
0.0
  0
SPLINE
  5
139
330
1F
100
AcDbEntity
  8
0
  6
Continuous
 62
     7
370
    15
100
AcDbSpline
210
0.0
220
0.0
230
1.0
 70
     8
 71
     3
 72
     8
 73
     4
 74
     0
 42
0.00000001
 43
0.00000001
 40
0.0
 40
0.0
 40
0.0
 40
0.0
 40
1.0
 40
1.0
 40
1.0
 40
1.0
 10
4.441681585483213
 20
4.125940062681718
 30
0.0
 10
4.44366822876916
 20
4.146704646109135
 30
0.0
 10
4.449246274158974
 20
4.166440590879129
 30
0.0
 10
4.458402164823887
 20
4.185153147547678
 30
0.0
  0
SPLINE
  5
13A
330
1F
100
AcDbEntity
  8
0
  6
Continuous
 62
     7
370
    15
100
AcDbSpline
210
0.0
220
0.0
230
1.0
 70
     8
 71
     3
 72
    12
 73
     8
 74
     0
 42
0.00000001
 43
0.00000001
 40
0.0
 40
0.0
 40
0.0
 40
0.0
 40
0.2500000000000006
 40
0.2500000000000006
 40
0.5000000000000012
 40
0.5000000000000012
 40
1.0
 40
1.0
 40
1.0
 40
1.0
 10
4.463994711070155
 20
4.06881933721225
 30
0.0
 10
4.460007617880299
 20
4.072391801523774
 30
0.0
 10
4.456516154639158
 20
4.076357327567448
 30
0.0
 10
4.450488219071529
 20
4.085045748966942
 30
0.0
 10
4.447950752227012
 20
4.089812385975785
 30
0.0
 10
4.44219313720678
 20
4.104555107816442
 30
0.0
 10
4.440665162375858
 20
4.115316312279496
 30
0.0
 10
4.441681585483014
 20
4.125940062681738
 30
0.0
  0
SPLINE
  5
13B
330
1F
100
AcDbEntity
  8
0
  6
Continuous
 62
     7
370
    15
100
AcDbSpline
210
0.0
220
0.0
230
1.0
 70
     8
 71
     3
 72
    12
 73
     8
 74
     0
 42
0.00000001
 43
0.00000001
 40
0.0
 40
0.0
 40
0.0
 40
0.0
 40
0.2500000000000004
 40
0.2500000000000004
 40
0.5000000000000008
 40
0.5000000000000008
 40
1.0
 40
1.0
 40
1.0
 40
1.0
 10
4.334878276326642
 20
4.208410896209705
 30
0.0
 10
4.329867594026387
 20
4.206575632404316
 30
0.0
 10
4.32473995809941
 20
4.20535731988154
 30
0.0
 10
4.314258294765215
 20
4.204114323650377
 30
0.0
 10
4.3088630681392
 20
4.204108987750943
 30
0.0
 10
4.293142863740074
 20
4.205940271946025
 30
0.0
 10
4.282900765425765
 20
4.209642967735288
 30
0.0
 10
4.27397101582929
 20
4.215550846034914
 30
0.0
  0
SPLINE
  5
13C
330
1F
100
AcDbEntity
  8
0
  6
Continuous
 62
     7
370
    15
100
AcDbSpline
210
0.0
220
0.0
230
1.0
 70
     8
 71
     3
 72
     8
 73
     4
 74
     0
 42
0.00000001
 43
0.00000001
 40
0.0
 40
0.0
 40
0.0
 40
0.0
 40
1.0
 40
1.0
 40
1.0
 40
1.0
 10
2.48167835912146
 20
4.329830682365905
 30
0.0
 10
2.488012108727291
 20
4.309984430153855
 30
0.0
 10
2.490657134335658
 20
4.289646634160622
 30
0.0
 10
2.489599259100824
 20
4.268814073673743
 30
0.0
  0
SPLINE
  5
13D
330
1F
100
AcDbEntity
  8
0
  6
Continuous
 62
     7
370
    15
100
AcDbSpline
210
0.0
220
0.0
230
1.0
 70
     8
 71
     3
 72
    10
 73
     6
 74
     0
 42
0.00000001
 43
0.00000001
 40
0.0
 40
0.0
 40
0.0
 40
0.0
 40
0.5
 40
0.5
 40
1.0
 40
1.0
 40
1.0
 40
1.0
 10
2.481338023707011
 20
4.391755739458778
 30
0.0
 10
2.478232739456144
 20
4.381643160176798
 30
0.0
 10
2.476721990538133
 20
4.371330823812328
 30
0.0
 10
2.476826174771648
 20
4.350315159616618
 30
0.0
 10
2.478469451065812
 20
4.339885516003467
 30
0.0
 10
2.481678359121027
 20
4.329830682365765
 30
0.0
  0
ARC
  5
13E
330
1F
100
AcDbEntity
  8
0
  6
Continuous
 62
     7
370
    15
100
AcDbCircle
 10
3.3665890183
 20
2.8440414
 30
0.0
 40
1.782999999999959
100
AcDbArc
 50
118.8362552705
 51
119.7683958923
  0
SPLINE
  5
13F
330
1F
100
AcDbEntity
  8
0
  6
Continuous
 62
     7
370
    15
100
AcDbSpline
210
0.0
220
0.0
230
1.0
 70
     8
 71
     3
 72
    10
 73
     6
 74
     0
 42
0.00000001
 43
0.00000001
 40
0.0
 40
0.0
 40
0.0
 40
0.0
 40
0.5
 40
0.5
 40
1.0
 40
1.0
 40
1.0
 40
1.0
 10
2.559315215204698
 20
4.373402597741577
 30
0.0
 10
2.552404198581158
 20
4.381379586881609
 30
0.0
 10
2.544474825056056
 20
4.388125471102013
 30
0.0
 10
2.526606714311526
 20
4.399187333213721
 30
0.0
 10
2.516883261496075
 20
4.403335001225483
 30
0.0
 10
2.506633708878333
 20
4.405952366025585
 30
0.0
  0
SPLINE
  5
140
330
1F
100
AcDbEntity
  8
0
  6
Continuous
 62
     7
370
    15
100
AcDbSpline
210
0.0
220
0.0
230
1.0
 70
     8
 71
     3
 72
     8
 73
     4
 74
     0
 42
0.00000001
 43
0.00000001
 40
0.0
 40
0.0
 40
0.0
 40
0.0
 40
1.0
 40
1.0
 40
1.0
 40
1.0
 10
2.60727225436872
 20
4.334855359352963
 30
0.0
 10
2.588938634825144
 20
4.344804885516715
 30
0.0
 10
2.572956333260166
 20
4.357657439465765
 30
0.0
 10
2.559315215204887
 20
4.373402597741739
 30
0.0
  0
SPLINE
  5
141
330
1F
100
AcDbEntity
  8
0
  6
Continuous
 62
     7
370
    15
100
AcDbSpline
210
0.0
220
0.0
230
1.0
 70
     8
 71
     3
 72
    12
 73
     8
 74
     0
 42
0.00000001
 43
0.00000001
 40
0.0
 40
0.0
 40
0.0
 40
0.0
 40
0.25
 40
0.25
 40
0.5
 40
0.5
 40
1.0
 40
1.0
 40
1.0
 40
1.0
 10
2.66856986454186
 20
4.33305097383845
 30
0.0
 10
2.663722589691721
 20
4.330778675524674
 30
0.0
 10
2.658707405193187
 20
4.329116256636773
 30
0.0
 10
2.648353495702927
 20
4.326966551808266
 30
0.0
 10
2.642974124285637
 20
4.326495458133336
 30
0.0
 10
2.627153886163233
 20
4.326962407259243
 30
0.0
 10
2.616652254588443
 20
4.32976489931695
 30
0.0
 10
2.607272254368719
 20
4.334855359352962
 30
0.0
  0
SPLINE
  5
142
330
1F
100
AcDbEntity
  8
0
  6
Continuous
 62
     7
370
    15
100
AcDbSpline
210
0.0
220
0.0
230
1.0
 70
     8
 71
     3
 72
    12
 73
     8
 74
     0
 42
0.00000001
 43
0.00000001
 40
0.0
 40
0.0
 40
0.0
 40
0.0
 40
0.25
 40
0.25
 40
0.5
 40
0.5
 40
1.0
 40
1.0
 40
1.0
 40
1.0
 10
2.489599259100406
 20
4.268814073673763
 30
0.0
 10
2.489328635342409
 20
4.263484725161941
 30
0.0
 10
2.488444460383398
 20
4.258289031674117
 30
0.0
 10
2.485489013333933
 20
4.248156120600234
 30
0.0
 10
2.483383821386398
 20
4.243188552859609
 30
0.0
 10
2.475550144353788
 20
4.229436735796133
 30
0.0
 10
2.468136634662006
 20
4.221458598080461
 30
0.0
 10
2.459206859679419
 20
4.215550739454446
 30
0.0
  0
SPLINE
  5
143
330
1F
100
AcDbEntity
  8
0
  6
Continuous
 62
     7
370
    15
100
AcDbSpline
210
0.0
220
0.0
230
1.0
 70
     8
 71
     3
 72
     8
 73
     4
 74
     0
 42
0.00000001
 43
0.00000001
 40
0.0
 40
0.0
 40
0.0
 40
0.0
 40
1.0
 40
1.0
 40
1.0
 40
1.0
 10
4.865446627778658
 20
1.981450806007793
 30
0.0
 10
4.850210175138806
 20
1.995657868402546
 30
0.0
 10
4.837949901778308
 20
2.012098908620703
 30
0.0
 10
4.828676594332843
 20
2.030783673684116
 30
0.0
  0
SPLINE
  5
144
330
1F
100
AcDbEntity
  8
0
  6
Continuous
 62
     7
370
    15
100
AcDbSpline
210
0.0
220
0.0
230
1.0
 70
     8
 71
     3
 72
    10
 73
     6
 74
     0
 42
0.00000001
 43
0.00000001
 40
0.0
 40
0.0
 40
0.0
 40
0.0
 40
0.5
 40
0.5
 40
1.0
 40
1.0
 40
1.0
 40
1.0
 10
4.896050645243518
 20
1.927615662846489
 30
0.0
 10
4.893809329748595
 20
1.937954113159054
 30
0.0
 10
4.890079735978893
 20
1.947686367466536
 30
0.0
 10
4.879703441038668
 20
1.965962075366801
 30
0.0
 10
4.873165969188318
 20
1.974252991159527
 30
0.0
 10
4.86544662777889
 20
1.981450806008044
 30
0.0
  0
ARC
  5
145
330
1F
100
AcDbEntity
  8
0
  6
Continuous
 62
     7
370
    15
100
AcDbCircle
 10
3.3665890183
 20
2.8440414
 30
0.0
 40
1.78300000000017
100
AcDbArc
 50
328.1385808519
 51
329.0707214737
  0
SPLINE
  5
146
330
1F
100
AcDbEntity
  8
0
  6
Continuous
 62
     7
370
    15
100
AcDbSpline
210
0.0
220
0.0
230
1.0
 70
     8
 71
     3
 72
    10
 73
     6
 74
     0
 42
0.00000001
 43
0.00000001
 40
0.0
 40
0.0
 40
0.0
 40
0.0
 40
0.5
 40
0.5
 40
1.0
 40
1.0
 40
1.0
 40
1.0
 10
4.819068326428682
 20
1.905457079977051
 30
0.0
 10
4.828999155241902
 20
1.901883126200776
 30
0.0
 10
4.839215516868203
 20
1.899881158784112
 30
0.0
 10
4.860211265015251
 20
1.898979640781701
 30
0.0
 10
4.870720539040134
 20
1.900121500697173
 30
0.0
 10
4.880939640381625
 20
1.90285534325563
 30
0.0
  0
SPLINE
  5
147
330
1F
100
AcDbEntity
  8
0
  6
Continuous
 62
     7
370
    15
100
AcDbSpline
210
0.0
220
0.0
230
1.0
 70
     8
 71
     3
 72
     8
 73
     4
 74
     0
 42
0.00000001
 43
0.00000001
 40
0.0
 40
0.0
 40
0.0
 40
0.0
 40
1.0
 40
1.0
 40
1.0
 40
1.0
 10
4.758381712358718
 20
1.915601145504858
 30
0.0
 10
4.779239010112474
 20
1.915897467721956
 30
0.0
 10
4.799466636025492
 20
1.912511429292502
 30
0.0
 10
4.819068326428726
 20
1.905457079977173
 30
0.0
  0
SPLINE
  5
148
330
1F
100
AcDbEntity
  8
0
  6
Continuous
 62
     7
370
    15
100
AcDbSpline
210
0.0
220
0.0
230
1.0
 70
     8
 71
     3
 72
    12
 73
     8
 74
     0
 42
0.00000001
 43
0.00000001
 40
0.0
 40
0.0
 40
0.0
 40
0.0
 40
0.25
 40
0.25
 40
0.5
 40
0.5
 40
1.0
 40
1.0
 40
1.0
 40
1.0
 10
4.704044064751852
 20
1.88717450814436
 30
0.0
 10
4.707159024453182
 20
1.891528408248654
 30
0.0
 10
4.710718895697766
 20
1.895432641282358
 30
0.0
 10
4.718695912829758
 20
1.90237467973524
 30
0.0
 10
4.723156429164512
 20
1.905418257756025
 30
0.0
 10
4.737180992957716
 20
1.912753763604449
 30
0.0
 10
4.747710525428001
 20
1.915449538627887
 30
0.0
 10
4.75838171235872
 20
1.915601145504722
 30
0.0
  0
SPLINE
  5
149
330
1F
100
AcDbEntity
  8
0
  6
Continuous
 62
     7
370
    15
100
AcDbSpline
210
0.0
220
0.0
230
1.0
 70
     8
 71
     3
 72
    12
 73
     8
 74
     0
 42
0.00000001
 43
0.00000001
 40
0.0
 40
0.0
 40
0.0
 40
0.0
 40
0.2500000000000001
 40
0.2500000000000001
 40
0.5000000000000001
 40
0.5000000000000001
 40
1.0
 40
1.0
 40
1.0
 40
1.0
 10
4.828676594332566
 20
2.030783673683977
 30
0.0
 10
4.826304316675582
 20
2.035563570279274
 30
0.0
 10
4.82453249746943
 20
2.04052719548883
 30
0.0
 10
4.822150565826883
 20
2.050810027663549
 30
0.0
 10
4.821555179080423
 20
2.056172302881294
 30
0.0
 10
4.821656137297046
 20
2.071998486351601
 30
0.0
 10
4.824216426697295
 20
2.082584107499178
 30
0.0
 10
4.829112201966988
 20
2.092106437889564
 30
0.0
  0
SPLINE
  5
14A
330
1F
100
AcDbEntity
  8
0
  6
Continuous
 62
     7
370
    15
100
AcDbSpline
210
0.0
220
0.0
230
1.0
 70
     8
 71
     3
 72
     8
 73
     4
 74
     0
 42
0.00000001
 43
0.00000001
 40
0.0
 40
0.0
 40
0.0
 40
0.0
 40
1.0
 40
1.0
 40
1.0
 40
1.0
 10
1.914109710176704
 20
1.905457079977173
 30
0.0
 10
1.933711400579939
 20
1.912511429292502
 30
0.0
 10
1.953939026492957
 20
1.915897467721956
 30
0.0
 10
1.974796324246713
 20
1.915601145504858
 30
0.0
  0
SPLINE
  5
14B
330
1F
100
AcDbEntity
  8
0
  6
Continuous
 62
     7
370
    15
100
AcDbSpline
210
0.0
220
0.0
230
1.0
 70
     8
 71
     3
 72
    10
 73
     6
 74
     0
 42
0.00000001
 43
0.00000001
 40
0.0
 40
0.0
 40
0.0
 40
0.0
 40
0.5
 40
0.5
 40
1.0
 40
1.0
 40
1.0
 40
1.0
 10
1.852238396223806
 20
1.90285534325563
 30
0.0
 10
1.86245764014512
 20
1.900121462553821
 30
0.0
 10
1.872818272224486
 20
1.898988348920822
 30
0.0
 10
1.8938161107668
 20
1.899859998219897
 30
0.0
 10
1.904178780451581
 20
1.901883089884105
 30
0.0
 10
1.914109710176748
 20
1.905457079977051
 30
0.0
  0
ARC
  5
14C
330
1F
100
AcDbEntity
  8
0
  6
Continuous
 62
     7
370
    15
100
AcDbCircle
 10
3.3665890183
 20
2.8440414
 30
0.0
 40
1.78300000000017
100
AcDbArc
 50
210.9292785263
 51
211.8614191481
  0
SPLINE
  5
14D
330
1F
100
AcDbEntity
  8
0
  6
Continuous
 62
     7
370
    15
100
AcDbSpline
210
0.0
220
0.0
230
1.0
 70
     8
 71
     3
 72
    10
 73
     6
 74
     0
 42
0.00000001
 43
0.00000001
 40
0.0
 40
0.0
 40
0.0
 40
0.0
 40
0.5
 40
0.5
 40
1.0
 40
1.0
 40
1.0
 40
1.0
 10
1.86773140882654
 20
1.981450806008043
 30
0.0
 10
1.860012145856271
 20
1.974253064299256
 30
0.0
 10
1.853560358926203
 20
1.966082607529629
 30
0.0
 10
1.843158456306361
 20
1.947822415941296
 30
0.0
 10
1.839368675585797
 20
1.937953968916052
 30
0.0
 10
1.837127391361913
 20
1.927615662846488
 30
0.0
  0
SPLINE
  5
14E
330
1F
100
AcDbEntity
  8
0
  6
Continuous
 62
     7
370
    15
100
AcDbSpline
210
0.0
220
0.0
230
1.0
 70
     8
 71
     3
 72
     8
 73
     4
 74
     0
 42
0.00000001
 43
0.00000001
 40
0.0
 40
0.0
 40
0.0
 40
0.0
 40
1.0
 40
1.0
 40
1.0
 40
1.0
 10
1.904501442272587
 20
2.030783673684116
 30
0.0
 10
1.89522813482713
 20
2.01209890862072
 30
0.0
 10
1.882967861466609
 20
1.995657868402531
 30
0.0
 10
1.867731408826772
 20
1.981450806007792
 30
0.0
  0
SPLINE
  5
14F
330
1F
100
AcDbEntity
  8
0
  6
Continuous
 62
     7
370
    15
100
AcDbSpline
210
0.0
220
0.0
230
1.0
 70
     8
 71
     3
 72
    12
 73
     8
 74
     0
 42
0.00000001
 43
0.00000001
 40
0.0
 40
0.0
 40
0.0
 40
0.0
 40
0.25
 40
0.25
 40
0.5
 40
0.5
 40
1.0
 40
1.0
 40
1.0
 40
1.0
 10
1.974796324246711
 20
1.915601145504722
 30
0.0
 10
1.980132001578713
 20
1.915525340874801
 30
0.0
 10
1.985356521162264
 20
1.914831512891907
 30
0.0
 10
1.995590612012116
 20
1.912248111444365
 30
0.0
 10
2.000631751970049
 20
1.910325749203391
 30
0.0
 10
2.0146604973424
 20
1.902999541116406
 30
0.0
 10
2.022904069192579
 20
1.895882353647996
 30
0.0
 10
2.029134119561473
 20
1.887174301686486
 30
0.0
  0
SPLINE
  5
150
330
1F
100
AcDbEntity
  8
0
  6
Continuous
 62
     7
370
    15
100
AcDbSpline
210
0.0
220
0.0
230
1.0
 70
     8
 71
     3
 72
    12
 73
     8
 74
     0
 42
0.00000001
 43
0.00000001
 40
0.0
 40
0.0
 40
0.0
 40
0.0
 40
0.2500000000000017
 40
0.2500000000000017
 40
0.5000000000000033
 40
0.5000000000000033
 40
1.0
 40
1.0
 40
1.0
 40
1.0
 10
1.904065914867795
 20
2.092106281842199
 30
0.0
 10
1.906513728638667
 20
2.087345230102152
 30
0.0
 10
1.908358202392277
 20
2.082394106822145
 30
0.0
 10
1.910884617548703
 20
2.072125617616047
 30
0.0
 10
1.911551861991527
 20
2.066767040968343
 30
0.0
 10
1.911663010564749
 20
2.050940305360483
 30
0.0
 10
1.909245929022351
 20
2.040343328724163
 30
0.0
 10
1.904501442272864
 20
2.030783673683977
 30
0.0
  0
SPLINE
  5
151
330
1F
100
AcDbEntity
  8
0
  6
Continuous
 62
     7
370
    15
100
AcDbSpline
210
0.0
220
0.0
230
1.0
 70
     8
 71
     3
 72
     8
 73
     4
 74
     0
 42
0.00000001
 43
0.00000001
 40
0.0
 40
0.0
 40
0.0
 40
0.0
 40
1.0
 40
1.0
 40
1.0
 40
1.0
 10
3.662340001370945
 20
1.140172853913753
 30
0.0
 10
3.66351387154733
 20
1.160972184185155
 30
0.0
 10
3.668308663980296
 20
1.180912898110443
 30
0.0
 10
3.676738770610137
 20
1.199992939479833
 30
0.0
  0
SPLINE
  5
152
330
1F
100
AcDbEntity
  8
0
  6
Continuous
 62
     7
370
    15
100
AcDbSpline
210
0.0
220
0.0
230
1.0
 70
     8
 71
     3
 72
    10
 73
     6
 74
     0
 42
0.00000001
 43
0.00000001
 40
0.0
 40
0.0
 40
0.0
 40
0.0
 40
0.5
 40
0.5
 40
1.0
 40
1.0
 40
1.0
 40
1.0
 10
3.640536336883441
 20
1.082212274731908
 30
0.0
 10
3.647049248091066
 20
1.090548283226078
 30
0.0
 10
3.652144197012198
 20
1.099640485328941
 30
0.0
 10
3.659554331680275
 20
1.1193066720499
 30
0.0
 10
3.661745276018683
 20
1.129635156245649
 30
0.0
 10
3.662340001370896
 20
1.140172853913756
 30
0.0
  0
ARC
  5
153
330
1F
100
AcDbEntity
  8
0
  6
Continuous
 62
     7
370
    15
100
AcDbCircle
 10
3.3665890183
 20
2.8440414
 30
0.0
 40
1.782999999999954
100
AcDbArc
 50
277.9060227124
 51
278.8381633341
  0
SPLINE
  5
154
330
1F
100
AcDbEntity
  8
0
  6
Continuous
 62
     7
370
    15
100
AcDbSpline
210
0.0
220
0.0
230
1.0
 70
     8
 71
     3
 72
    10
 73
     6
 74
     0
 42
0.00000001
 43
0.00000001
 40
0.0
 40
0.0
 40
0.0
 40
0.0
 40
0.5
 40
0.5
 40
1.0
 40
1.0
 40
1.0
 40
1.0
 10
3.574260693057128
 20
1.127210266244719
 30
0.0
 10
3.577866066982768
 20
1.117290801270836
 30
0.0
 10
3.582862391364786
 20
1.108157419581361
 30
0.0
 10
3.595599855787746
 20
1.091442421076003
 30
0.0
 10
3.603200042215527
 20
1.084094914638008
 30
0.0
 10
3.611838285911342
 20
1.077988796950546
 30
0.0
  0
SPLINE
  5
155
330
1F
100
AcDbEntity
  8
0
  6
Continuous
 62
     7
370
    15
100
AcDbSpline
210
0.0
220
0.0
230
1.0
 70
     8
 71
     3
 72
     8
 73
     4
 74
     0
 42
0.00000001
 43
0.00000001
 40
0.0
 40
0.0
 40
0.0
 40
0.0
 40
1.0
 40
1.0
 40
1.0
 40
1.0
 10
3.543238310220078
 20
1.180345743619717
 30
0.0
 10
3.556807928120555
 20
1.164503390685707
 30
0.0
 10
3.56714432595344
 20
1.146789526449791
 30
0.0
 10
3.574260693057197
 20
1.127210266244744
 30
0.0
  0
SPLINE
  5
156
330
1F
100
AcDbEntity
  8
0
  6
Continuous
 62
     7
370
    15
100
AcDbSpline
210
0.0
220
0.0
230
1.0
 70
     8
 71
     3
 72
    12
 73
     8
 74
     0
 42
0.00000001
 43
0.00000001
 40
0.0
 40
0.0
 40
0.0
 40
0.0
 40
0.2500000000000002
 40
0.2500000000000002
 40
0.5000000000000003
 40
0.5000000000000003
 40
1.0
 40
1.0
 40
1.0
 40
1.0
 10
3.486629942055955
 20
1.203928468941217
 30
0.0
 10
3.491969109608913
 20
1.204319235444296
 30
0.0
 10
3.497247239671542
 20
1.204080382327638
 30
0.0
 10
3.507685897970518
 20
1.202389504533888
 30
0.0
 10
3.512878606271351
 20
1.200907835859143
 30
0.0
 10
3.527488153525339
 20
1.194820220053526
 30
0.0
 10
3.536295709025534
 20
1.188451140485209
 30
0.0
 10
3.543238310219846
 20
1.180345743619519
 30
0.0
  0
SPLINE
  5
157
330
1F
100
AcDbEntity
  8
0
  6
Continuous
 62
     7
370
    15
100
AcDbSpline
210
0.0
220
0.0
230
1.0
 70
     8
 71
     3
 72
    12
 73
     8
 74
     0
 42
0.00000001
 43
0.00000001
 40
0.0
 40
0.0
 40
0.0
 40
0.0
 40
0.2500000000000027
 40
0.2500000000000027
 40
0.5000000000000053
 40
0.5000000000000053
 40
1.0
 40
1.0
 40
1.0
 40
1.0
 10
3.676738770610348
 20
1.199992939479741
 30
0.0
 10
3.678895343965815
 20
1.204873958266876
 30
0.0
 10
3.681577237600078
 20
1.20941096214077
 30
0.0
 10
3.687957455701595
 20
1.21781948240687
 30
0.0
 10
3.691698303978807
 20
1.221707229323765
 30
0.0
 10
3.703927646705334
 20
1.231753213644341
 30
0.0
 10
3.713702011863909
 20
1.236556589445293
 30
0.0
 10
3.72415302724544
 20
1.238884638337362
 30
0.0
  0
SPLINE
  5
158
330
1F
100
AcDbEntity
  8
0
  6
Continuous
 62
     7
370
    15
100
AcDbSpline
210
0.0
220
0.0
230
1.0
 70
     8
 71
     3
 72
     8
 73
     4
 74
     0
 42
0.00000001
 43
0.00000001
 40
0.0
 40
0.0
 40
0.0
 40
0.0
 40
1.0
 40
1.0
 40
1.0
 40
1.0
 10
3.411103042025954
 20
1.11526866536474
 30
0.0
 10
3.415292809475615
 20
1.13567542796061
 30
0.0
 10
3.422939896803477
 20
1.154705513659896
 30
0.0
 10
3.434058243193681
 20
1.172354792681775
 30
0.0
  0
SPLINE
  5
159
330
1F
100
AcDbEntity
  8
0
  6
Continuous
 62
     7
370
    15
100
AcDbSpline
210
0.0
220
0.0
230
1.0
 70
     8
 71
     3
 72
    10
 73
     6
 74
     0
 42
0.00000001
 43
0.00000001
 40
0.0
 40
0.0
 40
0.0
 40
0.0
 40
0.5
 40
0.5
 40
1.0
 40
1.0
 40
1.0
 40
1.0
 10
3.381092603154124
 20
1.061100389750888
 30
0.0
 10
3.388749841235316
 20
1.068399276993721
 30
0.0
 10
3.395114330404647
 20
1.076652756333074
 30
0.0
 10
3.405308917746525
 20
1.095030443480295
 30
0.0
 10
3.408980353357348
 20
1.104929856767639
 30
0.0
 10
3.411103042026031
 20
1.115268665364724
 30
0.0
  0
ARC
  5
15A
330
1F
100
AcDbEntity
  8
0
  6
Continuous
 62
     7
370
    15
100
AcDbCircle
 10
3.3665890183
 20
2.8440414
 30
0.0
 40
1.783000000000132
100
AcDbArc
 50
269.5339296891
 51
270.4660703109
  0
SPLINE
  5
15B
330
1F
100
AcDbEntity
  8
0
  6
Continuous
 62
     7
370
    15
100
AcDbSpline
210
0.0
220
0.0
230
1.0
 70
     8
 71
     3
 72
    10
 73
     6
 74
     0
 42
0.00000001
 43
0.00000001
 40
0.0
 40
0.0
 40
0.0
 40
0.0
 40
0.5
 40
0.5
 40
1.0
 40
1.0
 40
1.0
 40
1.0
 10
3.322074994579399
 20
1.115268665364724
 30
0.0
 10
3.324197661678637
 20
1.104929961824199
 30
0.0
 10
3.327810911031377
 20
1.095166440557148
 30
0.0
 10
3.337978913683287
 20
1.076774977944396
 30
0.0
 10
3.344428302204598
 20
1.068399175158981
 30
0.0
 10
3.352085433451306
 20
1.061100389750888
 30
0.0
  0
SPLINE
  5
15C
330
1F
100
AcDbEntity
  8
0
  6
Continuous
 62
     7
370
    15
100
AcDbSpline
210
0.0
220
0.0
230
1.0
 70
     8
 71
     3
 72
     8
 73
     4
 74
     0
 42
0.00000001
 43
0.00000001
 40
0.0
 40
0.0
 40
0.0
 40
0.0
 40
1.0
 40
1.0
 40
1.0
 40
1.0
 10
3.29911979341175
 20
1.172354792681774
 30
0.0
 10
3.310238139801954
 20
1.154705513659895
 30
0.0
 10
3.317885227129816
 20
1.135675427960611
 30
0.0
 10
3.322074994579476
 20
1.11526866536474
 30
0.0
  0
SPLINE
  5
15D
330
1F
100
AcDbEntity
  8
0
  6
Continuous
 62
     7
370
    15
100
AcDbSpline
210
0.0
220
0.0
230
1.0
 70
     8
 71
     3
 72
    12
 73
     8
 74
     0
 42
0.00000001
 43
0.00000001
 40
0.0
 40
0.0
 40
0.0
 40
0.0
 40
0.2500000000000017
 40
0.2500000000000017
 40
0.5000000000000033
 40
0.5000000000000033
 40
1.0
 40
1.0
 40
1.0
 40
1.0
 10
3.246548309849486
 20
1.203928453183355
 30
0.0
 10
3.251887479748114
 20
1.203537669467829
 30
0.0
 10
3.257074589444147
 20
1.202532861978079
 30
0.0
 10
3.267155821400697
 20
1.19934012493175
 30
0.0
 10
3.272077464377652
 20
1.197118181876091
 30
0.0
 10
3.28564497059686
 20
1.18896827122883
 30
0.0
 10
3.29343132839104
 20
1.181384670221994
 30
0.0
 10
3.299119793411634
 20
1.172354792681702
 30
0.0
  0
SPLINE
  5
15E
330
1F
100
AcDbEntity
  8
0
  6
Continuous
 62
     7
370
    15
100
AcDbSpline
210
0.0
220
0.0
230
1.0
 70
     8
 71
     3
 72
    12
 73
     8
 74
     0
 42
0.00000001
 43
0.00000001
 40
0.0
 40
0.0
 40
0.0
 40
0.0
 40
0.2500000000000021
 40
0.2500000000000021
 40
0.5000000000000038
 40
0.5000000000000038
 40
1.0
 40
1.0
 40
1.0
 40
1.0
 10
3.434058243193796
 20
1.172354792681702
 30
0.0
 10
3.436902515735085
 20
1.176869794997101
 30
0.0
 10
3.440216421098116
 20
1.18096796149452
 30
0.0
 10
3.447752934501137
 20
1.188357905943193
 30
0.0
 10
3.452019976444162
 20
1.191659550042127
 30
0.0
 10
3.465581696342634
 20
1.199817870796945
 30
0.0
 10
3.475951271960656
 20
1.203146901223502
 30
0.0
 10
3.486629877659321
 20
1.203928464228083
 30
0.0
  0
SPLINE
  5
15F
330
1F
100
AcDbEntity
  8
0
  6
Continuous
 62
     7
370
    15
100
AcDbSpline
210
0.0
220
0.0
230
1.0
 70
     8
 71
     3
 72
     8
 73
     4
 74
     0
 42
0.00000001
 43
0.00000001
 40
0.0
 40
0.0
 40
0.0
 40
0.0
 40
1.0
 40
1.0
 40
1.0
 40
1.0
 10
1.71603703749562
 20
3.360098397801604
 30
0.0
 10
1.73399801544777
 20
3.349544091479902
 30
0.0
 10
1.749539750788485
 20
3.33616214211053
 30
0.0
 10
1.762653834239528
 20
3.319940690520513
 30
0.0
  0
SPLINE
  5
160
330
1F
100
AcDbEntity
  8
0
  6
Continuous
 62
     7
370
    15
100
AcDbSpline
210
0.0
220
0.0
230
1.0
 70
     8
 71
     3
 72
    10
 73
     6
 74
     0
 42
0.00000001
 43
0.00000001
 40
0.0
 40
0.0
 40
0.0
 40
0.0
 40
0.5
 40
0.5
 40
1.0
 40
1.0
 40
1.0
 40
1.0
 10
1.674459809662408
 20
3.405991345515911
 30
0.0
 10
1.678895394717665
 20
3.39638756317607
 30
0.0
 10
1.684651846992144
 20
3.387699070740547
 30
0.0
 10
1.69875358855928
 20
3.372116712744494
 30
0.0
 10
1.706937352409099
 20
3.365445593488627
 30
0.0
 10
1.716037037495765
 20
3.360098397801853
 30
0.0
  0
ARC
  5
161
330
1F
100
AcDbEntity
  8
0
  6
Continuous
 62
     7
370
    15
100
AcDbCircle
 10
3.3665890183
 20
2.8440414
 30
0.0
 40
1.783000000000174
100
AcDbArc
 50
160.6967203868
 51
161.6288610085
  0
SPLINE
  5
162
330
1F
100
AcDbEntity
  8
0
  6
Continuous
 62
     7
370
    15
100
AcDbSpline
210
0.0
220
0.0
230
1.0
 70
     8
 71
     3
 72
    10
 73
     6
 74
     0
 42
0.00000001
 43
0.00000001
 40
0.0
 40
0.0
 40
0.0
 40
0.0
 40
0.5
 40
0.5
 40
1.0
 40
1.0
 40
1.0
 40
1.0
 10
1.744782449490718
 20
3.44435808283159
 30
0.0
 10
1.734312121645004
 20
3.44568727104761
 30
0.0
 10
1.723904889378369
 20
3.445419997848512
 30
0.0
 10
1.70321542886342
 20
3.441734838617939
 30
0.0
 10
1.69320585479894
 20
3.438335263402488
 30
0.0
 10
1.683825656356759
 20
3.433444884629298
 30
0.0
  0
SPLINE
  5
163
330
1F
100
AcDbEntity
  8
0
  6
Continuous
 62
     7
370
    15
100
AcDbSpline
210
0.0
220
0.0
230
1.0
 70
     8
 71
     3
 72
     8
 73
     4
 74
     0
 42
0.00000001
 43
0.00000001
 40
0.0
 40
0.0
 40
0.0
 40
0.0
 40
1.0
 40
1.0
 40
1.0
 40
1.0
 10
1.806222815524681
 20
3.447651806322675
 30
0.0
 10
1.78592893970765
 20
3.44282756744163
 30
0.0
 10
1.765449015063205
 20
3.441734501619147
 30
0.0
 10
1.744782449490725
 20
3.444358082831647
 30
0.0
  0
SPLINE
  5
164
330
1F
100
AcDbEntity
  8
0
  6
Continuous
 62
     7
370
    15
100
AcDbSpline
210
0.0
220
0.0
230
1.0
 70
     8
 71
     3
 72
    12
 73
     8
 74
     0
 42
0.00000001
 43
0.00000001
 40
0.0
 40
0.0
 40
0.0
 40
0.0
 40
0.2500000000000001
 40
0.2500000000000001
 40
0.5000000000000002
 40
0.5000000000000002
 40
1.0
 40
1.0
 40
1.0
 40
1.0
 10
1.762653834239571
 20
3.319940690520547
 30
0.0
 10
1.766008650944092
 20
3.315790953562629
 30
0.0
 10
1.768817322799318
 20
3.311331325758561
 30
0.0
 10
1.773378066788699
 20
3.301812405286412
 30
0.0
 10
1.775125129872687
 20
3.296707872922736
 30
0.0
 10
1.778467676898623
 20
3.281238365877249
 30
0.0
 10
1.778270273751987
 20
3.27034931241157
 30
0.0
 10
1.775562067745155
 20
3.259990306237173
 30
0.0
  0
SPLINE
  5
165
330
1F
100
AcDbEntity
  8
0
  6
Continuous
 62
     7
370
    15
100
AcDbSpline
210
0.0
220
0.0
230
1.0
 70
     8
 71
     3
 72
    12
 73
     8
 74
     0
 42
0.00000001
 43
0.00000001
 40
0.0
 40
0.0
 40
0.0
 40
0.0
 40
0.2500000000000019
 40
0.2500000000000019
 40
0.5000000000000039
 40
0.5000000000000039
 40
1.0
 40
1.0
 40
1.0
 40
1.0
 10
1.853079655100184
 20
3.487212961551707
 30
0.0
 10
1.850985885460714
 20
3.482285943663005
 30
0.0
 10
1.848360078268048
 20
3.477701097611571
 30
0.0
 10
1.842083313269053
 20
3.469190706972338
 30
0.0
 10
1.838391277645873
 20
3.465250097615358
 30
0.0
 10
1.826297205014225
 20
3.455040735797235
 30
0.0
 10
1.81660573189133
 20
3.450120022314737
 30
0.0
 10
1.806222815524702
 20
3.447651806322588
 30
0.0
  0
SPLINE
  5
166
330
1F
100
AcDbEntity
  8
0
  6
Continuous
 62
     7
370
    15
100
AcDbSpline
210
0.0
220
0.0
230
1.0
 70
     8
 71
     3
 72
     8
 73
     4
 74
     0
 42
0.00000001
 43
0.00000001
 40
0.0
 40
0.0
 40
0.0
 40
0.0
 40
1.0
 40
1.0
 40
1.0
 40
1.0
 10
4.988395587114705
 20
3.444358082831647
 30
0.0
 10
4.967729021542222
 20
3.441734501619147
 30
0.0
 10
4.947249096897784
 20
3.442827567441629
 30
0.0
 10
4.926955221080749
 20
3.447651806322675
 30
0.0
  0
SPLINE
  5
167
330
1F
100
AcDbEntity
  8
0
  6
Continuous
 62
     7
370
    15
100
AcDbSpline
210
0.0
220
0.0
230
1.0
 70
     8
 71
     3
 72
    10
 73
     6
 74
     0
 42
0.00000001
 43
0.00000001
 40
0.0
 40
0.0
 40
0.0
 40
0.0
 40
0.5
 40
0.5
 40
1.0
 40
1.0
 40
1.0
 40
1.0
 10
5.049352380248671
 20
3.433444884629298
 30
0.0
 10
5.03997205093128
 20
3.438335331634451
 30
0.0
 10
5.030105660978483
 20
3.441694050570249
 30
0.0
 10
5.009420654436544
 20
3.445408818436652
 30
0.0
 10
4.998866021354486
 20
3.445687284554133
 30
0.0
 10
4.988395587114713
 20
3.44435808283159
 30
0.0
  0
ARC
  5
168
330
1F
100
AcDbEntity
  8
0
  6
Continuous
 62
     7
370
    15
100
AcDbCircle
 10
3.3665890183
 20
2.8440414
 30
0.0
 40
1.783000000000174
100
AcDbArc
 50
18.3711389915
 51
19.3032796132
  0
SPLINE
  5
169
330
1F
100
AcDbEntity
  8
0
  6
Continuous
 62
     7
370
    15
100
AcDbSpline
210
0.0
220
0.0
230
1.0
 70
     8
 71
     3
 72
    10
 73
     6
 74
     0
 42
0.00000001
 43
0.00000001
 40
0.0
 40
0.0
 40
0.0
 40
0.0
 40
0.5
 40
0.5
 40
1.0
 40
1.0
 40
1.0
 40
1.0
 10
5.017140999109666
 20
3.360098397801854
 30
0.0
 10
5.026240591731022
 20
3.365445539153769
 30
0.0
 10
5.034314529170604
 20
3.372017711750278
 30
0.0
 10
5.048437892061712
 20
3.387579356766381
 30
0.0
 10
5.05428270377343
 20
3.396387697168869
 30
0.0
 10
5.058718226943022
 20
3.405991345515911
 30
0.0
  0
SPLINE
  5
16A
330
1F
100
AcDbEntity
  8
0
  6
Continuous
 62
     7
370
    15
100
AcDbSpline
210
0.0
220
0.0
230
1.0
 70
     8
 71
     3
 72
     8
 73
     4
 74
     0
 42
0.00000001
 43
0.00000001
 40
0.0
 40
0.0
 40
0.0
 40
0.0
 40
1.0
 40
1.0
 40
1.0
 40
1.0
 10
4.970524202365853
 20
3.319940690520553
 30
0.0
 10
4.983638285816902
 20
3.336162142110592
 30
0.0
 10
4.999180021157603
 20
3.349544091479962
 30
0.0
 10
5.017140999109768
 20
3.360098397801679
 30
0.0
  0
SPLINE
  5
16B
330
1F
100
AcDbEntity
  8
0
  6
Continuous
 62
     7
370
    15
100
AcDbSpline
210
0.0
220
0.0
230
1.0
 70
     8
 71
     3
 72
    12
 73
     8
 74
     0
 42
0.00000001
 43
0.00000001
 40
0.0
 40
0.0
 40
0.0
 40
0.0
 40
0.2499999999999993
 40
0.2499999999999993
 40
0.4999999999999987
 40
0.4999999999999987
 40
1.0
 40
1.0
 40
1.0
 40
1.0
 10
4.957615868459226
 20
3.259990690280153
 30
0.0
 10
4.956261834506924
 20
3.265170052796421
 30
0.0
 10
4.955538029282598
 20
3.270403752772067
 30
0.0
 10
4.955304762512714
 20
3.280975858963721
 30
0.0
 10
4.955818606643563
 20
3.286351295563725
 30
0.0
 10
4.959151340714142
 20
3.301823498368175
 30
0.0
 10
4.96381468945671
 20
3.311641365656925
 30
0.0
 10
4.970524202365859
 20
3.319940690520547
 30
0.0
  0
SPLINE
  5
16C
330
1F
100
AcDbEntity
  8
0
  6
Continuous
 62
     7
370
    15
100
AcDbSpline
210
0.0
220
0.0
230
1.0
 70
     8
 71
     3
 72
    12
 73
     8
 74
     0
 42
0.00000001
 43
0.00000001
 40
0.0
 40
0.0
 40
0.0
 40
0.0
 40
0.2500000000000011
 40
0.2500000000000011
 40
0.5000000000000021
 40
0.5000000000000021
 40
1.0
 40
1.0
 40
1.0
 40
1.0
 10
4.926955221080729
 20
3.447651806322588
 30
0.0
 10
4.92176368472095
 20
3.44888593290269
 30
0.0
 10
4.916815023004745
 20
3.450699126500686
 30
0.0
 10
4.907387495243309
 20
3.455445912555204
 30
0.0
 10
4.902884944566701
 20
3.458418373461652
 30
0.0
 10
4.890784773471755
 20
3.468619558804911
 30
0.0
 10
4.884285914050852
 20
3.477358855514177
 30
0.0
 10
4.880098297900336
 20
3.487213158219442
 30
0.0
  0
SPLINE
  5
16D
330
1F
100
AcDbEntity
  8
0
  6
Continuous
 62
     7
370
    15
100
AcDbSpline
210
0.0
220
0.0
230
1.0
 70
     8
 71
     3
 72
     8
 73
     4
 74
     0
 42
0.00000001
 43
0.00000001
 40
0.0
 40
0.0
 40
0.0
 40
0.0
 40
1.0
 40
1.0
 40
1.0
 40
1.0
 10
2.707441180823052
 20
4.442841198183767
 30
0.0
 10
2.710817796493391
 20
4.422284238837697
 30
0.0
 10
2.710473428191591
 20
4.401778056433169
 30
0.0
 10
2.706393581209841
 20
4.3813215287448
 30
0.0
  0
SPLINE
  5
16E
330
1F
100
AcDbEntity
  8
0
  6
Continuous
 62
     7
370
    15
100
AcDbSpline
210
0.0
220
0.0
230
1.0
 70
     8
 71
     3
 72
    10
 73
     6
 74
     0
 42
0.00000001
 43
0.00000001
 40
0.0
 40
0.0
 40
0.0
 40
0.0
 40
0.5
 40
0.5
 40
1.0
 40
1.0
 40
1.0
 40
1.0
 10
2.716120832862853
 20
4.504155895969895
 30
0.0
 10
2.711576237131049
 20
4.49460321573623
 30
0.0
 10
2.708580099491482
 20
4.484620740951316
 30
0.0
 10
2.705623268224407
 20
4.463813863607609
 30
0.0
 10
2.705730464438836
 20
4.453256101920271
 30
0.0
 10
2.707441180823
 20
4.442841198183758
 30
0.0
  0
ARC
  5
16F
330
1F
100
AcDbEntity
  8
0
  6
Continuous
 62
     7
370
    15
100
AcDbCircle
 10
3.3665890183
 20
2.8440414
 30
0.0
 40
1.782999999999928
100
AcDbArc
 50
110.4641622473
 51
111.396302869
  0
SPLINE
  5
170
330
1F
100
AcDbEntity
  8
0
  6
Continuous
 62
     7
370
    15
100
AcDbSpline
210
0.0
220
0.0
230
1.0
 70
     8
 71
     3
 72
    10
 73
     6
 74
     0
 42
0.00000001
 43
0.00000001
 40
0.0
 40
0.0
 40
0.0
 40
0.0
 40
0.5
 40
0.5
 40
1.0
 40
1.0
 40
1.0
 40
1.0
 10
2.790594811266941
 20
4.474644766789783
 30
0.0
 10
2.784918901737576
 20
4.483543000183372
 30
0.0
 10
2.778056237247413
 20
4.491371522043337
 30
0.0
 10
2.761989160422992
 20
4.504917119751841
 30
0.0
 10
2.752973232171046
 20
4.510436333676653
 30
0.0
 10
2.743213996634172
 20
4.514518153013388
 30
0.0
  0
SPLINE
  5
171
330
1F
100
AcDbEntity
  8
0
  6
Continuous
 62
     7
370
    15
100
AcDbSpline
210
0.0
220
0.0
230
1.0
 70
     8
 71
     3
 72
     8
 73
     4
 74
     0
 42
0.00000001
 43
0.00000001
 40
0.0
 40
0.0
 40
0.0
 40
0.0
 40
1.0
 40
1.0
 40
1.0
 40
1.0
 10
2.832428266993294
 20
4.429525711229203
 30
0.0
 10
2.81573868471312
 20
4.442038605369079
 30
0.0
 10
2.801798047516734
 20
4.45708123615225
 30
0.0
 10
2.790594811266887
 20
4.474644766789749
 30
0.0
  0
SPLINE
  5
172
330
1F
100
AcDbEntity
  8
0
  6
Continuous
 62
     7
370
    15
100
AcDbSpline
210
0.0
220
0.0
230
1.0
 70
     8
 71
     3
 72
    12
 73
     8
 74
     0
 42
0.00000001
 43
0.00000001
 40
0.0
 40
0.0
 40
0.0
 40
0.0
 40
0.2500000000000008
 40
0.2500000000000008
 40
0.5000000000000016
 40
0.5000000000000016
 40
1.0
 40
1.0
 40
1.0
 40
1.0
 10
2.892809961952065
 20
4.418815560240924
 30
0.0
 10
2.887683491512988
 20
4.417273242569561
 30
0.0
 10
2.882479699547174
 20
4.416358753511448
 30
0.0
 10
2.871923122955454
 20
4.415739494459175
 30
0.0
 10
2.866532482840855
 20
4.416056662367587
 30
0.0
 10
2.850948814850032
 20
4.41882207820234
 30
0.0
 10
2.840967135525917
 20
4.423123756031876
 30
0.0
 10
2.832428266993406
 20
4.429525711229351
 30
0.0
  0
SPLINE
  5
173
330
1F
100
AcDbEntity
  8
0
  6
Continuous
 62
     7
370
    15
100
AcDbSpline
210
0.0
220
0.0
230
1.0
 70
     8
 71
     3
 72
    12
 73
     8
 74
     0
 42
0.00000001
 43
0.00000001
 40
0.0
 40
0.0
 40
0.0
 40
0.0
 40
0.249999999999999
 40
0.249999999999999
 40
0.499999999999998
 40
0.499999999999998
 40
1.0
 40
1.0
 40
1.0
 40
1.0
 10
2.706393581209912
 20
4.381321528744786
 30
0.0
 10
2.705349883174771
 20
4.376088382048501
 30
0.0
 10
2.703718633934863
 20
4.371076799352745
 30
0.0
 10
2.699319325710205
 20
4.361482197152951
 30
0.0
 10
2.696513289233792
 20
4.356874089332247
 30
0.0
 10
2.686760829180984
 20
4.344409421367502
 30
0.0
 10
2.678264711561855
 20
4.337595720642652
 30
0.0
 10
2.668569920771708
 20
4.333051000197825
 30
0.0
  0
SPLINE
  5
174
330
1F
100
AcDbEntity
  8
0
  6
Continuous
 62
     7
370
    15
100
AcDbSpline
210
0.0
220
0.0
230
1.0
 70
     8
 71
     3
 72
     8
 73
     4
 74
     0
 42
0.00000001
 43
0.00000001
 40
0.0
 40
0.0
 40
0.0
 40
0.0
 40
1.0
 40
1.0
 40
1.0
 40
1.0
 10
2.947252594301179
 20
4.521776072059763
 30
0.0
 10
2.947600109335338
 20
4.500946541478569
 30
0.0
 10
2.944273686736001
 20
4.48070902633917
 30
0.0
 10
2.937258822862804
 20
4.461064526821731
 30
0.0
  0
SPLINE
  5
175
330
1F
100
AcDbEntity
  8
0
  6
Continuous
 62
     7
370
    15
100
AcDbSpline
210
0.0
220
0.0
230
1.0
 70
     8
 71
     3
 72
    10
 73
     6
 74
     0
 42
0.00000001
 43
0.00000001
 40
0.0
 40
0.0
 40
0.0
 40
0.0
 40
0.5
 40
0.5
 40
1.0
 40
1.0
 40
1.0
 40
1.0
 10
2.964767242081155
 20
4.581173594207818
 30
0.0
 10
2.958880195036217
 20
4.57238441181669
 30
0.0
 10
2.954462526147066
 20
4.562944557730262
 30
0.0
 10
2.948507699104224
 20
4.542789929705049
 30
0.0
 10
2.947076530537692
 20
4.532329070303899
 30
0.0
 10
2.947252594301145
 20
4.521776072059762
 30
0.0
  0
ARC
  5
176
330
1F
100
AcDbEntity
  8
0
  6
Continuous
 62
     7
370
    15
100
AcDbCircle
 10
3.3665890183
 20
2.8440414
 30
0.0
 40
1.78300000000011
100
AcDbArc
 50
102.092069224
 51
103.0242098458
  0
SPLINE
  5
177
330
1F
100
AcDbEntity
  8
0
  6
Continuous
 62
     7
370
    15
100
AcDbSpline
210
0.0
220
0.0
230
1.0
 70
     8
 71
     3
 72
    10
 73
     6
 74
     0
 42
0.00000001
 43
0.00000001
 40
0.0
 40
0.0
 40
0.0
 40
0.0
 40
0.5
 40
0.5
 40
1.0
 40
1.0
 40
1.0
 40
1.0
 10
3.034150723839564
 20
4.541133456047785
 30
0.0
 10
3.029830893561815
 20
4.550763283298719
 30
0.0
 10
3.024181203885638
 20
4.559507591446233
 30
0.0
 10
3.010257602829181
 20
4.575248223853455
 30
0.0
 10
3.002141357998346
 20
4.582021351228825
 30
0.0
 10
2.993080440704415
 20
4.587480628209668
 30
0.0
  0
SPLINE
  5
178
330
1F
100
AcDbEntity
  8
0
  6
Continuous
 62
     7
370
    15
100
AcDbSpline
210
0.0
220
0.0
230
1.0
 70
     8
 71
     3
 72
     8
 73
     4
 74
     0
 42
0.00000001
 43
0.00000001
 40
0.0
 40
0.0
 40
0.0
 40
0.0
 40
1.0
 40
1.0
 40
1.0
 40
1.0
 10
3.068968988649513
 20
4.490404217650563
 30
0.0
 10
3.054279153103073
 20
4.50521378915236
 30
0.0
 10
3.042677300753832
 20
4.522125889210994
 30
0.0
 10
3.034150723839406
 20
4.541133456047715
 30
0.0
  0
SPLINE
  5
179
330
1F
100
AcDbEntity
  8
0
  6
Continuous
 62
     7
370
    15
100
AcDbSpline
210
0.0
220
0.0
230
1.0
 70
     8
 71
     3
 72
    12
 73
     8
 74
     0
 42
0.00000001
 43
0.00000001
 40
0.0
 40
0.0
 40
0.0
 40
0.0
 40
0.2499999999999989
 40
0.2499999999999989
 40
0.4999999999999979
 40
0.4999999999999979
 40
1.0
 40
1.0
 40
1.0
 40
1.0
 10
3.127147781153671
 20
4.471016551609058
 30
0.0
 10
3.121851380307063
 20
4.470237092345613
 30
0.0
 10
3.116569894738928
 20
4.470090028727283
 30
0.0
 10
3.106035655670581
 20
4.471014421472887
 30
0.0
 10
3.100748644138092
 20
4.472113093758716
 30
0.0
 10
3.085733700581924
 20
4.477118040681658
 30
0.0
 10
3.076484726266141
 20
4.482827219714777
 30
0.0
 10
3.068968988649817
 20
4.490404217650863
 30
0.0
  0
SPLINE
  5
17A
330
1F
100
AcDbEntity
  8
0
  6
Continuous
 62
     7
370
    15
100
AcDbSpline
210
0.0
220
0.0
230
1.0
 70
     8
 71
     3
 72
    12
 73
     8
 74
     0
 42
0.00000001
 43
0.00000001
 40
0.0
 40
0.0
 40
0.0
 40
0.0
 40
0.2499999999999994
 40
0.2499999999999994
 40
0.4999999999999989
 40
0.4999999999999989
 40
1.0
 40
1.0
 40
1.0
 40
1.0
 10
2.937258822862729
 20
4.461064526821758
 30
0.0
 10
2.935464295338832
 20
4.45603911282734
 30
0.0
 10
2.933120738191229
 20
4.451318449689693
 30
0.0
 10
2.927371328584223
 20
4.442466640076608
 30
0.0
 10
2.923924250423489
 20
4.43831620212539
 30
0.0
 10
2.912460852869143
 20
4.42740433654104
 30
0.0
 10
2.903063196118274
 20
4.42190029132803
 30
0.0
 10
2.892810005674309
 20
4.41881557339494
 30
0.0
  0
SPLINE
  5
17B
330
1F
100
AcDbEntity
  8
0
  6
Continuous
 62
     7
370
    15
100
AcDbSpline
210
0.0
220
0.0
230
1.0
 70
     8
 71
     3
 72
     8
 73
     4
 74
     0
 42
0.00000001
 43
0.00000001
 40
0.0
 40
0.0
 40
0.0
 40
0.0
 40
1.0
 40
1.0
 40
1.0
 40
1.0
 10
4.580242480112848
 20
4.075983744820558
 30
0.0
 10
4.562643571361217
 20
4.064836165636105
 30
0.0
 10
4.543636100577626
 20
4.057133038950909
 30
0.0
 10
4.523213365977594
 20
4.052887266006342
 30
0.0
  0
SPLINE
  5
17C
330
1F
100
AcDbEntity
  8
0
  6
Continuous
 62
     7
370
    15
100
AcDbSpline
210
0.0
220
0.0
230
1.0
 70
     8
 71
     3
 72
    10
 73
     6
 74
     0
 42
0.00000001
 43
0.00000001
 40
0.0
 40
0.0
 40
0.0
 40
0.0
 40
0.5
 40
0.5
 40
1.0
 40
1.0
 40
1.0
 40
1.0
 10
4.640067881102677
 20
4.091975927930689
 30
0.0
 10
4.629498695463221
 20
4.092422430935668
 30
0.0
 10
4.619139559318128
 20
4.091275721767165
 30
0.0
 10
4.598833598496355
 20
4.085859362191471
 30
0.0
 10
4.58915872776576
 20
4.08163151413086
 30
0.0
 10
4.580242480112791
 20
4.075983744820649
 30
0.0
  0
ARC
  5
17D
330
1F
100
AcDbEntity
  8
0
  6
Continuous
 62
     7
370
    15
100
AcDbCircle
 10
3.3665890183
 20
2.8440414
 30
0.0
 40
1.783000000000267
100
AcDbArc
 50
43.4874180612
 51
44.419558683
  0
SPLINE
  5
17E
330
1F
100
AcDbEntity
  8
0
  6
Continuous
 62
     7
370
    15
100
AcDbSpline
210
0.0
220
0.0
230
1.0
 70
     8
 71
     3
 72
    10
 73
     6
 74
     0
 42
0.00000001
 43
0.00000001
 40
0.0
 40
0.0
 40
0.0
 40
0.0
 40
0.5
 40
0.5
 40
1.0
 40
1.0
 40
1.0
 40
1.0
 10
4.642034550496624
 20
4.011892144201825
 30
0.0
 10
4.648004130630953
 20
4.020596086959658
 30
0.0
 10
4.65252506037057
 20
4.029973885886138
 30
0.0
 10
4.658707789935371
 20
4.050058905928172
 30
0.0
 10
4.660261205308558
 20
4.060515271706028
 30
0.0
 10
4.660201009070326
 20
4.071093565697704
 30
0.0
  0
SPLINE
  5
17F
330
1F
100
AcDbEntity
  8
0
  6
Continuous
 62
     7
370
    15
100
AcDbSpline
210
0.0
220
0.0
230
1.0
 70
     8
 71
     3
 72
     8
 73
     4
 74
     0
 42
0.00000001
 43
0.00000001
 40
0.0
 40
0.0
 40
0.0
 40
0.0
 40
1.0
 40
1.0
 40
1.0
 40
1.0
 10
4.616870661914207
 20
3.955744607264639
 30
0.0
 10
4.621859481868473
 20
3.975998652586697
 30
0.0
 10
4.630251660686473
 20
3.994712108734817
 30
0.0
 10
4.642034550496647
 20
4.011892144201809
 30
0.0
  0
SPLINE
  5
180
330
1F
100
AcDbEntity
  8
0
  6
Continuous
 62
     7
370
    15
100
AcDbSpline
210
0.0
220
0.0
230
1.0
 70
     8
 71
     3
 72
    12
 73
     8
 74
     0
 42
0.00000001
 43
0.00000001
 40
0.0
 40
0.0
 40
0.0
 40
0.0
 40
0.2499999999999993
 40
0.2499999999999993
 40
0.4999999999999986
 40
0.4999999999999986
 40
1.0
 40
1.0
 40
1.0
 40
1.0
 10
4.630629182341168
 20
3.895983752840135
 30
0.0
 10
4.627204729175695
 20
3.900098672647266
 30
0.0
 10
4.624327854885274
 20
3.904530301791311
 30
0.0
 10
4.619629194937405
 20
3.914003811801622
 30
0.0
 10
4.61781279428915
 20
3.919089112832123
 30
0.0
 10
4.614263087799547
 20
3.934513049744495
 30
0.0
 10
4.614318238603159
 20
3.945382057022309
 30
0.0
 10
4.616870661914295
 20
3.955744607264617
 30
0.0
  0
SPLINE
  5
181
330
1F
100
AcDbEntity
  8
0
  6
Continuous
 62
     7
370
    15
100
AcDbSpline
210
0.0
220
0.0
230
1.0
 70
     8
 71
     3
 72
    12
 73
     8
 74
     0
 42
0.00000001
 43
0.00000001
 40
0.0
 40
0.0
 40
0.0
 40
0.0
 40
0.2500000000000004
 40
0.2500000000000004
 40
0.5000000000000009
 40
0.5000000000000009
 40
1.0
 40
1.0
 40
1.0
 40
1.0
 10
4.523213365977609
 20
4.052887266006273
 30
0.0
 10
4.517988864171432
 20
4.051801121136228
 30
0.0
 10
4.512738483897954
 20
4.051342381498774
 30
0.0
 10
4.502187538191628
 20
4.051638773815594
 30
0.0
 10
4.496849029645247
 20
4.052419046050179
 30
0.0
 10
4.481562986921754
 20
4.056519694933814
 30
0.0
 10
4.471969151771795
 20
4.061674193813777
 30
0.0
 10
4.463994757213841
 20
4.068819295867212
 30
0.0
  0
SPLINE
  5
182
330
1F
100
AcDbEntity
  8
0
  6
Continuous
 62
     7
370
    15
100
AcDbSpline
210
0.0
220
0.0
230
1.0
 70
     8
 71
     3
 72
     8
 73
     4
 74
     0
 42
0.00000001
 43
0.00000001
 40
0.0
 40
0.0
 40
0.0
 40
0.0
 40
1.0
 40
1.0
 40
1.0
 40
1.0
 10
3.056439265995291
 20
1.199992939479835
 30
0.0
 10
3.064869372625134
 20
1.180912898110444
 30
0.0
 10
3.0696641650581
 20
1.160972184185161
 30
0.0
 10
3.070838035234485
 20
1.140172853913757
 30
0.0
  0
SPLINE
  5
183
330
1F
100
AcDbEntity
  8
0
  6
Continuous
 62
     7
370
    15
100
AcDbSpline
210
0.0
220
0.0
230
1.0
 70
     8
 71
     3
 72
    12
 73
     8
 74
     0
 42
0.00000001
 43
0.00000001
 40
0.0
 40
0.0
 40
0.0
 40
0.0
 40
0.2499999999999973
 40
0.2499999999999973
 40
0.4999999999999947
 40
0.4999999999999947
 40
1.0
 40
1.0
 40
1.0
 40
1.0
 10
3.009025158829298
 20
1.238884605041678
 30
0.0
 10
3.014250534681269
 20
1.23772059761259
 30
0.0
 10
3.019236068226949
 20
1.235971249521304
 30
0.0
 10
3.02874500622824
 20
1.231344697782349
 30
0.0
 10
3.033290685615001
 20
1.228429836095577
 30
0.0
 10
3.045526976929862
 20
1.218391329895942
 30
0.0
 10
3.052126180139459
 20
1.20975483931888
 30
0.0
 10
3.056439265995082
 20
1.199992939479743
 30
0.0
  0
SPLINE
  5
184
330
1F
100
AcDbEntity
  8
0
  6
Continuous
 62
     7
370
    15
100
AcDbSpline
210
0.0
220
0.0
230
1.0
 70
     8
 71
     3
 72
    12
 73
     8
 74
     0
 42
0.00000001
 43
0.00000001
 40
0.0
 40
0.0
 40
0.0
 40
0.0
 40
0.2499999999999982
 40
0.2499999999999982
 40
0.4999999999999963
 40
0.4999999999999963
 40
1.0
 40
1.0
 40
1.0
 40
1.0
 10
3.189939726385586
 20
1.180345743619522
 30
0.0
 10
3.193411076985321
 20
1.184398500429727
 30
0.0
 10
3.197286363648649
 20
1.187970484724552
 30
0.0
 10
3.20581854428865
 20
1.194184350625181
 30
0.0
 10
3.21052083525404
 20
1.196829523695319
 30
0.0
 10
3.225125888048164
 20
1.20292630224835
 30
0.0
 10
3.235869665343505
 20
1.204710036069516
 30
0.0
 10
3.246548266596224
 20
1.203928456349127
 30
0.0
  0
SPLINE
  5
185
330
1F
100
AcDbEntity
  8
0
  6
Continuous
 62
     7
370
    15
100
AcDbSpline
210
0.0
220
0.0
230
1.0
 70
     8
 71
     3
 72
     8
 73
     4
 74
     0
 42
0.00000001
 43
0.00000001
 40
0.0
 40
0.0
 40
0.0
 40
0.0
 40
1.0
 40
1.0
 40
1.0
 40
1.0
 10
3.158917343548235
 20
1.127210266244748
 30
0.0
 10
3.166033710651992
 20
1.146789526449795
 30
0.0
 10
3.176370108484878
 20
1.164503390685712
 30
0.0
 10
3.189939726385354
 20
1.18034574361972
 30
0.0
  0
SPLINE
  5
186
330
1F
100
AcDbEntity
  8
0
  6
Continuous
 62
     7
370
    15
100
AcDbSpline
210
0.0
220
0.0
230
1.0
 70
     8
 71
     3
 72
    10
 73
     6
 74
     0
 42
0.00000001
 43
0.00000001
 40
0.0
 40
0.0
 40
0.0
 40
0.0
 40
0.5
 40
0.5
 40
1.0
 40
1.0
 40
1.0
 40
1.0
 10
3.121339750694091
 20
1.077988796950548
 30
0.0
 10
3.129978114913128
 20
1.084094999832294
 30
0.0
 10
3.137476496293574
 20
1.091333847825045
 30
0.0
 10
3.150238256379332
 20
1.108031346902999
 30
0.0
 10
3.155311932986727
 20
1.117290700474391
 30
0.0
 10
3.158917343548304
 20
1.127210266244723
 30
0.0
  0
ARC
  5
187
330
1F
100
AcDbEntity
  8
0
  6
Continuous
 62
     7
370
    15
100
AcDbCircle
 10
3.3665890183
 20
2.8440414
 30
0.0
 40
1.782999999999954
100
AcDbArc
 50
261.1618366659
 51
262.0939772876
  0
SPLINE
  5
188
330
1F
100
AcDbEntity
  8
0
  6
Continuous
 62
     7
370
    15
100
AcDbSpline
210
0.0
220
0.0
230
1.0
 70
     8
 71
     3
 72
    10
 73
     6
 74
     0
 42
0.00000001
 43
0.00000001
 40
0.0
 40
0.0
 40
0.0
 40
0.0
 40
0.5
 40
0.5
 40
1.0
 40
1.0
 40
1.0
 40
1.0
 10
3.070838035234534
 20
1.14017285391376
 30
0.0
 10
3.071432754543518
 20
1.129635263323175
 30
0.0
 10
3.073585918730226
 20
1.119449694983579
 30
0.0
 10
3.080967746287757
 20
1.099773750359013
 30
0.0
 10
3.086128879383078
 20
1.09054816692135
 30
0.0
 10
3.092641699721988
 20
1.082212274731909
 30
0.0
  0
SPLINE
  5
189
330
1F
100
AcDbEntity
  8
0
  6
Continuous
 62
     7
370
    15
100
AcDbSpline
210
0.0
220
0.0
230
1.0
 70
     8
 71
     3
 72
     8
 73
     4
 74
     0
 42
0.00000001
 43
0.00000001
 40
0.0
 40
0.0
 40
0.0
 40
0.0
 40
1.0
 40
1.0
 40
1.0
 40
1.0
 10
3.196001435625917
 20
4.564952944200759
 30
0.0
 10
3.193312443344226
 20
4.544294787665143
 30
0.0
 10
3.187074863369688
 20
4.524757267290326
 30
0.0
 10
3.177274492249293
 20
4.506343484344884
 30
0.0
  0
SPLINE
  5
18A
330
1F
100
AcDbEntity
  8
0
  6
Continuous
 62
     7
370
    15
100
AcDbSpline
210
0.0
220
0.0
230
1.0
 70
     8
 71
     3
 72
    10
 73
     6
 74
     0
 42
0.00000001
 43
0.00000001
 40
0.0
 40
0.0
 40
0.0
 40
0.0
 40
0.5
 40
0.5
 40
1.0
 40
1.0
 40
1.0
 40
1.0
 10
3.221977784836638
 20
4.621167335648679
 30
0.0
 10
3.214873758665606
 20
4.613328977263501
 30
0.0
 10
3.209128713469486
 20
4.604632937976371
 30
0.0
 10
3.200302807450878
 20
4.585560120174773
 30
0.0
 10
3.197363776976652
 20
4.575419118116424
 30
0.0
 10
3.19600143562591
 20
4.56495294420076
 30
0.0
  0
ARC
  5
18B
330
1F
100
AcDbEntity
  8
0
  6
Continuous
 62
     7
370
    15
100
AcDbCircle
 10
3.3665890183
 20
2.8440414
 30
0.0
 40
1.783000000000152
100
AcDbArc
 50
93.7199762008
 51
94.6521168225
  0
SPLINE
  5
18C
330
1F
100
AcDbEntity
  8
0
  6
Continuous
 62
     7
370
    15
100
AcDbSpline
210
0.0
220
0.0
230
1.0
 70
     8
 71
     3
 72
    10
 73
     6
 74
     0
 42
0.00000001
 43
0.00000001
 40
0.0
 40
0.0
 40
0.0
 40
0.0
 40
0.5
 40
0.5
 40
1.0
 40
1.0
 40
1.0
 40
1.0
 10
3.284791981495696
 20
4.571451574537748
 30
0.0
 10
3.281920300152009
 20
4.581607752596983
 30
0.0
 10
3.277603998616519
 20
4.59108147728528
 30
0.0
 10
3.266120630711
 20
4.608681660139493
 30
0.0
 10
3.259077052969002
 20
4.616564343514439
 30
0.0
 10
3.250907571639003
 20
4.623284723128643
 30
0.0
  0
SPLINE
  5
18D
330
1F
100
AcDbEntity
  8
0
  6
Continuous
 62
     7
370
    15
100
AcDbSpline
210
0.0
220
0.0
230
1.0
 70
     8
 71
     3
 72
     8
 73
     4
 74
     0
 42
0.00000001
 43
0.00000001
 40
0.0
 40
0.0
 40
0.0
 40
0.0
 40
1.0
 40
1.0
 40
1.0
 40
1.0
 10
3.311852964524648
 20
4.516193358946752
 30
0.0
 10
3.29947596405285
 20
4.532983967505601
 30
0.0
 10
3.290460169891071
 20
4.551405084788876
 30
0.0
 10
3.284791981495601
 20
4.571451574537721
 30
0.0
  0
SPLINE
  5
18E
330
1F
100
AcDbEntity
  8
0
  6
Continuous
 62
     7
370
    15
100
AcDbSpline
210
0.0
220
0.0
230
1.0
 70
     8
 71
     3
 72
    12
 73
     8
 74
     0
 42
0.00000001
 43
0.00000001
 40
0.0
 40
0.0
 40
0.0
 40
0.0
 40
0.2499999999999999
 40
0.2499999999999999
 40
0.4999999999999999
 40
0.4999999999999999
 40
1.0
 40
1.0
 40
1.0
 40
1.0
 10
3.366589036768735
 20
4.48854139999976
 30
0.0
 10
3.361235576727929
 20
4.48854139854598
 30
0.0
 10
3.355988940732336
 20
4.489164885957259
 30
0.0
 10
3.345701529180575
 20
4.491613215925431
 30
0.0
 10
3.340630815047666
 20
4.493469972967098
 30
0.0
 10
3.326504571660767
 20
4.500607778321243
 30
0.0
 10
3.318185402729004
 20
4.507602788771627
 30
0.0
 10
3.31185296452471
 20
4.516193358946798
 30
0.0
  0
SPLINE
  5
18F
330
1F
100
AcDbEntity
  8
0
  6
Continuous
 62
     7
370
    15
100
AcDbSpline
210
0.0
220
0.0
230
1.0
 70
     8
 71
     3
 72
    12
 73
     8
 74
     0
 42
0.00000001
 43
0.00000001
 40
0.0
 40
0.0
 40
0.0
 40
0.0
 40
0.2500000000000022
 40
0.2500000000000022
 40
0.5000000000000044
 40
0.5000000000000044
 40
1.0
 40
1.0
 40
1.0
 40
1.0
 10
3.177274492249223
 20
4.50634348434492
 30
0.0
 10
3.174767381658498
 20
4.501632908625908
 30
0.0
 10
3.171761464119262
 20
4.497303775662449
 30
0.0
 10
3.164784488113146
 20
4.489383415894927
 30
0.0
 10
3.160769834447566
 20
4.485779105770473
 30
0.0
 10
3.147839814074505
 20
4.476652607353912
 30
0.0
 10
3.137740906371176
 20
4.472575527143743
 30
0.0
 10
3.12714783955805
 20
4.471016560204323
 30
0.0
  0
SPLINE
  5
190
330
1F
100
AcDbEntity
  8
0
  6
Continuous
 62
     7
370
    15
100
AcDbSpline
210
0.0
220
0.0
230
1.0
 70
     8
 71
     3
 72
     8
 73
     4
 74
     0
 42
0.00000001
 43
0.00000001
 40
0.0
 40
0.0
 40
0.0
 40
0.0
 40
1.0
 40
1.0
 40
1.0
 40
1.0
 10
4.723879656164031
 20
1.772407698262002
 30
0.0
 10
4.710874137666659
 20
1.788681806518528
 30
0.0
 10
4.701138352181257
 20
1.806732750740613
 30
0.0
 10
4.694684390572092
 20
1.826568603532875
 30
0.0
  0
SPLINE
  5
191
330
1F
100
AcDbEntity
  8
0
  6
Continuous
 62
     7
370
    15
100
AcDbSpline
210
0.0
220
0.0
230
1.0
 70
     8
 71
     3
 72
    10
 73
     6
 74
     0
 42
0.00000001
 43
0.00000001
 40
0.0
 40
0.0
 40
0.0
 40
0.0
 40
0.5
 40
0.5
 40
1.0
 40
1.0
 40
1.0
 40
1.0
 10
4.746319078169577
 20
1.714690275725724
 30
0.0
 10
4.745606937986932
 20
1.725244891131935
 30
0.0
 10
4.743334116717114
 20
1.735416465595338
 30
0.0
 10
4.735729362544215
 20
1.755008216663335
 30
0.0
 10
4.730468725146104
 20
1.76416264275352
 30
0.0
 10
4.723879656163851
 20
1.772407698261858
 30
0.0
  0
ARC
  5
192
330
1F
100
AcDbEntity
  8
0
  6
Continuous
 62
     7
370
    15
100
AcDbCircle
 10
3.3665890183
 20
2.8440414
 30
0.0
 40
1.783000000000073
100
AcDbArc
 50
319.7664878287
 51
320.6986284504
  0
SPLINE
  5
193
330
1F
100
AcDbEntity
  8
0
  6
Continuous
 62
     7
370
    15
100
AcDbSpline
210
0.0
220
0.0
230
1.0
 70
     8
 71
     3
 72
    10
 73
     6
 74
     0
 42
0.00000001
 43
0.00000001
 40
0.0
 40
0.0
 40
0.0
 40
0.0
 40
0.5
 40
0.5
 40
1.0
 40
1.0
 40
1.0
 40
1.0
 10
4.66693081605058
 20
1.703976544231502
 30
0.0
 10
4.676235443833078
 20
1.698994736493408
 30
0.0
 10
4.68605144466022
 20
1.695526589123847
 30
0.0
 10
4.706692186773165
 20
1.691577672819271
 30
0.0
 10
4.717255723469979
 20
1.691177201783807
 30
0.0
 10
4.727763974278684
 20
1.692393997699787
 30
0.0
  0
SPLINE
  5
194
330
1F
100
AcDbEntity
  8
0
  6
Continuous
 62
     7
370
    15
100
AcDbSpline
210
0.0
220
0.0
230
1.0
 70
     8
 71
     3
 72
     8
 73
     4
 74
     0
 42
0.00000001
 43
0.00000001
 40
0.0
 40
0.0
 40
0.0
 40
0.0
 40
1.0
 40
1.0
 40
1.0
 40
1.0
 10
4.608367904675722
 20
1.72284855006178
 30
0.0
 10
4.629046078745361
 20
1.720104867573359
 30
0.0
 10
4.64856513514512
 20
1.713809746955664
 30
0.0
 10
4.66693081605083
 20
1.703976544232088
 30
0.0
  0
SPLINE
  5
195
330
1F
100
AcDbEntity
  8
0
  6
Continuous
 62
     7
370
    15
100
AcDbSpline
210
0.0
220
0.0
230
1.0
 70
     8
 71
     3
 72
    12
 73
     8
 74
     0
 42
0.00000001
 43
0.00000001
 40
0.0
 40
0.0
 40
0.0
 40
0.0
 40
0.249999999999999
 40
0.249999999999999
 40
0.499999999999998
 40
0.499999999999998
 40
1.0
 40
1.0
 40
1.0
 40
1.0
 10
4.550470361652914
 20
1.702636469719567
 30
0.0
 10
4.554186059315041
 20
1.706490430165017
 30
0.0
 10
4.558276455214956
 20
1.709834735834138
 30
0.0
 10
4.567179233132014
 20
1.715541332565029
 30
0.0
 10
4.572035363910358
 20
1.717903019923531
 30
0.0
 10
4.586978531343767
 20
1.723118361157103
 30
0.0
 10
4.597788362486233
 20
1.724252296086213
 30
0.0
 10
4.608367904675743
 20
1.722848550061929
 30
0.0
  0
SPLINE
  5
196
330
1F
100
AcDbEntity
  8
0
  6
Continuous
 62
     7
370
    15
100
AcDbSpline
210
0.0
220
0.0
230
1.0
 70
     8
 71
     3
 72
    12
 73
     8
 74
     0
 42
0.00000001
 43
0.00000001
 40
0.0
 40
0.0
 40
0.0
 40
0.0
 40
0.25
 40
0.25
 40
0.5
 40
0.5
 40
1.0
 40
1.0
 40
1.0
 40
1.0
 10
4.694684390572301
 20
1.826568603532944
 30
0.0
 10
4.693033351534655
 20
1.83164297014506
 30
0.0
 10
4.692003123478056
 20
1.836811680036287
 30
0.0
 10
4.691143767955071
 20
1.847331746496919
 30
0.0
 10
4.691335480062213
 20
1.852723568200408
 30
0.0
 10
4.693739675514725
 20
1.868366401650833
 30
0.0
 10
4.697813962404415
 20
1.878466436458333
 30
0.0
 10
4.70404403084726
 20
1.887174460754552
 30
0.0
  0
SPLINE
  5
197
330
1F
100
AcDbEntity
  8
0
  6
Continuous
 62
     7
370
    15
100
AcDbSpline
210
0.0
220
0.0
230
1.0
 70
     8
 71
     3
 72
     8
 73
     4
 74
     0
 42
0.00000001
 43
0.00000001
 40
0.0
 40
0.0
 40
0.0
 40
0.0
 40
1.0
 40
1.0
 40
1.0
 40
1.0
 10
2.24609925876376
 20
1.526794511563687
 30
0.0
 10
2.262837497568732
 20
1.539196990051025
 30
0.0
 10
2.28123196965568
 20
1.548267023290034
 30
0.0
 10
2.3012903006609
 20
1.55399223365511
 30
0.0
  0
SPLINE
  5
198
330
1F
100
AcDbEntity
  8
0
  6
Continuous
 62
     7
370
    15
100
AcDbSpline
210
0.0
220
0.0
230
1.0
 70
     8
 71
     3
 72
    10
 73
     6
 74
     0
 42
0.00000001
 43
0.00000001
 40
0.0
 40
0.0
 40
0.0
 40
0.0
 40
0.5
 40
0.5
 40
1.0
 40
1.0
 40
1.0
 40
1.0
 10
2.187600809411734
 20
1.506478017091579
 30
0.0
 10
2.198174392089335
 20
1.50680420626146
 30
0.0
 10
2.208422188601169
 20
1.508704024737755
 30
0.0
 10
2.228278610007949
 20
1.515588175002275
 30
0.0
 10
2.23761905782829
 20
1.520510964596859
 30
0.0
 10
2.246099258763775
 20
1.526794511563667
 30
0.0
  0
ARC
  5
199
330
1F
100
AcDbEntity
  8
0
  6
Continuous
 62
     7
370
    15
100
AcDbCircle
 10
3.3665890183
 20
2.8440414
 30
0.0
 40
1.783000000000107
100
AcDbArc
 50
227.6734645729
 51
228.6056051946
  0
SPLINE
  5
19A
330
1F
100
AcDbEntity
  8
0
  6
Continuous
 62
     7
370
    15
100
AcDbSpline
210
0.0
220
0.0
230
1.0
 70
     8
 71
     3
 72
    10
 73
     6
 74
     0
 42
0.00000001
 43
0.00000001
 40
0.0
 40
0.0
 40
0.0
 40
0.0
 40
0.5
 40
0.5
 40
1.0
 40
1.0
 40
1.0
 40
1.0
 10
2.179793645541538
 20
1.586204602350857
 30
0.0
 10
2.174475337594132
 20
1.577088127863009
 30
0.0
 10
2.170651003796167
 20
1.56740533955501
 30
0.0
 10
2.165950880358102
 20
1.54692259035906
 30
0.0
 10
2.165164874766713
 20
1.53638072715541
 30
0.0
 10
2.165997076316968
 20
1.525835047094815
 30
0.0
  0
SPLINE
  5
19B
330
1F
100
AcDbEntity
  8
0
  6
Continuous
 62
     7
370
    15
100
AcDbSpline
210
0.0
220
0.0
230
1.0
 70
     8
 71
     3
 72
     8
 73
     4
 74
     0
 42
0.00000001
 43
0.00000001
 40
0.0
 40
0.0
 40
0.0
 40
0.0
 40
1.0
 40
1.0
 40
1.0
 40
1.0
 10
2.200791896881434
 20
1.644039199552613
 30
0.0
 10
2.197294836095191
 20
1.623475025795433
 30
0.0
 10
2.190291039849753
 20
1.604198902106017
 30
0.0
 10
2.179793645541849
 20
1.586204602350675
 30
0.0
  0
SPLINE
  5
19C
330
1F
100
AcDbEntity
  8
0
  6
Continuous
 62
     7
370
    15
100
AcDbSpline
210
0.0
220
0.0
230
1.0
 70
     8
 71
     3
 72
    12
 73
     8
 74
     0
 42
0.00000001
 43
0.00000001
 40
0.0
 40
0.0
 40
0.0
 40
0.0
 40
0.2499999999999996
 40
0.2499999999999996
 40
0.4999999999999991
 40
0.4999999999999991
 40
1.0
 40
1.0
 40
1.0
 40
1.0
 10
2.182707921271529
 20
1.702636214233579
 30
0.0
 10
2.186423591627502
 20
1.698782241856295
 30
0.0
 10
2.189616263836193
 20
1.694572437152846
 30
0.0
 10
2.194993883106938
 20
1.685467192977976
 30
0.0
 10
2.19717662944639
 20
1.680528055461162
 30
0.0
 10
2.20184271413553
 20
1.665404407232589
 30
0.0
 10
2.202581089214257
 20
1.654560395575035
 30
0.0
 10
2.200791896880601
 20
1.644039199552772
 30
0.0
  0
SPLINE
  5
19D
330
1F
100
AcDbEntity
  8
0
  6
Continuous
 62
     7
370
    15
100
AcDbSpline
210
0.0
220
0.0
230
1.0
 70
     8
 71
     3
 72
    12
 73
     8
 74
     0
 42
0.00000001
 43
0.00000001
 40
0.0
 40
0.0
 40
0.0
 40
0.0
 40
0.2500000000000016
 40
0.2500000000000016
 40
0.5000000000000032
 40
0.5000000000000032
 40
1.0
 40
1.0
 40
1.0
 40
1.0
 10
2.301290300660765
 20
1.553992233655523
 30
0.0
 10
2.306421581392429
 20
1.555456845124117
 30
0.0
 10
2.311624469194636
 20
1.556297614130142
 30
0.0
 10
2.322168903012015
 20
1.556772182143806
 30
0.0
 10
2.327550126048299
 20
1.556383677609509
 30
0.0
 10
2.34309471783276
 20
1.553409777788641
 30
0.0
 10
2.353039213478559
 20
1.548969334891706
 30
0.0
 10
2.36151389355802
 20
1.542425387644291
 30
0.0
  0
SPLINE
  5
19E
330
1F
100
AcDbEntity
  8
0
  6
Continuous
 62
     7
370
    15
100
AcDbSpline
210
0.0
220
0.0
230
1.0
 70
     8
 71
     3
 72
     8
 73
     4
 74
     0
 42
0.00000001
 43
0.00000001
 40
0.0
 40
0.0
 40
0.0
 40
0.0
 40
1.0
 40
1.0
 40
1.0
 40
1.0
 10
2.038493646033339
 20
1.826568603532875
 30
0.0
 10
2.03203968442417
 20
1.806732750740601
 30
0.0
 10
2.022303898938779
 20
1.788681806518538
 30
0.0
 10
2.0092983804414
 20
1.772407698262002
 30
0.0
  0
SPLINE
  5
19F
330
1F
100
AcDbEntity
  8
0
  6
Continuous
 62
     7
370
    15
100
AcDbSpline
210
0.0
220
0.0
230
1.0
 70
     8
 71
     3
 72
    12
 73
     8
 74
     0
 42
0.00000001
 43
0.00000001
 40
0.0
 40
0.0
 40
0.0
 40
0.0
 40
0.25
 40
0.25
 40
0.5
 40
0.5
 40
1.0
 40
1.0
 40
1.0
 40
1.0
 10
2.029134199459928
 20
1.887174190008194
 30
0.0
 10
2.032249126314025
 20
1.882820282889353
 30
0.0
 10
2.034794819311067
 20
1.878190485175744
 30
0.0
 10
2.038789390875327
 20
1.868399288699226
 30
0.0
 10
2.040229729771915
 20
1.863194977824849
 30
0.0
 10
2.042644063381552
 20
1.847553117539604
 30
0.0
 10
2.041795668141621
 20
1.836717164746667
 30
0.0
 10
2.03849364603313
 20
1.826568603532944
 30
0.0
  0
SPLINE
  5
1A0
330
1F
100
AcDbEntity
  8
0
  6
Continuous
 62
     7
370
    15
100
AcDbSpline
210
0.0
220
0.0
230
1.0
 70
     8
 71
     3
 72
    12
 73
     8
 74
     0
 42
0.00000001
 43
0.00000001
 40
0.0
 40
0.0
 40
0.0
 40
0.0
 40
0.2500000000000053
 40
0.2500000000000053
 40
0.5000000000000042
 40
0.5000000000000042
 40
1.0
 40
1.0
 40
1.0
 40
1.0
 10
2.124810131929688
 20
1.722848550061929
 30
0.0
 10
2.13009998461719
 20
1.723550433900201
 30
0.0
 10
2.135369849056798
 20
1.723624696094916
 30
0.0
 10
2.145871022204942
 20
1.722558921609735
 30
0.0
 10
2.151138337371388
 20
1.721391042018743
 30
0.0
 10
2.166084284450601
 20
1.716185511853888
 30
0.0
 10
2.175276276793142
 20
1.710344447003169
 30
0.0
 10
2.18270783848947
 20
1.702636300096741
 30
0.0
  0
SPLINE
  5
1A1
330
1F
100
AcDbEntity
  8
0
  6
Continuous
 62
     7
370
    15
100
AcDbSpline
210
0.0
220
0.0
230
1.0
 70
     8
 71
     3
 72
     8
 73
     4
 74
     0
 42
0.00000001
 43
0.00000001
 40
0.0
 40
0.0
 40
0.0
 40
0.0
 40
1.0
 40
1.0
 40
1.0
 40
1.0
 10
2.066247220554613
 20
1.703976544231915
 30
0.0
 10
2.08461290146032
 20
1.713809746955498
 30
0.0
 10
2.10413195786005
 20
1.720104867573357
 30
0.0
 10
2.124810131929708
 20
1.72284855006178
 30
0.0
  0
SPLINE
  5
1A2
330
1F
100
AcDbEntity
  8
0
  6
Continuous
 62
     7
370
    15
100
AcDbSpline
210
0.0
220
0.0
230
1.0
 70
     8
 71
     3
 72
    10
 73
     6
 74
     0
 42
0.00000001
 43
0.00000001
 40
0.0
 40
0.0
 40
0.0
 40
0.0
 40
0.5
 40
0.5
 40
1.0
 40
1.0
 40
1.0
 40
1.0
 10
2.005414062326746
 20
1.692393997699787
 30
0.0
 10
2.015922459749572
 20
1.691177184806723
 30
0.0
 10
2.026337665054425
 20
1.691564666477905
 30
0.0
 10
2.04698482420415
 20
1.695484336742915
 30
0.0
 10
2.056942498223536
 20
1.698994685870854
 30
0.0
 10
2.066247220554851
 20
1.703976544231502
 30
0.0
  0
ARC
  5
1A3
330
1F
100
AcDbEntity
  8
0
  6
Continuous
 62
     7
370
    15
100
AcDbCircle
 10
3.3665890183
 20
2.8440414
 30
0.0
 40
1.783000000000073
100
AcDbArc
 50
219.3013715496
 51
220.2335121713
  0
SPLINE
  5
1A4
330
1F
100
AcDbEntity
  8
0
  6
Continuous
 62
     7
370
    15
100
AcDbSpline
210
0.0
220
0.0
230
1.0
 70
     8
 71
     3
 72
    10
 73
     6
 74
     0
 42
0.00000001
 43
0.00000001
 40
0.0
 40
0.0
 40
0.0
 40
0.0
 40
0.5
 40
0.5
 40
1.0
 40
1.0
 40
1.0
 40
1.0
 10
2.00929838044158
 20
1.772407698261857
 30
0.0
 10
2.002709378413333
 20
1.764162726534627
 30
0.0
 10
1.99751597384839
 20
1.755139951604455
 30
0.0
 10
1.989883625694351
 20
1.735559822988613
 30
0.0
 10
1.987571088682656
 20
1.72524474387302
 30
0.0
 10
1.986858958435853
 20
1.714690275725724
 30
0.0
  0
CIRCLE
  5
1A5
330
1F
100
AcDbEntity
  8
0
  6
Continuous
 62
     7
370
    15
100
AcDbCircle
 10
4.5228390183
 20
2.8440414
 30
0.0
 40
0.15625
  0
CIRCLE
  5
1A6
330
1F
100
AcDbEntity
  8
0
  6
Continuous
 62
     7
370
    15
100
AcDbCircle
 10
3.3665890183
 20
4.0002914
 30
0.0
 40
0.1562500000000004
  0
CIRCLE
  5
1A7
330
1F
100
AcDbEntity
  8
0
  6
Continuous
 62
     7
370
    15
100
AcDbCircle
 10
3.3665890183
 20
1.6877914
 30
0.0
 40
0.15625
  0
CIRCLE
  5
1A8
330
1F
100
AcDbEntity
  8
0
  6
Continuous
 62
     7
370
    15
100
AcDbCircle
 10
2.2103390183
 20
2.8440414
 30
0.0
 40
0.15625
  0
ARC
  5
1A9
330
1F
100
AcDbEntity
  8
0
  6
Continuous
 62
     7
370
     0
100
AcDbCircle
 10
3.3665890183
 20
2.8440414
 30
0.0
 40
1.644500000000105
100
AcDbArc
 50
140.2325602908
 51
148.6046553068
  0
ENDSEC
  0
SECTION
  2
OBJECTS
  0
DICTIONARY
  5
C
330
0
100
AcDbDictionary
281
     1
  3
ACAD_GROUP
350
D
  3
ACAD_LAYOUT
350
1A
  3
ACAD_MLINESTYLE
350
17
  3
ACAD_PLOTSETTINGS
350
19
  3
ACAD_PLOTSTYLENAME
350
E
  0
DICTIONARY
  5
D
102
{ACAD_REACTORS
330
C
102
}
330
C
100
AcDbDictionary
281
     1
  0
DICTIONARY
  5
1A
102
{ACAD_REACTORS
330
C
102
}
330
C
100
AcDbDictionary
281
     1
  3
Layout1
350
1E
  3
Layout2
350
26
  3
Model
350
22
  0
DICTIONARY
  5
17
102
{ACAD_REACTORS
330
C
102
}
330
C
100
AcDbDictionary
281
     1
  3
Standard
350
18
  0
DICTIONARY
  5
19
102
{ACAD_REACTORS
330
C
102
}
330
C
100
AcDbDictionary
281
     1
  0
ACDBDICTIONARYWDFLT
  5
E
102
{ACAD_REACTORS
330
C
102
}
330
C
100
AcDbDictionary
281
     1
  3
Normal
350
F
100
AcDbDictionaryWithDefault
340
F
  0
LAYOUT
  5
1E
102
{ACAD_REACTORS
330
1A
102
}
330
1A
100
AcDbPlotSettings
  1

  2
none_device
  4

  6

 40
0.0
 41
0.0
 42
0.0
 43
0.0
 44
0.0
 45
0.0
 46
0.0
 47
0.0
 48
0.0
 49
0.0
140
0.0
141
0.0
142
1.0
143
1.0
 70
   688
 72
     0
 73
     0
 74
     5
  7

 75
    16
147
1.0
148
0.0
149
0.0
100
AcDbLayout
  1
Layout1
 70
     1
 71
     1
 10
0.0
 20
0.0
 11
12.0
 21
9.0
 12
0.0
 22
0.0
 32
0.0
 14
1.0000000000E+20
 24
1.0000000000E+20
 34
1.0000000000E+20
 15
-1.0000000000E+20
 25
-1.0000000000E+20
 35
-1.0000000000E+20
146
0.0
 13
0.0
 23
0.0
 33
0.0
 16
1.0
 26
0.0
 36
0.0
 17
0.0
 27
1.0
 37
0.0
 76
     0
330
1B
  0
LAYOUT
  5
26
102
{ACAD_REACTORS
330
1A
102
}
330
1A
100
AcDbPlotSettings
  1

  2
none_device
  4

  6

 40
0.0
 41
0.0
 42
0.0
 43
0.0
 44
0.0
 45
0.0
 46
0.0
 47
0.0
 48
0.0
 49
0.0
140
0.0
141
0.0
142
1.0
143
1.0
 70
   688
 72
     0
 73
     0
 74
     5
  7

 75
    16
147
1.0
148
0.0
149
0.0
100
AcDbLayout
  1
Layout2
 70
     1
 71
     2
 10
0.0
 20
0.0
 11
0.0
 21
0.0
 12
0.0
 22
0.0
 32
0.0
 14
0.0
 24
0.0
 34
0.0
 15
0.0
 25
0.0
 35
0.0
146
0.0
 13
0.0
 23
0.0
 33
0.0
 16
1.0
 26
0.0
 36
0.0
 17
0.0
 27
1.0
 37
0.0
 76
     0
330
23
  0
LAYOUT
  5
22
102
{ACAD_REACTORS
330
1A
102
}
330
1A
100
AcDbPlotSettings
  1

  2
none_device
  4

  6

 40
0.0
 41
0.0
 42
0.0
 43
0.0
 44
0.0
 45
0.0
 46
0.0
 47
0.0
 48
0.0
 49
0.0
140
0.0
141
0.0
142
1.0
143
1.0
 70
  1712
 72
     0
 73
     0
 74
     0
  7

 75
     0
147
1.0
148
0.0
149
0.0
100
AcDbLayout
  1
Model
 70
     1
 71
     0
 10
0.0
 20
0.0
 11
6.0
 21
6.0
 12
0.0
 22
0.0
 32
0.0
 14
0.0
 24
0.0
 34
0.0
 15
6.0
 25
6.0
 35
0.0
146
0.0
 13
0.0
 23
0.0
 33
0.0
 16
1.0
 26
0.0
 36
0.0
 17
0.0
 27
1.0
 37
0.0
 76
     0
330
1F
331
29
  0
MLINESTYLE
  5
18
102
{ACAD_REACTORS
330
17
102
}
330
17
100
AcDbMlineStyle
  2
Standard
 70
     0
  3

 62
   256
 51
90.0
 52
90.0
 71
     2
 49
0.5
 62
   256
  6
BYLAYER
 49
-0.5
 62
   256
  6
BYLAYER
  0
ACDBPLACEHOLDER
  5
F
102
{ACAD_REACTORS
330
E
102
}
330
E
  0
ENDSEC
  0
EOF
