  0
SECTION
  2
HEADER
  9
$ACADVER
  1
AC1015
  9
$ACADMAINTVER
 70
     6
  9
$DWGCODEPAGE
  3
ANSI_1252
  9
$INSBASE
 10
0.0
 20
0.0
 30
0.0
  9
$EXTMIN
 10
0.0
 20
0.0
 30
0.0
  9
$EXTMAX
 10
12.0
 20
12.0
 30
0.0
  9
$LIMMIN
 10
0.0
 20
0.0
  9
$LIMMAX
 10
12.0
 20
12.0
  9
$ORTHOMODE
 70
     0
  9
$REGENMODE
 70
     1
  9
$FILLMODE
 70
     1
  9
$QTEXTMODE
 70
     0
  9
$MIRRTEXT
 70
     1
  9
$LTSCALE
 40
1.0
  9
$ATTMODE
 70
     1
  9
$TEXTSIZE
 40
0.125
  9
$TRACEWID
 40
0.05
  9
$TEXTSTYLE
  7
Standard
  9
$CLAYER
  8
0
  9
$CELTYPE
  6
ByLayer
  9
$CECOLOR
 62
   256
  9
$CELTSCALE
 40
1.0
  9
$DISPSILH
 70
     0
  9
$DIMSCALE
 40
1.0
  9
$DIMASZ
 40
0.13
  9
$DIMEXO
 40
0.05
  9
$DIMDLI
 40
0.38
  9
$DIMRND
 40
0.0
  9
$DIMDLE
 40
0.0
  9
$DIMEXE
 40
0.125
  9
$DIMTP
 40
0.0
  9
$DIMTM
 40
0.0
  9
$DIMTXT
 40
0.125
  9
$DIMCEN
 40
0.09
  9
$DIMTSZ
 40
0.0
  9
$DIMTOL
 70
     0
  9
$DIMLIM
 70
     0
  9
$DIMTIH
 70
     1
  9
$DIMTOH
 70
     1
  9
$DIMSE1
 70
     0
  9
$DIMSE2
 70
     0
  9
$DIMTAD
 70
     0
  9
$DIMZIN
 70
     0
  9
$DIMBLK
  1

  9
$DIMASO
 70
     1
  9
$DIMSHO
 70
     1
  9
$DIMPOST
  1

  9
$DIMAPOST
  1

  9
$DIMALT
 70
     0
  9
$DIMALTD
 70
     2
  9
$DIMALTF
 40
25.4
  9
$DIMLFAC
 40
1.0
  9
$DIMTOFL
 70
     0
  9
$DIMTVP
 40
0.0
  9
$DIMTIX
 70
     0
  9
$DIMSOXD
 70
     0
  9
$DIMSAH
 70
     0
  9
$DIMBLK1
  1

  9
$DIMBLK2
  1

  9
$DIMSTYLE
  2
Standard
  9
$DIMCLRD
 70
     0
  9
$DIMCLRE
 70
     0
  9
$DIMCLRT
 70
     0
  9
$DIMTFAC
 40
1.0
  9
$DIMGAP
 40
0.06
  9
$DIMJUST
 70
     0
  9
$DIMSD1
 70
     0
  9
$DIMSD2
 70
     0
  9
$DIMTOLJ
 70
     1
  9
$DIMTZIN
 70
     0
  9
$DIMALTZ
 70
     0
  9
$DIMALTTZ
 70
     0
  9
$DIMUPT
 70
     0
  9
$DIMDEC
 70
     3
  9
$DIMTDEC
 70
     3
  9
$DIMALTU
 70
     2
  9
$DIMALTTD
 70
     2
  9
$DIMTXSTY
  7
Standard
  9
$DIMAUNIT
 70
     0
  9
$DIMADEC
 70
     2
  9
$DIMALTRND
 40
0.0
  9
$DIMAZIN
 70
     0
  9
$DIMDSEP
 70
    46
  9
$DIMATFIT
 70
     3
  9
$DIMFRAC
 70
     0
  9
$DIMLDRBLK
  1

  9
$DIMLUNIT
 70
     2
  9
$DIMLWD
 70
    -2
  9
$DIMLWE
 70
    -2
  9
$DIMTMOVE
 70
     0
  9
$LUNITS
 70
     2
  9
$LUPREC
 70
     2
  9
$SKETCHINC
 40
0.1
  9
$FILLETRAD
 40
0.5
  9
$AUNITS
 70
     0
  9
$AUPREC
 70
     2
  9
$MENU
  1
.
  9
$ELEVATION
 40
0.0
  9
$PELEVATION
 40
0.0
  9
$THICKNESS
 40
0.0
  9
$LIMCHECK
 70
     0
  9
$CHAMFERA
 40
0.5
  9
$CHAMFERB
 40
0.5
  9
$CHAMFERC
 40
1.0
  9
$CHAMFERD
 40
0.0
  9
$SKPOLY
 70
     0
  9
$TDCREATE
 40
2455989.484952118
  9
$TDUCREATE
 40
2455989.693285451
  9
$TDUPDATE
 40
2455989.484952129
  9
$TDUUPDATE
 40
2455989.693285463
  9
$TDINDWG
 40
0.0000000116
  9
$TDUSRTIMER
 40
0.0000000116
  9
$USRTIMER
 70
     1
  9
$ANGBASE
 50
0.0
  9
$ANGDIR
 70
     0
  9
$PDMODE
 70
     0
  9
$PDSIZE
 40
-1.0
  9
$PLINEWID
 40
0.0
  9
$SPLFRAME
 70
     0
  9
$SPLINETYPE
 70
     6
  9
$SPLINESEGS
 70
     8
  9
$HANDSEED
  5
1A2
  9
$SURFTAB1
 70
     6
  9
$SURFTAB2
 70
     6
  9
$SURFTYPE
 70
     6
  9
$SURFU
 70
     6
  9
$SURFV
 70
     6
  9
$UCSBASE
  2

  9
$UCSNAME
  2

  9
$UCSORG
 10
0.0
 20
0.0
 30
0.0
  9
$UCSXDIR
 10
1.0
 20
0.0
 30
0.0
  9
$UCSYDIR
 10
0.0
 20
1.0
 30
0.0
  9
$UCSORTHOREF
  2

  9
$UCSORTHOVIEW
 70
     0
  9
$UCSORGTOP
 10
0.0
 20
0.0
 30
0.0
  9
$UCSORGBOTTOM
 10
0.0
 20
0.0
 30
0.0
  9
$UCSORGLEFT
 10
0.0
 20
0.0
 30
0.0
  9
$UCSORGRIGHT
 10
0.0
 20
0.0
 30
0.0
  9
$UCSORGFRONT
 10
0.0
 20
0.0
 30
0.0
  9
$UCSORGBACK
 10
0.0
 20
0.0
 30
0.0
  9
$PUCSBASE
  2

  9
$PUCSNAME
  2

  9
$PUCSORG
 10
0.0
 20
0.0
 30
0.0
  9
$PUCSXDIR
 10
1.0
 20
0.0
 30
0.0
  9
$PUCSYDIR
 10
0.0
 20
1.0
 30
0.0
  9
$PUCSORTHOREF
  2

  9
$PUCSORTHOVIEW
 70
     0
  9
$PUCSORGTOP
 10
0.0
 20
0.0
 30
0.0
  9
$PUCSORGBOTTOM
 10
0.0
 20
0.0
 30
0.0
  9
$PUCSORGLEFT
 10
0.0
 20
0.0
 30
0.0
  9
$PUCSORGRIGHT
 10
0.0
 20
0.0
 30
0.0
  9
$PUCSORGFRONT
 10
0.0
 20
0.0
 30
0.0
  9
$PUCSORGBACK
 10
0.0
 20
0.0
 30
0.0
  9
$USERI1
 70
     0
  9
$USERI2
 70
     0
  9
$USERI3
 70
     0
  9
$USERI4
 70
     0
  9
$USERI5
 70
     0
  9
$USERR1
 40
0.0
  9
$USERR2
 40
0.0
  9
$USERR3
 40
0.0
  9
$USERR4
 40
0.0
  9
$USERR5
 40
0.0
  9
$WORLDVIEW
 70
     1
  9
$SHADEDGE
 70
     3
  9
$SHADEDIF
 70
    70
  9
$TILEMODE
 70
     1
  9
$MAXACTVP
 70
    64
  9
$PINSBASE
 10
0.0
 20
0.0
 30
0.0
  9
$PLIMCHECK
 70
     0
  9
$PEXTMIN
 10
1.0000000000E+20
 20
1.0000000000E+20
 30
1.0000000000E+20
  9
$PEXTMAX
 10
-1.0000000000E+20
 20
-1.0000000000E+20
 30
-1.0000000000E+20
  9
$PLIMMIN
 10
0.0
 20
0.0
  9
$PLIMMAX
 10
12.0
 20
9.0
  9
$UNITMODE
 70
     0
  9
$VISRETAIN
 70
     1
  9
$PLINEGEN
 70
     0
  9
$PSLTSCALE
 70
     1
  9
$TREEDEPTH
 70
  3020
  9
$CMLSTYLE
  2
Standard
  9
$CMLJUST
 70
     0
  9
$CMLSCALE
 40
1.0
  9
$PROXYGRAPHICS
 70
     1
  9
$MEASUREMENT
 70
     0
  9
$CELWEIGHT
370
    -1
  9
$ENDCAPS
280
     0
  9
$JOINSTYLE
280
     0
  9
$LWDISPLAY
290
     1
  9
$INSUNITS
 70
     1
  9
$HYPERLINKBASE
  1

  9
$STYLESHEET
  1

  9
$XEDIT
290
     1
  9
$CEPSNTYPE
380
     0
  9
$PSTYLEMODE
290
     1
  9
$FINGERPRINTGUID
  2
{78402D9C-FE6F-4EBC-A64C-322686F0F1D5}
  9
$VERSIONGUID
  2
{FAEB1C32-E019-11D5-929B-00C0DF256EC4}
  9
$EXTNAMES
290
     1
  9
$PSVPSCALE
 40
0.0
  9
$OLESTARTUP
290
     0
  0
ENDSEC
  0
SECTION
  2
CLASSES
  0
CLASS
  1
ACDBDICTIONARYWDFLT
  2
AcDbDictionaryWithDefault
  3
ObjectDBX Classes
 90
        0
280
     0
281
     0
  0
CLASS
  1
VISUALSTYLE
  2
AcDbVisualStyle
  3
ObjectDBX Classes
 90
     4095
280
     0
281
     0
  0
CLASS
  1
MATERIAL
  2
AcDbMaterial
  3
ObjectDBX Classes
 90
     1153
280
     0
281
     0
  0
CLASS
  1
ACDBPLACEHOLDER
  2
AcDbPlaceHolder
  3
ObjectDBX Classes
 90
        0
280
     0
281
     0
  0
CLASS
  1
LAYOUT
  2
AcDbLayout
  3
ObjectDBX Classes
 90
        0
280
     0
281
     0
  0
ENDSEC
  0
SECTION
  2
TABLES
  0
TABLE
  2
VPORT
  5
8
330
0
100
AcDbSymbolTable
 70
     1
  0
VPORT
  5
29
330
8
100
AcDbSymbolTableRecord
100
AcDbViewportTableRecord
  2
*Active
 70
     0
 10
0.0
 20
0.0
 11
1.0
 21
1.0
 12
6.0
 22
6.0
 13
0.0
 23
0.0
 14
0.5
 24
0.5
 15
0.5
 25
0.5
 16
0.0
 26
0.0
 36
1.0
 17
0.0
 27
0.0
 37
0.0
 40
12.0
 41
1.0
 42
50.0
 43
0.0
 44
0.0
 50
0.0
 51
0.0
 71
     0
 72
  2000
 73
     1
 74
     3
 75
     0
 76
     0
 77
     0
 78
     0
281
     0
 65
     1
110
0.0
120
0.0
130
0.0
111
1.0
121
0.0
131
0.0
112
0.0
122
1.0
132
0.0
 79
     0
146
0.0
  0
ENDTAB
  0
TABLE
  2
LTYPE
  5
5
330
0
100
AcDbSymbolTable
 70
     6
  0
LTYPE
  5
14
330
5
100
AcDbSymbolTableRecord
100
AcDbLinetypeTableRecord
  2
ByBlock
 70
     0
  3

 72
    65
 73
     0
 40
0.0
  0
LTYPE
  5
15
330
5
100
AcDbSymbolTableRecord
100
AcDbLinetypeTableRecord
  2
ByLayer
 70
     0
  3

 72
    65
 73
     0
 40
0.0
  0
LTYPE
  5
16
330
5
100
AcDbSymbolTableRecord
100
AcDbLinetypeTableRecord
  2
Continuous
 70
     0
  3
Solid line
 72
    65
 73
     0
 40
0.0
  0
LTYPE
  5
3F
330
5
100
AcDbSymbolTableRecord
100
AcDbLinetypeTableRecord
  2
HIDDEN
 70
     0
  3
Hidden __ __ __ __ __ __ __ __ __ __ __ __ __ __
 72
    65
 73
     2
 40
0.075
 49
0.05
 74
     0
 49
-0.025
 74
     0
  0
LTYPE
  5
40
330
5
100
AcDbSymbolTableRecord
100
AcDbLinetypeTableRecord
  2
PHANTOM
 70
     0
  3
Phantom ______  __  __  ______  __  __  ______
 72
    65
 73
     6
 40
0.5
 49
0.25
 74
     0
 49
-0.05
 74
     0
 49
0.05
 74
     0
 49
-0.05
 74
     0
 49
0.05
 74
     0
 49
-0.05
 74
     0
  0
LTYPE
  5
41
330
5
100
AcDbSymbolTableRecord
100
AcDbLinetypeTableRecord
  2
CENTER
 70
     0
  3
Center ____ _ ____ _ ____ _ ____ _ ____ _ ____
 72
    65
 73
     4
 40
0.4
 49
0.25
 74
     0
 49
-0.05
 74
     0
 49
0.05
 74
     0
 49
-0.05
 74
     0
  0
LTYPE
  5
42
330
5
100
AcDbSymbolTableRecord
100
AcDbLinetypeTableRecord
  2
CENTERX2
 70
     0
  3
Center (2x) ________  __  ________  __  _____
 72
    65
 73
     4
 40
0.8
 49
0.5
 74
     0
 49
-0.1
 74
     0
 49
0.1
 74
     0
 49
-0.1
 74
     0
  0
LTYPE
  5
43
330
5
100
AcDbSymbolTableRecord
100
AcDbLinetypeTableRecord
  2
DOT2
 70
     0
  3
Dot (.5x) ........................................
 72
    65
 73
     2
 40
0.025
 49
0.0
 74
     0
 49
-0.025
 74
     0
  0
ENDTAB
  0
TABLE
  2
LAYER
  5
2
330
0
100
AcDbSymbolTable
 70
     1
  0
LAYER
  5
10
330
2
100
AcDbSymbolTableRecord
100
AcDbLayerTableRecord
  2
0
 70
     0
 62
     7
  6
Continuous
370
    -3
390
F
  0
ENDTAB
  0
TABLE
  2
STYLE
  5
3
330
0
100
AcDbSymbolTable
 70
     1
  0
STYLE
  5
11
330
3
100
AcDbSymbolTableRecord
100
AcDbTextStyleTableRecord
  2
Standard
 70
     0
 40
0.0
 41
1.0
 50
0.0
 71
     0
 42
0.2
  3
txt
  4

  0
ENDTAB
  0
TABLE
  2
VIEW
  5
6
330
0
100
AcDbSymbolTable
 70
     0
  0
ENDTAB
  0
TABLE
  2
UCS
  5
7
330
0
100
AcDbSymbolTable
 70
     0
  0
ENDTAB
  0
TABLE
  2
APPID
  5
9
330
0
100
AcDbSymbolTable
 70
     1
  0
APPID
  5
12
330
9
100
AcDbSymbolTableRecord
100
AcDbRegAppTableRecord
  2
ACAD
 70
     0
  0
ENDTAB
  0
TABLE
  2
DIMSTYLE
  5
A
330
0
100
AcDbSymbolTable
 70
     1
100
AcDbDimStyleTable
  0
DIMSTYLE
105
27
330
A
100
AcDbSymbolTableRecord
100
AcDbDimStyleTableRecord
  2
Standard
 70
     0
178
     0
340
11
  0
ENDTAB
  0
TABLE
  2
BLOCK_RECORD
  5
1
330
0
100
AcDbSymbolTable
 70
     1
  0
BLOCK_RECORD
  5
1F
330
1
100
AcDbSymbolTableRecord
100
AcDbBlockTableRecord
  2
*Model_Space
340
22
  0
BLOCK_RECORD
  5
1B
330
1
100
AcDbSymbolTableRecord
100
AcDbBlockTableRecord
  2
*Paper_Space
340
1E
  0
BLOCK_RECORD
  5
23
330
1
100
AcDbSymbolTableRecord
100
AcDbBlockTableRecord
  2
*Paper_Space0
340
26
  0
ENDTAB
  0
ENDSEC
  0
SECTION
  2
BLOCKS
  0
BLOCK
  5
20
330
1F
100
AcDbEntity
  8
0
100
AcDbBlockBegin
  2
*Model_Space
 70
     0
 10
0.0
 20
0.0
 30
0.0
  3
*Model_Space
  1

  0
ENDBLK
  5
21
330
1F
100
AcDbEntity
  8
0
100
AcDbBlockEnd
  0
BLOCK
  5
1C
330
1B
100
AcDbEntity
 67
     1
  8
0
100
AcDbBlockBegin
  2
*Paper_Space
 70
     0
 10
0.0
 20
0.0
 30
0.0
  3
*Paper_Space
  1

  0
ENDBLK
  5
1D
330
1B
100
AcDbEntity
 67
     1
  8
0
100
AcDbBlockEnd
  0
BLOCK
  5
24
330
23
100
AcDbEntity
  8
0
100
AcDbBlockBegin
  2
*Paper_Space0
 70
     0
 10
0.0
 20
0.0
 30
0.0
  3
*Paper_Space0
  1

  0
ENDBLK
  5
25
330
23
100
AcDbEntity
  8
0
100
AcDbBlockEnd
  0
ENDSEC
  0
SECTION
  2
ENTITIES
  0
ARC
  5
44
330
1F
100
AcDbEntity
  8
0
  6
Continuous
 62
     7
370
    15
100
AcDbCircle
 10
2.3467916351
 20
8.9336505521
 30
0.0
 40
0.1850000000000003
100
AcDbArc
 50
267.5059201651
 51
314.9896670661
  0
ARC
  5
45
330
1F
100
AcDbEntity
  8
0
  6
Continuous
 62
     7
370
    15
100
AcDbCircle
 10
2.523566102
 20
8.7568716362
 30
0.0
 40
0.1850000000000004
100
AcDbArc
 50
135.0093586211
 51
182.4926378521
  0
ARC
  5
46
330
1F
100
AcDbEntity
  8
0
  6
Continuous
 62
     7
370
    15
100
AcDbCircle
 10
2.3467680414
 20
8.9336269626
 30
0.0
 40
0.0650000000000001
100
AcDbArc
 50
315.0
 51
104.9768359395
  0
ARC
  5
47
330
1F
100
AcDbEntity
  8
0
  6
Continuous
 62
     7
370
    15
100
AcDbCircle
 10
2.2821676112
 20
9.1751363504
 30
0.0
 40
0.1850000000000002
100
AcDbArc
 50
237.4853953377
 51
284.974688751
  0
ARC
  5
48
330
1F
100
AcDbEntity
  8
0
  6
Continuous
 62
     7
370
    15
100
AcDbCircle
 10
2.2820723574
 20
9.1751108451
 30
0.0
 40
0.0649999999999998
100
AcDbArc
 50
284.9768359395
 51
75.0231640605
  0
CIRCLE
  5
49
330
1F
100
AcDbEntity
  8
0
  6
Continuous
 62
     7
370
    15
100
AcDbCircle
 10
2.7650125017
 20
9.1750714229
 30
0.0
 40
0.0787401574803148
  0
ARC
  5
4A
330
1F
100
AcDbEntity
  8
0
  6
Continuous
 62
     7
370
    15
100
AcDbCircle
 10
3.2479129319
 20
9.1750620351
 30
0.0
 40
0.1850000000000029
100
AcDbArc
 50
57.4853953377
 51
104.974688751
  0
ARC
  5
4B
330
1F
100
AcDbEntity
  8
0
  6
Continuous
 62
     7
370
    15
100
AcDbCircle
 10
3.1832977184
 20
9.4165674597
 30
0.0
 40
0.1850000000000009
100
AcDbArc
 50
285.0099689563
 51
332.4721141803
  0
ARC
  5
4C
330
1F
100
AcDbEntity
  8
0
  6
Continuous
 62
     7
370
    15
100
AcDbCircle
 10
3.2480400263
 20
9.1750960669
 30
0.0
 40
0.0650000000000006
100
AcDbArc
 50
105.0058914686
 51
254.9728397473
  0
ARC
  5
4D
330
1F
100
AcDbEntity
  8
0
  6
Continuous
 62
     7
370
    15
100
AcDbCircle
 10
3.1832315043
 20
8.933642437
 30
0.0
 40
0.1850000000000012
100
AcDbArc
 50
27.498609058
 51
74.9762718314
  0
ARC
  5
4E
330
1F
100
AcDbEntity
  8
0
  6
Continuous
 62
     7
370
    15
100
AcDbCircle
 10
3.2479701016
 20
9.175114806
 30
0.0
 40
0.1849999999999998
100
AcDbArc
 50
254.9995100386
 51
302.485331997
  0
ARC
  5
4F
330
1F
100
AcDbEntity
  8
0
  6
Continuous
 62
     7
370
    15
100
AcDbCircle
 10
3.183289197
 20
8.9336269626
 30
0.0
 40
0.0650000000000004
100
AcDbArc
 50
75.0231640605
 51
225.0
  0
ARC
  5
50
330
1F
100
AcDbEntity
  8
0
  6
Continuous
 62
     7
370
    15
100
AcDbCircle
 10
3.0064889122
 20
8.7568738611
 30
0.0
 40
0.1850000000000013
100
AcDbArc
 50
357.5059201651
 51
44.9896670661
  0
ARC
  5
51
330
1F
100
AcDbEntity
  8
0
  6
Continuous
 62
     7
370
    15
100
AcDbCircle
 10
3.1832678281
 20
8.933648328
 30
0.0
 40
0.1850000000000001
100
AcDbArc
 50
225.0093586211
 51
272.4926378521
  0
ARC
  5
52
330
1F
100
AcDbEntity
  8
0
  6
Continuous
 62
     7
370
    15
100
AcDbCircle
 10
3.0065125017
 20
8.7568502673
 30
0.0
 40
0.0650000000000001
100
AcDbArc
 50
45.0
 51
194.9768359395
  0
ARC
  5
53
330
1F
100
AcDbEntity
  8
0
  6
Continuous
 62
     7
370
    15
100
AcDbCircle
 10
2.7650031139
 20
8.6922498371
 30
0.0
 40
0.1850000000000021
100
AcDbArc
 50
327.4853953377
 51
14.974688751
  0
ARC
  5
54
330
1F
100
AcDbEntity
  8
0
  6
Continuous
 62
     7
370
    15
100
AcDbCircle
 10
3.0065085384
 20
8.7568650507
 30
0.0
 40
0.1850000000000006
100
AcDbArc
 50
195.0099689563
 51
242.4721141803
  0
ARC
  5
55
330
1F
100
AcDbEntity
  8
0
  6
Continuous
 62
     7
370
    15
100
AcDbCircle
 10
2.7650286192
 20
8.6921545833
 30
0.0
 40
0.0650000000000009
100
AcDbArc
 50
14.9768359395
 51
165.0231640605
  0
ARC
  5
56
330
1F
100
AcDbEntity
  8
0
  6
Continuous
 62
     7
370
    15
100
AcDbCircle
 10
2.523560211
 20
8.75690796
 30
0.0
 40
0.1849999999999994
100
AcDbArc
 50
297.498609058
 51
344.9762718314
  0
ARC
  5
57
330
1F
100
AcDbEntity
  8
0
  6
Continuous
 62
     7
370
    15
100
AcDbCircle
 10
2.7650325801
 20
8.6921693627
 30
0.0
 40
0.1850000000000001
100
AcDbArc
 50
164.9995100386
 51
212.485331997
  0
ARC
  5
58
330
1F
100
AcDbEntity
  8
0
  6
Continuous
 62
     7
370
    15
100
AcDbCircle
 10
2.5235447367
 20
8.7568502673
 30
0.0
 40
0.0650000000000004
100
AcDbArc
 50
345.0231640605
 51
135.0
  0
ARC
  5
59
330
1F
100
AcDbEntity
  8
0
  6
Continuous
 62
     7
370
    15
100
AcDbCircle
 10
2.5235447367
 20
9.5933714229
 30
0.0
 40
0.0650000000000001
100
AcDbArc
 50
225.0
 51
14.9768359395
  0
ARC
  5
5A
330
1F
100
AcDbEntity
  8
0
  6
Continuous
 62
     7
370
    15
100
AcDbCircle
 10
2.7650541245
 20
9.6579718531
 30
0.0
 40
0.1850000000000003
100
AcDbArc
 50
147.4853953377
 51
194.974688751
  0
ARC
  5
5B
330
1F
100
AcDbEntity
  8
0
  6
Continuous
 62
     7
370
    15
100
AcDbCircle
 10
2.5235487
 20
9.5933566396
 30
0.0
 40
0.1850000000000009
100
AcDbArc
 50
15.0099689563
 51
62.4721141803
  0
ARC
  5
5C
330
1F
100
AcDbEntity
  8
0
  6
Continuous
 62
     7
370
    15
100
AcDbCircle
 10
2.7650286192
 20
9.658067107
 30
0.0
 40
0.0650000000000005
100
AcDbArc
 50
194.9768359395
 51
345.0231640605
  0
ARC
  5
5D
330
1F
100
AcDbEntity
  8
0
  6
Continuous
 62
     7
370
    15
100
AcDbCircle
 10
2.3467828247
 20
8.9336309259
 30
0.0
 40
0.185
100
AcDbArc
 50
105.0099689563
 51
152.4721141803
  0
ARC
  5
5E
330
1F
100
AcDbEntity
  8
0
  6
Continuous
 62
     7
370
    15
100
AcDbCircle
 10
2.7650246583
 20
9.6580523276
 30
0.0
 40
0.1850000000000001
100
AcDbArc
 50
344.9995100386
 51
32.485331997
  0
ARC
  5
5F
330
1F
100
AcDbEntity
  8
0
  6
Continuous
 62
     7
370
    15
100
AcDbCircle
 10
2.3468257341
 20
9.4165792533
 30
0.0
 40
0.1850000000000013
100
AcDbArc
 50
207.498609058
 51
254.9762718314
  0
ARC
  5
60
330
1F
100
AcDbEntity
  8
0
  6
Continuous
 62
     7
370
    15
100
AcDbCircle
 10
2.2820871367
 20
9.1751068842
 30
0.0
 40
0.1850000000000002
100
AcDbArc
 50
74.9995100386
 51
122.485331997
  0
ARC
  5
61
330
1F
100
AcDbEntity
  8
0
  6
Continuous
 62
     7
370
    15
100
AcDbCircle
 10
2.3467680414
 20
9.4165947276
 30
0.0
 40
0.0649999999999998
100
AcDbArc
 50
255.0231640605
 51
45.0
  0
ARC
  5
62
330
1F
100
AcDbEntity
  8
0
  6
Continuous
 62
     7
370
    15
100
AcDbCircle
 10
2.5235683262
 20
9.5933478292
 30
0.0
 40
0.185000000000001
100
AcDbArc
 50
177.5059201651
 51
224.9896670661
  0
ARC
  5
63
330
1F
100
AcDbEntity
  8
0
  6
Continuous
 62
     7
370
    15
100
AcDbCircle
 10
2.3467894102
 20
9.4165733623
 30
0.0
 40
0.1850000000000001
100
AcDbArc
 50
45.0093586211
 51
92.492637852
  0
ARC
  5
64
330
1F
100
AcDbEntity
  8
0
  6
Continuous
 62
     7
370
    15
100
AcDbCircle
 10
3.0065125017
 20
9.5933714229
 30
0.0
 40
0.0650000000000004
100
AcDbArc
 50
165.0231640605
 51
315.0
  0
ARC
  5
65
330
1F
100
AcDbEntity
  8
0
  6
Continuous
 62
     7
370
    15
100
AcDbCircle
 10
3.1832442385
 20
9.4165497845
 30
0.0
 40
0.1850000000000002
100
AcDbArc
 50
87.492072521
 51
134.9803119119
  0
ARC
  5
66
330
1F
100
AcDbEntity
  8
0
  6
Continuous
 62
     7
370
    15
100
AcDbCircle
 10
3.0065125017
 20
9.5933714229
 30
0.0
 40
0.185
100
AcDbArc
 50
315.0
 51
2.4787891086
  0
ARC
  5
67
330
1F
100
AcDbEntity
  8
0
  6
Continuous
 62
     7
370
    15
100
AcDbCircle
 10
3.0064970274
 20
9.5933137302
 30
0.0
 40
0.1850000000000027
100
AcDbArc
 50
117.498609058
 51
164.9762718314
  0
ARC
  5
68
330
1F
100
AcDbEntity
  8
0
  6
Continuous
 62
     7
370
    15
100
AcDbCircle
 10
3.1832487739
 20
9.4165543401
 30
0.0
 40
0.0650000000000001
100
AcDbArc
 50
134.9496310469
 51
285.0349935259
  0
CIRCLE
  5
69
330
1F
100
AcDbEntity
  8
0
  6
Continuous
 62
     7
370
    15
100
AcDbCircle
 10
6.5922796615
 20
9.1587638083
 30
0.0
 40
0.0787401574803148
  0
ARC
  5
6A
330
1F
100
AcDbEntity
  8
0
  6
Continuous
 62
     7
370
    15
100
AcDbCircle
 10
7.0751800917
 20
9.1587544204
 30
0.0
 40
0.1850000000000019
100
AcDbArc
 50
57.4853953377
 51
104.974688751
  0
ARC
  5
6B
330
1F
100
AcDbEntity
  8
0
  6
Continuous
 62
     7
370
    15
100
AcDbCircle
 10
7.0105648781
 20
9.400259845
 30
0.0
 40
0.1849999999999996
100
AcDbArc
 50
285.0099689563
 51
332.4721141803
  0
ARC
  5
6C
330
1F
100
AcDbEntity
  8
0
  6
Continuous
 62
     7
370
    15
100
AcDbCircle
 10
7.0753071861
 20
9.1587884523
 30
0.0
 40
0.0650000000000018
100
AcDbArc
 50
105.0058914686
 51
254.9728397473
  0
ARC
  5
6D
330
1F
100
AcDbEntity
  8
0
  6
Continuous
 62
     7
370
    15
100
AcDbCircle
 10
7.0104986641
 20
8.9173348223
 30
0.0
 40
0.1850000000000012
100
AcDbArc
 50
27.498609058
 51
74.9762718314
  0
ARC
  5
6E
330
1F
100
AcDbEntity
  8
0
  6
Continuous
 62
     7
370
    15
100
AcDbCircle
 10
7.0752372614
 20
9.1588071914
 30
0.0
 40
0.1850000000000016
100
AcDbArc
 50
254.9995100386
 51
302.485331997
  0
ARC
  5
6F
330
1F
100
AcDbEntity
  8
0
  6
Continuous
 62
     7
370
    15
100
AcDbCircle
 10
7.0105563568
 20
8.9173193479
 30
0.0
 40
0.0649999999999995
100
AcDbArc
 50
75.0231640605
 51
225.0
  0
ARC
  5
70
330
1F
100
AcDbEntity
  8
0
  6
Continuous
 62
     7
370
    15
100
AcDbCircle
 10
6.833756072
 20
8.7405662464
 30
0.0
 40
0.1850000000000032
100
AcDbArc
 50
357.5059201651
 51
44.9896670661
  0
ARC
  5
71
330
1F
100
AcDbEntity
  8
0
  6
Continuous
 62
     7
370
    15
100
AcDbCircle
 10
7.0105349879
 20
8.9173407133
 30
0.0
 40
0.1850000000000012
100
AcDbArc
 50
225.0093586211
 51
272.4926378521
  0
ARC
  5
72
330
1F
100
AcDbEntity
  8
0
  6
Continuous
 62
     7
370
    15
100
AcDbCircle
 10
6.8337796615
 20
8.7405426526
 30
0.0
 40
0.0650000000000001
100
AcDbArc
 50
45.0
 51
194.9768359395
  0
ARC
  5
73
330
1F
100
AcDbEntity
  8
0
  6
Continuous
 62
     7
370
    15
100
AcDbCircle
 10
6.5922702737
 20
8.6759422225
 30
0.0
 40
0.1850000000000014
100
AcDbArc
 50
327.4853953377
 51
14.974688751
  0
ARC
  5
74
330
1F
100
AcDbEntity
  8
0
  6
Continuous
 62
     7
370
    15
100
AcDbCircle
 10
6.8337756982
 20
8.740557436
 30
0.0
 40
0.1850000000000013
100
AcDbArc
 50
195.0099689563
 51
242.4721141803
  0
ARC
  5
75
330
1F
100
AcDbEntity
  8
0
  6
Continuous
 62
     7
370
    15
100
AcDbCircle
 10
6.592295779
 20
8.6758469686
 30
0.0
 40
0.0649999999999992
100
AcDbArc
 50
14.9768359395
 51
165.0231640605
  0
ARC
  5
76
330
1F
100
AcDbEntity
  8
0
  6
Continuous
 62
     7
370
    15
100
AcDbCircle
 10
6.3508273708
 20
8.7406003454
 30
0.0
 40
0.1850000000000007
100
AcDbArc
 50
297.498609058
 51
344.9762718314
  0
ARC
  5
77
330
1F
100
AcDbEntity
  8
0
  6
Continuous
 62
     7
370
    15
100
AcDbCircle
 10
6.5922997399
 20
8.675861748
 30
0.0
 40
0.1849999999999999
100
AcDbArc
 50
164.9995100386
 51
212.485331997
  0
ARC
  5
78
330
1F
100
AcDbEntity
  8
0
  6
Continuous
 62
     7
370
    15
100
AcDbCircle
 10
6.3508118965
 20
8.7405426526
 30
0.0
 40
0.0650000000000001
100
AcDbArc
 50
345.0231640605
 51
135.0
  0
ARC
  5
79
330
1F
100
AcDbEntity
  8
0
  6
Continuous
 62
     7
370
    15
100
AcDbCircle
 10
6.1740587949
 20
8.9173429374
 30
0.0
 40
0.1850000000000013
100
AcDbArc
 50
267.5059201651
 51
314.9896670661
  0
ARC
  5
7A
330
1F
100
AcDbEntity
  8
0
  6
Continuous
 62
     7
370
    15
100
AcDbCircle
 10
6.3508332618
 20
8.7405640215
 30
0.0
 40
0.1850000000000007
100
AcDbArc
 50
135.0093586211
 51
182.4926378521
  0
ARC
  5
7B
330
1F
100
AcDbEntity
  8
0
  6
Continuous
 62
     7
370
    15
100
AcDbCircle
 10
6.1740352012
 20
8.9173193479
 30
0.0
 40
0.0650000000000001
100
AcDbArc
 50
315.0
 51
104.9768359395
  0
ARC
  5
7C
330
1F
100
AcDbEntity
  8
0
  6
Continuous
 62
     7
370
    15
100
AcDbCircle
 10
6.109434771
 20
9.1588287357
 30
0.0
 40
0.1850000000000014
100
AcDbArc
 50
237.4853953377
 51
284.974688751
  0
ARC
  5
7D
330
1F
100
AcDbEntity
  8
0
  6
Continuous
 62
     7
370
    15
100
AcDbCircle
 10
6.1740499845
 20
8.9173233112
 30
0.0
 40
0.1850000000000011
100
AcDbArc
 50
105.0099689563
 51
152.4721141803
  0
ARC
  5
7E
330
1F
100
AcDbEntity
  8
0
  6
Continuous
 62
     7
370
    15
100
AcDbCircle
 10
6.1093395171
 20
9.1588032304
 30
0.0
 40
0.0649999999999996
100
AcDbArc
 50
284.9768359395
 51
75.0231640605
  0
ARC
  5
7F
330
1F
100
AcDbEntity
  8
0
  6
Continuous
 62
     7
370
    15
100
AcDbCircle
 10
6.1740928939
 20
9.4002716386
 30
0.0
 40
0.1849999999999996
100
AcDbArc
 50
207.498609058
 51
254.9762718314
  0
ARC
  5
80
330
1F
100
AcDbEntity
  8
0
  6
Continuous
 62
     7
370
    15
100
AcDbCircle
 10
6.1093542965
 20
9.1587992695
 30
0.0
 40
0.1850000000000007
100
AcDbArc
 50
74.9995100386
 51
122.485331997
  0
ARC
  5
81
330
1F
100
AcDbEntity
  8
0
  6
Continuous
 62
     7
370
    15
100
AcDbCircle
 10
6.1740352012
 20
9.400287113
 30
0.0
 40
0.0650000000000013
100
AcDbArc
 50
255.0231640605
 51
45.0
  0
ARC
  5
82
330
1F
100
AcDbEntity
  8
0
  6
Continuous
 62
     7
370
    15
100
AcDbCircle
 10
6.350835486
 20
9.5770402145
 30
0.0
 40
0.1850000000000013
100
AcDbArc
 50
177.5059201651
 51
224.9896670661
  0
ARC
  5
83
330
1F
100
AcDbEntity
  8
0
  6
Continuous
 62
     7
370
    15
100
AcDbCircle
 10
6.17405657
 20
9.4002657476
 30
0.0
 40
0.1850000000000001
100
AcDbArc
 50
45.0093586211
 51
92.492637852
  0
ARC
  5
84
330
1F
100
AcDbEntity
  8
0
  6
Continuous
 62
     7
370
    15
100
AcDbCircle
 10
6.3508118965
 20
9.5770638083
 30
0.0
 40
0.0650000000000001
100
AcDbArc
 50
225.0
 51
14.9768359395
  0
ARC
  5
85
330
1F
100
AcDbEntity
  8
0
  6
Continuous
 62
     7
370
    15
100
AcDbCircle
 10
6.5923212843
 20
9.6416642384
 30
0.0
 40
0.1850000000000004
100
AcDbArc
 50
147.4853953377
 51
194.974688751
  0
ARC
  5
86
330
1F
100
AcDbEntity
  8
0
  6
Continuous
 62
     7
370
    15
100
AcDbCircle
 10
6.3508158598
 20
9.5770490249
 30
0.0
 40
0.1850000000000008
100
AcDbArc
 50
15.0099689563
 51
62.4721141803
  0
ARC
  5
87
330
1F
100
AcDbEntity
  8
0
  6
Continuous
 62
     7
370
    15
100
AcDbCircle
 10
6.592295779
 20
9.6417594923
 30
0.0
 40
0.0649999999999996
100
AcDbArc
 50
194.9768359395
 51
345.0231640605
  0
ARC
  5
88
330
1F
100
AcDbEntity
  8
0
  6
Continuous
 62
     7
370
    15
100
AcDbCircle
 10
6.8337641872
 20
9.5770061155
 30
0.0
 40
0.1850000000000023
100
AcDbArc
 50
117.498609058
 51
164.9762718314
  0
ARC
  5
89
330
1F
100
AcDbEntity
  8
0
  6
Continuous
 62
     7
370
    15
100
AcDbCircle
 10
6.5922918181
 20
9.6417447129
 30
0.0
 40
0.1850000000000006
100
AcDbArc
 50
344.9995100386
 51
32.485331997
  0
ARC
  5
8A
330
1F
100
AcDbEntity
  8
0
  6
Continuous
 62
     7
370
    15
100
AcDbCircle
 10
6.8337796615
 20
9.5770638083
 30
0.0
 40
0.0650000000000001
100
AcDbArc
 50
165.0231640605
 51
315.0
  0
ARC
  5
8B
330
1F
100
AcDbEntity
  8
0
  6
Continuous
 62
     7
370
    15
100
AcDbCircle
 10
7.0105113983
 20
9.4002421699
 30
0.0
 40
0.1850000000000001
100
AcDbArc
 50
87.492072521
 51
134.9803119119
  0
ARC
  5
8C
330
1F
100
AcDbEntity
  8
0
  6
Continuous
 62
     7
370
    15
100
AcDbCircle
 10
6.8337796615
 20
9.5770638083
 30
0.0
 40
0.185
100
AcDbArc
 50
315.0
 51
2.4787891086
  0
ARC
  5
8D
330
1F
100
AcDbEntity
  8
0
  6
Continuous
 62
     7
370
    15
100
AcDbCircle
 10
7.0105159337
 20
9.4002467254
 30
0.0
 40
0.0650000000000006
100
AcDbArc
 50
134.9496310469
 51
285.0349935259
  0
ARC
  5
8E
330
1F
100
AcDbEntity
  8
0
  6
Continuous
 62
     7
370
    15
100
AcDbCircle
 10
2.952275052
 20
7.4729505825
 30
0.0
 40
0.1850000000000021
100
AcDbArc
 50
322.9473928937
 51
10.4699307637
  0
ARC
  5
8F
330
1F
100
AcDbEntity
  8
0
  6
Continuous
 62
     7
370
    15
100
AcDbCircle
 10
3.1981358012
 20
7.5182552183
 30
0.0
 40
0.1850000000000001
100
AcDbArc
 50
190.4534905341
 51
237.9340931493
  0
ARC
  5
90
330
1F
100
AcDbEntity
  8
0
  6
Continuous
 62
     7
370
    15
100
AcDbCircle
 10
2.9522870443
 20
7.4728857525
 30
0.0
 40
0.0649999999999998
100
AcDbArc
 50
10.4625770531
 51
182.0327931361
  0
ARC
  5
91
330
1F
100
AcDbEntity
  8
0
  6
Continuous
 62
     7
370
    15
100
AcDbCircle
 10
2.7024522604
 20
7.4637992803
 30
0.0
 40
0.1850000000000014
100
AcDbArc
 50
314.5824063221
 51
2.1005389985
  0
ARC
  5
92
330
1F
100
AcDbEntity
  8
0
  6
Continuous
 62
     7
370
    15
100
AcDbCircle
 10
2.9522881845
 20
7.4728545514
 30
0.0
 40
0.1850000000000001
100
AcDbArc
 50
182.0964892814
 51
229.5691327473
  0
ARC
  5
93
330
1F
100
AcDbEntity
  8
0
  6
Continuous
 62
     7
370
    15
100
AcDbCircle
 10
2.702452796
 20
7.4637846946
 30
0.0
 40
0.065
100
AcDbArc
 50
2.029663565
 51
173.7183131141
  0
ARC
  5
94
330
1F
100
AcDbEntity
  8
0
  6
Continuous
 62
     7
370
    15
100
AcDbCircle
 10
2.4539554642
 20
7.4911539481
 30
0.0
 40
0.1850000000000002
100
AcDbArc
 50
306.2204475894
 51
353.7136080915
  0
ARC
  5
95
330
1F
100
AcDbEntity
  8
0
  6
Continuous
 62
     7
370
    15
100
AcDbCircle
 10
2.7024523072
 20
7.4637802428
 30
0.0
 40
0.185
100
AcDbArc
 50
173.7336214605
 51
221.2071623955
  0
ARC
  5
96
330
1F
100
AcDbEntity
  8
0
  6
Continuous
 62
     7
370
    15
100
AcDbCircle
 10
2.4539479109
 20
7.4910852632
 30
0.0
 40
0.0650000000000002
100
AcDbArc
 50
353.7183131141
 51
165.2788937664
  0
ARC
  5
97
330
1F
100
AcDbEntity
  8
0
  6
Continuous
 62
     7
370
    15
100
AcDbCircle
 10
2.2120696845
 20
7.5542903605
 30
0.0
 40
0.1850000000000012
100
AcDbArc
 50
297.8716324107
 51
345.3824481715
  0
ARC
  5
98
330
1F
100
AcDbEntity
  8
0
  6
Continuous
 62
     7
370
    15
100
AcDbCircle
 10
2.4539583672
 20
7.491125297
 30
0.0
 40
0.1850000000000005
100
AcDbArc
 50
165.3685020294
 51
212.8583813647
  0
ARC
  5
99
330
1F
100
AcDbEntity
  8
0
  6
Continuous
 62
     7
370
    15
100
AcDbCircle
 10
2.2120915101
 20
7.5543739655
 30
0.0
 40
0.0650000000000001
100
AcDbArc
 50
345.2788937664
 51
156.9521569899
  0
ARC
  5
9A
330
1F
100
AcDbEntity
  8
0
  6
Continuous
 62
     7
370
    15
100
AcDbCircle
 10
1.9819937073
 20
7.6521236184
 30
0.0
 40
0.1850000000000014
100
AcDbArc
 50
289.4945608304
 51
336.9943077105
  0
ARC
  5
9B
330
1F
100
AcDbEntity
  8
0
  6
Continuous
 62
     7
370
    15
100
AcDbCircle
 10
2.2120992771
 20
7.5543924036
 30
0.0
 40
0.1850000000000004
100
AcDbArc
 50
157.0027716396
 51
204.4813068247
  0
ARC
  5
9C
330
1F
100
AcDbEntity
  8
0
  6
Continuous
 62
     7
370
    15
100
AcDbCircle
 10
1.9820115098
 20
7.6521655324
 30
0.0
 40
0.065000000000001
100
AcDbArc
 50
336.9055624752
 51
148.5662436465
  0
ARC
  5
9D
330
1F
100
AcDbEntity
  8
0
  6
Continuous
 62
     7
370
    15
100
AcDbCircle
 10
1.7686104023
 20
7.7823959313
 30
0.0
 40
0.1850000000000003
100
AcDbArc
 50
281.1090659819
 51
328.619842007
  0
ARC
  5
9E
330
1F
100
AcDbEntity
  8
0
  6
Continuous
 62
     7
370
    15
100
AcDbCircle
 10
1.9820035888
 20
7.6521526279
 30
0.0
 40
0.1850000000000009
100
AcDbArc
 50
148.633231763
 51
196.0958064903
  0
ARC
  5
9F
330
1F
100
AcDbEntity
  8
0
  6
Continuous
 62
     7
370
    15
100
AcDbCircle
 10
1.7685972943
 20
7.7823744368
 30
0.0
 40
0.0650000000000009
100
AcDbArc
 50
328.5369794414
 51
140.1944289077
  0
ARC
  5
A0
330
1F
100
AcDbEntity
  8
0
  6
Continuous
 62
     7
370
    15
100
AcDbCircle
 10
1.5763975074
 20
7.9422469612
 30
0.0
 40
0.1849999999999998
100
AcDbArc
 50
272.7565894395
 51
320.2643700182
  0
ARC
  5
A1
330
1F
100
AcDbEntity
  8
0
  6
Continuous
 62
     7
370
    15
100
AcDbCircle
 10
1.7686078077
 20
7.7823871091
 30
0.0
 40
0.185
100
AcDbArc
 50
140.2668761641
 51
187.7433285222
  0
ARC
  5
A2
330
1F
100
AcDbEntity
  8
0
  6
Continuous
 62
     7
370
    15
100
AcDbCircle
 10
1.5764110502
 20
7.942263251
 30
0.0
 40
0.0649999999999996
100
AcDbArc
 50
320.1831368741
 51
131.8097657075
  0
ARC
  5
A3
330
1F
100
AcDbEntity
  8
0
  6
Continuous
 62
     7
370
    15
100
AcDbCircle
 10
1.4096062351
 20
8.1284785598
 30
0.0
 40
0.1849999999999996
100
AcDbArc
 50
264.3564265483
 51
311.8679365921
  0
ARC
  5
A4
330
1F
100
AcDbEntity
  8
0
  6
Continuous
 62
     7
370
    15
100
AcDbCircle
 10
1.5764012258
 20
7.9422544365
 30
0.0
 40
0.1849999999999997
100
AcDbArc
 50
131.8633983076
 51
179.343147785
  0
ARC
  5
A5
330
1F
100
AcDbEntity
  8
0
  6
Continuous
 62
     7
370
    15
100
AcDbCircle
 10
1.4096014521
 20
8.128474273
 30
0.0
 40
0.0650000000000005
100
AcDbArc
 50
311.8167093632
 51
123.4203846332
  0
ARC
  5
A6
330
1F
100
AcDbEntity
  8
0
  6
Continuous
 62
     7
370
    15
100
AcDbCircle
 10
1.2716809234
 20
8.3369878264
 30
0.0
 40
0.1849999999999994
100
AcDbArc
 50
255.9844323909
 51
303.5043210923
  0
ARC
  5
A7
330
1F
100
AcDbEntity
  8
0
  6
Continuous
 62
     7
370
    15
100
AcDbCircle
 10
1.4095843518
 20
8.1284629212
 30
0.0
 40
0.1850000000000004
100
AcDbArc
 50
123.4861019362
 51
170.971154774
  0
ARC
  5
A8
330
1F
100
AcDbEntity
  8
0
  6
Continuous
 62
     7
370
    15
100
AcDbCircle
 10
1.2716891746
 20
8.3369932883
 30
0.0
 40
0.0650000000000012
100
AcDbArc
 50
303.4454243521
 51
115.1023298055
  0
ARC
  5
A9
330
1F
100
AcDbEntity
  8
0
  6
Continuous
 62
     7
370
    15
100
AcDbCircle
 10
1.1655407237
 20
8.563339269
 30
0.0
 40
0.1850000000000002
100
AcDbArc
 50
247.6465019263
 51
295.1329056909
  0
ARC
  5
AA
330
1F
100
AcDbEntity
  8
0
  6
Continuous
 62
     7
370
    15
100
AcDbCircle
 10
1.2717480594
 20
8.337020929
 30
0.0
 40
0.1850000000000003
100
AcDbArc
 50
115.1585942094
 51
162.6332264403
  0
ARC
  5
AB
330
1F
100
AcDbEntity
  8
0
  6
Continuous
 62
     7
370
    15
100
AcDbCircle
 10
1.1655193594
 20
8.5633292446
 30
0.0
 40
0.0650000000000003
100
AcDbArc
 50
295.1073576225
 51
106.6738471703
  0
ARC
  5
AC
330
1F
100
AcDbEntity
  8
0
  6
Continuous
 62
     7
370
    15
100
AcDbCircle
 10
1.0934375032
 20
8.8027121153
 30
0.0
 40
0.1849999999999996
100
AcDbArc
 50
239.263020463
 51
286.787370403
  0
ARC
  5
AD
330
1F
100
AcDbEntity
  8
0
  6
Continuous
 62
     7
370
    15
100
AcDbCircle
 10
1.1655132429
 20
8.5633273466
 30
0.0
 40
0.1850000000000001
100
AcDbArc
 50
106.7387020032
 51
154.2497528828
  0
ARC
  5
AE
330
1F
100
AcDbEntity
  8
0
  6
Continuous
 62
     7
370
    15
100
AcDbCircle
 10
1.0935175315
 20
8.8027362383
 30
0.0
 40
0.0650000000000011
100
AcDbArc
 50
286.7330420649
 51
98.3427248777
  0
ARC
  5
AF
330
1F
100
AcDbEntity
  8
0
  6
Continuous
 62
     7
370
    15
100
AcDbCircle
 10
1.0570486494
 20
9.0500619485
 30
0.0
 40
0.1850000000000009
100
AcDbArc
 50
230.8872012757
 51
278.4038849161
  0
ARC
  5
B0
330
1F
100
AcDbEntity
  8
0
  6
Continuous
 62
     7
370
    15
100
AcDbCircle
 10
1.0934855199
 20
8.8027315363
 30
0.0
 40
0.1849999999999997
100
AcDbArc
 50
98.3522160023
 51
145.8739348454
  0
ARC
  5
B1
330
1F
100
AcDbEntity
  8
0
  6
Continuous
 62
     7
370
    15
100
AcDbCircle
 10
1.0571125017
 20
9.0500714229
 30
0.0
 40
0.0650000519188558
100
AcDbArc
 50
278.4043620413
 51
89.9119003873
  0
ARC
  5
B2
330
1F
100
AcDbEntity
  8
0
  6
Continuous
 62
     7
370
    15
100
AcDbCircle
 10
1.0571872453
 20
9.3000713963
 30
0.0
 40
0.1850000000000009
100
AcDbArc
 50
222.4895090865
 51
270.0078053272
  0
ARC
  5
B3
330
1F
100
AcDbEntity
  8
0
  6
Continuous
 62
     7
370
    15
100
AcDbCircle
 10
1.0571125017
 20
9.0500714229
 30
0.0
 40
0.1849999999999999
100
AcDbArc
 50
89.9999996898
 51
137.4762309779
  0
ARC
  5
B4
330
1F
100
AcDbEntity
  8
0
  6
Continuous
 62
     7
370
    15
100
AcDbCircle
 10
1.0571125017
 20
9.3000714229
 30
0.0
 40
0.0650000000000014
100
AcDbArc
 50
270.0000008828
 51
81.5827344524
  0
ARC
  5
B5
330
1F
100
AcDbEntity
  8
0
  6
Continuous
 62
     7
370
    15
100
AcDbCircle
 10
1.0935530988
 20
9.5474013126
 30
0.0
 40
0.1850000000000005
100
AcDbArc
 50
214.1177772374
 51
261.6311602328
  0
ARC
  5
B6
330
1F
100
AcDbEntity
  8
0
  6
Continuous
 62
     7
370
    15
100
AcDbCircle
 10
1.0570804112
 20
9.3000761404
 30
0.0
 40
0.1849999999999993
100
AcDbArc
 50
81.6321764311
 51
129.1044945349
  0
ARC
  5
B7
330
1F
100
AcDbEntity
  8
0
  6
Continuous
 62
     7
370
    15
100
AcDbCircle
 10
1.093517762
 20
9.5474065075
 30
0.0
 40
0.0650000000000014
100
AcDbArc
 50
261.5827344524
 51
73.1569668367
  0
ARC
  5
B8
330
1F
100
AcDbEntity
  8
0
  6
Continuous
 62
     7
370
    15
100
AcDbCircle
 10
1.1656513775
 20
9.7867738112
 30
0.0
 40
0.1850000000000012
100
AcDbArc
 50
205.7349508368
 51
253.2553337931
  0
ARC
  5
B9
330
1F
100
AcDbEntity
  8
0
  6
Continuous
 62
     7
370
    15
100
AcDbCircle
 10
1.0935115945
 20
9.5474082115
 30
0.0
 40
0.1849999999999996
100
AcDbArc
 50
73.2571643594
 51
120.721633797
  0
ARC
  5
BA
330
1F
100
AcDbEntity
  8
0
  6
Continuous
 62
     7
370
    15
100
AcDbCircle
 10
1.1655200871
 20
9.7868132588
 30
0.0
 40
0.0650000000000018
100
AcDbArc
 50
253.2669579351
 51
64.817681894
  0
ARC
  5
BB
330
1F
100
AcDbEntity
  8
0
  6
Continuous
 62
     7
370
    15
100
AcDbCircle
 10
1.2716234719
 20
10.013180306
 30
0.0
 40
0.1850000000000001
100
AcDbArc
 50
197.4079917185
 51
244.9106052695
  0
ARC
  5
BC
330
1F
100
AcDbEntity
  8
0
  6
Continuous
 62
     7
370
    15
100
AcDbCircle
 10
1.1655789727
 20
9.7867856188
 30
0.0
 40
0.1850000000000009
100
AcDbArc
 50
64.8947504926
 51
112.3947153192
  0
ARC
  5
BD
330
1F
100
AcDbEntity
  8
0
  6
Continuous
 62
     7
370
    15
100
AcDbCircle
 10
1.2716901788
 20
10.0131490571
 30
0.0
 40
0.0649999999999997
100
AcDbArc
 50
244.8552143693
 51
56.5058984632
  0
ARC
  5
BE
330
1F
100
AcDbEntity
  8
0
  6
Continuous
 62
     7
370
    15
100
AcDbCircle
 10
1.409590429
 20
10.2216760794
 30
0.0
 40
0.1850000000000001
100
AcDbArc
 50
189.0249688812
 51
236.5291189341
  0
ARC
  5
BF
330
1F
100
AcDbEntity
  8
0
  6
Continuous
 62
     7
370
    15
100
AcDbCircle
 10
1.5764002673
 20
10.4078897939
 30
0.0
 40
0.185000000000001
100
AcDbArc
 50
180.6530096883
 51
228.1582223671
  0
ARC
  5
C0
330
1F
100
AcDbEntity
  8
0
  6
Continuous
 62
     7
370
    15
100
AcDbCircle
 10
1.4095928034
 20
10.2216768585
 30
0.0
 40
0.1849999999999991
100
AcDbArc
 50
48.1283013844
 51
95.6397357403
  0
ARC
  5
C1
330
1F
100
AcDbEntity
  8
0
  6
Continuous
 62
     7
370
    15
100
AcDbCircle
 10
1.5764125351
 20
10.4078788081
 30
0.0
 40
0.0650000000000002
100
AcDbArc
 50
228.1832906368
 51
39.6811136311
  0
ARC
  5
C2
330
1F
100
AcDbEntity
  8
0
  6
Continuous
 62
     7
370
    15
100
AcDbCircle
 10
1.7686185946
 20
10.5677437433
 30
0.0
 40
0.1849999999999999
100
AcDbArc
 50
172.2619915864
 51
219.7763089564
  0
ARC
  5
C3
330
1F
100
AcDbEntity
  8
0
  6
Continuous
 62
     7
370
    15
100
AcDbCircle
 10
1.5764230495
 20
10.4078660489
 30
0.0
 40
0.1849999999999999
100
AcDbArc
 50
39.767012442
 51
87.2487030064
  0
ARC
  5
C4
330
1F
100
AcDbEntity
  8
0
  6
Continuous
 62
     7
370
    15
100
AcDbCircle
 10
1.7685990617
 20
10.5677672032
 30
0.0
 40
0.0650000000000005
100
AcDbArc
 50
219.74905525
 51
31.3877133363
  0
ARC
  5
C5
330
1F
100
AcDbEntity
  8
0
  6
Continuous
 62
     7
370
    15
100
AcDbCircle
 10
1.9819735445
 20
10.6980412524
 30
0.0
 40
0.1850000000000001
100
AcDbArc
 50
163.9089254888
 51
211.412170441
  0
ARC
  5
C6
330
1F
100
AcDbEntity
  8
0
  6
Continuous
 62
     7
370
    15
100
AcDbCircle
 10
1.7685910808
 20
10.5677803324
 30
0.0
 40
0.185
100
AcDbArc
 50
31.3998527855
 51
78.8956550734
  0
ARC
  5
C7
330
1F
100
AcDbEntity
  8
0
  6
Continuous
 62
     7
370
    15
100
AcDbCircle
 10
1.9820134043
 20
10.6979759524
 30
0.0
 40
0.0650000000000005
100
AcDbArc
 50
211.3417912912
 51
23.0478430101
  0
ARC
  5
C8
330
1F
100
AcDbEntity
  8
0
  6
Continuous
 62
     7
370
    15
100
AcDbCircle
 10
2.2120914565
 20
10.7957721044
 30
0.0
 40
0.1850000000000002
100
AcDbArc
 50
155.5394160741
 51
203.0213386493
  0
ARC
  5
C9
330
1F
100
AcDbEntity
  8
0
  6
Continuous
 62
     7
370
    15
100
AcDbCircle
 10
1.9820211607
 20
10.6979577022
 30
0.0
 40
0.1850000000000003
100
AcDbArc
 50
23.0380677363
 51
70.5261329289
  0
ARC
  5
CA
330
1F
100
AcDbEntity
  8
0
  6
Continuous
 62
     7
370
    15
100
AcDbCircle
 10
2.2120934047
 20
10.7957675193
 30
0.0
 40
0.0650000000000001
100
AcDbArc
 50
203.0133178223
 51
14.6357289998
  0
ARC
  5
CB
330
1F
100
AcDbEntity
  8
0
  6
Continuous
 62
     7
370
    15
100
AcDbCircle
 10
2.4539520267
 20
10.8590478657
 30
0.0
 40
0.1850000000000007
100
AcDbArc
 50
147.1784090724
 51
194.6716322974
  0
ARC
  5
CC
330
1F
100
AcDbEntity
  8
0
  6
Continuous
 62
     7
370
    15
100
AcDbCircle
 10
2.2121039155
 20
10.7957275149
 30
0.0
 40
0.1849999999999996
100
AcDbArc
 50
14.6948900081
 51
62.1651448643
  0
ARC
  5
CD
330
1F
100
AcDbEntity
  8
0
  6
Continuous
 62
     7
370
    15
100
AcDbCircle
 10
2.4539498819
 20
10.859056057
 30
0.0
 40
0.0650000000000001
100
AcDbArc
 50
194.6134575393
 51
6.2034479017
  0
ARC
  5
CE
330
1F
100
AcDbEntity
  8
0
  6
Continuous
 62
     7
370
    15
100
AcDbCircle
 10
2.7024375952
 20
10.8865112452
 30
0.0
 40
0.185
100
AcDbArc
 50
138.8106571674
 51
186.34066203
  0
ARC
  5
CF
330
1F
100
AcDbEntity
  8
0
  6
Continuous
 62
     7
370
    15
100
AcDbCircle
 10
2.4539493699
 20
10.8590601888
 30
0.0
 40
0.185
100
AcDbArc
 50
6.2669761473
 51
53.7974073453
  0
ARC
  5
D0
330
1F
100
AcDbEntity
  8
0
  6
Continuous
 62
     7
370
    15
100
AcDbCircle
 10
2.7024547521
 20
10.8863562494
 30
0.0
 40
0.0650000000000003
100
AcDbArc
 50
186.2720404685
 51
357.8789036033
  0
ARC
  5
D1
330
1F
100
AcDbEntity
  8
0
  6
Continuous
 62
     7
370
    15
100
AcDbCircle
 10
2.9522893333
 20
10.8772637811
 30
0.0
 40
0.1850000000000013
100
AcDbArc
 50
130.4151646324
 51
177.9286283566
  0
ARC
  5
D2
330
1F
100
AcDbEntity
  8
0
  6
Continuous
 62
     7
370
    15
100
AcDbCircle
 10
2.7024558856
 20
10.886387537
 30
0.0
 40
0.1849999999999997
100
AcDbArc
 50
357.9150265734
 51
45.4018846392
  0
ARC
  5
D3
330
1F
100
AcDbEntity
  8
0
  6
Continuous
 62
     7
370
    15
100
AcDbCircle
 10
2.9522890112
 20
10.8772548811
 30
0.0
 40
0.0650000000000003
100
AcDbArc
 50
177.8821688783
 51
349.4345763967
  0
ARC
  5
D4
330
1F
100
AcDbEntity
  8
0
  6
Continuous
 62
     7
370
    15
100
AcDbCircle
 10
3.1981351993
 20
10.8318723306
 30
0.0
 40
0.1850000000000014
100
AcDbArc
 50
122.0388727286
 51
169.5785152037
  0
ARC
  5
D5
330
1F
100
AcDbEntity
  8
0
  6
Continuous
 62
     7
370
    15
100
AcDbCircle
 10
2.9522959001
 20
10.8772929055
 30
0.0
 40
0.1850000000000003
100
AcDbArc
 50
349.5280684696
 51
37.0255968059
  0
ARC
  5
D6
330
1F
100
AcDbEntity
  8
0
  6
Continuous
 62
     7
370
    15
100
AcDbCircle
 10
3.1981305381
 20
10.8318469969
 30
0.0
 40
0.0649999999999999
100
AcDbArc
 50
169.5213868805
 51
341.1183095131
  0
ARC
  5
D7
330
1F
100
AcDbEntity
  8
0
  6
Continuous
 62
     7
370
    15
100
AcDbCircle
 10
3.4347470865
 20
10.7511463598
 30
0.0
 40
0.1850000000000016
100
AcDbArc
 50
113.6775982918
 51
161.1847850073
  0
ARC
  5
D8
330
1F
100
AcDbEntity
  8
0
  6
Continuous
 62
     7
370
    15
100
AcDbCircle
 10
3.1981256609
 20
10.8318327061
 30
0.0
 40
0.1850000000000002
100
AcDbArc
 50
341.1586616054
 51
28.6643258579
  0
ARC
  5
D9
330
1F
100
AcDbEntity
  8
0
  6
Continuous
 62
     7
370
    15
100
AcDbCircle
 10
3.4347149872
 20
10.7510522337
 30
0.0
 40
0.0650000000000003
100
AcDbArc
 50
161.1183095131
 51
332.7636988654
  0
ARC
  5
DA
330
1F
100
AcDbEntity
  8
0
  6
Continuous
 62
     7
370
    15
100
AcDbCircle
 10
3.6571160321
 20
10.6368692609
 30
0.0
 40
0.1850000000000004
100
AcDbArc
 50
105.3412533184
 51
152.8446081471
  0
ARC
  5
DB
330
1F
100
AcDbEntity
  8
0
  6
Continuous
 62
     7
370
    15
100
AcDbCircle
 10
3.4346929541
 20
10.7510093889
 30
0.0
 40
0.1850000000000001
100
AcDbArc
 50
332.8129366825
 51
20.3279733925
  0
ARC
  5
DC
330
1F
100
AcDbEntity
  8
0
  6
Continuous
 62
     7
370
    15
100
AcDbCircle
 10
3.6570682367
 20
10.6367761478
 30
0.0
 40
0.0650000000000007
100
AcDbArc
 50
152.8040503912
 51
324.3493534398
  0
ARC
  5
DD
330
1F
100
AcDbEntity
  8
0
  6
Continuous
 62
     7
370
    15
100
AcDbCircle
 10
3.8603906611
 20
10.4913115141
 30
0.0
 40
0.1850000000000008
100
AcDbArc
 50
96.913577948
 51
144.4429581761
  0
ARC
  5
DE
330
1F
100
AcDbEntity
  8
0
  6
Continuous
 62
     7
370
    15
100
AcDbCircle
 10
3.6570978495
 20
10.6368176793
 30
0.0
 40
0.1850000000000004
100
AcDbArc
 50
324.4212589481
 51
11.9002837999
  0
ARC
  5
DF
330
1F
100
AcDbEntity
  8
0
  6
Continuous
 62
     7
370
    15
100
AcDbCircle
 10
3.8604135027
 20
10.4913434767
 30
0.0
 40
0.0650000000000003
100
AcDbArc
 50
144.400780041
 51
315.9985181501
  0
ARC
  5
E0
330
1F
100
AcDbEntity
  8
0
  6
Continuous
 62
     7
370
    15
100
AcDbCircle
 10
4.040417985
 20
10.317854675
 30
0.0
 40
0.1850000000000018
100
AcDbArc
 50
88.5781498557
 51
136.0761574134
  0
ARC
  5
E1
330
1F
100
AcDbEntity
  8
0
  6
Continuous
 62
     7
370
    15
100
AcDbCircle
 10
3.8603664345
 20
10.4912946873
 30
0.0
 40
0.1850000000000016
100
AcDbArc
 50
316.0498571521
 51
3.5648663441
  0
ARC
  5
E2
330
1F
100
AcDbEntity
  8
0
  6
Continuous
 62
     7
370
    15
100
AcDbCircle
 10
4.0403602288
 20
10.3177947345
 30
0.0
 40
0.0649999999999997
100
AcDbArc
 50
136.059757534
 51
307.6656211986
  0
ARC
  5
E3
330
1F
100
AcDbEntity
  8
0
  6
Continuous
 62
     7
370
    15
100
AcDbCircle
 10
4.1931997496
 20
10.1199562205
 30
0.0
 40
0.1850000000000027
100
AcDbArc
 50
80.1829518458
 51
127.6955483562
  0
ARC
  5
E4
330
1F
100
AcDbEntity
  8
0
  6
Continuous
 62
     7
370
    15
100
AcDbCircle
 10
4.1931935641
 20
10.1199514408
 30
0.0
 40
0.0650000000000016
100
AcDbArc
 50
127.6815482634
 51
299.2519087434
  0
ARC
  5
E5
330
1F
100
AcDbEntity
  8
0
  6
Continuous
 62
     7
370
    15
100
AcDbCircle
 10
4.3154410302
 20
9.901879082
 30
0.0
 40
0.1850000000000021
100
AcDbArc
 50
71.7730191814
 51
119.2820465968
  0
ARC
  5
E6
330
1F
100
AcDbEntity
  8
0
  6
Continuous
 62
     7
370
    15
100
AcDbCircle
 10
4.1932233822
 20
10.1199681752
 30
0.0
 40
0.1849999999999995
100
AcDbArc
 50
299.2965759413
 51
346.7597294543
  0
ARC
  5
E7
330
1F
100
AcDbEntity
  8
0
  6
Continuous
 62
     7
370
    15
100
AcDbCircle
 10
4.3155117641
 20
9.9019187672
 30
0.0
 40
0.0650000000000002
100
AcDbArc
 50
119.2519087434
 51
290.9487590591
  0
ARC
  5
E8
330
1F
100
AcDbEntity
  8
0
  6
Continuous
 62
     7
370
    15
100
AcDbCircle
 10
4.404834748
 20
9.6684205807
 30
0.0
 40
0.1850000000000029
100
AcDbArc
 50
63.4392392535
 51
110.9287841229
  0
ARC
  5
E9
330
1F
100
AcDbEntity
  8
0
  6
Continuous
 62
     7
370
    15
100
AcDbCircle
 10
4.3155173655
 20
9.9019208612
 30
0.0
 40
0.1850000000000004
100
AcDbArc
 50
290.9490876063
 51
338.4259750046
  0
ARC
  5
EA
330
1F
100
AcDbEntity
  8
0
  6
Continuous
 62
     7
370
    15
100
AcDbCircle
 10
4.404814139
 20
9.6684127005
 30
0.0
 40
0.0650000000000013
100
AcDbArc
 50
110.866252148
 51
282.5383761425
  0
ARC
  5
EB
330
1F
100
AcDbEntity
  8
0
  6
Continuous
 62
     7
370
    15
100
AcDbCircle
 10
4.4591228225
 20
9.424382853
 30
0.0
 40
0.1849999999999999
100
AcDbArc
 50
55.0533094998
 51
102.5495805314
  0
ARC
  5
EC
330
1F
100
AcDbEntity
  8
0
  6
Continuous
 62
     7
370
    15
100
AcDbCircle
 10
4.404814139
 20
9.6684127005
 30
0.0
 40
0.1850000000000012
100
AcDbArc
 50
282.5724450042
 51
330.0400252808
  0
ARC
  5
ED
330
1F
100
AcDbEntity
  8
0
  6
Continuous
 62
     7
370
    15
100
AcDbCircle
 10
4.4585663683
 20
9.4242623887
 30
0.0
 40
0.0650000000000007
100
AcDbArc
 50
101.9714371843
 51
274.7275520839
  0
ARC
  5
EE
330
1F
100
AcDbEntity
  8
0
  6
Continuous
 62
     7
370
    15
100
AcDbCircle
 10
1.2716729023
 20
10.0131605068
 30
0.0
 40
0.1850000000000011
100
AcDbArc
 50
56.5010327496
 51
104.0116942008
  0
ARC
  5
EF
330
1F
100
AcDbEntity
  8
0
  6
Continuous
 62
     7
370
    15
100
AcDbCircle
 10
1.4096027224
 20
10.2216679509
 30
0.0
 40
0.0649999999999996
100
AcDbArc
 50
236.5545756479
 51
48.1243982547
  0
CIRCLE
  5
F0
330
1F
100
AcDbEntity
  8
0
  6
Continuous
 62
     7
370
    15
100
AcDbCircle
 10
3.3871261035
 20
8.5597668914
 30
0.0
 40
0.0680000000000129
  0
CIRCLE
  5
F1
330
1F
100
AcDbEntity
  8
0
  6
Continuous
 62
     7
370
    15
100
AcDbCircle
 10
2.1497079702
 20
8.5529578212
 30
0.0
 40
0.0680000000000263
  0
CIRCLE
  5
F2
330
1F
100
AcDbEntity
  8
0
  6
Continuous
 62
     7
370
    15
100
AcDbCircle
 10
2.1428988999
 20
9.7903759544
 30
0.0
 40
0.0680000000000187
  0
CIRCLE
  5
F3
330
1F
100
AcDbEntity
  8
0
  6
Continuous
 62
     7
370
    15
100
AcDbCircle
 10
3.3803170332
 20
9.7971850247
 30
0.0
 40
0.0679999999999996
  0
CIRCLE
  5
F4
330
1F
100
AcDbEntity
  8
0
  6
Continuous
 62
     7
370
    15
100
AcDbCircle
 10
1.6087625017
 20
9.1750714229
 30
0.0
 40
0.1562499999999998
  0
CIRCLE
  5
F5
330
1F
100
AcDbEntity
  8
0
  6
Continuous
 62
     7
370
    15
100
AcDbCircle
 10
2.7650125017
 20
8.0188214229
 30
0.0
 40
0.1562499999999996
  0
CIRCLE
  5
F6
330
1F
100
AcDbEntity
  8
0
  6
Continuous
 62
     7
370
    15
100
AcDbCircle
 10
3.9212625017
 20
9.1750714229
 30
0.0
 40
0.15625
  0
CIRCLE
  5
F7
330
1F
100
AcDbEntity
  8
0
  6
Continuous
 62
     7
370
    15
100
AcDbCircle
 10
2.7650125017
 20
10.3313214229
 30
0.0
 40
0.15625
  0
CIRCLE
  5
F8
330
1F
100
AcDbEntity
  8
0
  6
Continuous
 62
     7
370
    15
100
AcDbCircle
 10
2.7650125017
 20
9.1750714229
 30
0.0
 40
0.7749999999999999
  0
ARC
  5
F9
330
1F
100
AcDbEntity
  8
0
  6
Continuous
 62
     7
370
    15
100
AcDbCircle
 10
4.4775920537
 20
9.1749891607
 30
0.0
 40
0.1850000000000021
100
AcDbArc
 50
46.7387210993
 51
94.2370995617
  0
ARC
  5
FA
330
1F
100
AcDbEntity
  8
0
  6
Continuous
 62
     7
370
    15
100
AcDbCircle
 10
4.4592278836
 20
9.4244150974
 30
0.0
 40
0.1850000000000004
100
AcDbArc
 50
274.1745571047
 51
321.6829722994
  0
ARC
  5
FB
330
1F
100
AcDbEntity
  8
0
  6
Continuous
 62
     7
370
    15
100
AcDbCircle
 10
4.4773971719
 20
9.1750762227
 30
0.0
 40
0.0650000000000014
100
AcDbArc
 50
94.1484479638
 51
265.8451626524
  0
ARC
  5
FC
330
1F
100
AcDbEntity
  8
0
  6
Continuous
 62
     7
370
    15
100
AcDbCircle
 10
4.4591414279
 20
8.9257436724
 30
0.0
 40
0.1850000000000008
100
AcDbArc
 50
38.3113139188
 51
85.8008403418
  0
ARC
  5
FD
330
1F
100
AcDbEntity
  8
0
  6
Continuous
 62
     7
370
    15
100
AcDbCircle
 10
4.4774305993
 20
9.1750737378
 30
0.0
 40
0.1849999999999995
100
AcDbArc
 50
265.8379090602
 51
313.2980500835
  0
ARC
  5
FE
330
1F
100
AcDbEntity
  8
0
  6
Continuous
 62
     7
370
    15
100
AcDbCircle
 10
4.4591945697
 20
8.9257397784
 30
0.0
 40
0.0650000000000003
100
AcDbArc
 50
85.7570813434
 51
257.3562368601
  0
ARC
  5
FF
330
1F
100
AcDbEntity
  8
0
  6
Continuous
 62
     7
370
    15
100
AcDbCircle
 10
4.4049198869
 20
8.681702517
 30
0.0
 40
0.185000000000001
100
AcDbArc
 50
29.9865492485
 51
77.4982249206
  0
ARC
  5
100
330
1F
100
AcDbEntity
  8
0
  6
Continuous
 62
     7
370
    15
100
AcDbCircle
 10
4.4591152582
 20
8.9257574418
 30
0.0
 40
0.1849999999999996
100
AcDbArc
 50
257.4828645478
 51
304.9733112053
  0
ARC
  5
101
330
1F
100
AcDbEntity
  8
0
  6
Continuous
 62
     7
370
    15
100
AcDbCircle
 10
4.4048135248
 20
8.6817261332
 30
0.0
 40
0.0650000000000013
100
AcDbArc
 50
77.3755399932
 51
249.0196260211
  0
ARC
  5
102
330
1F
100
AcDbEntity
  8
0
  6
Continuous
 62
     7
370
    15
100
AcDbCircle
 10
4.3156207511
 20
8.4481782622
 30
0.0
 40
0.1850000000000006
100
AcDbArc
 50
21.6032829393
 51
69.1254868152
  0
ARC
  5
103
330
1F
100
AcDbEntity
  8
0
  6
Continuous
 62
     7
370
    15
100
AcDbCircle
 10
4.4048188065
 20
8.6817240823
 30
0.0
 40
0.1850000000000007
100
AcDbArc
 50
249.0940797919
 51
296.590046071
  0
ARC
  5
104
330
1F
100
AcDbEntity
  8
0
  6
Continuous
 62
     7
370
    15
100
AcDbCircle
 10
4.315510979
 20
8.448220164
 30
0.0
 40
0.0650000000000004
100
AcDbArc
 50
69.0004499537
 51
240.6278045706
  0
ARC
  5
105
330
1F
100
AcDbEntity
  8
0
  6
Continuous
 62
     7
370
    15
100
AcDbCircle
 10
4.1931972218
 20
8.230185072
 30
0.0
 40
0.1850000000000011
100
AcDbArc
 50
13.2072086778
 51
60.7366636443
  0
ARC
  5
106
330
1F
100
AcDbEntity
  8
0
  6
Continuous
 62
     7
370
    15
100
AcDbCircle
 10
4.3155406713
 20
8.4482035967
 30
0.0
 40
0.1850000000000004
100
AcDbArc
 50
240.6940641268
 51
288.1939267651
  0
ARC
  5
107
330
1F
100
AcDbEntity
  8
0
  6
Continuous
 62
     7
370
    15
100
AcDbCircle
 10
4.1931924558
 20
8.2301877426
 30
0.0
 40
0.065
100
AcDbArc
 50
60.7142622306
 51
232.2644595608
  0
ARC
  5
108
330
1F
100
AcDbEntity
  8
0
  6
Continuous
 62
     7
370
    15
100
AcDbCircle
 10
4.0403240665
 20
8.0323715522
 30
0.0
 40
0.1850000000000014
100
AcDbArc
 50
4.7990657862
 51
52.3177157833
  0
ARC
  5
109
330
1F
100
AcDbEntity
  8
0
  6
Continuous
 62
     7
370
    15
100
AcDbCircle
 10
4.1932319841
 20
8.2301572177
 30
0.0
 40
0.1850000000000008
100
AcDbArc
 50
232.3159017725
 51
279.7857805759
  0
ARC
  5
10A
330
1F
100
AcDbEntity
  8
0
  6
Continuous
 62
     7
370
    15
100
AcDbCircle
 10
4.0403589595
 20
8.0323446078
 30
0.0
 40
0.065
100
AcDbArc
 50
52.2644595608
 51
223.9379316371
  0
ARC
  5
10B
330
1F
100
AcDbEntity
  8
0
  6
Continuous
 62
     7
370
    15
100
AcDbCircle
 10
3.860458097
 20
7.8587483266
 30
0.0
 40
0.1850000000000023
100
AcDbArc
 50
356.5004292512
 51
43.9924086351
  0
ARC
  5
10C
330
1F
100
AcDbEntity
  8
0
  6
Continuous
 62
     7
370
    15
100
AcDbCircle
 10
4.0403118576
 20
8.0323934167
 30
0.0
 40
0.1850000000000002
100
AcDbArc
 50
223.9920883551
 51
271.4871509524
  0
ARC
  5
10D
330
1F
100
AcDbEntity
  8
0
  6
Continuous
 62
     7
370
    15
100
AcDbCircle
 10
3.8604120959
 20
7.8587959919
 30
0.0
 40
0.0650000000000004
100
AcDbArc
 50
43.940242466
 51
215.5274115711
  0
ARC
  5
10E
330
1F
100
AcDbEntity
  8
0
  6
Continuous
 62
     7
370
    15
100
AcDbCircle
 10
3.6570599126
 20
7.7133728933
 30
0.0
 40
0.1850000000000013
100
AcDbArc
 50
348.0645949041
 51
35.5845159206
  0
ARC
  5
10F
330
1F
100
AcDbEntity
  8
0
  6
Continuous
 62
     7
370
    15
100
AcDbCircle
 10
3.8604418355
 20
7.8587544216
 30
0.0
 40
0.1850000000000001
100
AcDbArc
 50
215.5722334713
 51
263.0513142123
  0
ARC
  5
110
330
1F
100
AcDbEntity
  8
0
  6
Continuous
 62
     7
370
    15
100
AcDbCircle
 10
3.6570665784
 20
7.7133635779
 30
0.0
 40
0.0650000000000003
100
AcDbArc
 50
35.5274115711
 51
207.1577449957
  0
ARC
  5
111
330
1F
100
AcDbEntity
  8
0
  6
Continuous
 62
     7
370
    15
100
AcDbCircle
 10
3.4347505172
 20
7.5990152337
 30
0.0
 40
0.1850000000000014
100
AcDbArc
 50
339.7367388226
 51
27.2405764769
  0
ARC
  5
112
330
1F
100
AcDbEntity
  8
0
  6
Continuous
 62
     7
370
    15
100
AcDbCircle
 10
3.6570443855
 20
7.7134065444
 30
0.0
 40
0.1850000000000001
100
AcDbArc
 50
207.2444524848
 51
254.7235081293
  0
ARC
  5
113
330
1F
100
AcDbEntity
  8
0
  6
Continuous
 62
     7
370
    15
100
AcDbCircle
 10
3.4347132139
 20
7.5990877312
 30
0.0
 40
0.0650000000000007
100
AcDbArc
 50
27.1174727042
 51
198.7981058971
  0
ARC
  5
114
330
1F
100
AcDbEntity
  8
0
  6
Continuous
 62
     7
370
    15
100
AcDbCircle
 10
3.1981295573
 20
7.5182907562
 30
0.0
 40
0.1850000000000014
100
AcDbArc
 50
331.3659606863
 51
18.8761101451
  0
ARC
  5
115
330
1F
100
AcDbEntity
  8
0
  6
Continuous
 62
     7
370
    15
100
AcDbCircle
 10
4.0403997903
 20
10.3178252955
 30
0.0
 40
0.185
100
AcDbArc
 50
307.6720488413
 51
355.1696686027
  0
ARC
  5
116
330
1F
100
AcDbEntity
  8
0
  6
Continuous
 62
     7
370
    15
100
AcDbCircle
 10
3.1981287116
 20
7.5182932297
 30
0.0
 40
0.0650000000000003
100
AcDbArc
 50
18.8531587644
 51
190.3917539552
  0
ARC
  5
117
330
1F
100
AcDbEntity
  8
0
  6
Continuous
 62
     7
370
    15
100
AcDbCircle
 10
3.4347083336
 20
7.5991021542
 30
0.0
 40
0.1850000000000001
100
AcDbArc
 50
198.8606733041
 51
246.3526765745
  0
CIRCLE
  5
118
330
1F
100
AcDbEntity
  8
0
  6
Continuous
 62
     7
370
    15
100
AcDbCircle
 10
6.5922796615
 20
8.0025138083
 30
0.0
 40
0.15625
  0
CIRCLE
  5
119
330
1F
100
AcDbEntity
  8
0
  6
Continuous
 62
     7
370
    15
100
AcDbCircle
 10
6.5922796615
 20
10.3150138083
 30
0.0
 40
0.1562499999999991
  0
CIRCLE
  5
11A
330
1F
100
AcDbEntity
  8
0
  6
Continuous
 62
     7
370
    15
100
AcDbCircle
 10
6.5922796615
 20
9.1587638083
 30
0.0
 40
0.7750000000000004
  0
ARC
  5
11B
330
1F
100
AcDbEntity
  8
0
  6
Continuous
 62
     7
370
    15
100
AcDbCircle
 10
8.3048592135
 20
9.158681546
 30
0.0
 40
0.1850000000000026
100
AcDbArc
 50
46.7387210993
 51
94.2370995617
  0
ARC
  5
11C
330
1F
100
AcDbEntity
  8
0
  6
Continuous
 62
     7
370
    15
100
AcDbCircle
 10
8.2864950434
 20
9.4081074827
 30
0.0
 40
0.1850000000000001
100
AcDbArc
 50
274.1745571047
 51
321.6829722994
  0
ARC
  5
11D
330
1F
100
AcDbEntity
  8
0
  6
Continuous
 62
     7
370
    15
100
AcDbCircle
 10
8.3046643317
 20
9.158768608
 30
0.0
 40
0.0650000000000018
100
AcDbArc
 50
94.1484479638
 51
265.8451626524
  0
ARC
  5
11E
330
1F
100
AcDbEntity
  8
0
  6
Continuous
 62
     7
370
    15
100
AcDbCircle
 10
8.2864085877
 20
8.9094360577
 30
0.0
 40
0.1850000000000011
100
AcDbArc
 50
38.3113139188
 51
85.8008403418
  0
ARC
  5
11F
330
1F
100
AcDbEntity
  8
0
  6
Continuous
 62
     7
370
    15
100
AcDbCircle
 10
8.3046977591
 20
9.1587661231
 30
0.0
 40
0.1850000000000026
100
AcDbArc
 50
265.8379090602
 51
313.2980500835
  0
ARC
  5
120
330
1F
100
AcDbEntity
  8
0
  6
Continuous
 62
     7
370
    15
100
AcDbCircle
 10
8.2864617295
 20
8.9094321637
 30
0.0
 40
0.0650000000000004
100
AcDbArc
 50
85.7570813434
 51
257.3562368601
  0
ARC
  5
121
330
1F
100
AcDbEntity
  8
0
  6
Continuous
 62
     7
370
    15
100
AcDbCircle
 10
8.2321870467
 20
8.6653949023
 30
0.0
 40
0.1850000000000019
100
AcDbArc
 50
29.9865492485
 51
77.4982249206
  0
ARC
  5
122
330
1F
100
AcDbEntity
  8
0
  6
Continuous
 62
     7
370
    15
100
AcDbCircle
 10
8.286382418
 20
8.9094498271
 30
0.0
 40
0.1850000000000005
100
AcDbArc
 50
257.4828645478
 51
304.9733112053
  0
ARC
  5
123
330
1F
100
AcDbEntity
  8
0
  6
Continuous
 62
     7
370
    15
100
AcDbCircle
 10
8.2320806846
 20
8.6654185185
 30
0.0
 40
0.0650000000000001
100
AcDbArc
 50
77.3755399932
 51
249.0196260211
  0
ARC
  5
124
330
1F
100
AcDbEntity
  8
0
  6
Continuous
 62
     7
370
    15
100
AcDbCircle
 10
8.1428879109
 20
8.4318706475
 30
0.0
 40
0.1849999999999997
100
AcDbArc
 50
21.6032829393
 51
69.1254868152
  0
ARC
  5
125
330
1F
100
AcDbEntity
  8
0
  6
Continuous
 62
     7
370
    15
100
AcDbCircle
 10
8.2320859663
 20
8.6654164676
 30
0.0
 40
0.1849999999999987
100
AcDbArc
 50
249.0940797919
 51
296.590046071
  0
ARC
  5
126
330
1F
100
AcDbEntity
  8
0
  6
Continuous
 62
     7
370
    15
100
AcDbCircle
 10
8.1427781388
 20
8.4319125494
 30
0.0
 40
0.0650000000000004
100
AcDbArc
 50
69.0004499537
 51
240.6278045706
  0
ARC
  5
127
330
1F
100
AcDbEntity
  8
0
  6
Continuous
 62
     7
370
    15
100
AcDbCircle
 10
8.0204643816
 20
8.2138774573
 30
0.0
 40
0.1850000000000007
100
AcDbArc
 50
13.2072086778
 51
60.7366636443
  0
ARC
  5
128
330
1F
100
AcDbEntity
  8
0
  6
Continuous
 62
     7
370
    15
100
AcDbCircle
 10
8.1428078311
 20
8.4318959821
 30
0.0
 40
0.1850000000000016
100
AcDbArc
 50
240.6940641268
 51
288.1939267651
  0
ARC
  5
129
330
1F
100
AcDbEntity
  8
0
  6
Continuous
 62
     7
370
    15
100
AcDbCircle
 10
8.0204596156
 20
8.2138801279
 30
0.0
 40
0.065
100
AcDbArc
 50
60.7142622306
 51
232.2644595608
  0
ARC
  5
12A
330
1F
100
AcDbEntity
  8
0
  6
Continuous
 62
     7
370
    15
100
AcDbCircle
 10
7.8675912263
 20
8.0160639375
 30
0.0
 40
0.1850000000000008
100
AcDbArc
 50
4.7990657862
 51
52.3177157833
  0
ARC
  5
12B
330
1F
100
AcDbEntity
  8
0
  6
Continuous
 62
     7
370
    15
100
AcDbCircle
 10
8.0204991439
 20
8.213849603
 30
0.0
 40
0.1850000000000009
100
AcDbArc
 50
232.3159017725
 51
279.7857805759
  0
ARC
  5
12C
330
1F
100
AcDbEntity
  8
0
  6
Continuous
 62
     7
370
    15
100
AcDbCircle
 10
7.8676261192
 20
8.0160369931
 30
0.0
 40
0.0650000000000009
100
AcDbArc
 50
52.2644595608
 51
223.9379316371
  0
ARC
  5
12D
330
1F
100
AcDbEntity
  8
0
  6
Continuous
 62
     7
370
    15
100
AcDbCircle
 10
7.6877252568
 20
7.842440712
 30
0.0
 40
0.1850000000000028
100
AcDbArc
 50
356.5004292512
 51
43.9924086351
  0
ARC
  5
12E
330
1F
100
AcDbEntity
  8
0
  6
Continuous
 62
     7
370
    15
100
AcDbCircle
 10
7.8675790173
 20
8.016085802
 30
0.0
 40
0.1850000000000012
100
AcDbArc
 50
223.9920883551
 51
271.4871509524
  0
ARC
  5
12F
330
1F
100
AcDbEntity
  8
0
  6
Continuous
 62
     7
370
    15
100
AcDbCircle
 10
7.6876792557
 20
7.8424883772
 30
0.0
 40
0.0650000000000001
100
AcDbArc
 50
43.940242466
 51
215.5274115711
  0
ARC
  5
130
330
1F
100
AcDbEntity
  8
0
  6
Continuous
 62
     7
370
    15
100
AcDbCircle
 10
7.4843270724
 20
7.6970652787
 30
0.0
 40
0.1850000000000016
100
AcDbArc
 50
348.0645949041
 51
35.5845159206
  0
ARC
  5
131
330
1F
100
AcDbEntity
  8
0
  6
Continuous
 62
     7
370
    15
100
AcDbCircle
 10
7.6877089953
 20
7.8424468069
 30
0.0
 40
0.1850000000000001
100
AcDbArc
 50
215.5722334713
 51
263.0513142123
  0
ARC
  5
132
330
1F
100
AcDbEntity
  8
0
  6
Continuous
 62
     7
370
    15
100
AcDbCircle
 10
7.4843337382
 20
7.6970559632
 30
0.0
 40
0.0650000000000004
100
AcDbArc
 50
35.5274115711
 51
207.1577449957
  0
ARC
  5
133
330
1F
100
AcDbEntity
  8
0
  6
Continuous
 62
     7
370
    15
100
AcDbCircle
 10
7.262017677
 20
7.582707619
 30
0.0
 40
0.1850000000000013
100
AcDbArc
 50
339.7367388226
 51
27.2405764769
  0
ARC
  5
134
330
1F
100
AcDbEntity
  8
0
  6
Continuous
 62
     7
370
    15
100
AcDbCircle
 10
7.4843115453
 20
7.6970989298
 30
0.0
 40
0.1850000000000001
100
AcDbArc
 50
207.2444524848
 51
254.7235081293
  0
ARC
  5
135
330
1F
100
AcDbEntity
  8
0
  6
Continuous
 62
     7
370
    15
100
AcDbCircle
 10
7.2619803736
 20
7.5827801165
 30
0.0
 40
0.0650000000000007
100
AcDbArc
 50
27.1174727042
 51
198.7981058971
  0
ARC
  5
136
330
1F
100
AcDbEntity
  8
0
  6
Continuous
 62
     7
370
    15
100
AcDbCircle
 10
7.0253967171
 20
7.5019831415
 30
0.0
 40
0.1850000000000014
100
AcDbArc
 50
331.3659606863
 51
18.8761101451
  0
ARC
  5
137
330
1F
100
AcDbEntity
  8
0
  6
Continuous
 62
     7
370
    15
100
AcDbCircle
 10
7.2619754934
 20
7.5827945395
 30
0.0
 40
0.1850000000000007
100
AcDbArc
 50
198.8606733041
 51
246.3526765745
  0
ARC
  5
138
330
1F
100
AcDbEntity
  8
0
  6
Continuous
 62
     7
370
    15
100
AcDbCircle
 10
7.0253958714
 20
7.501985615
 30
0.0
 40
0.0649999999999999
100
AcDbArc
 50
18.8531587644
 51
190.3917539552
  0
ARC
  5
139
330
1F
100
AcDbEntity
  8
0
  6
Continuous
 62
     7
370
    15
100
AcDbCircle
 10
6.7795422118
 20
7.4566429678
 30
0.0
 40
0.1850000000000011
100
AcDbArc
 50
322.9473928937
 51
10.4699307637
  0
ARC
  5
13A
330
1F
100
AcDbEntity
  8
0
  6
Continuous
 62
     7
370
    15
100
AcDbCircle
 10
7.025402961
 20
7.5019476037
 30
0.0
 40
0.1850000000000002
100
AcDbArc
 50
190.4534905341
 51
237.9340931493
  0
ARC
  5
13B
330
1F
100
AcDbEntity
  8
0
  6
Continuous
 62
     7
370
    15
100
AcDbCircle
 10
6.7795542041
 20
7.4565781378
 30
0.0
 40
0.0650000000000003
100
AcDbArc
 50
10.4625770531
 51
182.0327931361
  0
ARC
  5
13C
330
1F
100
AcDbEntity
  8
0
  6
Continuous
 62
     7
370
    15
100
AcDbCircle
 10
6.5297194202
 20
7.4474916657
 30
0.0
 40
0.1850000000000005
100
AcDbArc
 50
314.5824063221
 51
2.1005389985
  0
ARC
  5
13D
330
1F
100
AcDbEntity
  8
0
  6
Continuous
 62
     7
370
    15
100
AcDbCircle
 10
6.7795553443
 20
7.4565469367
 30
0.0
 40
0.1849999999999997
100
AcDbArc
 50
182.0964892814
 51
229.5691327473
  0
ARC
  5
13E
330
1F
100
AcDbEntity
  8
0
  6
Continuous
 62
     7
370
    15
100
AcDbCircle
 10
6.5297199558
 20
7.4474770799
 30
0.0
 40
0.0650000000000004
100
AcDbArc
 50
2.029663565
 51
173.7183131141
  0
ARC
  5
13F
330
1F
100
AcDbEntity
  8
0
  6
Continuous
 62
     7
370
    15
100
AcDbCircle
 10
6.281222624
 20
7.4748463334
 30
0.0
 40
0.1850000000000006
100
AcDbArc
 50
306.2204475894
 51
353.7136080915
  0
ARC
  5
140
330
1F
100
AcDbEntity
  8
0
  6
Continuous
 62
     7
370
    15
100
AcDbCircle
 10
6.529719467
 20
7.4474726281
 30
0.0
 40
0.1850000000000002
100
AcDbArc
 50
173.7336214605
 51
221.2071623955
  0
ARC
  5
141
330
1F
100
AcDbEntity
  8
0
  6
Continuous
 62
     7
370
    15
100
AcDbCircle
 10
6.2812150707
 20
7.4747776486
 30
0.0
 40
0.0650000000000002
100
AcDbArc
 50
353.7183131141
 51
165.2788937664
  0
ARC
  5
142
330
1F
100
AcDbEntity
  8
0
  6
Continuous
 62
     7
370
    15
100
AcDbCircle
 10
6.0393368443
 20
7.5379827458
 30
0.0
 40
0.1850000000000003
100
AcDbArc
 50
297.8716324107
 51
345.3824481715
  0
ARC
  5
143
330
1F
100
AcDbEntity
  8
0
  6
Continuous
 62
     7
370
    15
100
AcDbCircle
 10
6.281225527
 20
7.4748176823
 30
0.0
 40
0.1850000000000009
100
AcDbArc
 50
165.3685020294
 51
212.8583813647
  0
ARC
  5
144
330
1F
100
AcDbEntity
  8
0
  6
Continuous
 62
     7
370
    15
100
AcDbCircle
 10
6.0393586699
 20
7.5380663508
 30
0.0
 40
0.0649999999999995
100
AcDbArc
 50
345.2788937664
 51
156.9521569899
  0
ARC
  5
145
330
1F
100
AcDbEntity
  8
0
  6
Continuous
 62
     7
370
    15
100
AcDbCircle
 10
5.4036674271
 20
10.3915821792
 30
0.0
 40
0.1850000000000008
100
AcDbArc
 50
180.6530096883
 51
228.1582223671
  0
ARC
  5
146
330
1F
100
AcDbEntity
  8
0
  6
Continuous
 62
     7
370
    15
100
AcDbCircle
 10
5.2368599632
 20
10.2053692438
 30
0.0
 40
0.1849999999999999
100
AcDbArc
 50
48.1283013844
 51
95.6397357403
  0
ARC
  5
147
330
1F
100
AcDbEntity
  8
0
  6
Continuous
 62
     7
370
    15
100
AcDbCircle
 10
5.4036796949
 20
10.3915711934
 30
0.0
 40
0.0650000000000013
100
AcDbArc
 50
228.1832906368
 51
39.6811136311
  0
ARC
  5
148
330
1F
100
AcDbEntity
  8
0
  6
Continuous
 62
     7
370
    15
100
AcDbCircle
 10
5.5958857544
 20
10.5514361286
 30
0.0
 40
0.1850000000000012
100
AcDbArc
 50
172.2619915864
 51
219.7763089564
  0
ARC
  5
149
330
1F
100
AcDbEntity
  8
0
  6
Continuous
 62
     7
370
    15
100
AcDbCircle
 10
5.4036902093
 20
10.3915584342
 30
0.0
 40
0.1849999999999994
100
AcDbArc
 50
39.767012442
 51
87.2487030064
  0
ARC
  5
14A
330
1F
100
AcDbEntity
  8
0
  6
Continuous
 62
     7
370
    15
100
AcDbCircle
 10
5.5958662215
 20
10.5514595885
 30
0.0
 40
0.0650000000000005
100
AcDbArc
 50
219.74905525
 51
31.3877133363
  0
ARC
  5
14B
330
1F
100
AcDbEntity
  8
0
  6
Continuous
 62
     7
370
    15
100
AcDbCircle
 10
5.8092407043
 20
10.6817336377
 30
0.0
 40
0.1850000000000005
100
AcDbArc
 50
163.9089254888
 51
211.412170441
  0
ARC
  5
14C
330
1F
100
AcDbEntity
  8
0
  6
Continuous
 62
     7
370
    15
100
AcDbCircle
 10
5.5958582406
 20
10.5514727177
 30
0.0
 40
0.185000000000002
100
AcDbArc
 50
31.3998527855
 51
78.8956550734
  0
ARC
  5
14D
330
1F
100
AcDbEntity
  8
0
  6
Continuous
 62
     7
370
    15
100
AcDbCircle
 10
5.8092805641
 20
10.6816683377
 30
0.0
 40
0.0649999999999998
100
AcDbArc
 50
211.3417912912
 51
23.0478430101
  0
ARC
  5
14E
330
1F
100
AcDbEntity
  8
0
  6
Continuous
 62
     7
370
    15
100
AcDbCircle
 10
6.0393586163
 20
10.7794644897
 30
0.0
 40
0.1850000000000004
100
AcDbArc
 50
155.5394160741
 51
203.0213386493
  0
ARC
  5
14F
330
1F
100
AcDbEntity
  8
0
  6
Continuous
 62
     7
370
    15
100
AcDbCircle
 10
5.8092883205
 20
10.6816500875
 30
0.0
 40
0.1850000000000001
100
AcDbArc
 50
23.0380677363
 51
70.5261329289
  0
ARC
  5
150
330
1F
100
AcDbEntity
  8
0
  6
Continuous
 62
     7
370
    15
100
AcDbCircle
 10
6.0393605644
 20
10.7794599047
 30
0.0
 40
0.0650000000000001
100
AcDbArc
 50
203.0133178223
 51
14.6357289998
  0
ARC
  5
151
330
1F
100
AcDbEntity
  8
0
  6
Continuous
 62
     7
370
    15
100
AcDbCircle
 10
6.2812191865
 20
10.842740251
 30
0.0
 40
0.1850000000000007
100
AcDbArc
 50
147.1784090724
 51
194.6716322974
  0
ARC
  5
152
330
1F
100
AcDbEntity
  8
0
  6
Continuous
 62
     7
370
    15
100
AcDbCircle
 10
6.0393710753
 20
10.7794199002
 30
0.0
 40
0.1850000000000023
100
AcDbArc
 50
14.6948900081
 51
62.1651448643
  0
ARC
  5
153
330
1F
100
AcDbEntity
  8
0
  6
Continuous
 62
     7
370
    15
100
AcDbCircle
 10
6.2812170417
 20
10.8427484423
 30
0.0
 40
0.0650000000000001
100
AcDbArc
 50
194.6134575393
 51
6.2034479017
  0
ARC
  5
154
330
1F
100
AcDbEntity
  8
0
  6
Continuous
 62
     7
370
    15
100
AcDbCircle
 10
6.529704755
 20
10.8702036306
 30
0.0
 40
0.1850000000000011
100
AcDbArc
 50
138.8106571673
 51
186.34066203
  0
ARC
  5
155
330
1F
100
AcDbEntity
  8
0
  6
Continuous
 62
     7
370
    15
100
AcDbCircle
 10
6.2812165297
 20
10.8427525742
 30
0.0
 40
0.1850000000000011
100
AcDbArc
 50
6.2669761473
 51
53.7974073453
  0
ARC
  5
156
330
1F
100
AcDbEntity
  8
0
  6
Continuous
 62
     7
370
    15
100
AcDbCircle
 10
6.5297219119
 20
10.8700486348
 30
0.0
 40
0.0650000000000004
100
AcDbArc
 50
186.2720404685
 51
357.8789036033
  0
ARC
  5
157
330
1F
100
AcDbEntity
  8
0
  6
Continuous
 62
     7
370
    15
100
AcDbCircle
 10
6.7795564931
 20
10.8609561664
 30
0.0
 40
0.1850000000000022
100
AcDbArc
 50
130.4151646324
 51
177.9286283566
  0
ARC
  5
158
330
1F
100
AcDbEntity
  8
0
  6
Continuous
 62
     7
370
    15
100
AcDbCircle
 10
6.5297230454
 20
10.8700799223
 30
0.0
 40
0.1849999999999993
100
AcDbArc
 50
357.9150265734
 51
45.4018846392
  0
ARC
  5
159
330
1F
100
AcDbEntity
  8
0
  6
Continuous
 62
     7
370
    15
100
AcDbCircle
 10
6.779556171
 20
10.8609472664
 30
0.0
 40
0.0650000000000004
100
AcDbArc
 50
177.8821688783
 51
349.4345763967
  0
ARC
  5
15A
330
1F
100
AcDbEntity
  8
0
  6
Continuous
 62
     7
370
    15
100
AcDbCircle
 10
7.0254023591
 20
10.8155647159
 30
0.0
 40
0.1850000000000021
100
AcDbArc
 50
122.0388727286
 51
169.5785152037
  0
ARC
  5
15B
330
1F
100
AcDbEntity
  8
0
  6
Continuous
 62
     7
370
    15
100
AcDbCircle
 10
6.7795630599
 20
10.8609852908
 30
0.0
 40
0.1850000000000002
100
AcDbArc
 50
349.5280684696
 51
37.0255968059
  0
ARC
  5
15C
330
1F
100
AcDbEntity
  8
0
  6
Continuous
 62
     7
370
    15
100
AcDbCircle
 10
7.0253976979
 20
10.8155393822
 30
0.0
 40
0.0650000000000008
100
AcDbArc
 50
169.5213868805
 51
341.1183095131
  0
ARC
  5
15D
330
1F
100
AcDbEntity
  8
0
  6
Continuous
 62
     7
370
    15
100
AcDbCircle
 10
7.2620142463
 20
10.7348387451
 30
0.0
 40
0.1850000000000019
100
AcDbArc
 50
113.6775982919
 51
161.1847850073
  0
ARC
  5
15E
330
1F
100
AcDbEntity
  8
0
  6
Continuous
 62
     7
370
    15
100
AcDbCircle
 10
7.0253928207
 20
10.8155250914
 30
0.0
 40
0.1849999999999992
100
AcDbArc
 50
341.1586616054
 51
28.6643258579
  0
ARC
  5
15F
330
1F
100
AcDbEntity
  8
0
  6
Continuous
 62
     7
370
    15
100
AcDbCircle
 10
7.261982147
 20
10.734744619
 30
0.0
 40
0.0650000000000003
100
AcDbArc
 50
161.1183095131
 51
332.7636988654
  0
ARC
  5
160
330
1F
100
AcDbEntity
  8
0
  6
Continuous
 62
     7
370
    15
100
AcDbCircle
 10
7.4843831919
 20
10.6205616462
 30
0.0
 40
0.1850000000000019
100
AcDbArc
 50
105.3412533184
 51
152.8446081471
  0
ARC
  5
161
330
1F
100
AcDbEntity
  8
0
  6
Continuous
 62
     7
370
    15
100
AcDbCircle
 10
7.2619601139
 20
10.7347017742
 30
0.0
 40
0.1850000000000005
100
AcDbArc
 50
332.8129366825
 51
20.3279733925
  0
ARC
  5
162
330
1F
100
AcDbEntity
  8
0
  6
Continuous
 62
     7
370
    15
100
AcDbCircle
 10
7.4843353965
 20
10.6204685331
 30
0.0
 40
0.065000000000001
100
AcDbArc
 50
152.8040503912
 51
324.3493534398
  0
ARC
  5
163
330
1F
100
AcDbEntity
  8
0
  6
Continuous
 62
     7
370
    15
100
AcDbCircle
 10
7.6876578209
 20
10.4750038994
 30
0.0
 40
0.1850000000000026
100
AcDbArc
 50
96.913577948
 51
144.4429581761
  0
ARC
  5
164
330
1F
100
AcDbEntity
  8
0
  6
Continuous
 62
     7
370
    15
100
AcDbCircle
 10
7.4843650093
 20
10.6205100646
 30
0.0
 40
0.1850000000000007
100
AcDbArc
 50
324.4212589481
 51
11.9002837999
  0
ARC
  5
165
330
1F
100
AcDbEntity
  8
0
  6
Continuous
 62
     7
370
    15
100
AcDbCircle
 10
7.6876806625
 20
10.475035862
 30
0.0
 40
0.0650000000000013
100
AcDbArc
 50
144.400780041
 51
315.9985181501
  0
ARC
  5
166
330
1F
100
AcDbEntity
  8
0
  6
Continuous
 62
     7
370
    15
100
AcDbCircle
 10
7.8676851447
 20
10.3015470603
 30
0.0
 40
0.1850000000000021
100
AcDbArc
 50
88.5781498557
 51
136.0761574134
  0
ARC
  5
167
330
1F
100
AcDbEntity
  8
0
  6
Continuous
 62
     7
370
    15
100
AcDbCircle
 10
7.6876335942
 20
10.4749870726
 30
0.0
 40
0.185000000000001
100
AcDbArc
 50
316.0498571521
 51
3.5648663441
  0
ARC
  5
168
330
1F
100
AcDbEntity
  8
0
  6
Continuous
 62
     7
370
    15
100
AcDbCircle
 10
7.8676273886
 20
10.3014871198
 30
0.0
 40
0.0649999999999994
100
AcDbArc
 50
136.059757534
 51
307.6656211986
  0
ARC
  5
169
330
1F
100
AcDbEntity
  8
0
  6
Continuous
 62
     7
370
    15
100
AcDbCircle
 10
8.0204669094
 20
10.1036486059
 30
0.0
 40
0.1850000000000027
100
AcDbArc
 50
80.1829518458
 51
127.6955483562
  0
ARC
  5
16A
330
1F
100
AcDbEntity
  8
0
  6
Continuous
 62
     7
370
    15
100
AcDbCircle
 10
7.8676669501
 20
10.3015176808
 30
0.0
 40
0.1850000000000011
100
AcDbArc
 50
307.6720488413
 51
355.1696686027
  0
ARC
  5
16B
330
1F
100
AcDbEntity
  8
0
  6
Continuous
 62
     7
370
    15
100
AcDbCircle
 10
8.0204607239
 20
10.1036438261
 30
0.0
 40
0.0650000000000002
100
AcDbArc
 50
127.6815482634
 51
299.2519087434
  0
ARC
  5
16C
330
1F
100
AcDbEntity
  8
0
  6
Continuous
 62
     7
370
    15
100
AcDbCircle
 10
8.14270819
 20
9.8855714673
 30
0.0
 40
0.1850000000000007
100
AcDbArc
 50
71.7730191814
 51
119.2820465968
  0
ARC
  5
16D
330
1F
100
AcDbEntity
  8
0
  6
Continuous
 62
     7
370
    15
100
AcDbCircle
 10
8.020490542
 20
10.1036605605
 30
0.0
 40
0.1850000000000004
100
AcDbArc
 50
299.2965759413
 51
346.7597294543
  0
ARC
  5
16E
330
1F
100
AcDbEntity
  8
0
  6
Continuous
 62
     7
370
    15
100
AcDbCircle
 10
8.1427789239
 20
9.8856111525
 30
0.0
 40
0.0650000000000008
100
AcDbArc
 50
119.2519087434
 51
290.9487590591
  0
ARC
  5
16F
330
1F
100
AcDbEntity
  8
0
  6
Continuous
 62
     7
370
    15
100
AcDbCircle
 10
8.2321019078
 20
9.652112966
 30
0.0
 40
0.1850000000000045
100
AcDbArc
 50
63.4392392535
 51
110.9287841229
  0
ARC
  5
170
330
1F
100
AcDbEntity
  8
0
  6
Continuous
 62
     7
370
    15
100
AcDbCircle
 10
8.1427845253
 20
9.8856132465
 30
0.0
 40
0.1850000000000004
100
AcDbArc
 50
290.9490876063
 51
338.4259750046
  0
ARC
  5
171
330
1F
100
AcDbEntity
  8
0
  6
Continuous
 62
     7
370
    15
100
AcDbCircle
 10
8.2320812988
 20
9.6521050858
 30
0.0
 40
0.0650000000000004
100
AcDbArc
 50
110.866252148
 51
282.5383761425
  0
ARC
  5
172
330
1F
100
AcDbEntity
  8
0
  6
Continuous
 62
     7
370
    15
100
AcDbCircle
 10
8.2863899823
 20
9.4080752383
 30
0.0
 40
0.1850000000000002
100
AcDbArc
 50
55.0533094998
 51
102.5495805314
  0
ARC
  5
173
330
1F
100
AcDbEntity
  8
0
  6
Continuous
 62
     7
370
    15
100
AcDbCircle
 10
8.2320812988
 20
9.6521050858
 30
0.0
 40
0.1850000000000016
100
AcDbArc
 50
282.5724450042
 51
330.0400252808
  0
ARC
  5
174
330
1F
100
AcDbEntity
  8
0
  6
Continuous
 62
     7
370
    15
100
AcDbCircle
 10
8.2858335281
 20
9.407954774
 30
0.0
 40
0.0649999999999994
100
AcDbArc
 50
101.9714371843
 51
274.7275520839
  0
CIRCLE
  5
175
330
1F
100
AcDbEntity
  8
0
  6
Continuous
 62
     7
370
    15
100
AcDbCircle
 10
5.4360296615
 20
9.1587638083
 30
0.0
 40
0.1562500000000009
  0
CIRCLE
  5
176
330
1F
100
AcDbEntity
  8
0
  6
Continuous
 62
     7
370
    15
100
AcDbCircle
 10
7.7485296615
 20
9.1587638083
 30
0.0
 40
0.1562500000000009
  0
CIRCLE
  5
177
330
1F
100
AcDbEntity
  8
0
  6
Continuous
 62
     7
370
    15
100
AcDbCircle
 10
7.207584193
 20
9.78087741
 30
0.0
 40
0.0679999999999996
  0
CIRCLE
  5
178
330
1F
100
AcDbEntity
  8
0
  6
Continuous
 62
     7
370
    15
100
AcDbCircle
 10
5.9701660597
 20
9.7740683398
 30
0.0
 40
0.0680000000000192
  0
CIRCLE
  5
179
330
1F
100
AcDbEntity
  8
0
  6
Continuous
 62
     7
370
    15
100
AcDbCircle
 10
5.97697513
 20
8.5366502065
 30
0.0
 40
0.0680000000000263
  0
CIRCLE
  5
17A
330
1F
100
AcDbEntity
  8
0
  6
Continuous
 62
     7
370
    15
100
AcDbCircle
 10
7.2143932633
 20
8.5434592768
 30
0.0
 40
0.0680000000000121
  0
ARC
  5
17B
330
1F
100
AcDbEntity
  8
0
  6
Continuous
 62
     7
370
    15
100
AcDbCircle
 10
5.8092608671
 20
7.6358160037
 30
0.0
 40
0.1849999999999998
100
AcDbArc
 50
289.4945608304
 51
336.9943077105
  0
ARC
  5
17C
330
1F
100
AcDbEntity
  8
0
  6
Continuous
 62
     7
370
    15
100
AcDbCircle
 10
6.0393664369
 20
7.5380847889
 30
0.0
 40
0.1849999999999996
100
AcDbArc
 50
157.0027716396
 51
204.4813068247
  0
ARC
  5
17D
330
1F
100
AcDbEntity
  8
0
  6
Continuous
 62
     7
370
    15
100
AcDbCircle
 10
5.8092786696
 20
7.6358579178
 30
0.0
 40
0.065000000000001
100
AcDbArc
 50
336.9055624752
 51
148.5662436465
  0
ARC
  5
17E
330
1F
100
AcDbEntity
  8
0
  6
Continuous
 62
     7
370
    15
100
AcDbCircle
 10
5.5958775621
 20
7.7660883166
 30
0.0
 40
0.1850000000000004
100
AcDbArc
 50
281.1090659819
 51
328.619842007
  0
ARC
  5
17F
330
1F
100
AcDbEntity
  8
0
  6
Continuous
 62
     7
370
    15
100
AcDbCircle
 10
5.8092707486
 20
7.6358450133
 30
0.0
 40
0.1850000000000008
100
AcDbArc
 50
148.633231763
 51
196.0958064903
  0
ARC
  5
180
330
1F
100
AcDbEntity
  8
0
  6
Continuous
 62
     7
370
    15
100
AcDbCircle
 10
5.595864454
 20
7.7660668222
 30
0.0
 40
0.0649999999999997
100
AcDbArc
 50
328.5369794414
 51
140.1944289077
  0
ARC
  5
181
330
1F
100
AcDbEntity
  8
0
  6
Continuous
 62
     7
370
    15
100
AcDbCircle
 10
5.4036646672
 20
7.9259393465
 30
0.0
 40
0.1850000000000011
100
AcDbArc
 50
272.7565894395
 51
320.2643700182
  0
ARC
  5
182
330
1F
100
AcDbEntity
  8
0
  6
Continuous
 62
     7
370
    15
100
AcDbCircle
 10
5.5958749675
 20
7.7660794944
 30
0.0
 40
0.185000000000001
100
AcDbArc
 50
140.2668761641
 51
187.7433285222
  0
ARC
  5
183
330
1F
100
AcDbEntity
  8
0
  6
Continuous
 62
     7
370
    15
100
AcDbCircle
 10
5.40367821
 20
7.9259556363
 30
0.0
 40
0.0649999999999999
100
AcDbArc
 50
320.1831368741
 51
131.8097657075
  0
ARC
  5
184
330
1F
100
AcDbEntity
  8
0
  6
Continuous
 62
     7
370
    15
100
AcDbCircle
 10
5.2368733949
 20
8.1121709452
 30
0.0
 40
0.1849999999999998
100
AcDbArc
 50
264.3564265483
 51
311.8679365921
  0
ARC
  5
185
330
1F
100
AcDbEntity
  8
0
  6
Continuous
 62
     7
370
    15
100
AcDbCircle
 10
5.4036683856
 20
7.9259468218
 30
0.0
 40
0.1849999999999994
100
AcDbArc
 50
131.8633983076
 51
179.343147785
  0
ARC
  5
186
330
1F
100
AcDbEntity
  8
0
  6
Continuous
 62
     7
370
    15
100
AcDbCircle
 10
5.2368686119
 20
8.1121666583
 30
0.0
 40
0.0650000000000006
100
AcDbArc
 50
311.8167093632
 51
123.4203846332
  0
ARC
  5
187
330
1F
100
AcDbEntity
  8
0
  6
Continuous
 62
     7
370
    15
100
AcDbCircle
 10
5.0989480832
 20
8.3206802117
 30
0.0
 40
0.1850000000000004
100
AcDbArc
 50
255.9844323909
 51
303.5043210923
  0
ARC
  5
188
330
1F
100
AcDbEntity
  8
0
  6
Continuous
 62
     7
370
    15
100
AcDbCircle
 10
5.2368515116
 20
8.1121553065
 30
0.0
 40
0.1850000000000011
100
AcDbArc
 50
123.4861019362
 51
170.971154774
  0
ARC
  5
189
330
1F
100
AcDbEntity
  8
0
  6
Continuous
 62
     7
370
    15
100
AcDbCircle
 10
5.0989563344
 20
8.3206856737
 30
0.0
 40
0.0650000000000007
100
AcDbArc
 50
303.4454243521
 51
115.1023298055
  0
ARC
  5
18A
330
1F
100
AcDbEntity
  8
0
  6
Continuous
 62
     7
370
    15
100
AcDbCircle
 10
4.9928078835
 20
8.5470316543
 30
0.0
 40
0.1849999999999998
100
AcDbArc
 50
247.6465019263
 51
295.1329056909
  0
ARC
  5
18B
330
1F
100
AcDbEntity
  8
0
  6
Continuous
 62
     7
370
    15
100
AcDbCircle
 10
5.0990152192
 20
8.3207133143
 30
0.0
 40
0.1849999999999996
100
AcDbArc
 50
115.1585942094
 51
162.6332264403
  0
ARC
  5
18C
330
1F
100
AcDbEntity
  8
0
  6
Continuous
 62
     7
370
    15
100
AcDbCircle
 10
4.9927865192
 20
8.5470216299
 30
0.0
 40
0.0650000000000003
100
AcDbArc
 50
295.1073576225
 51
106.6738471703
  0
ARC
  5
18D
330
1F
100
AcDbEntity
  8
0
  6
Continuous
 62
     7
370
    15
100
AcDbCircle
 10
4.920704663
 20
8.7864045006
 30
0.0
 40
0.1850000000000001
100
AcDbArc
 50
239.263020463
 51
286.787370403
  0
ARC
  5
18E
330
1F
100
AcDbEntity
  8
0
  6
Continuous
 62
     7
370
    15
100
AcDbCircle
 10
4.9927804027
 20
8.5470197319
 30
0.0
 40
0.1850000000000017
100
AcDbArc
 50
106.7387020032
 51
154.2497528828
  0
ARC
  5
18F
330
1F
100
AcDbEntity
  8
0
  6
Continuous
 62
     7
370
    15
100
AcDbCircle
 10
4.9207846913
 20
8.7864286236
 30
0.0
 40
0.0649999999999994
100
AcDbArc
 50
286.7330420649
 51
98.3427248777
  0
ARC
  5
190
330
1F
100
AcDbEntity
  8
0
  6
Continuous
 62
     7
370
    15
100
AcDbCircle
 10
4.8843158092
 20
9.0337543338
 30
0.0
 40
0.1850000000000008
100
AcDbArc
 50
230.8872012757
 51
278.4038849161
  0
ARC
  5
191
330
1F
100
AcDbEntity
  8
0
  6
Continuous
 62
     7
370
    15
100
AcDbCircle
 10
4.9207526797
 20
8.7864239216
 30
0.0
 40
0.1849999999999998
100
AcDbArc
 50
98.3522160023
 51
145.8739348454
  0
ARC
  5
192
330
1F
100
AcDbEntity
  8
0
  6
Continuous
 62
     7
370
    15
100
AcDbCircle
 10
4.8843796615
 20
9.0337638083
 30
0.0
 40
0.065000051918856
100
AcDbArc
 50
278.4043620413
 51
89.9119003873
  0
ARC
  5
193
330
1F
100
AcDbEntity
  8
0
  6
Continuous
 62
     7
370
    15
100
AcDbCircle
 10
4.8844544051
 20
9.2837637816
 30
0.0
 40
0.1850000000000012
100
AcDbArc
 50
222.4895090865
 51
270.0078053272
  0
ARC
  5
194
330
1F
100
AcDbEntity
  8
0
  6
Continuous
 62
     7
370
    15
100
AcDbCircle
 10
4.8843796615
 20
9.0337638083
 30
0.0
 40
0.1850000000000005
100
AcDbArc
 50
89.9999996898
 51
137.4762309779
  0
ARC
  5
195
330
1F
100
AcDbEntity
  8
0
  6
Continuous
 62
     7
370
    15
100
AcDbCircle
 10
4.8843796615
 20
9.2837638083
 30
0.0
 40
0.0649999999999996
100
AcDbArc
 50
270.0000008828
 51
81.5827344524
  0
ARC
  5
196
330
1F
100
AcDbEntity
  8
0
  6
Continuous
 62
     7
370
    15
100
AcDbCircle
 10
4.9208202586
 20
9.5310936979
 30
0.0
 40
0.1850000000000005
100
AcDbArc
 50
214.1177772374
 51
261.6311602328
  0
ARC
  5
197
330
1F
100
AcDbEntity
  8
0
  6
Continuous
 62
     7
370
    15
100
AcDbCircle
 10
4.884347571
 20
9.2837685257
 30
0.0
 40
0.1850000000000009
100
AcDbArc
 50
81.6321764311
 51
129.1044945349
  0
ARC
  5
198
330
1F
100
AcDbEntity
  8
0
  6
Continuous
 62
     7
370
    15
100
AcDbCircle
 10
4.9207849218
 20
9.5310988928
 30
0.0
 40
0.0650000000000004
100
AcDbArc
 50
261.5827344524
 51
73.1569668367
  0
ARC
  5
199
330
1F
100
AcDbEntity
  8
0
  6
Continuous
 62
     7
370
    15
100
AcDbCircle
 10
4.9929185373
 20
9.7704661965
 30
0.0
 40
0.1850000000000014
100
AcDbArc
 50
205.7349508368
 51
253.2553337931
  0
ARC
  5
19A
330
1F
100
AcDbEntity
  8
0
  6
Continuous
 62
     7
370
    15
100
AcDbCircle
 10
4.9207787542
 20
9.5311005969
 30
0.0
 40
0.1849999999999998
100
AcDbArc
 50
73.2571643594
 51
120.721633797
  0
ARC
  5
19B
330
1F
100
AcDbEntity
  8
0
  6
Continuous
 62
     7
370
    15
100
AcDbCircle
 10
4.9927872469
 20
9.7705056441
 30
0.0
 40
0.0650000000000005
100
AcDbArc
 50
253.2669579351
 51
64.817681894
  0
ARC
  5
19C
330
1F
100
AcDbEntity
  8
0
  6
Continuous
 62
     7
370
    15
100
AcDbCircle
 10
5.0988906317
 20
9.9968726914
 30
0.0
 40
0.1850000000000019
100
AcDbArc
 50
197.4079917185
 51
244.9106052695
  0
ARC
  5
19D
330
1F
100
AcDbEntity
  8
0
  6
Continuous
 62
     7
370
    15
100
AcDbCircle
 10
4.9928461325
 20
9.7704780041
 30
0.0
 40
0.1850000000000008
100
AcDbArc
 50
64.8947504926
 51
112.3947153192
  0
ARC
  5
19E
330
1F
100
AcDbEntity
  8
0
  6
Continuous
 62
     7
370
    15
100
AcDbCircle
 10
5.0989573386
 20
9.9968414424
 30
0.0
 40
0.0650000000000006
100
AcDbArc
 50
244.8552143693
 51
56.5058984632
  0
ARC
  5
19F
330
1F
100
AcDbEntity
  8
0
  6
Continuous
 62
     7
370
    15
100
AcDbCircle
 10
5.2368575888
 20
10.2053684647
 30
0.0
 40
0.1850000000000008
100
AcDbArc
 50
189.0249688812
 51
236.5291189341
  0
ARC
  5
1A0
330
1F
100
AcDbEntity
  8
0
  6
Continuous
 62
     7
370
    15
100
AcDbCircle
 10
5.0989400621
 20
9.9968528921
 30
0.0
 40
0.1850000000000031
100
AcDbArc
 50
56.5010327496
 51
104.0116942008
  0
ARC
  5
1A1
330
1F
100
AcDbEntity
  8
0
  6
Continuous
 62
     7
370
    15
100
AcDbCircle
 10
5.2368698822
 20
10.2053603362
 30
0.0
 40
0.0650000000000001
100
AcDbArc
 50
236.5545756479
 51
48.1243982547
  0
ENDSEC
  0
SECTION
  2
OBJECTS
  0
DICTIONARY
  5
C
330
0
100
AcDbDictionary
281
     1
  3
ACAD_GROUP
350
D
  3
ACAD_LAYOUT
350
1A
  3
ACAD_MLINESTYLE
350
17
  3
ACAD_PLOTSETTINGS
350
19
  3
ACAD_PLOTSTYLENAME
350
E
  0
DICTIONARY
  5
D
102
{ACAD_REACTORS
330
C
102
}
330
C
100
AcDbDictionary
281
     1
  0
DICTIONARY
  5
1A
102
{ACAD_REACTORS
330
C
102
}
330
C
100
AcDbDictionary
281
     1
  3
Layout1
350
1E
  3
Layout2
350
26
  3
Model
350
22
  0
DICTIONARY
  5
17
102
{ACAD_REACTORS
330
C
102
}
330
C
100
AcDbDictionary
281
     1
  3
Standard
350
18
  0
DICTIONARY
  5
19
102
{ACAD_REACTORS
330
C
102
}
330
C
100
AcDbDictionary
281
     1
  0
ACDBDICTIONARYWDFLT
  5
E
102
{ACAD_REACTORS
330
C
102
}
330
C
100
AcDbDictionary
281
     1
  3
Normal
350
F
100
AcDbDictionaryWithDefault
340
F
  0
LAYOUT
  5
1E
102
{ACAD_REACTORS
330
1A
102
}
330
1A
100
AcDbPlotSettings
  1

  2
none_device
  4

  6

 40
0.0
 41
0.0
 42
0.0
 43
0.0
 44
0.0
 45
0.0
 46
0.0
 47
0.0
 48
0.0
 49
0.0
140
0.0
141
0.0
142
1.0
143
1.0
 70
   688
 72
     0
 73
     0
 74
     5
  7

 75
    16
147
1.0
148
0.0
149
0.0
100
AcDbLayout
  1
Layout1
 70
     1
 71
     1
 10
0.0
 20
0.0
 11
12.0
 21
9.0
 12
0.0
 22
0.0
 32
0.0
 14
1.0000000000E+20
 24
1.0000000000E+20
 34
1.0000000000E+20
 15
-1.0000000000E+20
 25
-1.0000000000E+20
 35
-1.0000000000E+20
146
0.0
 13
0.0
 23
0.0
 33
0.0
 16
1.0
 26
0.0
 36
0.0
 17
0.0
 27
1.0
 37
0.0
 76
     0
330
1B
  0
LAYOUT
  5
26
102
{ACAD_REACTORS
330
1A
102
}
330
1A
100
AcDbPlotSettings
  1

  2
none_device
  4

  6

 40
0.0
 41
0.0
 42
0.0
 43
0.0
 44
0.0
 45
0.0
 46
0.0
 47
0.0
 48
0.0
 49
0.0
140
0.0
141
0.0
142
1.0
143
1.0
 70
   688
 72
     0
 73
     0
 74
     5
  7

 75
    16
147
1.0
148
0.0
149
0.0
100
AcDbLayout
  1
Layout2
 70
     1
 71
     2
 10
0.0
 20
0.0
 11
0.0
 21
0.0
 12
0.0
 22
0.0
 32
0.0
 14
0.0
 24
0.0
 34
0.0
 15
0.0
 25
0.0
 35
0.0
146
0.0
 13
0.0
 23
0.0
 33
0.0
 16
1.0
 26
0.0
 36
0.0
 17
0.0
 27
1.0
 37
0.0
 76
     0
330
23
  0
LAYOUT
  5
22
102
{ACAD_REACTORS
330
1A
102
}
330
1A
100
AcDbPlotSettings
  1

  2
none_device
  4

  6

 40
0.0
 41
0.0
 42
0.0
 43
0.0
 44
0.0
 45
0.0
 46
0.0
 47
0.0
 48
0.0
 49
0.0
140
0.0
141
0.0
142
1.0
143
1.0
 70
  1712
 72
     0
 73
     0
 74
     0
  7

 75
     0
147
1.0
148
0.0
149
0.0
100
AcDbLayout
  1
Model
 70
     1
 71
     0
 10
0.0
 20
0.0
 11
12.0
 21
12.0
 12
0.0
 22
0.0
 32
0.0
 14
0.0
 24
0.0
 34
0.0
 15
12.0
 25
12.0
 35
0.0
146
0.0
 13
0.0
 23
0.0
 33
0.0
 16
1.0
 26
0.0
 36
0.0
 17
0.0
 27
1.0
 37
0.0
 76
     0
330
1F
331
29
  0
MLINESTYLE
  5
18
102
{ACAD_REACTORS
330
17
102
}
330
17
100
AcDbMlineStyle
  2
Standard
 70
     0
  3

 62
   256
 51
90.0
 52
90.0
 71
     2
 49
0.5
 62
   256
  6
BYLAYER
 49
-0.5
 62
   256
  6
BYLAYER
  0
ACDBPLACEHOLDER
  5
F
102
{ACAD_REACTORS
330
E
102
}
330
E
  0
ENDSEC
  0
EOF
